ISO-10303-21;
HEADER;
/* Generated by software containing ST-Developer
 * from STEP Tools, Inc. (www.steptools.com) 
 */
/* OPTION: strings as raw bytes, not using required /X/ escapes */

FILE_DESCRIPTION(
/* description */ ('Unknown'),
/* implementation_level */ '2;1');

FILE_NAME(
/* name */ 'Batteria',
/* time_stamp */ '2024-01-05T19:18:47+01:00',
/* author */ ('Unknown'),
/* organization */ ('Unknown'),
/* preprocessor_version */ 'ST-DEVELOPER v18.102',
/* originating_system */ 'Solid Edge',
/* authorisation */ 'Unknown');

FILE_SCHEMA (('AUTOMOTIVE_DESIGN {1 0 10303 214 3 1 1}'));
ENDSEC;

DATA;
#10=PROPERTY_DEFINITION_REPRESENTATION(#14,#12);
#11=PROPERTY_DEFINITION_REPRESENTATION(#15,#13);
#12=REPRESENTATION('',(#16),#653);
#13=REPRESENTATION('',(#17),#653);
#14=PROPERTY_DEFINITION('pmi validation property','',#658);
#15=PROPERTY_DEFINITION('pmi validation property','',#658);
#16=VALUE_REPRESENTATION_ITEM('number of annotations',COUNT_MEASURE(0.));
#17=VALUE_REPRESENTATION_ITEM('number of views',COUNT_MEASURE(0.));
#18=SHAPE_REPRESENTATION_RELATIONSHIP('','',#375,#19);
#19=ADVANCED_BREP_SHAPE_REPRESENTATION('',(#373),#653);
#20=SPHERICAL_SURFACE('',#398,1.);
#21=SPHERICAL_SURFACE('',#400,1.);
#22=SPHERICAL_SURFACE('',#406,1.);
#23=SPHERICAL_SURFACE('',#408,1.);
#24=SPHERICAL_SURFACE('',#414,1.);
#25=SPHERICAL_SURFACE('',#416,1.);
#26=SPHERICAL_SURFACE('',#422,1.);
#27=SPHERICAL_SURFACE('',#424,1.);
#28=CIRCLE('',#384,1.);
#29=CIRCLE('',#385,1.);
#30=CIRCLE('',#387,1.);
#31=CIRCLE('',#388,1.);
#32=CIRCLE('',#390,1.);
#33=CIRCLE('',#391,1.);
#34=CIRCLE('',#393,1.);
#35=CIRCLE('',#394,1.);
#36=CIRCLE('',#396,1.);
#37=CIRCLE('',#397,1.);
#38=CIRCLE('',#399,1.);
#39=CIRCLE('',#401,1.);
#40=CIRCLE('',#403,1.);
#41=CIRCLE('',#405,1.);
#42=CIRCLE('',#407,1.);
#43=CIRCLE('',#409,1.);
#44=CIRCLE('',#412,1.);
#45=CIRCLE('',#413,1.);
#46=CIRCLE('',#415,1.);
#47=CIRCLE('',#417,1.);
#48=CIRCLE('',#419,1.);
#49=CIRCLE('',#421,1.);
#50=CIRCLE('',#423,1.);
#51=CIRCLE('',#425,1.);
#52=CYLINDRICAL_SURFACE('',#383,1.);
#53=CYLINDRICAL_SURFACE('',#386,1.);
#54=CYLINDRICAL_SURFACE('',#389,1.);
#55=CYLINDRICAL_SURFACE('',#392,1.);
#56=CYLINDRICAL_SURFACE('',#395,1.);
#57=CYLINDRICAL_SURFACE('',#402,1.);
#58=CYLINDRICAL_SURFACE('',#404,1.);
#59=CYLINDRICAL_SURFACE('',#410,1.);
#60=CYLINDRICAL_SURFACE('',#411,1.);
#61=CYLINDRICAL_SURFACE('',#418,1.);
#62=CYLINDRICAL_SURFACE('',#420,1.);
#63=CYLINDRICAL_SURFACE('',#426,1.);
#64=ORIENTED_EDGE('',*,*,#160,.T.);
#65=ORIENTED_EDGE('',*,*,#161,.T.);
#66=ORIENTED_EDGE('',*,*,#162,.T.);
#67=ORIENTED_EDGE('',*,*,#163,.T.);
#68=ORIENTED_EDGE('',*,*,#164,.T.);
#69=ORIENTED_EDGE('',*,*,#165,.T.);
#70=ORIENTED_EDGE('',*,*,#166,.T.);
#71=ORIENTED_EDGE('',*,*,#167,.T.);
#72=ORIENTED_EDGE('',*,*,#168,.T.);
#73=ORIENTED_EDGE('',*,*,#169,.T.);
#74=ORIENTED_EDGE('',*,*,#170,.T.);
#75=ORIENTED_EDGE('',*,*,#171,.T.);
#76=ORIENTED_EDGE('',*,*,#172,.T.);
#77=ORIENTED_EDGE('',*,*,#173,.T.);
#78=ORIENTED_EDGE('',*,*,#174,.T.);
#79=ORIENTED_EDGE('',*,*,#175,.T.);
#80=ORIENTED_EDGE('',*,*,#176,.T.);
#81=ORIENTED_EDGE('',*,*,#177,.T.);
#82=ORIENTED_EDGE('',*,*,#178,.T.);
#83=ORIENTED_EDGE('',*,*,#179,.T.);
#84=ORIENTED_EDGE('',*,*,#180,.T.);
#85=ORIENTED_EDGE('',*,*,#181,.T.);
#86=ORIENTED_EDGE('',*,*,#182,.T.);
#87=ORIENTED_EDGE('',*,*,#183,.T.);
#88=ORIENTED_EDGE('',*,*,#162,.F.);
#89=ORIENTED_EDGE('',*,*,#184,.T.);
#90=ORIENTED_EDGE('',*,*,#164,.F.);
#91=ORIENTED_EDGE('',*,*,#185,.T.);
#92=ORIENTED_EDGE('',*,*,#170,.F.);
#93=ORIENTED_EDGE('',*,*,#186,.T.);
#94=ORIENTED_EDGE('',*,*,#172,.F.);
#95=ORIENTED_EDGE('',*,*,#187,.T.);
#96=ORIENTED_EDGE('',*,*,#174,.F.);
#97=ORIENTED_EDGE('',*,*,#188,.T.);
#98=ORIENTED_EDGE('',*,*,#160,.F.);
#99=ORIENTED_EDGE('',*,*,#189,.T.);
#100=ORIENTED_EDGE('',*,*,#166,.F.);
#101=ORIENTED_EDGE('',*,*,#190,.T.);
#102=ORIENTED_EDGE('',*,*,#168,.F.);
#103=ORIENTED_EDGE('',*,*,#191,.T.);
#104=ORIENTED_EDGE('',*,*,#192,.F.);
#105=ORIENTED_EDGE('',*,*,#163,.F.);
#106=ORIENTED_EDGE('',*,*,#193,.F.);
#107=ORIENTED_EDGE('',*,*,#179,.F.);
#108=ORIENTED_EDGE('',*,*,#193,.T.);
#109=ORIENTED_EDGE('',*,*,#185,.F.);
#110=ORIENTED_EDGE('',*,*,#194,.F.);
#111=ORIENTED_EDGE('',*,*,#189,.F.);
#112=ORIENTED_EDGE('',*,*,#192,.T.);
#113=ORIENTED_EDGE('',*,*,#195,.F.);
#114=ORIENTED_EDGE('',*,*,#194,.T.);
#115=ORIENTED_EDGE('',*,*,#167,.F.);
#116=ORIENTED_EDGE('',*,*,#196,.F.);
#117=ORIENTED_EDGE('',*,*,#176,.F.);
#118=ORIENTED_EDGE('',*,*,#195,.T.);
#119=ORIENTED_EDGE('',*,*,#178,.F.);
#120=ORIENTED_EDGE('',*,*,#197,.F.);
#121=ORIENTED_EDGE('',*,*,#175,.F.);
#122=ORIENTED_EDGE('',*,*,#196,.T.);
#123=ORIENTED_EDGE('',*,*,#191,.F.);
#124=ORIENTED_EDGE('',*,*,#198,.F.);
#125=ORIENTED_EDGE('',*,*,#187,.F.);
#126=ORIENTED_EDGE('',*,*,#197,.T.);
#127=ORIENTED_EDGE('',*,*,#199,.F.);
#128=ORIENTED_EDGE('',*,*,#198,.T.);
#129=ORIENTED_EDGE('',*,*,#171,.F.);
#130=ORIENTED_EDGE('',*,*,#199,.T.);
#131=ORIENTED_EDGE('',*,*,#177,.F.);
#132=ORIENTED_EDGE('',*,*,#200,.F.);
#133=ORIENTED_EDGE('',*,*,#161,.F.);
#134=ORIENTED_EDGE('',*,*,#201,.F.);
#135=ORIENTED_EDGE('',*,*,#183,.F.);
#136=ORIENTED_EDGE('',*,*,#184,.F.);
#137=ORIENTED_EDGE('',*,*,#200,.T.);
#138=ORIENTED_EDGE('',*,*,#202,.F.);
#139=ORIENTED_EDGE('',*,*,#201,.T.);
#140=ORIENTED_EDGE('',*,*,#188,.F.);
#141=ORIENTED_EDGE('',*,*,#203,.F.);
#142=ORIENTED_EDGE('',*,*,#202,.T.);
#143=ORIENTED_EDGE('',*,*,#182,.F.);
#144=ORIENTED_EDGE('',*,*,#204,.F.);
#145=ORIENTED_EDGE('',*,*,#165,.F.);
#146=ORIENTED_EDGE('',*,*,#203,.T.);
#147=ORIENTED_EDGE('',*,*,#173,.F.);
#148=ORIENTED_EDGE('',*,*,#205,.F.);
#149=ORIENTED_EDGE('',*,*,#180,.F.);
#150=ORIENTED_EDGE('',*,*,#190,.F.);
#151=ORIENTED_EDGE('',*,*,#204,.T.);
#152=ORIENTED_EDGE('',*,*,#206,.F.);
#153=ORIENTED_EDGE('',*,*,#205,.T.);
#154=ORIENTED_EDGE('',*,*,#186,.F.);
#155=ORIENTED_EDGE('',*,*,#207,.F.);
#156=ORIENTED_EDGE('',*,*,#206,.T.);
#157=ORIENTED_EDGE('',*,*,#181,.F.);
#158=ORIENTED_EDGE('',*,*,#207,.T.);
#159=ORIENTED_EDGE('',*,*,#169,.F.);
#160=EDGE_CURVE('',#208,#209,#232,.T.);
#161=EDGE_CURVE('',#209,#210,#233,.T.);
#162=EDGE_CURVE('',#210,#211,#234,.F.);
#163=EDGE_CURVE('',#211,#208,#235,.F.);
#164=EDGE_CURVE('',#212,#213,#236,.T.);
#165=EDGE_CURVE('',#213,#214,#237,.T.);
#166=EDGE_CURVE('',#214,#215,#238,.F.);
#167=EDGE_CURVE('',#215,#212,#239,.F.);
#168=EDGE_CURVE('',#216,#217,#240,.T.);
#169=EDGE_CURVE('',#217,#218,#241,.T.);
#170=EDGE_CURVE('',#218,#219,#242,.F.);
#171=EDGE_CURVE('',#219,#216,#243,.F.);
#172=EDGE_CURVE('',#220,#221,#244,.T.);
#173=EDGE_CURVE('',#221,#222,#245,.T.);
#174=EDGE_CURVE('',#222,#223,#246,.F.);
#175=EDGE_CURVE('',#223,#220,#247,.F.);
#176=EDGE_CURVE('',#224,#225,#248,.T.);
#177=EDGE_CURVE('',#225,#226,#249,.T.);
#178=EDGE_CURVE('',#226,#227,#250,.T.);
#179=EDGE_CURVE('',#227,#224,#251,.T.);
#180=EDGE_CURVE('',#228,#229,#252,.F.);
#181=EDGE_CURVE('',#229,#230,#253,.F.);
#182=EDGE_CURVE('',#230,#231,#254,.F.);
#183=EDGE_CURVE('',#231,#228,#255,.F.);
#184=EDGE_CURVE('',#210,#213,#28,.F.);
#185=EDGE_CURVE('',#212,#211,#29,.T.);
#186=EDGE_CURVE('',#218,#221,#30,.F.);
#187=EDGE_CURVE('',#220,#219,#31,.T.);
#188=EDGE_CURVE('',#222,#209,#32,.F.);
#189=EDGE_CURVE('',#208,#223,#33,.T.);
#190=EDGE_CURVE('',#214,#217,#34,.F.);
#191=EDGE_CURVE('',#216,#215,#35,.T.);
#192=EDGE_CURVE('',#208,#227,#36,.T.);
#193=EDGE_CURVE('',#224,#211,#37,.T.);
#194=EDGE_CURVE('',#224,#212,#38,.T.);
#195=EDGE_CURVE('',#223,#227,#39,.T.);
#196=EDGE_CURVE('',#225,#215,#40,.T.);
#197=EDGE_CURVE('',#220,#226,#41,.T.);
#198=EDGE_CURVE('',#225,#216,#42,.T.);
#199=EDGE_CURVE('',#219,#226,#43,.T.);
#200=EDGE_CURVE('',#210,#231,#44,.T.);
#201=EDGE_CURVE('',#228,#209,#45,.T.);
#202=EDGE_CURVE('',#213,#231,#46,.T.);
#203=EDGE_CURVE('',#228,#222,#47,.T.);
#204=EDGE_CURVE('',#214,#230,#48,.T.);
#205=EDGE_CURVE('',#229,#221,#49,.T.);
#206=EDGE_CURVE('',#217,#230,#50,.T.);
#207=EDGE_CURVE('',#229,#218,#51,.T.);
#208=VERTEX_POINT('',#556);
#209=VERTEX_POINT('',#557);
#210=VERTEX_POINT('',#559);
#211=VERTEX_POINT('',#561);
#212=VERTEX_POINT('',#565);
#213=VERTEX_POINT('',#566);
#214=VERTEX_POINT('',#568);
#215=VERTEX_POINT('',#570);
#216=VERTEX_POINT('',#574);
#217=VERTEX_POINT('',#575);
#218=VERTEX_POINT('',#577);
#219=VERTEX_POINT('',#579);
#220=VERTEX_POINT('',#583);
#221=VERTEX_POINT('',#584);
#222=VERTEX_POINT('',#586);
#223=VERTEX_POINT('',#588);
#224=VERTEX_POINT('',#592);
#225=VERTEX_POINT('',#593);
#226=VERTEX_POINT('',#595);
#227=VERTEX_POINT('',#597);
#228=VERTEX_POINT('',#601);
#229=VERTEX_POINT('',#602);
#230=VERTEX_POINT('',#604);
#231=VERTEX_POINT('',#606);
#232=LINE('',#555,#256);
#233=LINE('',#558,#257);
#234=LINE('',#560,#258);
#235=LINE('',#562,#259);
#236=LINE('',#564,#260);
#237=LINE('',#567,#261);
#238=LINE('',#569,#262);
#239=LINE('',#571,#263);
#240=LINE('',#573,#264);
#241=LINE('',#576,#265);
#242=LINE('',#578,#266);
#243=LINE('',#580,#267);
#244=LINE('',#582,#268);
#245=LINE('',#585,#269);
#246=LINE('',#587,#270);
#247=LINE('',#589,#271);
#248=LINE('',#591,#272);
#249=LINE('',#594,#273);
#250=LINE('',#596,#274);
#251=LINE('',#598,#275);
#252=LINE('',#600,#276);
#253=LINE('',#603,#277);
#254=LINE('',#605,#278);
#255=LINE('',#607,#279);
#256=VECTOR('',#431,1000.);
#257=VECTOR('',#432,1000.);
#258=VECTOR('',#433,1000.);
#259=VECTOR('',#434,1000.);
#260=VECTOR('',#437,1000.);
#261=VECTOR('',#438,1000.);
#262=VECTOR('',#439,1000.);
#263=VECTOR('',#440,1000.);
#264=VECTOR('',#443,1000.);
#265=VECTOR('',#444,1000.);
#266=VECTOR('',#445,1000.);
#267=VECTOR('',#446,1000.);
#268=VECTOR('',#449,1000.);
#269=VECTOR('',#450,1000.);
#270=VECTOR('',#451,1000.);
#271=VECTOR('',#452,1000.);
#272=VECTOR('',#455,1000.);
#273=VECTOR('',#456,1000.);
#274=VECTOR('',#457,1000.);
#275=VECTOR('',#458,1000.);
#276=VECTOR('',#461,1000.);
#277=VECTOR('',#462,1000.);
#278=VECTOR('',#463,1000.);
#279=VECTOR('',#464,1000.);
#280=EDGE_LOOP('',(#64,#65,#66,#67));
#281=EDGE_LOOP('',(#68,#69,#70,#71));
#282=EDGE_LOOP('',(#72,#73,#74,#75));
#283=EDGE_LOOP('',(#76,#77,#78,#79));
#284=EDGE_LOOP('',(#80,#81,#82,#83));
#285=EDGE_LOOP('',(#84,#85,#86,#87));
#286=EDGE_LOOP('',(#88,#89,#90,#91));
#287=EDGE_LOOP('',(#92,#93,#94,#95));
#288=EDGE_LOOP('',(#96,#97,#98,#99));
#289=EDGE_LOOP('',(#100,#101,#102,#103));
#290=EDGE_LOOP('',(#104,#105,#106,#107));
#291=EDGE_LOOP('',(#108,#109,#110));
#292=EDGE_LOOP('',(#111,#112,#113));
#293=EDGE_LOOP('',(#114,#115,#116,#117));
#294=EDGE_LOOP('',(#118,#119,#120,#121));
#295=EDGE_LOOP('',(#122,#123,#124));
#296=EDGE_LOOP('',(#125,#126,#127));
#297=EDGE_LOOP('',(#128,#129,#130,#131));
#298=EDGE_LOOP('',(#132,#133,#134,#135));
#299=EDGE_LOOP('',(#136,#137,#138));
#300=EDGE_LOOP('',(#139,#140,#141));
#301=EDGE_LOOP('',(#142,#143,#144,#145));
#302=EDGE_LOOP('',(#146,#147,#148,#149));
#303=EDGE_LOOP('',(#150,#151,#152));
#304=EDGE_LOOP('',(#153,#154,#155));
#305=EDGE_LOOP('',(#156,#157,#158,#159));
#306=FACE_BOUND('',#280,.T.);
#307=FACE_BOUND('',#281,.T.);
#308=FACE_BOUND('',#282,.T.);
#309=FACE_BOUND('',#283,.T.);
#310=FACE_BOUND('',#284,.T.);
#311=FACE_BOUND('',#285,.T.);
#312=FACE_BOUND('',#286,.T.);
#313=FACE_BOUND('',#287,.T.);
#314=FACE_BOUND('',#288,.T.);
#315=FACE_BOUND('',#289,.T.);
#316=FACE_BOUND('',#290,.T.);
#317=FACE_BOUND('',#291,.T.);
#318=FACE_BOUND('',#292,.T.);
#319=FACE_BOUND('',#293,.T.);
#320=FACE_BOUND('',#294,.T.);
#321=FACE_BOUND('',#295,.T.);
#322=FACE_BOUND('',#296,.T.);
#323=FACE_BOUND('',#297,.T.);
#324=FACE_BOUND('',#298,.T.);
#325=FACE_BOUND('',#299,.T.);
#326=FACE_BOUND('',#300,.T.);
#327=FACE_BOUND('',#301,.T.);
#328=FACE_BOUND('',#302,.T.);
#329=FACE_BOUND('',#303,.T.);
#330=FACE_BOUND('',#304,.T.);
#331=FACE_BOUND('',#305,.T.);
#332=PLANE('',#377);
#333=PLANE('',#378);
#334=PLANE('',#379);
#335=PLANE('',#380);
#336=PLANE('',#381);
#337=PLANE('',#382);
#338=ADVANCED_FACE('',(#306),#332,.F.);
#339=ADVANCED_FACE('',(#307),#333,.F.);
#340=ADVANCED_FACE('',(#308),#334,.F.);
#341=ADVANCED_FACE('',(#309),#335,.F.);
#342=ADVANCED_FACE('',(#310),#336,.T.);
#343=ADVANCED_FACE('',(#311),#337,.F.);
#344=ADVANCED_FACE('',(#312),#52,.T.);
#345=ADVANCED_FACE('',(#313),#53,.T.);
#346=ADVANCED_FACE('',(#314),#54,.T.);
#347=ADVANCED_FACE('',(#315),#55,.T.);
#348=ADVANCED_FACE('',(#316),#56,.T.);
#349=ADVANCED_FACE('',(#317),#20,.T.);
#350=ADVANCED_FACE('',(#318),#21,.T.);
#351=ADVANCED_FACE('',(#319),#57,.T.);
#352=ADVANCED_FACE('',(#320),#58,.T.);
#353=ADVANCED_FACE('',(#321),#22,.T.);
#354=ADVANCED_FACE('',(#322),#23,.T.);
#355=ADVANCED_FACE('',(#323),#59,.T.);
#356=ADVANCED_FACE('',(#324),#60,.T.);
#357=ADVANCED_FACE('',(#325),#24,.T.);
#358=ADVANCED_FACE('',(#326),#25,.T.);
#359=ADVANCED_FACE('',(#327),#61,.T.);
#360=ADVANCED_FACE('',(#328),#62,.T.);
#361=ADVANCED_FACE('',(#329),#26,.T.);
#362=ADVANCED_FACE('',(#330),#27,.T.);
#363=ADVANCED_FACE('',(#331),#63,.T.);
#364=CLOSED_SHELL('',(#338,#339,#340,#341,#342,#343,#344,#345,#346,#347,
#348,#349,#350,#351,#352,#353,#354,#355,#356,#357,#358,#359,#360,#361,#362,
#363));
#365=STYLED_ITEM('',(#366),#373);
#366=PRESENTATION_STYLE_ASSIGNMENT((#367));
#367=SURFACE_STYLE_USAGE(.BOTH.,#368);
#368=SURFACE_SIDE_STYLE('',(#369));
#369=SURFACE_STYLE_FILL_AREA(#370);
#370=FILL_AREA_STYLE('',(#371));
#371=FILL_AREA_STYLE_COLOUR('',#372);
#372=COLOUR_RGB('',0.200000002980232,0.200000002980232,0.200000002980232);
#373=MANIFOLD_SOLID_BREP('',#364);
#374=SHAPE_DEFINITION_REPRESENTATION(#658,#375);
#375=SHAPE_REPRESENTATION('Batteria',(#376),#653);
#376=AXIS2_PLACEMENT_3D('',#553,#427,#428);
#377=AXIS2_PLACEMENT_3D('',#554,#429,#430);
#378=AXIS2_PLACEMENT_3D('',#563,#435,#436);
#379=AXIS2_PLACEMENT_3D('',#572,#441,#442);
#380=AXIS2_PLACEMENT_3D('',#581,#447,#448);
#381=AXIS2_PLACEMENT_3D('',#590,#453,#454);
#382=AXIS2_PLACEMENT_3D('',#599,#459,#460);
#383=AXIS2_PLACEMENT_3D('',#608,#465,#466);
#384=AXIS2_PLACEMENT_3D('',#609,#467,#468);
#385=AXIS2_PLACEMENT_3D('',#610,#469,#470);
#386=AXIS2_PLACEMENT_3D('',#611,#471,#472);
#387=AXIS2_PLACEMENT_3D('',#612,#473,#474);
#388=AXIS2_PLACEMENT_3D('',#613,#475,#476);
#389=AXIS2_PLACEMENT_3D('',#614,#477,#478);
#390=AXIS2_PLACEMENT_3D('',#615,#479,#480);
#391=AXIS2_PLACEMENT_3D('',#616,#481,#482);
#392=AXIS2_PLACEMENT_3D('',#617,#483,#484);
#393=AXIS2_PLACEMENT_3D('',#618,#485,#486);
#394=AXIS2_PLACEMENT_3D('',#619,#487,#488);
#395=AXIS2_PLACEMENT_3D('',#620,#489,#490);
#396=AXIS2_PLACEMENT_3D('',#621,#491,#492);
#397=AXIS2_PLACEMENT_3D('',#622,#493,#494);
#398=AXIS2_PLACEMENT_3D('',#623,#495,#496);
#399=AXIS2_PLACEMENT_3D('',#624,#497,#498);
#400=AXIS2_PLACEMENT_3D('',#625,#499,#500);
#401=AXIS2_PLACEMENT_3D('',#626,#501,#502);
#402=AXIS2_PLACEMENT_3D('',#627,#503,#504);
#403=AXIS2_PLACEMENT_3D('',#628,#505,#506);
#404=AXIS2_PLACEMENT_3D('',#629,#507,#508);
#405=AXIS2_PLACEMENT_3D('',#630,#509,#510);
#406=AXIS2_PLACEMENT_3D('',#631,#511,#512);
#407=AXIS2_PLACEMENT_3D('',#632,#513,#514);
#408=AXIS2_PLACEMENT_3D('',#633,#515,#516);
#409=AXIS2_PLACEMENT_3D('',#634,#517,#518);
#410=AXIS2_PLACEMENT_3D('',#635,#519,#520);
#411=AXIS2_PLACEMENT_3D('',#636,#521,#522);
#412=AXIS2_PLACEMENT_3D('',#637,#523,#524);
#413=AXIS2_PLACEMENT_3D('',#638,#525,#526);
#414=AXIS2_PLACEMENT_3D('',#639,#527,#528);
#415=AXIS2_PLACEMENT_3D('',#640,#529,#530);
#416=AXIS2_PLACEMENT_3D('',#641,#531,#532);
#417=AXIS2_PLACEMENT_3D('',#642,#533,#534);
#418=AXIS2_PLACEMENT_3D('',#643,#535,#536);
#419=AXIS2_PLACEMENT_3D('',#644,#537,#538);
#420=AXIS2_PLACEMENT_3D('',#645,#539,#540);
#421=AXIS2_PLACEMENT_3D('',#646,#541,#542);
#422=AXIS2_PLACEMENT_3D('',#647,#543,#544);
#423=AXIS2_PLACEMENT_3D('',#648,#545,#546);
#424=AXIS2_PLACEMENT_3D('',#649,#547,#548);
#425=AXIS2_PLACEMENT_3D('',#650,#549,#550);
#426=AXIS2_PLACEMENT_3D('',#651,#551,#552);
#427=DIRECTION('',(0.,0.,1.));
#428=DIRECTION('',(1.,0.,0.));
#429=DIRECTION('',(0.,1.,0.));
#430=DIRECTION('',(0.,0.,1.));
#431=DIRECTION('',(0.,0.,-1.));
#432=DIRECTION('',(1.,0.,0.));
#433=DIRECTION('',(0.,0.,-1.));
#434=DIRECTION('',(1.,0.,0.));
#435=DIRECTION('',(-1.,0.,0.));
#436=DIRECTION('',(0.,0.,1.));
#437=DIRECTION('',(0.,0.,-1.));
#438=DIRECTION('',(0.,1.,0.));
#439=DIRECTION('',(0.,0.,-1.));
#440=DIRECTION('',(0.,1.,0.));
#441=DIRECTION('',(0.,-1.,0.));
#442=DIRECTION('',(0.,0.,-1.));
#443=DIRECTION('',(0.,0.,-1.));
#444=DIRECTION('',(-1.,0.,0.));
#445=DIRECTION('',(0.,0.,-1.));
#446=DIRECTION('',(-1.,0.,0.));
#447=DIRECTION('',(1.,0.,0.));
#448=DIRECTION('',(0.,0.,-1.));
#449=DIRECTION('',(0.,0.,-1.));
#450=DIRECTION('',(0.,-1.,0.));
#451=DIRECTION('',(0.,0.,-1.));
#452=DIRECTION('',(0.,-1.,0.));
#453=DIRECTION('',(0.,0.,1.));
#454=DIRECTION('',(1.,0.,0.));
#455=DIRECTION('',(0.,1.,0.));
#456=DIRECTION('',(-1.,0.,0.));
#457=DIRECTION('',(0.,-1.,0.));
#458=DIRECTION('',(1.,0.,0.));
#459=DIRECTION('',(0.,0.,1.));
#460=DIRECTION('',(1.,0.,0.));
#461=DIRECTION('',(0.,-1.,0.));
#462=DIRECTION('',(-1.,0.,0.));
#463=DIRECTION('',(0.,1.,0.));
#464=DIRECTION('',(1.,0.,0.));
#465=DIRECTION('',(0.,0.,-1.));
#466=DIRECTION('',(-1.,0.,0.));
#467=DIRECTION('',(0.,0.,-1.));
#468=DIRECTION('',(-1.,0.,0.));
#469=DIRECTION('',(0.,0.,-1.));
#470=DIRECTION('',(-1.,0.,0.));
#471=DIRECTION('',(0.,0.,-1.));
#472=DIRECTION('',(-1.,0.,0.));
#473=DIRECTION('',(0.,0.,-1.));
#474=DIRECTION('',(-1.,0.,0.));
#475=DIRECTION('',(0.,0.,-1.));
#476=DIRECTION('',(-1.,0.,0.));
#477=DIRECTION('',(0.,0.,-1.));
#478=DIRECTION('',(-1.,0.,0.));
#479=DIRECTION('',(0.,0.,-1.));
#480=DIRECTION('',(-1.,0.,0.));
#481=DIRECTION('',(0.,0.,-1.));
#482=DIRECTION('',(-1.,0.,0.));
#483=DIRECTION('',(0.,0.,-1.));
#484=DIRECTION('',(-1.,0.,0.));
#485=DIRECTION('',(0.,0.,-1.));
#486=DIRECTION('',(-1.,0.,0.));
#487=DIRECTION('',(0.,0.,-1.));
#488=DIRECTION('',(-1.,0.,0.));
#489=DIRECTION('',(-1.,0.,0.));
#490=DIRECTION('',(0.,0.,1.));
#491=DIRECTION('',(-1.,0.,0.));
#492=DIRECTION('',(0.,0.,1.));
#493=DIRECTION('',(1.,0.,0.));
#494=DIRECTION('',(0.,0.,-1.));
#495=DIRECTION('',(0.,0.,1.));
#496=DIRECTION('',(1.,0.,0.));
#497=DIRECTION('',(0.,1.,0.));
#498=DIRECTION('',(0.,0.,1.));
#499=DIRECTION('',(0.,0.,1.));
#500=DIRECTION('',(1.,0.,0.));
#501=DIRECTION('',(0.,1.,0.));
#502=DIRECTION('',(0.,0.,1.));
#503=DIRECTION('',(0.,-1.,0.));
#504=DIRECTION('',(0.,0.,-1.));
#505=DIRECTION('',(0.,1.,0.));
#506=DIRECTION('',(0.,0.,1.));
#507=DIRECTION('',(0.,1.,0.));
#508=DIRECTION('',(0.,0.,1.));
#509=DIRECTION('',(0.,1.,0.));
#510=DIRECTION('',(0.,0.,1.));
#511=DIRECTION('',(0.,0.,1.));
#512=DIRECTION('',(1.,0.,0.));
#513=DIRECTION('',(-1.,0.,0.));
#514=DIRECTION('',(0.,0.,1.));
#515=DIRECTION('',(0.,0.,1.));
#516=DIRECTION('',(1.,0.,0.));
#517=DIRECTION('',(1.,0.,0.));
#518=DIRECTION('',(0.,0.,-1.));
#519=DIRECTION('',(1.,0.,0.));
#520=DIRECTION('',(0.,0.,-1.));
#521=DIRECTION('',(1.,0.,0.));
#522=DIRECTION('',(0.,0.,-1.));
#523=DIRECTION('',(1.,0.,0.));
#524=DIRECTION('',(0.,0.,-1.));
#525=DIRECTION('',(-1.,0.,0.));
#526=DIRECTION('',(0.,0.,1.));
#527=DIRECTION('',(0.,0.,1.));
#528=DIRECTION('',(1.,0.,0.));
#529=DIRECTION('',(0.,1.,0.));
#530=DIRECTION('',(0.,0.,1.));
#531=DIRECTION('',(0.,0.,1.));
#532=DIRECTION('',(1.,0.,0.));
#533=DIRECTION('',(0.,1.,0.));
#534=DIRECTION('',(0.,0.,1.));
#535=DIRECTION('',(0.,1.,0.));
#536=DIRECTION('',(0.,0.,1.));
#537=DIRECTION('',(0.,1.,0.));
#538=DIRECTION('',(0.,0.,1.));
#539=DIRECTION('',(0.,-1.,0.));
#540=DIRECTION('',(0.,0.,-1.));
#541=DIRECTION('',(0.,1.,0.));
#542=DIRECTION('',(0.,0.,1.));
#543=DIRECTION('',(0.,0.,1.));
#544=DIRECTION('',(1.,0.,0.));
#545=DIRECTION('',(-1.,0.,0.));
#546=DIRECTION('',(0.,0.,1.));
#547=DIRECTION('',(0.,0.,1.));
#548=DIRECTION('',(1.,0.,0.));
#549=DIRECTION('',(1.,0.,0.));
#550=DIRECTION('',(0.,0.,-1.));
#551=DIRECTION('',(-1.,0.,0.));
#552=DIRECTION('',(0.,0.,1.));
#553=CARTESIAN_POINT('',(0.,0.,0.));
#554=CARTESIAN_POINT('',(-30.,-15.5,16.5));
#555=CARTESIAN_POINT('',(-29.,-15.5,16.5));
#556=CARTESIAN_POINT('',(-29.,-15.5,15.5));
#557=CARTESIAN_POINT('',(-29.,-15.5,1.));
#558=CARTESIAN_POINT('',(-30.,-15.5,1.));
#559=CARTESIAN_POINT('',(29.,-15.5,1.));
#560=CARTESIAN_POINT('',(29.,-15.5,16.5));
#561=CARTESIAN_POINT('',(29.,-15.5,15.5));
#562=CARTESIAN_POINT('',(-29.,-15.5,15.5));
#563=CARTESIAN_POINT('',(30.,-15.5,16.5));
#564=CARTESIAN_POINT('',(30.,-14.5,16.5));
#565=CARTESIAN_POINT('',(30.,-14.5,15.5));
#566=CARTESIAN_POINT('',(30.,-14.5,1.));
#567=CARTESIAN_POINT('',(30.,-15.5,1.));
#568=CARTESIAN_POINT('',(30.,14.5,1.));
#569=CARTESIAN_POINT('',(30.,14.5,16.5));
#570=CARTESIAN_POINT('',(30.,14.5,15.5));
#571=CARTESIAN_POINT('',(30.,-14.5,15.5));
#572=CARTESIAN_POINT('',(30.,15.5,16.5));
#573=CARTESIAN_POINT('',(29.,15.5,16.5));
#574=CARTESIAN_POINT('',(29.,15.5,15.5));
#575=CARTESIAN_POINT('',(29.,15.5,1.));
#576=CARTESIAN_POINT('',(30.,15.5,1.));
#577=CARTESIAN_POINT('',(-29.,15.5,1.));
#578=CARTESIAN_POINT('',(-29.,15.5,16.5));
#579=CARTESIAN_POINT('',(-29.,15.5,15.5));
#580=CARTESIAN_POINT('',(29.,15.5,15.5));
#581=CARTESIAN_POINT('',(-30.,15.5,16.5));
#582=CARTESIAN_POINT('',(-30.,14.5,16.5));
#583=CARTESIAN_POINT('',(-30.,14.5,15.5));
#584=CARTESIAN_POINT('',(-30.,14.5,1.));
#585=CARTESIAN_POINT('',(-30.,15.5,1.));
#586=CARTESIAN_POINT('',(-30.,-14.5,1.));
#587=CARTESIAN_POINT('',(-30.,-14.5,16.5));
#588=CARTESIAN_POINT('',(-30.,-14.5,15.5));
#589=CARTESIAN_POINT('',(-30.,14.5,15.5));
#590=CARTESIAN_POINT('',(0.,0.,16.5));
#591=CARTESIAN_POINT('',(29.,14.5,16.5));
#592=CARTESIAN_POINT('',(29.,-14.5,16.5));
#593=CARTESIAN_POINT('',(29.,14.5,16.5));
#594=CARTESIAN_POINT('',(-29.,14.5,16.5));
#595=CARTESIAN_POINT('',(-29.,14.5,16.5));
#596=CARTESIAN_POINT('',(-29.,-14.5,16.5));
#597=CARTESIAN_POINT('',(-29.,-14.5,16.5));
#598=CARTESIAN_POINT('',(29.,-14.5,16.5));
#599=CARTESIAN_POINT('',(0.,0.,0.));
#600=CARTESIAN_POINT('',(-29.,0.,0.));
#601=CARTESIAN_POINT('',(-29.,-14.5,0.));
#602=CARTESIAN_POINT('',(-29.,14.5,0.));
#603=CARTESIAN_POINT('',(0.,14.5,0.));
#604=CARTESIAN_POINT('',(29.,14.5,0.));
#605=CARTESIAN_POINT('',(29.,0.,0.));
#606=CARTESIAN_POINT('',(29.,-14.5,0.));
#607=CARTESIAN_POINT('',(0.,-14.5,0.));
#608=CARTESIAN_POINT('',(29.,-14.5,16.5));
#609=CARTESIAN_POINT('',(29.,-14.5,1.));
#610=CARTESIAN_POINT('',(29.,-14.5,15.5));
#611=CARTESIAN_POINT('',(-29.,14.5,16.5));
#612=CARTESIAN_POINT('',(-29.,14.5,1.));
#613=CARTESIAN_POINT('',(-29.,14.5,15.5));
#614=CARTESIAN_POINT('',(-29.,-14.5,16.5));
#615=CARTESIAN_POINT('',(-29.,-14.5,1.));
#616=CARTESIAN_POINT('',(-29.,-14.5,15.5));
#617=CARTESIAN_POINT('',(29.,14.5,16.5));
#618=CARTESIAN_POINT('',(29.,14.5,1.));
#619=CARTESIAN_POINT('',(29.,14.5,15.5));
#620=CARTESIAN_POINT('',(0.,-14.5,15.5));
#621=CARTESIAN_POINT('',(-29.,-14.5,15.5));
#622=CARTESIAN_POINT('',(29.,-14.5,15.5));
#623=CARTESIAN_POINT('',(29.,-14.5,15.5));
#624=CARTESIAN_POINT('',(29.,-14.5,15.5));
#625=CARTESIAN_POINT('',(-29.,-14.5,15.5));
#626=CARTESIAN_POINT('',(-29.,-14.5,15.5));
#627=CARTESIAN_POINT('',(29.,0.,15.5));
#628=CARTESIAN_POINT('',(29.,14.5,15.5));
#629=CARTESIAN_POINT('',(-29.,0.,15.5));
#630=CARTESIAN_POINT('',(-29.,14.5,15.5));
#631=CARTESIAN_POINT('',(29.,14.5,15.5));
#632=CARTESIAN_POINT('',(29.,14.5,15.5));
#633=CARTESIAN_POINT('',(-29.,14.5,15.5));
#634=CARTESIAN_POINT('',(-29.,14.5,15.5));
#635=CARTESIAN_POINT('',(0.,14.5,15.5));
#636=CARTESIAN_POINT('',(-30.,-14.5,1.));
#637=CARTESIAN_POINT('',(29.,-14.5,1.));
#638=CARTESIAN_POINT('',(-29.,-14.5,1.));
#639=CARTESIAN_POINT('',(29.,-14.5,1.));
#640=CARTESIAN_POINT('',(29.,-14.5,1.));
#641=CARTESIAN_POINT('',(-29.,-14.5,1.));
#642=CARTESIAN_POINT('',(-29.,-14.5,1.));
#643=CARTESIAN_POINT('',(29.,-15.5,1.));
#644=CARTESIAN_POINT('',(29.,14.5,1.));
#645=CARTESIAN_POINT('',(-29.,15.5,1.));
#646=CARTESIAN_POINT('',(-29.,14.5,1.));
#647=CARTESIAN_POINT('',(29.,14.5,1.));
#648=CARTESIAN_POINT('',(29.,14.5,1.));
#649=CARTESIAN_POINT('',(-29.,14.5,1.));
#650=CARTESIAN_POINT('',(-29.,14.5,1.));
#651=CARTESIAN_POINT('',(30.,14.5,1.));
#652=MECHANICAL_DESIGN_GEOMETRIC_PRESENTATION_REPRESENTATION('',(#365),
#653);
#653=(
GEOMETRIC_REPRESENTATION_CONTEXT(3)
GLOBAL_UNCERTAINTY_ASSIGNED_CONTEXT((#654))
GLOBAL_UNIT_ASSIGNED_CONTEXT((#657,#656,#655))
REPRESENTATION_CONTEXT('Batteria','TOP_LEVEL_ASSEMBLY_PART')
);
#654=UNCERTAINTY_MEASURE_WITH_UNIT(LENGTH_MEASURE(0.005),#657,
'DISTANCE_ACCURACY_VALUE','Maximum Tolerance applied to model');
#655=(
NAMED_UNIT(*)
SI_UNIT($,.STERADIAN.)
SOLID_ANGLE_UNIT()
);
#656=(
NAMED_UNIT(*)
PLANE_ANGLE_UNIT()
SI_UNIT($,.RADIAN.)
);
#657=(
LENGTH_UNIT()
NAMED_UNIT(*)
SI_UNIT(.MILLI.,.METRE.)
);
#658=PRODUCT_DEFINITION_SHAPE('','',#659);
#659=PRODUCT_DEFINITION('','',#661,#660);
#660=PRODUCT_DEFINITION_CONTEXT('',#667,'design');
#661=PRODUCT_DEFINITION_FORMATION_WITH_SPECIFIED_SOURCE('','',#663,
 .NOT_KNOWN.);
#662=PRODUCT_RELATED_PRODUCT_CATEGORY('','',(#663));
#663=PRODUCT('Batteria','Batteria','Batteria',(#665));
#664=PRODUCT_CATEGORY('','');
#665=PRODUCT_CONTEXT('',#667,'mechanical');
#666=APPLICATION_PROTOCOL_DEFINITION('international standard',
'automotive_design',2010,#667);
#667=APPLICATION_CONTEXT(
'core data for automotive mechanical design processes');
ENDSEC;
END-ISO-10303-21;
