ISO-10303-21;
HEADER;
/* Generated by software containing ST-Developer
 * from STEP Tools, Inc. (www.steptools.com) 
 */
/* OPTION: strings as raw bytes, not using required /X/ escapes */

FILE_DESCRIPTION(
/* description */ ('Unknown'),
/* implementation_level */ '2;1');

FILE_NAME(
/* name */ 'TappoAC',
/* time_stamp */ '2024-01-05T19:17:52+01:00',
/* author */ ('Unknown'),
/* organization */ ('Unknown'),
/* preprocessor_version */ 'ST-DEVELOPER v18.102',
/* originating_system */ 'Solid Edge',
/* authorisation */ 'Unknown');

FILE_SCHEMA (('AUTOMOTIVE_DESIGN {1 0 10303 214 3 1 1}'));
ENDSEC;

DATA;
#10=PROPERTY_DEFINITION_REPRESENTATION(#14,#12);
#11=PROPERTY_DEFINITION_REPRESENTATION(#15,#13);
#12=REPRESENTATION('',(#16),#580);
#13=REPRESENTATION('',(#17),#580);
#14=PROPERTY_DEFINITION('pmi validation property','',#585);
#15=PROPERTY_DEFINITION('pmi validation property','',#585);
#16=VALUE_REPRESENTATION_ITEM('number of annotations',COUNT_MEASURE(0.));
#17=VALUE_REPRESENTATION_ITEM('number of views',COUNT_MEASURE(0.));
#18=SHAPE_REPRESENTATION_RELATIONSHIP('','',#299,#19);
#19=ADVANCED_BREP_SHAPE_REPRESENTATION('',(#297),#580);
#20=DEGENERATE_TOROIDAL_SURFACE('',#332,0.267949192431126,2.,.T.);
#21=DEGENERATE_TOROIDAL_SURFACE('',#336,0.267949192431126,2.,.T.);
#22=ELLIPSE('',#306,7.13340828938362,5.2);
#23=ELLIPSE('',#310,2628.21034184699,4.2);
#24=ELLIPSE('',#312,2628.21034184699,4.2);
#25=ELLIPSE('',#319,7.13340828938362,5.2);
#26=ELLIPSE('',#327,2.92162004316227,2.);
#27=ELLIPSE('',#329,2.92162004316227,2.);
#28=B_SPLINE_CURVE_WITH_KNOTS('',3,(#445,#446,#447,#448),.UNSPECIFIED.,
 .F.,.F.,(4,4),(0.0150398839585295,0.0174914335092518),.UNSPECIFIED.);
#29=B_SPLINE_CURVE_WITH_KNOTS('',3,(#450,#451,#452,#453),.UNSPECIFIED.,
 .F.,.F.,(4,4),(1.58990032769613E-17,1.10769014304895E-5),.UNSPECIFIED.);
#30=B_SPLINE_CURVE_WITH_KNOTS('',3,(#457,#458,#459,#460),.UNSPECIFIED.,
 .F.,.F.,(4,4),(0.0174914335092518,0.0178795939977508),.UNSPECIFIED.);
#31=B_SPLINE_CURVE_WITH_KNOTS('',3,(#461,#462,#463,#464),.UNSPECIFIED.,
 .F.,.F.,(4,4),(0.0178795939977508,0.0203370113384662),.UNSPECIFIED.);
#32=B_SPLINE_CURVE_WITH_KNOTS('',3,(#466,#467,#468,#469,#470,#471,#472,
#473,#474,#475,#476,#477),.UNSPECIFIED.,.F.,.F.,(4,1,1,1,1,1,1,1,1,4),(0.0203370113384662,
0.0240986077213442,0.0278602041042223,0.0297410022956613,0.0316218004871003,
0.0353833968699784,0.0391449932528565,0.0429065896357345,0.0466681860186126,
0.0504297824014906),.UNSPECIFIED.);
#33=B_SPLINE_CURVE_WITH_KNOTS('',3,(#481,#482,#483,#484,#485,#486,#487,
#488,#489,#490,#491,#492,#493,#494,#495,#496,#497,#498,#499),
 .UNSPECIFIED.,.F.,.F.,(4,1,1,1,1,1,1,1,1,1,1,1,1,1,1,1,4),(0.000379251452789311,
0.00211199890298056,0.0038447463531718,0.00557749380336305,0.00731024125355429,
0.00904298870374554,0.0107757361539368,0.012508483604128,0.0142412310543193,
0.0159739785045105,0.0177067259547018,0.019439473404893,0.0211722208550843,
0.0229049683052755,0.0246377157554667,0.026370463205658,0.0281032106558492),
 .UNSPECIFIED.);
#34=B_SPLINE_CURVE_WITH_KNOTS('',3,(#501,#502,#503,#504,#505,#506,#507,
#508,#509,#510,#511,#512,#513,#514,#515,#516,#517,#518,#519),
 .UNSPECIFIED.,.F.,.F.,(4,1,1,1,1,1,1,1,1,1,1,1,1,1,1,1,4),(0.000194046728612798,
0.0023785453181177,0.0045630439076226,0.0067475424971275,0.0089320410866324,
0.0111165396761373,0.0133010382656422,0.0154855368551471,0.017670035444652,
0.0198545340341569,0.0220390326236618,0.0242235312131667,0.0264080298026716,
0.0285925283921765,0.0307770269816814,0.0329615255711863,0.0351460241606912),
 .UNSPECIFIED.);
#35=B_SPLINE_CURVE_WITH_KNOTS('',3,(#522,#523,#524,#525),.UNSPECIFIED.,
 .F.,.F.,(4,4),(0.0351460241606912,0.0355336328141488),.UNSPECIFIED.);
#36=B_SPLINE_CURVE_WITH_KNOTS('',3,(#534,#535,#536,#537),.UNSPECIFIED.,
 .F.,.F.,(4,4),(4.11973999603282E-17,0.001371567987628),.UNSPECIFIED.);
#37=B_SPLINE_CURVE_WITH_KNOTS('',3,(#542,#543,#544,#545),.UNSPECIFIED.,
 .F.,.F.,(4,4),(0.,0.00137084569046036),.UNSPECIFIED.);
#38=B_SPLINE_CURVE_WITH_KNOTS('',3,(#549,#550,#551,#552),.UNSPECIFIED.,
 .F.,.F.,(4,4),(0.,1.10769014316135E-5),.UNSPECIFIED.);
#39=CYLINDRICAL_SURFACE('',#305,5.2);
#40=CYLINDRICAL_SURFACE('',#307,25.3208981937955);
#41=CYLINDRICAL_SURFACE('',#308,25.3208981937956);
#42=CYLINDRICAL_SURFACE('',#309,4.2);
#43=CYLINDRICAL_SURFACE('',#315,5.2);
#44=CYLINDRICAL_SURFACE('',#318,5.2);
#45=CYLINDRICAL_SURFACE('',#320,5.2);
#46=CYLINDRICAL_SURFACE('',#325,5.2);
#47=CYLINDRICAL_SURFACE('',#330,2.);
#48=CYLINDRICAL_SURFACE('',#334,2.);
#49=CYLINDRICAL_SURFACE('',#338,2.);
#50=CIRCLE('',#302,2.);
#51=CIRCLE('',#303,2.);
#52=CIRCLE('',#304,5.2);
#53=CIRCLE('',#311,4.2);
#54=CIRCLE('',#316,5.2);
#55=CIRCLE('',#317,5.2);
#56=CIRCLE('',#321,5.2);
#57=CIRCLE('',#323,0.267949192431126);
#58=CIRCLE('',#324,0.267949192431126);
#59=CIRCLE('',#331,2.);
#60=CIRCLE('',#333,2.);
#61=CIRCLE('',#335,2.);
#62=CIRCLE('',#337,2.);
#63=ORIENTED_EDGE('',*,*,#141,.F.);
#64=ORIENTED_EDGE('',*,*,#142,.T.);
#65=ORIENTED_EDGE('',*,*,#143,.F.);
#66=ORIENTED_EDGE('',*,*,#144,.T.);
#67=ORIENTED_EDGE('',*,*,#145,.F.);
#68=ORIENTED_EDGE('',*,*,#146,.T.);
#69=ORIENTED_EDGE('',*,*,#147,.F.);
#70=ORIENTED_EDGE('',*,*,#148,.T.);
#71=ORIENTED_EDGE('',*,*,#149,.F.);
#72=ORIENTED_EDGE('',*,*,#150,.T.);
#73=ORIENTED_EDGE('',*,*,#151,.T.);
#74=ORIENTED_EDGE('',*,*,#152,.T.);
#75=ORIENTED_EDGE('',*,*,#153,.T.);
#76=ORIENTED_EDGE('',*,*,#154,.T.);
#77=ORIENTED_EDGE('',*,*,#149,.T.);
#78=ORIENTED_EDGE('',*,*,#155,.T.);
#79=ORIENTED_EDGE('',*,*,#156,.T.);
#80=ORIENTED_EDGE('',*,*,#157,.T.);
#81=ORIENTED_EDGE('',*,*,#158,.T.);
#82=ORIENTED_EDGE('',*,*,#156,.F.);
#83=ORIENTED_EDGE('',*,*,#159,.F.);
#84=ORIENTED_EDGE('',*,*,#160,.T.);
#85=ORIENTED_EDGE('',*,*,#161,.F.);
#86=ORIENTED_EDGE('',*,*,#160,.F.);
#87=ORIENTED_EDGE('',*,*,#159,.T.);
#88=ORIENTED_EDGE('',*,*,#155,.F.);
#89=ORIENTED_EDGE('',*,*,#161,.T.);
#90=ORIENTED_EDGE('',*,*,#154,.F.);
#91=ORIENTED_EDGE('',*,*,#162,.T.);
#92=ORIENTED_EDGE('',*,*,#163,.F.);
#93=ORIENTED_EDGE('',*,*,#157,.F.);
#94=ORIENTED_EDGE('',*,*,#164,.F.);
#95=ORIENTED_EDGE('',*,*,#165,.T.);
#96=ORIENTED_EDGE('',*,*,#166,.T.);
#97=ORIENTED_EDGE('',*,*,#167,.T.);
#98=ORIENTED_EDGE('',*,*,#153,.F.);
#99=ORIENTED_EDGE('',*,*,#158,.F.);
#100=ORIENTED_EDGE('',*,*,#168,.F.);
#101=ORIENTED_EDGE('',*,*,#169,.T.);
#102=ORIENTED_EDGE('',*,*,#170,.T.);
#103=ORIENTED_EDGE('',*,*,#164,.T.);
#104=ORIENTED_EDGE('',*,*,#168,.T.);
#105=ORIENTED_EDGE('',*,*,#163,.T.);
#106=ORIENTED_EDGE('',*,*,#171,.T.);
#107=ORIENTED_EDGE('',*,*,#172,.T.);
#108=ORIENTED_EDGE('',*,*,#173,.T.);
#109=ORIENTED_EDGE('',*,*,#147,.T.);
#110=ORIENTED_EDGE('',*,*,#152,.F.);
#111=ORIENTED_EDGE('',*,*,#146,.F.);
#112=ORIENTED_EDGE('',*,*,#174,.T.);
#113=ORIENTED_EDGE('',*,*,#166,.F.);
#114=ORIENTED_EDGE('',*,*,#151,.F.);
#115=ORIENTED_EDGE('',*,*,#175,.T.);
#116=ORIENTED_EDGE('',*,*,#148,.F.);
#117=ORIENTED_EDGE('',*,*,#174,.F.);
#118=ORIENTED_EDGE('',*,*,#145,.T.);
#119=ORIENTED_EDGE('',*,*,#176,.F.);
#120=ORIENTED_EDGE('',*,*,#171,.F.);
#121=ORIENTED_EDGE('',*,*,#162,.F.);
#122=ORIENTED_EDGE('',*,*,#167,.F.);
#123=ORIENTED_EDGE('',*,*,#176,.T.);
#124=ORIENTED_EDGE('',*,*,#144,.F.);
#125=ORIENTED_EDGE('',*,*,#177,.F.);
#126=ORIENTED_EDGE('',*,*,#172,.F.);
#127=ORIENTED_EDGE('',*,*,#177,.T.);
#128=ORIENTED_EDGE('',*,*,#143,.T.);
#129=ORIENTED_EDGE('',*,*,#178,.F.);
#130=ORIENTED_EDGE('',*,*,#173,.F.);
#131=ORIENTED_EDGE('',*,*,#178,.T.);
#132=ORIENTED_EDGE('',*,*,#142,.F.);
#133=ORIENTED_EDGE('',*,*,#179,.F.);
#134=ORIENTED_EDGE('',*,*,#169,.F.);
#135=ORIENTED_EDGE('',*,*,#179,.T.);
#136=ORIENTED_EDGE('',*,*,#141,.T.);
#137=ORIENTED_EDGE('',*,*,#175,.F.);
#138=ORIENTED_EDGE('',*,*,#150,.F.);
#139=ORIENTED_EDGE('',*,*,#165,.F.);
#140=ORIENTED_EDGE('',*,*,#170,.F.);
#141=EDGE_CURVE('',#180,#181,#203,.T.);
#142=EDGE_CURVE('',#180,#182,#50,.T.);
#143=EDGE_CURVE('',#183,#182,#204,.T.);
#144=EDGE_CURVE('',#183,#184,#51,.T.);
#145=EDGE_CURVE('',#185,#184,#205,.T.);
#146=EDGE_CURVE('',#185,#186,#206,.T.);
#147=EDGE_CURVE('',#187,#186,#52,.T.);
#148=EDGE_CURVE('',#187,#181,#207,.T.);
#149=EDGE_CURVE('',#188,#187,#28,.T.);
#150=EDGE_CURVE('',#188,#189,#29,.T.);
#151=EDGE_CURVE('',#189,#187,#22,.F.);
#152=EDGE_CURVE('',#187,#186,#30,.T.);
#153=EDGE_CURVE('',#186,#190,#31,.T.);
#154=EDGE_CURVE('',#190,#188,#32,.T.);
#155=EDGE_CURVE('',#191,#192,#208,.T.);
#156=EDGE_CURVE('',#192,#191,#33,.T.);
#157=EDGE_CURVE('',#193,#194,#34,.T.);
#158=EDGE_CURVE('',#194,#193,#35,.T.);
#159=EDGE_CURVE('',#195,#192,#23,.T.);
#160=EDGE_CURVE('',#195,#195,#53,.T.);
#161=EDGE_CURVE('',#191,#195,#24,.T.);
#162=EDGE_CURVE('',#190,#196,#36,.T.);
#163=EDGE_CURVE('',#194,#196,#54,.T.);
#164=EDGE_CURVE('',#197,#193,#55,.T.);
#165=EDGE_CURVE('',#197,#188,#37,.T.);
#166=EDGE_CURVE('',#186,#198,#25,.F.);
#167=EDGE_CURVE('',#198,#190,#38,.T.);
#168=EDGE_CURVE('',#193,#194,#56,.T.);
#169=EDGE_CURVE('',#199,#200,#57,.F.);
#170=EDGE_CURVE('',#200,#197,#209,.F.);
#171=EDGE_CURVE('',#196,#201,#210,.F.);
#172=EDGE_CURVE('',#201,#202,#58,.F.);
#173=EDGE_CURVE('',#202,#199,#211,.F.);
#174=EDGE_CURVE('',#185,#198,#26,.F.);
#175=EDGE_CURVE('',#189,#181,#27,.F.);
#176=EDGE_CURVE('',#201,#184,#59,.T.);
#177=EDGE_CURVE('',#202,#183,#60,.T.);
#178=EDGE_CURVE('',#199,#182,#61,.T.);
#179=EDGE_CURVE('',#200,#180,#62,.T.);
#180=VERTEX_POINT('',#429);
#181=VERTEX_POINT('',#430);
#182=VERTEX_POINT('',#432);
#183=VERTEX_POINT('',#434);
#184=VERTEX_POINT('',#436);
#185=VERTEX_POINT('',#438);
#186=VERTEX_POINT('',#440);
#187=VERTEX_POINT('',#442);
#188=VERTEX_POINT('',#449);
#189=VERTEX_POINT('',#454);
#190=VERTEX_POINT('',#465);
#191=VERTEX_POINT('',#479);
#192=VERTEX_POINT('',#480);
#193=VERTEX_POINT('',#520);
#194=VERTEX_POINT('',#521);
#195=VERTEX_POINT('',#528);
#196=VERTEX_POINT('',#538);
#197=VERTEX_POINT('',#541);
#198=VERTEX_POINT('',#548);
#199=VERTEX_POINT('',#557);
#200=VERTEX_POINT('',#558);
#201=VERTEX_POINT('',#561);
#202=VERTEX_POINT('',#563);
#203=LINE('',#428,#212);
#204=LINE('',#433,#213);
#205=LINE('',#437,#214);
#206=LINE('',#439,#215);
#207=LINE('',#443,#216);
#208=LINE('',#478,#217);
#209=LINE('',#559,#218);
#210=LINE('',#560,#219);
#211=LINE('',#564,#220);
#212=VECTOR('',#343,1000.);
#213=VECTOR('',#346,1000.);
#214=VECTOR('',#349,1000.);
#215=VECTOR('',#350,1000.);
#216=VECTOR('',#353,1000.);
#217=VECTOR('',#360,1000.);
#218=VECTOR('',#393,1000.);
#219=VECTOR('',#394,1000.);
#220=VECTOR('',#397,1000.);
#221=EDGE_LOOP('',(#63,#64,#65,#66,#67,#68,#69,#70));
#222=EDGE_LOOP('',(#71,#72,#73));
#223=EDGE_LOOP('',(#74,#75,#76,#77));
#224=EDGE_LOOP('',(#78,#79));
#225=EDGE_LOOP('',(#80,#81));
#226=EDGE_LOOP('',(#82,#83,#84,#85));
#227=EDGE_LOOP('',(#86));
#228=EDGE_LOOP('',(#87,#88,#89));
#229=EDGE_LOOP('',(#90,#91,#92,#93,#94,#95));
#230=EDGE_LOOP('',(#96,#97,#98));
#231=EDGE_LOOP('',(#99,#100));
#232=EDGE_LOOP('',(#101,#102,#103,#104,#105,#106,#107,#108));
#233=EDGE_LOOP('',(#109,#110));
#234=EDGE_LOOP('',(#111,#112,#113));
#235=EDGE_LOOP('',(#114,#115,#116));
#236=EDGE_LOOP('',(#117,#118,#119,#120,#121,#122));
#237=EDGE_LOOP('',(#123,#124,#125,#126));
#238=EDGE_LOOP('',(#127,#128,#129,#130));
#239=EDGE_LOOP('',(#131,#132,#133,#134));
#240=EDGE_LOOP('',(#135,#136,#137,#138,#139,#140));
#241=FACE_BOUND('',#221,.T.);
#242=FACE_BOUND('',#222,.T.);
#243=FACE_BOUND('',#223,.T.);
#244=FACE_BOUND('',#224,.T.);
#245=FACE_BOUND('',#225,.T.);
#246=FACE_BOUND('',#226,.T.);
#247=FACE_BOUND('',#227,.T.);
#248=FACE_BOUND('',#228,.T.);
#249=FACE_BOUND('',#229,.T.);
#250=FACE_BOUND('',#230,.T.);
#251=FACE_BOUND('',#231,.T.);
#252=FACE_BOUND('',#232,.T.);
#253=FACE_BOUND('',#233,.T.);
#254=FACE_BOUND('',#234,.T.);
#255=FACE_BOUND('',#235,.T.);
#256=FACE_BOUND('',#236,.T.);
#257=FACE_BOUND('',#237,.T.);
#258=FACE_BOUND('',#238,.T.);
#259=FACE_BOUND('',#239,.T.);
#260=FACE_BOUND('',#240,.T.);
#261=PLANE('',#301);
#262=PLANE('',#313);
#263=PLANE('',#314);
#264=PLANE('',#322);
#265=PLANE('',#326);
#266=PLANE('',#328);
#267=ADVANCED_FACE('',(#241),#261,.T.);
#268=ADVANCED_FACE('',(#242),#39,.F.);
#269=ADVANCED_FACE('',(#243,#244),#40,.F.);
#270=ADVANCED_FACE('',(#245),#41,.T.);
#271=ADVANCED_FACE('',(#246),#42,.T.);
#272=ADVANCED_FACE('',(#247),#262,.T.);
#273=ADVANCED_FACE('',(#248),#263,.T.);
#274=ADVANCED_FACE('',(#249),#43,.T.);
#275=ADVANCED_FACE('',(#250),#44,.F.);
#276=ADVANCED_FACE('',(#251),#45,.F.);
#277=ADVANCED_FACE('',(#252),#264,.F.);
#278=ADVANCED_FACE('',(#253),#46,.T.);
#279=ADVANCED_FACE('',(#254),#265,.F.);
#280=ADVANCED_FACE('',(#255),#266,.F.);
#281=ADVANCED_FACE('',(#256),#47,.T.);
#282=ADVANCED_FACE('',(#257),#20,.T.);
#283=ADVANCED_FACE('',(#258),#48,.T.);
#284=ADVANCED_FACE('',(#259),#21,.T.);
#285=ADVANCED_FACE('',(#260),#49,.T.);
#286=CLOSED_SHELL('',(#267,#268,#269,#270,#271,#272,#273,#274,#275,#276,
#277,#278,#279,#280,#281,#282,#283,#284,#285));
#287=STYLED_ITEM('',(#288),#297);
#288=PRESENTATION_STYLE_ASSIGNMENT((#289));
#289=SURFACE_STYLE_USAGE(.BOTH.,#290);
#290=SURFACE_SIDE_STYLE('',(#293,#291));
#291=SURFACE_STYLE_RENDERING_WITH_PROPERTIES(.CONSTANT_SHADING.,#296,(#292));
#292=SURFACE_STYLE_TRANSPARENT(0.625);
#293=SURFACE_STYLE_FILL_AREA(#294);
#294=FILL_AREA_STYLE('',(#295));
#295=FILL_AREA_STYLE_COLOUR('',#296);
#296=DRAUGHTING_PRE_DEFINED_COLOUR('white');
#297=MANIFOLD_SOLID_BREP('',#286);
#298=SHAPE_DEFINITION_REPRESENTATION(#585,#299);
#299=SHAPE_REPRESENTATION('TappoAC',(#300),#580);
#300=AXIS2_PLACEMENT_3D('',#426,#339,#340);
#301=AXIS2_PLACEMENT_3D('',#427,#341,#342);
#302=AXIS2_PLACEMENT_3D('',#431,#344,#345);
#303=AXIS2_PLACEMENT_3D('',#435,#347,#348);
#304=AXIS2_PLACEMENT_3D('',#441,#351,#352);
#305=AXIS2_PLACEMENT_3D('',#444,#354,#355);
#306=AXIS2_PLACEMENT_3D('',#455,#356,#357);
#307=AXIS2_PLACEMENT_3D('',#456,#358,#359);
#308=AXIS2_PLACEMENT_3D('',#500,#361,#362);
#309=AXIS2_PLACEMENT_3D('',#526,#363,#364);
#310=AXIS2_PLACEMENT_3D('',#527,#365,#366);
#311=AXIS2_PLACEMENT_3D('',#529,#367,#368);
#312=AXIS2_PLACEMENT_3D('',#530,#369,#370);
#313=AXIS2_PLACEMENT_3D('',#531,#371,#372);
#314=AXIS2_PLACEMENT_3D('',#532,#373,#374);
#315=AXIS2_PLACEMENT_3D('',#533,#375,#376);
#316=AXIS2_PLACEMENT_3D('',#539,#377,#378);
#317=AXIS2_PLACEMENT_3D('',#540,#379,#380);
#318=AXIS2_PLACEMENT_3D('',#546,#381,#382);
#319=AXIS2_PLACEMENT_3D('',#547,#383,#384);
#320=AXIS2_PLACEMENT_3D('',#553,#385,#386);
#321=AXIS2_PLACEMENT_3D('',#554,#387,#388);
#322=AXIS2_PLACEMENT_3D('',#555,#389,#390);
#323=AXIS2_PLACEMENT_3D('',#556,#391,#392);
#324=AXIS2_PLACEMENT_3D('',#562,#395,#396);
#325=AXIS2_PLACEMENT_3D('',#565,#398,#399);
#326=AXIS2_PLACEMENT_3D('',#566,#400,#401);
#327=AXIS2_PLACEMENT_3D('',#567,#402,#403);
#328=AXIS2_PLACEMENT_3D('',#568,#404,#405);
#329=AXIS2_PLACEMENT_3D('',#569,#406,#407);
#330=AXIS2_PLACEMENT_3D('',#570,#408,#409);
#331=AXIS2_PLACEMENT_3D('',#571,#410,#411);
#332=AXIS2_PLACEMENT_3D('',#572,#412,#413);
#333=AXIS2_PLACEMENT_3D('',#573,#414,#415);
#334=AXIS2_PLACEMENT_3D('',#574,#416,#417);
#335=AXIS2_PLACEMENT_3D('',#575,#418,#419);
#336=AXIS2_PLACEMENT_3D('',#576,#420,#421);
#337=AXIS2_PLACEMENT_3D('',#577,#422,#423);
#338=AXIS2_PLACEMENT_3D('',#578,#424,#425);
#339=DIRECTION('',(0.,0.,1.));
#340=DIRECTION('',(1.,0.,0.));
#341=DIRECTION('',(1.,0.,0.));
#342=DIRECTION('',(0.,0.,-1.));
#343=DIRECTION('',(0.,1.16568190148287E-14,-1.));
#344=DIRECTION('',(1.,0.,0.));
#345=DIRECTION('',(0.,0.,-1.));
#346=DIRECTION('',(0.,1.,-5.78241158658935E-16));
#347=DIRECTION('',(1.,0.,0.));
#348=DIRECTION('',(0.,0.,-1.));
#349=DIRECTION('',(0.,-1.28225009163118E-14,1.));
#350=DIRECTION('',(0.,1.,7.22722778919379E-14));
#351=DIRECTION('',(1.,0.,0.));
#352=DIRECTION('',(0.,0.,-1.));
#353=DIRECTION('',(0.,1.,7.22722778919379E-14));
#354=DIRECTION('',(1.,0.,0.));
#355=DIRECTION('',(0.,0.,-1.));
#356=DIRECTION('',(-0.728964302763795,-4.94741115026804E-14,0.684551711192146));
#357=DIRECTION('',(0.684551711192146,-5.26839106626478E-14,0.728964302763795));
#358=DIRECTION('',(0.,-1.,0.));
#359=DIRECTION('',(0.,0.,-1.));
#360=DIRECTION('',(0.,-1.,0.));
#361=DIRECTION('',(0.,-1.,0.));
#362=DIRECTION('',(0.,0.,-1.));
#363=DIRECTION('',(1.,0.,0.));
#364=DIRECTION('',(0.,0.,-1.));
#365=DIRECTION('',(-0.00159804561040134,0.,-0.999998723124298));
#366=DIRECTION('',(0.999998723124298,0.,-0.00159804561040134));
#367=DIRECTION('',(-1.,0.,0.));
#368=DIRECTION('',(0.,1.,0.));
#369=DIRECTION('',(-0.00159804561040134,0.,-0.999998723124298));
#370=DIRECTION('',(0.999998723124298,0.,-0.00159804561040134));
#371=DIRECTION('',(1.,0.,0.));
#372=DIRECTION('',(0.,0.,-1.));
#373=DIRECTION('',(-0.00159804561040134,0.,-0.999998723124298));
#374=DIRECTION('',(-0.999998723124298,0.,0.00159804561040134));
#375=DIRECTION('',(1.,0.,0.));
#376=DIRECTION('',(0.,0.,-1.));
#377=DIRECTION('',(1.,0.,0.));
#378=DIRECTION('',(0.,1.,0.));
#379=DIRECTION('',(1.,0.,0.));
#380=DIRECTION('',(0.,1.,0.));
#381=DIRECTION('',(1.,0.,0.));
#382=DIRECTION('',(0.,0.,-1.));
#383=DIRECTION('',(-0.728964302763795,-4.94741115026804E-14,0.684551711192146));
#384=DIRECTION('',(0.684551711192146,-5.26839106626478E-14,0.728964302763795));
#385=DIRECTION('',(1.,0.,0.));
#386=DIRECTION('',(0.,0.,-1.));
#387=DIRECTION('',(1.,0.,0.));
#388=DIRECTION('',(0.,1.,0.));
#389=DIRECTION('',(1.,0.,0.));
#390=DIRECTION('',(0.,0.,-1.));
#391=DIRECTION('',(1.,0.,0.));
#392=DIRECTION('',(0.,0.,-1.));
#393=DIRECTION('',(0.,-7.28379711199871E-14,1.));
#394=DIRECTION('',(0.,1.38777878078145E-15,-1.));
#395=DIRECTION('',(1.,0.,0.));
#396=DIRECTION('',(0.,0.,-1.));
#397=DIRECTION('',(0.,-1.,5.78241158658935E-16));
#398=DIRECTION('',(1.,0.,0.));
#399=DIRECTION('',(0.,0.,-1.));
#400=DIRECTION('',(-0.728964302763795,-4.94741115026804E-14,0.684551711192146));
#401=DIRECTION('',(0.684551711192146,0.,0.728964302763795));
#402=DIRECTION('',(-0.728964302763795,-4.94741115026804E-14,0.684551711192146));
#403=DIRECTION('',(-0.684551711192146,-4.45561034812617E-14,-0.728964302763795));
#404=DIRECTION('',(-0.728964302763795,-4.94741115026804E-14,0.684551711192146));
#405=DIRECTION('',(0.684551711192146,0.,0.728964302763795));
#406=DIRECTION('',(-0.728964302763795,-4.94741115026804E-14,0.684551711192146));
#407=DIRECTION('',(0.684551711192146,-5.34599338861504E-14,0.728964302763795));
#408=DIRECTION('',(0.,1.38777878078145E-15,-1.));
#409=DIRECTION('',(0.,1.,1.38777878078145E-15));
#410=DIRECTION('',(0.,-1.30200598557222E-14,1.));
#411=DIRECTION('',(0.,-1.,-1.30200598557222E-14));
#412=DIRECTION('',(-1.,0.,0.));
#413=DIRECTION('',(0.,0.,1.));
#414=DIRECTION('',(0.,1.,0.));
#415=DIRECTION('',(0.,0.,1.));
#416=DIRECTION('',(0.,-1.,5.78241158658935E-16));
#417=DIRECTION('',(0.,-5.78241158658935E-16,-1.));
#418=DIRECTION('',(0.,1.,0.));
#419=DIRECTION('',(0.,0.,1.));
#420=DIRECTION('',(-1.,0.,0.));
#421=DIRECTION('',(0.,0.,1.));
#422=DIRECTION('',(0.,7.31126438051981E-14,-1.));
#423=DIRECTION('',(0.,1.,7.31126438051981E-14));
#424=DIRECTION('',(0.,-7.28379711199871E-14,1.));
#425=DIRECTION('',(0.,-1.,-7.28379711199871E-14));
#426=CARTESIAN_POINT('',(0.,0.,0.));
#427=CARTESIAN_POINT('',(-18.0075797145773,61.342343080132,-22.349507386094));
#428=CARTESIAN_POINT('',(-18.0075797145773,64.342343080132,-12.149507386094));
#429=CARTESIAN_POINT('',(-18.0075797145773,64.342343080132,-14.1495073860939));
#430=CARTESIAN_POINT('',(-18.0075797145773,64.342343080132,-17.1532238696198));
#431=CARTESIAN_POINT('',(-18.0075797145773,62.3423430801318,-14.149507386094));
#432=CARTESIAN_POINT('',(-18.0075797145773,62.3423430801318,-12.149507386094));
#433=CARTESIAN_POINT('',(-18.0075797145773,58.342343080132,-12.149507386094));
#434=CARTESIAN_POINT('',(-18.0075797145773,60.342343080132,-12.149507386094));
#435=CARTESIAN_POINT('',(-18.0075797145773,60.342343080132,-14.149507386094));
#436=CARTESIAN_POINT('',(-18.0075797145773,58.342343080132,-14.149507386094));
#437=CARTESIAN_POINT('',(-18.0075797145773,58.3423430801321,-18.1021552697749));
#438=CARTESIAN_POINT('',(-18.0075797145773,58.342343080132,-17.1532238696203));
#439=CARTESIAN_POINT('',(-18.0075797145773,46.1561740185881,-17.1532238696212));
#440=CARTESIAN_POINT('',(-18.0075797145773,61.1457785451296,-17.1532238696201));
#441=CARTESIAN_POINT('',(-18.0075797145773,61.342343080132,-22.349507386094));
#442=CARTESIAN_POINT('',(-18.0075797145773,61.5389076151343,-17.15322386962));
#443=CARTESIAN_POINT('',(-18.0075797145773,46.1561740185881,-17.1532238696212));
#444=CARTESIAN_POINT('',(-19.0075797145773,61.342343080132,-22.349507386094));
#445=CARTESIAN_POINT('',(-18.6026798156983,63.816797833016,-17.7759886449135));
#446=CARTESIAN_POINT('',(-18.2699045459178,63.1508190532315,-17.4156677519171));
#447=CARTESIAN_POINT('',(-18.0384253013173,62.3636783157504,-17.1844232198357));
#448=CARTESIAN_POINT('',(-18.0075797145773,61.5389076151343,-17.15322386962));
#449=CARTESIAN_POINT('',(-18.6026798156983,63.816797833016,-17.7759886449135));
#450=CARTESIAN_POINT('',(-18.6026798156983,63.816797833016,-17.7759886449135));
#451=CARTESIAN_POINT('',(-18.600634694556,63.8195016522505,-17.7774515181921));
#452=CARTESIAN_POINT('',(-18.5985827726566,63.8222001737843,-17.7789146247708));
#453=CARTESIAN_POINT('',(-18.5965240452165,63.8248934063226,-17.7803779418857));
#454=CARTESIAN_POINT('',(-18.5965240452154,63.8248934063222,-17.7803779418851));
#455=CARTESIAN_POINT('',(-22.8872765111904,61.342343080132,-22.349507386094));
#456=CARTESIAN_POINT('',(-0.00120651135816774,101.840855755295,-34.9554262448025));
#457=CARTESIAN_POINT('',(-18.0075797145773,61.5389076151343,-17.15322386962));
#458=CARTESIAN_POINT('',(-18.0026958491814,61.4083194334855,-17.1482839918937));
#459=CARTESIAN_POINT('',(-18.0027060944047,61.27609278289,-17.148294354618));
#460=CARTESIAN_POINT('',(-18.0075797145773,61.1457785451296,-17.15322386962));
#461=CARTESIAN_POINT('',(-18.0075797145773,61.1457785451296,-17.15322386962));
#462=CARTESIAN_POINT('',(-18.038434268503,60.3207680736804,-17.1844322898647));
#463=CARTESIAN_POINT('',(-18.2699412232747,59.5337937051195,-17.4157074652588));
#464=CARTESIAN_POINT('',(-18.6026798156983,58.867888327248,-17.7759886449135));
#465=CARTESIAN_POINT('',(-18.6026798156983,58.8678883272479,-17.7759886449135));
#466=CARTESIAN_POINT('',(-18.6026798156983,58.867888327248,-17.7759886449135));
#467=CARTESIAN_POINT('',(-19.1120065242583,57.8485794702462,-18.3274751017534));
#468=CARTESIAN_POINT('',(-20.5125522001772,56.3742912294752,-19.9552579803371));
#469=CARTESIAN_POINT('',(-22.2172090600401,55.9406440221232,-22.6924237383673));
#470=CARTESIAN_POINT('',(-23.2558798052437,56.6903968983472,-24.887986126564));
#471=CARTESIAN_POINT('',(-24.0054248764934,58.1966877631738,-26.8081678817114));
#472=CARTESIAN_POINT('',(-24.3520298466002,61.3340615240557,-28.0408433613166));
#473=CARTESIAN_POINT('',(-23.944834366271,65.1089672556527,-26.5720129139463));
#474=CARTESIAN_POINT('',(-22.5636611551928,66.8443834212242,-23.2354860530272));
#475=CARTESIAN_POINT('',(-20.5060611759085,66.3025119091384,-19.9498907030183));
#476=CARTESIAN_POINT('',(-19.1132818758317,64.8386590343827,-18.3288560211291));
#477=CARTESIAN_POINT('',(-18.6026798156983,63.816797833016,-17.7759886449135));
#478=CARTESIAN_POINT('',(-23.8799839572639,101.840855755295,-26.5321327660342));
#479=CARTESIAN_POINT('',(-23.8799839572639,61.7239776318704,-26.5321327660342));
#480=CARTESIAN_POINT('',(-23.8799839572639,60.9607085283936,-26.5321327660342));
#481=CARTESIAN_POINT('',(-23.8799839572639,60.9607085283936,-26.5321327660342));
#482=CARTESIAN_POINT('',(-23.8614301170222,60.3842537420544,-26.4795354033736));
#483=CARTESIAN_POINT('',(-23.7397765194054,59.2548682664873,-26.130359537732));
#484=CARTESIAN_POINT('',(-23.3004585903325,57.948289505532,-25.0059739674978));
#485=CARTESIAN_POINT('',(-22.6240137549728,57.2117251817,-23.5384745293895));
#486=CARTESIAN_POINT('',(-21.7786248516218,57.067891598349,-21.9966799136191));
#487=CARTESIAN_POINT('',(-20.8487215834756,57.4517592810911,-20.5530742771259));
#488=CARTESIAN_POINT('',(-19.9368098553262,58.3007770175166,-19.32298443256));
#489=CARTESIAN_POINT('',(-19.1683184265003,59.6112454737073,-18.4018505358437));
#490=CARTESIAN_POINT('',(-18.8267411537446,61.3379055439344,-18.0229492435888));
#491=CARTESIAN_POINT('',(-19.1696420031611,63.0798514319093,-18.4033993575951));
#492=CARTESIAN_POINT('',(-19.9382303187774,64.3853367113869,-19.3246363066253));
#493=CARTESIAN_POINT('',(-20.8548563185656,65.2376840414475,-20.5617532127091));
#494=CARTESIAN_POINT('',(-21.7838571183801,65.6171968433316,-22.0055983645418));
#495=CARTESIAN_POINT('',(-22.626739254932,65.4705719897467,-23.5442360388851));
#496=CARTESIAN_POINT('',(-23.2996567219125,64.7366818816261,-25.0043285116439));
#497=CARTESIAN_POINT('',(-23.7392784645323,63.4328605361201,-26.1289018948478));
#498=CARTESIAN_POINT('',(-23.8613957955958,62.3014987608237,-26.479438107262));
#499=CARTESIAN_POINT('',(-23.8799839572639,61.7239776318704,-26.5321327660342));
#500=CARTESIAN_POINT('',(-1.0012065113581,101.840855755295,-34.9554262448025));
#501=CARTESIAN_POINT('',(-19.0075797145773,61.5389076151343,-17.15322386962));
#502=CARTESIAN_POINT('',(-19.0350267879818,62.2728065081114,-17.180985729453));
#503=CARTESIAN_POINT('',(-19.4124838810746,63.6864607523591,-17.5579407164842));
#504=CARTESIAN_POINT('',(-20.4819260988259,65.243328070123,-18.7451975065139));
#505=CARTESIAN_POINT('',(-21.6950159643029,66.243835678923,-20.3135953070805));
#506=CARTESIAN_POINT('',(-22.8757446125794,66.6520927693316,-22.1376366256885));
#507=CARTESIAN_POINT('',(-23.9037451663064,66.3807607636264,-24.0858928587662));
#508=CARTESIAN_POINT('',(-24.6703448591704,65.3335303566414,-25.9049608666588));
#509=CARTESIAN_POINT('',(-25.1178779511657,63.5673354789705,-27.2213973025341));
#510=CARTESIAN_POINT('',(-25.2617998583247,61.3648467344209,-27.7085605697965));
#511=CARTESIAN_POINT('',(-25.1238991496399,59.1619336934351,-27.241114404618));
#512=CARTESIAN_POINT('',(-24.6834437814657,57.3811483738351,-25.9399178339836));
#513=CARTESIAN_POINT('',(-23.9196330953011,56.3134470895348,-24.1188464658243));
#514=CARTESIAN_POINT('',(-22.8870576016554,56.0297723928103,-22.1558107178949));
#515=CARTESIAN_POINT('',(-21.6988328109852,56.4387267592111,-20.3189568151446));
#516=CARTESIAN_POINT('',(-20.4911055936163,57.4316854126536,-18.7562743120785));
#517=CARTESIAN_POINT('',(-19.4148242711025,58.990973247296,-17.560087106147));
#518=CARTESIAN_POINT('',(-19.0351243157734,60.4092718863928,-17.1810843757764));
#519=CARTESIAN_POINT('',(-19.0075797145773,61.1457785451296,-17.15322386962));
#520=CARTESIAN_POINT('',(-19.0075797145773,61.5389076151344,-17.15322386962));
#521=CARTESIAN_POINT('',(-19.0075797145773,61.1457785451296,-17.15322386962));
#522=CARTESIAN_POINT('',(-19.0075797145773,61.1457785451296,-17.15322386962));
#523=CARTESIAN_POINT('',(-19.002692311202,61.2764613277266,-17.1482804133378));
#524=CARTESIAN_POINT('',(-19.0027096161415,61.4086875440171,-17.1482979167451));
#525=CARTESIAN_POINT('',(-19.0075797145773,61.5389076151344,-17.15322386962));
#526=CARTESIAN_POINT('',(-44.6567850893555,61.342343080132,-22.349507386094));
#527=CARTESIAN_POINT('',(-2641.21456566359,61.342343080132,-22.349507386094));
#528=CARTESIAN_POINT('',(-13.007579714519,61.342343080132,-26.549507386094));
#529=CARTESIAN_POINT('',(-13.0075797145773,61.342343080132,-22.349507386094));
#530=CARTESIAN_POINT('',(-2641.21456566359,61.342343080132,-22.349507386094));
#531=CARTESIAN_POINT('',(-13.0075797145773,82.7958403369204,-18.149507386094));
#532=CARTESIAN_POINT('',(-13.0075797145773,101.840855755295,-26.5495073860939));
#533=CARTESIAN_POINT('',(-50.6070568899304,61.342343080132,-22.349507386094));
#534=CARTESIAN_POINT('',(-18.6026798156983,58.867888327248,-17.7759886449135));
#535=CARTESIAN_POINT('',(-18.8592968947217,59.2071573220348,-17.5924306834915));
#536=CARTESIAN_POINT('',(-19.0075797145773,59.6243512648813,-17.4196142955715));
#537=CARTESIAN_POINT('',(-19.0075797145773,60.0743938877009,-17.3064621904396));
#538=CARTESIAN_POINT('',(-19.0075797145773,60.0743938877009,-17.3064621904396));
#539=CARTESIAN_POINT('',(-19.0075797145773,61.342343080132,-22.349507386094));
#540=CARTESIAN_POINT('',(-19.0075797145773,61.342343080132,-22.349507386094));
#541=CARTESIAN_POINT('',(-19.0075797145773,62.6102922725631,-17.3064621904396));
#542=CARTESIAN_POINT('',(-19.0075797145773,62.6102922725631,-17.3064621904396));
#543=CARTESIAN_POINT('',(-19.0075797145773,63.0604334563881,-17.4196390763027));
#544=CARTESIAN_POINT('',(-18.8593330406351,63.4774810503432,-17.5924048283527));
#545=CARTESIAN_POINT('',(-18.6026798156984,63.816797833016,-17.7759886449135));
#546=CARTESIAN_POINT('',(-19.0075797145773,61.342343080132,-22.349507386094));
#547=CARTESIAN_POINT('',(-22.8872765111904,61.342343080132,-22.349507386094));
#548=CARTESIAN_POINT('',(-18.5965240452163,58.8597927539402,-17.7803779418864));
#549=CARTESIAN_POINT('',(-18.5965240452163,58.8597927539402,-17.7803779418864));
#550=CARTESIAN_POINT('',(-18.5985827726567,58.8624859864786,-17.7789146247713));
#551=CARTESIAN_POINT('',(-18.6006346945558,58.8651845080132,-17.7774515181922));
#552=CARTESIAN_POINT('',(-18.6026798156983,58.867888327248,-17.7759886449135));
#553=CARTESIAN_POINT('',(-19.0075797145773,61.342343080132,-22.349507386094));
#554=CARTESIAN_POINT('',(-19.0075797145773,61.342343080132,-22.349507386094));
#555=CARTESIAN_POINT('',(-19.0075797145773,61.342343080132,-22.349507386094));
#556=CARTESIAN_POINT('',(-19.0075797145773,62.3423430801318,-14.149507386094));
#557=CARTESIAN_POINT('',(-19.0075797145773,62.3423430801318,-13.8815581936629));
#558=CARTESIAN_POINT('',(-19.0075797145773,62.6102922725629,-14.149507386094));
#559=CARTESIAN_POINT('',(-19.0075797145773,62.6102922725635,-22.3495073860939));
#560=CARTESIAN_POINT('',(-19.0075797145773,60.0743938877009,-22.349507386094));
#561=CARTESIAN_POINT('',(-19.0075797145773,60.0743938877009,-14.149507386094));
#562=CARTESIAN_POINT('',(-19.0075797145773,60.342343080132,-14.149507386094));
#563=CARTESIAN_POINT('',(-19.0075797145773,60.342343080132,-13.8815581936629));
#564=CARTESIAN_POINT('',(-19.0075797145773,61.342343080132,-13.8815581936629));
#565=CARTESIAN_POINT('',(-18.0075797145773,61.342343080132,-22.349507386094));
#566=CARTESIAN_POINT('',(-18.8986968945508,46.1561740185882,-18.1021552697763));
#567=CARTESIAN_POINT('',(-17.0075797145773,60.0743938877009,-16.0883455107679));
#568=CARTESIAN_POINT('',(-18.8986968945508,46.1561740185882,-18.1021552697763));
#569=CARTESIAN_POINT('',(-17.0075797145773,62.610292272563,-16.0883455107677));
#570=CARTESIAN_POINT('',(-17.0075797145773,60.0743938877009,-17.149507386094));
#571=CARTESIAN_POINT('',(-17.0075797145773,60.0743938877009,-14.149507386094));
#572=CARTESIAN_POINT('',(-17.0075797145773,60.342343080132,-14.149507386094));
#573=CARTESIAN_POINT('',(-17.0075797145773,60.342343080132,-13.8815581936629));
#574=CARTESIAN_POINT('',(-17.0075797145773,58.342343080132,-13.8815581936629));
#575=CARTESIAN_POINT('',(-17.0075797145773,62.3423430801318,-13.8815581936629));
#576=CARTESIAN_POINT('',(-17.0075797145773,62.3423430801318,-14.149507386094));
#577=CARTESIAN_POINT('',(-17.0075797145773,62.6102922725629,-14.149507386094));
#578=CARTESIAN_POINT('',(-17.0075797145773,62.6102922725632,-18.1021552697751));
#579=MECHANICAL_DESIGN_GEOMETRIC_PRESENTATION_REPRESENTATION('',(#287),
#580);
#580=(
GEOMETRIC_REPRESENTATION_CONTEXT(3)
GLOBAL_UNCERTAINTY_ASSIGNED_CONTEXT((#581))
GLOBAL_UNIT_ASSIGNED_CONTEXT((#584,#583,#582))
REPRESENTATION_CONTEXT('TappoAC','TOP_LEVEL_ASSEMBLY_PART')
);
#581=UNCERTAINTY_MEASURE_WITH_UNIT(LENGTH_MEASURE(0.005),#584,
'DISTANCE_ACCURACY_VALUE','Maximum Tolerance applied to model');
#582=(
NAMED_UNIT(*)
SI_UNIT($,.STERADIAN.)
SOLID_ANGLE_UNIT()
);
#583=(
NAMED_UNIT(*)
PLANE_ANGLE_UNIT()
SI_UNIT($,.RADIAN.)
);
#584=(
LENGTH_UNIT()
NAMED_UNIT(*)
SI_UNIT(.MILLI.,.METRE.)
);
#585=PRODUCT_DEFINITION_SHAPE('','',#586);
#586=PRODUCT_DEFINITION('','',#588,#587);
#587=PRODUCT_DEFINITION_CONTEXT('',#594,'design');
#588=PRODUCT_DEFINITION_FORMATION_WITH_SPECIFIED_SOURCE('','',#590,
 .NOT_KNOWN.);
#589=PRODUCT_RELATED_PRODUCT_CATEGORY('','',(#590));
#590=PRODUCT('TappoAC','TappoAC','TappoAC',(#592));
#591=PRODUCT_CATEGORY('','');
#592=PRODUCT_CONTEXT('',#594,'mechanical');
#593=APPLICATION_PROTOCOL_DEFINITION('international standard',
'automotive_design',2010,#594);
#594=APPLICATION_CONTEXT(
'core data for automotive mechanical design processes');
ENDSEC;
END-ISO-10303-21;
