ISO-10303-21;
HEADER;
/* Generated by software containing ST-Developer
 * from STEP Tools, Inc. (www.steptools.com) 
 */
/* OPTION: strings as raw bytes, not using required /X/ escapes */

FILE_DESCRIPTION(
/* description */ ('Unknown'),
/* implementation_level */ '2;1');

FILE_NAME(
/* name */ 'TappoUSB',
/* time_stamp */ '2024-01-05T19:18:15+01:00',
/* author */ ('Unknown'),
/* organization */ ('Unknown'),
/* preprocessor_version */ 'ST-DEVELOPER v18.102',
/* originating_system */ 'Solid Edge',
/* authorisation */ 'Unknown');

FILE_SCHEMA (('AUTOMOTIVE_DESIGN {1 0 10303 214 3 1 1}'));
ENDSEC;

DATA;
#10=PROPERTY_DEFINITION_REPRESENTATION(#14,#12);
#11=PROPERTY_DEFINITION_REPRESENTATION(#15,#13);
#12=REPRESENTATION('',(#16),#1096);
#13=REPRESENTATION('',(#17),#1096);
#14=PROPERTY_DEFINITION('pmi validation property','',#1101);
#15=PROPERTY_DEFINITION('pmi validation property','',#1101);
#16=VALUE_REPRESENTATION_ITEM('number of annotations',COUNT_MEASURE(0.));
#17=VALUE_REPRESENTATION_ITEM('number of views',COUNT_MEASURE(0.));
#18=SHAPE_REPRESENTATION_RELATIONSHIP('','',#626,#19);
#19=ADVANCED_BREP_SHAPE_REPRESENTATION('',(#624),#1096);
#20=PLANE('',#631);
#21=PLANE('',#639);
#22=PLANE('',#640);
#23=PLANE('',#644);
#24=PLANE('',#646);
#25=PLANE('',#648);
#26=PLANE('',#649);
#27=PLANE('',#659);
#28=PLANE('',#661);
#29=PLANE('',#664);
#30=PLANE('',#666);
#31=PLANE('',#667);
#32=PLANE('',#672);
#33=PLANE('',#673);
#34=B_SPLINE_CURVE_WITH_KNOTS('',3,(#855,#856,#857,#858,#859),
 .UNSPECIFIED.,.F.,.F.,(4,1,4),(2.71050543121376E-20,0.00157540398201151,
0.00315080796402302),.UNSPECIFIED.);
#35=B_SPLINE_CURVE_WITH_KNOTS('',3,(#863,#864,#865,#866,#867),
 .UNSPECIFIED.,.F.,.F.,(4,1,4),(0.,0.00157545110812962,0.00315090221625923),
 .UNSPECIFIED.);
#36=B_SPLINE_CURVE_WITH_KNOTS('',3,(#878,#879,#880,#881),.UNSPECIFIED.,
 .F.,.F.,(4,4),(6.35167022245631E-14,0.00115061976558008),.UNSPECIFIED.);
#37=B_SPLINE_CURVE_WITH_KNOTS('',3,(#887,#888,#889,#890,#891),
 .UNSPECIFIED.,.F.,.F.,(4,1,4),(0.,0.000826110439934154,0.00165222087986831),
 .UNSPECIFIED.);
#38=B_SPLINE_CURVE_WITH_KNOTS('',3,(#897,#898,#899,#900),.UNSPECIFIED.,
 .F.,.F.,(4,4),(0.,0.00115055885489486),.UNSPECIFIED.);
#39=B_SPLINE_CURVE_WITH_KNOTS('',3,(#901,#902,#903,#904,#905),
 .UNSPECIFIED.,.F.,.F.,(4,1,4),(0.,0.00082622586025095,0.0016524517205019),
 .UNSPECIFIED.);
#40=B_SPLINE_CURVE_WITH_KNOTS('',3,(#909,#910,#911,#912),.UNSPECIFIED.,
 .F.,.F.,(4,4),(0.,0.00112747619129257),.UNSPECIFIED.);
#41=B_SPLINE_CURVE_WITH_KNOTS('',3,(#914,#915,#916,#917),.UNSPECIFIED.,
 .F.,.F.,(4,4),(0.,0.000482201775458009),.UNSPECIFIED.);
#42=B_SPLINE_CURVE_WITH_KNOTS('',3,(#921,#922,#923,#924),.UNSPECIFIED.,
 .F.,.F.,(4,4),(8.67361737988403E-19,0.000482201775458043),
 .UNSPECIFIED.);
#43=B_SPLINE_CURVE_WITH_KNOTS('',3,(#926,#927,#928,#929),.UNSPECIFIED.,
 .F.,.F.,(4,4),(0.00105966052908004,0.00218225100824202),.UNSPECIFIED.);
#44=B_SPLINE_CURVE_WITH_KNOTS('',3,(#944,#945,#946,#947),.UNSPECIFIED.,
 .F.,.F.,(4,4),(0.,0.00228171874417473),.UNSPECIFIED.);
#45=B_SPLINE_CURVE_WITH_KNOTS('',3,(#952,#953,#954,#955,#956),
 .UNSPECIFIED.,.F.,.F.,(4,1,4),(2.71050543121376E-20,0.00157540398201152,
0.00315080796402303),.UNSPECIFIED.);
#46=B_SPLINE_CURVE_WITH_KNOTS('',3,(#957,#958,#959,#960,#961),
 .UNSPECIFIED.,.F.,.F.,(4,1,4),(4.33680868994202E-19,0.00157545110812961,
0.00315090221625922),.UNSPECIFIED.);
#47=B_SPLINE_CURVE_WITH_KNOTS('',3,(#965,#966,#967,#968),.UNSPECIFIED.,
 .F.,.F.,(4,4),(0.00105966052908024,0.00333784212505047),.UNSPECIFIED.);
#48=B_SPLINE_CURVE_WITH_KNOTS('',3,(#970,#971,#972,#973),.UNSPECIFIED.,
 .F.,.F.,(4,4),(2.03288572317277E-16,0.000482201775458043),
 .UNSPECIFIED.);
#49=B_SPLINE_CURVE_WITH_KNOTS('',3,(#977,#978,#979,#980),.UNSPECIFIED.,
 .F.,.F.,(4,4),(8.67361737988403E-19,0.000482201775457997),
 .UNSPECIFIED.);
#50=B_SPLINE_CURVE_WITH_KNOTS('',3,(#1014,#1015,#1016,#1017,#1018),
 .UNSPECIFIED.,.F.,.F.,(4,1,4),(0.,0.000789722269894443,0.00157944453978889),
 .UNSPECIFIED.);
#51=B_SPLINE_CURVE_WITH_KNOTS('',3,(#1021,#1022,#1023,#1024,#1025),
 .UNSPECIFIED.,.F.,.F.,(4,1,4),(1.05519109601004E-17,0.000789709602610736,
0.00157941920522146),.UNSPECIFIED.);
#52=B_SPLINE_CURVE_WITH_KNOTS('',3,(#1079,#1080,#1081,#1082,#1083,#1084),
 .UNSPECIFIED.,.F.,.F.,(4,1,1,4),(0.,0.000766998392544828,0.00153399678508966,
0.00306799357017931),.UNSPECIFIED.);
#53=B_SPLINE_CURVE_WITH_KNOTS('',3,(#1086,#1087,#1088,#1089,#1090,#1091),
 .UNSPECIFIED.,.F.,.F.,(4,1,1,4),(0.,0.000766998392544826,0.00153399678508965,
0.0030679935701793),.UNSPECIFIED.);
#54=LINE('',#847,#101);
#55=LINE('',#849,#102);
#56=LINE('',#851,#103);
#57=LINE('',#861,#104);
#58=LINE('',#869,#105);
#59=LINE('',#872,#106);
#60=LINE('',#874,#107);
#61=LINE('',#876,#108);
#62=LINE('',#893,#109);
#63=LINE('',#919,#110);
#64=LINE('',#931,#111);
#65=LINE('',#933,#112);
#66=LINE('',#935,#113);
#67=LINE('',#936,#114);
#68=LINE('',#938,#115);
#69=LINE('',#941,#116);
#70=LINE('',#942,#117);
#71=LINE('',#975,#118);
#72=LINE('',#982,#119);
#73=LINE('',#986,#120);
#74=LINE('',#988,#121);
#75=LINE('',#992,#122);
#76=LINE('',#994,#123);
#77=LINE('',#996,#124);
#78=LINE('',#998,#125);
#79=LINE('',#1000,#126);
#80=LINE('',#1002,#127);
#81=LINE('',#1004,#128);
#82=LINE('',#1007,#129);
#83=LINE('',#1009,#130);
#84=LINE('',#1011,#131);
#85=LINE('',#1033,#132);
#86=LINE('',#1034,#133);
#87=LINE('',#1036,#134);
#88=LINE('',#1039,#135);
#89=LINE('',#1040,#136);
#90=LINE('',#1042,#137);
#91=LINE('',#1045,#138);
#92=LINE('',#1048,#139);
#93=LINE('',#1050,#140);
#94=LINE('',#1052,#141);
#95=LINE('',#1054,#142);
#96=LINE('',#1059,#143);
#97=LINE('',#1065,#144);
#98=LINE('',#1068,#145);
#99=LINE('',#1069,#146);
#100=LINE('',#1073,#147);
#101=VECTOR('',#689,1000.);
#102=VECTOR('',#690,1000.);
#103=VECTOR('',#691,1000.);
#104=VECTOR('',#694,1000.);
#105=VECTOR('',#697,1000.);
#106=VECTOR('',#698,1000.);
#107=VECTOR('',#699,1000.);
#108=VECTOR('',#700,1000.);
#109=VECTOR('',#707,1000.);
#110=VECTOR('',#716,1000.);
#111=VECTOR('',#717,1000.);
#112=VECTOR('',#718,1000.);
#113=VECTOR('',#721,1000.);
#114=VECTOR('',#722,1000.);
#115=VECTOR('',#725,1000.);
#116=VECTOR('',#726,1000.);
#117=VECTOR('',#727,1000.);
#118=VECTOR('',#734,1000.);
#119=VECTOR('',#737,1000.);
#120=VECTOR('',#740,1000.);
#121=VECTOR('',#741,1000.);
#122=VECTOR('',#746,1000.);
#123=VECTOR('',#747,1000.);
#124=VECTOR('',#748,1000.);
#125=VECTOR('',#751,1000.);
#126=VECTOR('',#752,1000.);
#127=VECTOR('',#753,1000.);
#128=VECTOR('',#756,1000.);
#129=VECTOR('',#757,1000.);
#130=VECTOR('',#758,1000.);
#131=VECTOR('',#759,1000.);
#132=VECTOR('',#782,1000.);
#133=VECTOR('',#783,1000.);
#134=VECTOR('',#786,1000.);
#135=VECTOR('',#791,1000.);
#136=VECTOR('',#792,1000.);
#137=VECTOR('',#795,1000.);
#138=VECTOR('',#800,1000.);
#139=VECTOR('',#801,1000.);
#140=VECTOR('',#802,1000.);
#141=VECTOR('',#803,1000.);
#142=VECTOR('',#806,1000.);
#143=VECTOR('',#809,1000.);
#144=VECTOR('',#818,1000.);
#145=VECTOR('',#819,1000.);
#146=VECTOR('',#820,1000.);
#147=VECTOR('',#825,1000.);
#148=ORIENTED_EDGE('',*,*,#326,.F.);
#149=ORIENTED_EDGE('',*,*,#327,.F.);
#150=ORIENTED_EDGE('',*,*,#328,.F.);
#151=ORIENTED_EDGE('',*,*,#329,.F.);
#152=ORIENTED_EDGE('',*,*,#330,.F.);
#153=ORIENTED_EDGE('',*,*,#331,.F.);
#154=ORIENTED_EDGE('',*,*,#332,.T.);
#155=ORIENTED_EDGE('',*,*,#333,.F.);
#156=ORIENTED_EDGE('',*,*,#334,.T.);
#157=ORIENTED_EDGE('',*,*,#335,.T.);
#158=ORIENTED_EDGE('',*,*,#336,.F.);
#159=ORIENTED_EDGE('',*,*,#337,.F.);
#160=ORIENTED_EDGE('',*,*,#338,.T.);
#161=ORIENTED_EDGE('',*,*,#339,.T.);
#162=ORIENTED_EDGE('',*,*,#329,.T.);
#163=ORIENTED_EDGE('',*,*,#340,.F.);
#164=ORIENTED_EDGE('',*,*,#341,.F.);
#165=ORIENTED_EDGE('',*,*,#342,.F.);
#166=ORIENTED_EDGE('',*,*,#343,.T.);
#167=ORIENTED_EDGE('',*,*,#344,.T.);
#168=ORIENTED_EDGE('',*,*,#334,.F.);
#169=ORIENTED_EDGE('',*,*,#345,.F.);
#170=ORIENTED_EDGE('',*,*,#346,.F.);
#171=ORIENTED_EDGE('',*,*,#327,.T.);
#172=ORIENTED_EDGE('',*,*,#336,.T.);
#173=ORIENTED_EDGE('',*,*,#347,.T.);
#174=ORIENTED_EDGE('',*,*,#348,.T.);
#175=ORIENTED_EDGE('',*,*,#349,.F.);
#176=ORIENTED_EDGE('',*,*,#350,.T.);
#177=ORIENTED_EDGE('',*,*,#351,.T.);
#178=ORIENTED_EDGE('',*,*,#352,.T.);
#179=ORIENTED_EDGE('',*,*,#353,.T.);
#180=ORIENTED_EDGE('',*,*,#352,.F.);
#181=ORIENTED_EDGE('',*,*,#354,.T.);
#182=ORIENTED_EDGE('',*,*,#342,.T.);
#183=ORIENTED_EDGE('',*,*,#355,.T.);
#184=ORIENTED_EDGE('',*,*,#356,.T.);
#185=ORIENTED_EDGE('',*,*,#357,.T.);
#186=ORIENTED_EDGE('',*,*,#332,.F.);
#187=ORIENTED_EDGE('',*,*,#358,.F.);
#188=ORIENTED_EDGE('',*,*,#359,.F.);
#189=ORIENTED_EDGE('',*,*,#360,.F.);
#190=ORIENTED_EDGE('',*,*,#361,.F.);
#191=ORIENTED_EDGE('',*,*,#356,.F.);
#192=ORIENTED_EDGE('',*,*,#362,.F.);
#193=ORIENTED_EDGE('',*,*,#363,.F.);
#194=ORIENTED_EDGE('',*,*,#364,.F.);
#195=ORIENTED_EDGE('',*,*,#365,.T.);
#196=ORIENTED_EDGE('',*,*,#366,.T.);
#197=ORIENTED_EDGE('',*,*,#367,.T.);
#198=ORIENTED_EDGE('',*,*,#368,.F.);
#199=ORIENTED_EDGE('',*,*,#340,.T.);
#200=ORIENTED_EDGE('',*,*,#369,.T.);
#201=ORIENTED_EDGE('',*,*,#370,.T.);
#202=ORIENTED_EDGE('',*,*,#371,.T.);
#203=ORIENTED_EDGE('',*,*,#372,.T.);
#204=ORIENTED_EDGE('',*,*,#346,.T.);
#205=ORIENTED_EDGE('',*,*,#373,.T.);
#206=ORIENTED_EDGE('',*,*,#374,.T.);
#207=ORIENTED_EDGE('',*,*,#375,.F.);
#208=ORIENTED_EDGE('',*,*,#353,.F.);
#209=ORIENTED_EDGE('',*,*,#376,.T.);
#210=ORIENTED_EDGE('',*,*,#377,.T.);
#211=ORIENTED_EDGE('',*,*,#378,.F.);
#212=ORIENTED_EDGE('',*,*,#379,.F.);
#213=ORIENTED_EDGE('',*,*,#380,.T.);
#214=ORIENTED_EDGE('',*,*,#381,.T.);
#215=ORIENTED_EDGE('',*,*,#382,.F.);
#216=ORIENTED_EDGE('',*,*,#379,.T.);
#217=ORIENTED_EDGE('',*,*,#383,.T.);
#218=ORIENTED_EDGE('',*,*,#370,.F.);
#219=ORIENTED_EDGE('',*,*,#384,.T.);
#220=ORIENTED_EDGE('',*,*,#375,.T.);
#221=ORIENTED_EDGE('',*,*,#385,.T.);
#222=ORIENTED_EDGE('',*,*,#381,.F.);
#223=ORIENTED_EDGE('',*,*,#386,.T.);
#224=ORIENTED_EDGE('',*,*,#355,.F.);
#225=ORIENTED_EDGE('',*,*,#341,.T.);
#226=ORIENTED_EDGE('',*,*,#368,.T.);
#227=ORIENTED_EDGE('',*,*,#387,.T.);
#228=ORIENTED_EDGE('',*,*,#376,.F.);
#229=ORIENTED_EDGE('',*,*,#373,.F.);
#230=ORIENTED_EDGE('',*,*,#345,.T.);
#231=ORIENTED_EDGE('',*,*,#337,.T.);
#232=ORIENTED_EDGE('',*,*,#378,.T.);
#233=ORIENTED_EDGE('',*,*,#388,.T.);
#234=ORIENTED_EDGE('',*,*,#369,.F.);
#235=ORIENTED_EDGE('',*,*,#328,.T.);
#236=ORIENTED_EDGE('',*,*,#372,.F.);
#237=ORIENTED_EDGE('',*,*,#386,.F.);
#238=ORIENTED_EDGE('',*,*,#380,.F.);
#239=ORIENTED_EDGE('',*,*,#384,.F.);
#240=ORIENTED_EDGE('',*,*,#382,.T.);
#241=ORIENTED_EDGE('',*,*,#385,.F.);
#242=ORIENTED_EDGE('',*,*,#374,.F.);
#243=ORIENTED_EDGE('',*,*,#388,.F.);
#244=ORIENTED_EDGE('',*,*,#377,.F.);
#245=ORIENTED_EDGE('',*,*,#387,.F.);
#246=ORIENTED_EDGE('',*,*,#371,.F.);
#247=ORIENTED_EDGE('',*,*,#383,.F.);
#248=ORIENTED_EDGE('',*,*,#351,.F.);
#249=ORIENTED_EDGE('',*,*,#389,.T.);
#250=ORIENTED_EDGE('',*,*,#364,.T.);
#251=ORIENTED_EDGE('',*,*,#390,.T.);
#252=ORIENTED_EDGE('',*,*,#338,.F.);
#253=ORIENTED_EDGE('',*,*,#354,.F.);
#254=ORIENTED_EDGE('',*,*,#330,.T.);
#255=ORIENTED_EDGE('',*,*,#339,.F.);
#256=ORIENTED_EDGE('',*,*,#390,.F.);
#257=ORIENTED_EDGE('',*,*,#363,.T.);
#258=ORIENTED_EDGE('',*,*,#391,.T.);
#259=ORIENTED_EDGE('',*,*,#331,.T.);
#260=ORIENTED_EDGE('',*,*,#391,.F.);
#261=ORIENTED_EDGE('',*,*,#362,.T.);
#262=ORIENTED_EDGE('',*,*,#358,.T.);
#263=ORIENTED_EDGE('',*,*,#359,.T.);
#264=ORIENTED_EDGE('',*,*,#392,.T.);
#265=ORIENTED_EDGE('',*,*,#347,.F.);
#266=ORIENTED_EDGE('',*,*,#335,.F.);
#267=ORIENTED_EDGE('',*,*,#344,.F.);
#268=ORIENTED_EDGE('',*,*,#393,.F.);
#269=ORIENTED_EDGE('',*,*,#326,.T.);
#270=ORIENTED_EDGE('',*,*,#394,.F.);
#271=ORIENTED_EDGE('',*,*,#360,.T.);
#272=ORIENTED_EDGE('',*,*,#393,.T.);
#273=ORIENTED_EDGE('',*,*,#343,.F.);
#274=ORIENTED_EDGE('',*,*,#333,.T.);
#275=ORIENTED_EDGE('',*,*,#357,.F.);
#276=ORIENTED_EDGE('',*,*,#361,.T.);
#277=ORIENTED_EDGE('',*,*,#394,.T.);
#278=ORIENTED_EDGE('',*,*,#395,.T.);
#279=ORIENTED_EDGE('',*,*,#396,.T.);
#280=ORIENTED_EDGE('',*,*,#397,.F.);
#281=ORIENTED_EDGE('',*,*,#398,.T.);
#282=ORIENTED_EDGE('',*,*,#399,.T.);
#283=ORIENTED_EDGE('',*,*,#400,.T.);
#284=ORIENTED_EDGE('',*,*,#401,.T.);
#285=ORIENTED_EDGE('',*,*,#402,.T.);
#286=ORIENTED_EDGE('',*,*,#366,.F.);
#287=ORIENTED_EDGE('',*,*,#403,.T.);
#288=ORIENTED_EDGE('',*,*,#395,.F.);
#289=ORIENTED_EDGE('',*,*,#404,.T.);
#290=ORIENTED_EDGE('',*,*,#405,.T.);
#291=ORIENTED_EDGE('',*,*,#406,.T.);
#292=ORIENTED_EDGE('',*,*,#401,.F.);
#293=ORIENTED_EDGE('',*,*,#407,.T.);
#294=ORIENTED_EDGE('',*,*,#405,.F.);
#295=ORIENTED_EDGE('',*,*,#408,.T.);
#296=ORIENTED_EDGE('',*,*,#409,.T.);
#297=ORIENTED_EDGE('',*,*,#410,.T.);
#298=ORIENTED_EDGE('',*,*,#397,.T.);
#299=ORIENTED_EDGE('',*,*,#411,.T.);
#300=ORIENTED_EDGE('',*,*,#349,.T.);
#301=ORIENTED_EDGE('',*,*,#412,.T.);
#302=ORIENTED_EDGE('',*,*,#398,.F.);
#303=ORIENTED_EDGE('',*,*,#410,.F.);
#304=ORIENTED_EDGE('',*,*,#413,.F.);
#305=ORIENTED_EDGE('',*,*,#404,.F.);
#306=ORIENTED_EDGE('',*,*,#414,.F.);
#307=ORIENTED_EDGE('',*,*,#399,.F.);
#308=ORIENTED_EDGE('',*,*,#413,.T.);
#309=ORIENTED_EDGE('',*,*,#409,.F.);
#310=ORIENTED_EDGE('',*,*,#400,.F.);
#311=ORIENTED_EDGE('',*,*,#414,.T.);
#312=ORIENTED_EDGE('',*,*,#408,.F.);
#313=ORIENTED_EDGE('',*,*,#407,.F.);
#314=ORIENTED_EDGE('',*,*,#365,.F.);
#315=ORIENTED_EDGE('',*,*,#389,.F.);
#316=ORIENTED_EDGE('',*,*,#350,.F.);
#317=ORIENTED_EDGE('',*,*,#411,.F.);
#318=ORIENTED_EDGE('',*,*,#396,.F.);
#319=ORIENTED_EDGE('',*,*,#403,.F.);
#320=ORIENTED_EDGE('',*,*,#402,.F.);
#321=ORIENTED_EDGE('',*,*,#406,.F.);
#322=ORIENTED_EDGE('',*,*,#412,.F.);
#323=ORIENTED_EDGE('',*,*,#348,.F.);
#324=ORIENTED_EDGE('',*,*,#392,.F.);
#325=ORIENTED_EDGE('',*,*,#367,.F.);
#326=EDGE_CURVE('',#415,#416,#473,.F.);
#327=EDGE_CURVE('',#417,#415,#54,.T.);
#328=EDGE_CURVE('',#418,#417,#55,.T.);
#329=EDGE_CURVE('',#419,#418,#56,.T.);
#330=EDGE_CURVE('',#420,#419,#474,.F.);
#331=EDGE_CURVE('',#421,#420,#34,.T.);
#332=EDGE_CURVE('',#421,#422,#57,.T.);
#333=EDGE_CURVE('',#416,#422,#35,.T.);
#334=EDGE_CURVE('',#423,#424,#58,.T.);
#335=EDGE_CURVE('',#424,#425,#59,.T.);
#336=EDGE_CURVE('',#426,#425,#60,.T.);
#337=EDGE_CURVE('',#423,#426,#61,.T.);
#338=EDGE_CURVE('',#427,#428,#36,.T.);
#339=EDGE_CURVE('',#428,#419,#475,.T.);
#340=EDGE_CURVE('',#429,#418,#476,.F.);
#341=EDGE_CURVE('',#430,#429,#37,.T.);
#342=EDGE_CURVE('',#427,#430,#62,.T.);
#343=EDGE_CURVE('',#415,#431,#477,.T.);
#344=EDGE_CURVE('',#431,#424,#38,.T.);
#345=EDGE_CURVE('',#432,#423,#39,.T.);
#346=EDGE_CURVE('',#417,#432,#478,.F.);
#347=EDGE_CURVE('',#425,#433,#40,.T.);
#348=EDGE_CURVE('',#433,#434,#41,.T.);
#349=EDGE_CURVE('',#435,#434,#63,.T.);
#350=EDGE_CURVE('',#435,#436,#42,.T.);
#351=EDGE_CURVE('',#436,#437,#43,.T.);
#352=EDGE_CURVE('',#437,#438,#64,.T.);
#353=EDGE_CURVE('',#438,#426,#65,.T.);
#354=EDGE_CURVE('',#437,#427,#66,.F.);
#355=EDGE_CURVE('',#430,#438,#67,.T.);
#356=EDGE_CURVE('',#439,#440,#68,.T.);
#357=EDGE_CURVE('',#440,#422,#69,.T.);
#358=EDGE_CURVE('',#439,#421,#70,.T.);
#359=EDGE_CURVE('',#441,#442,#44,.T.);
#360=EDGE_CURVE('',#443,#441,#479,.T.);
#361=EDGE_CURVE('',#440,#443,#45,.T.);
#362=EDGE_CURVE('',#444,#439,#46,.T.);
#363=EDGE_CURVE('',#445,#444,#480,.T.);
#364=EDGE_CURVE('',#446,#445,#47,.T.);
#365=EDGE_CURVE('',#446,#447,#48,.T.);
#366=EDGE_CURVE('',#447,#448,#71,.T.);
#367=EDGE_CURVE('',#448,#442,#49,.T.);
#368=EDGE_CURVE('',#429,#449,#72,.T.);
#369=EDGE_CURVE('',#418,#450,#481,.F.);
#370=EDGE_CURVE('',#450,#451,#73,.T.);
#371=EDGE_CURVE('',#451,#449,#74,.T.);
#372=EDGE_CURVE('',#452,#417,#482,.F.);
#373=EDGE_CURVE('',#432,#453,#75,.T.);
#374=EDGE_CURVE('',#453,#454,#76,.T.);
#375=EDGE_CURVE('',#452,#454,#77,.T.);
#376=EDGE_CURVE('',#438,#455,#78,.T.);
#377=EDGE_CURVE('',#455,#456,#79,.T.);
#378=EDGE_CURVE('',#426,#456,#80,.T.);
#379=EDGE_CURVE('',#457,#458,#81,.T.);
#380=EDGE_CURVE('',#457,#459,#82,.T.);
#381=EDGE_CURVE('',#459,#460,#83,.T.);
#382=EDGE_CURVE('',#458,#460,#84,.T.);
#383=EDGE_CURVE('',#458,#451,#483,.T.);
#384=EDGE_CURVE('',#450,#457,#50,.T.);
#385=EDGE_CURVE('',#454,#460,#484,.T.);
#386=EDGE_CURVE('',#459,#452,#51,.T.);
#387=EDGE_CURVE('',#449,#455,#485,.T.);
#388=EDGE_CURVE('',#456,#453,#486,.T.);
#389=EDGE_CURVE('',#436,#446,#85,.F.);
#390=EDGE_CURVE('',#445,#428,#86,.T.);
#391=EDGE_CURVE('',#444,#420,#87,.T.);
#392=EDGE_CURVE('',#442,#433,#88,.T.);
#393=EDGE_CURVE('',#441,#431,#89,.T.);
#394=EDGE_CURVE('',#443,#416,#90,.T.);
#395=EDGE_CURVE('',#461,#462,#91,.T.);
#396=EDGE_CURVE('',#462,#463,#92,.F.);
#397=EDGE_CURVE('',#464,#463,#93,.T.);
#398=EDGE_CURVE('',#464,#461,#94,.T.);
#399=EDGE_CURVE('',#465,#466,#95,.T.);
#400=EDGE_CURVE('',#466,#467,#487,.T.);
#401=EDGE_CURVE('',#467,#468,#96,.T.);
#402=EDGE_CURVE('',#468,#448,#488,.F.);
#403=EDGE_CURVE('',#447,#462,#489,.F.);
#404=EDGE_CURVE('',#461,#465,#490,.T.);
#405=EDGE_CURVE('',#469,#470,#97,.T.);
#406=EDGE_CURVE('',#470,#468,#98,.T.);
#407=EDGE_CURVE('',#467,#469,#99,.T.);
#408=EDGE_CURVE('',#469,#471,#491,.T.);
#409=EDGE_CURVE('',#471,#472,#100,.T.);
#410=EDGE_CURVE('',#472,#464,#492,.T.);
#411=EDGE_CURVE('',#463,#435,#493,.F.);
#412=EDGE_CURVE('',#434,#470,#494,.F.);
#413=EDGE_CURVE('',#465,#472,#52,.F.);
#414=EDGE_CURVE('',#466,#471,#53,.F.);
#415=VERTEX_POINT('',#845);
#416=VERTEX_POINT('',#846);
#417=VERTEX_POINT('',#848);
#418=VERTEX_POINT('',#850);
#419=VERTEX_POINT('',#852);
#420=VERTEX_POINT('',#854);
#421=VERTEX_POINT('',#860);
#422=VERTEX_POINT('',#862);
#423=VERTEX_POINT('',#870);
#424=VERTEX_POINT('',#871);
#425=VERTEX_POINT('',#873);
#426=VERTEX_POINT('',#875);
#427=VERTEX_POINT('',#882);
#428=VERTEX_POINT('',#883);
#429=VERTEX_POINT('',#886);
#430=VERTEX_POINT('',#892);
#431=VERTEX_POINT('',#896);
#432=VERTEX_POINT('',#906);
#433=VERTEX_POINT('',#913);
#434=VERTEX_POINT('',#918);
#435=VERTEX_POINT('',#920);
#436=VERTEX_POINT('',#925);
#437=VERTEX_POINT('',#930);
#438=VERTEX_POINT('',#932);
#439=VERTEX_POINT('',#939);
#440=VERTEX_POINT('',#940);
#441=VERTEX_POINT('',#948);
#442=VERTEX_POINT('',#949);
#443=VERTEX_POINT('',#951);
#444=VERTEX_POINT('',#962);
#445=VERTEX_POINT('',#964);
#446=VERTEX_POINT('',#969);
#447=VERTEX_POINT('',#974);
#448=VERTEX_POINT('',#976);
#449=VERTEX_POINT('',#983);
#450=VERTEX_POINT('',#985);
#451=VERTEX_POINT('',#987);
#452=VERTEX_POINT('',#991);
#453=VERTEX_POINT('',#993);
#454=VERTEX_POINT('',#995);
#455=VERTEX_POINT('',#999);
#456=VERTEX_POINT('',#1001);
#457=VERTEX_POINT('',#1005);
#458=VERTEX_POINT('',#1006);
#459=VERTEX_POINT('',#1008);
#460=VERTEX_POINT('',#1010);
#461=VERTEX_POINT('',#1046);
#462=VERTEX_POINT('',#1047);
#463=VERTEX_POINT('',#1049);
#464=VERTEX_POINT('',#1051);
#465=VERTEX_POINT('',#1055);
#466=VERTEX_POINT('',#1056);
#467=VERTEX_POINT('',#1058);
#468=VERTEX_POINT('',#1060);
#469=VERTEX_POINT('',#1066);
#470=VERTEX_POINT('',#1067);
#471=VERTEX_POINT('',#1072);
#472=VERTEX_POINT('',#1074);
#473=CIRCLE('',#629,14.4445305662857);
#474=CIRCLE('',#630,14.4445305662857);
#475=CIRCLE('',#633,14.3674540202994);
#476=CIRCLE('',#634,14.3674540202994);
#477=CIRCLE('',#636,14.3674540202994);
#478=CIRCLE('',#637,14.3674540202994);
#479=CIRCLE('',#642,14.4445305662857);
#480=CIRCLE('',#643,14.4445305662857);
#481=CIRCLE('',#645,14.3674540202994);
#482=CIRCLE('',#647,14.3674540202994);
#483=CIRCLE('',#651,0.999999999999998);
#484=CIRCLE('',#653,0.999999999999984);
#485=CIRCLE('',#655,0.999999999999997);
#486=CIRCLE('',#657,0.999999999999997);
#487=CIRCLE('',#668,2.);
#488=CIRCLE('',#669,2.);
#489=CIRCLE('',#670,2.);
#490=CIRCLE('',#671,2.);
#491=CIRCLE('',#674,2.);
#492=CIRCLE('',#675,2.);
#493=CIRCLE('',#676,2.);
#494=CIRCLE('',#677,2.);
#495=EDGE_LOOP('',(#148,#149,#150,#151,#152,#153,#154,#155));
#496=EDGE_LOOP('',(#156,#157,#158,#159));
#497=EDGE_LOOP('',(#160,#161,#162,#163,#164,#165));
#498=EDGE_LOOP('',(#166,#167,#168,#169,#170,#171));
#499=EDGE_LOOP('',(#172,#173,#174,#175,#176,#177,#178,#179));
#500=EDGE_LOOP('',(#180,#181,#182,#183));
#501=EDGE_LOOP('',(#184,#185,#186,#187));
#502=EDGE_LOOP('',(#188,#189,#190,#191,#192,#193,#194,#195,#196,#197));
#503=EDGE_LOOP('',(#198,#199,#200,#201,#202));
#504=EDGE_LOOP('',(#203,#204,#205,#206,#207));
#505=EDGE_LOOP('',(#208,#209,#210,#211));
#506=EDGE_LOOP('',(#212,#213,#214,#215));
#507=EDGE_LOOP('',(#216,#217,#218,#219));
#508=EDGE_LOOP('',(#220,#221,#222,#223));
#509=EDGE_LOOP('',(#224,#225,#226,#227,#228));
#510=EDGE_LOOP('',(#229,#230,#231,#232,#233));
#511=EDGE_LOOP('',(#234,#235,#236,#237,#238,#239));
#512=EDGE_LOOP('',(#240,#241,#242,#243,#244,#245,#246,#247));
#513=EDGE_LOOP('',(#248,#249,#250,#251,#252,#253));
#514=EDGE_LOOP('',(#254,#255,#256,#257,#258));
#515=EDGE_LOOP('',(#259,#260,#261,#262));
#516=EDGE_LOOP('',(#263,#264,#265,#266,#267,#268));
#517=EDGE_LOOP('',(#269,#270,#271,#272,#273));
#518=EDGE_LOOP('',(#274,#275,#276,#277));
#519=EDGE_LOOP('',(#278,#279,#280,#281));
#520=EDGE_LOOP('',(#282,#283,#284,#285,#286,#287,#288,#289));
#521=EDGE_LOOP('',(#290,#291,#292,#293));
#522=EDGE_LOOP('',(#294,#295,#296,#297,#298,#299,#300,#301));
#523=EDGE_LOOP('',(#302,#303,#304,#305));
#524=EDGE_LOOP('',(#306,#307,#308,#309));
#525=EDGE_LOOP('',(#310,#311,#312,#313));
#526=EDGE_LOOP('',(#314,#315,#316,#317,#318,#319));
#527=EDGE_LOOP('',(#320,#321,#322,#323,#324,#325));
#528=FACE_BOUND('',#495,.T.);
#529=FACE_BOUND('',#496,.T.);
#530=FACE_BOUND('',#497,.T.);
#531=FACE_BOUND('',#498,.T.);
#532=FACE_BOUND('',#499,.T.);
#533=FACE_BOUND('',#500,.T.);
#534=FACE_BOUND('',#501,.T.);
#535=FACE_BOUND('',#502,.T.);
#536=FACE_BOUND('',#503,.T.);
#537=FACE_BOUND('',#504,.T.);
#538=FACE_BOUND('',#505,.T.);
#539=FACE_BOUND('',#506,.T.);
#540=FACE_BOUND('',#507,.T.);
#541=FACE_BOUND('',#508,.T.);
#542=FACE_BOUND('',#509,.T.);
#543=FACE_BOUND('',#510,.T.);
#544=FACE_BOUND('',#511,.T.);
#545=FACE_BOUND('',#512,.T.);
#546=FACE_BOUND('',#513,.T.);
#547=FACE_BOUND('',#514,.T.);
#548=FACE_BOUND('',#515,.T.);
#549=FACE_BOUND('',#516,.T.);
#550=FACE_BOUND('',#517,.T.);
#551=FACE_BOUND('',#518,.T.);
#552=FACE_BOUND('',#519,.T.);
#553=FACE_BOUND('',#520,.T.);
#554=FACE_BOUND('',#521,.T.);
#555=FACE_BOUND('',#522,.T.);
#556=FACE_BOUND('',#523,.T.);
#557=FACE_BOUND('',#524,.T.);
#558=FACE_BOUND('',#525,.T.);
#559=FACE_BOUND('',#526,.T.);
#560=FACE_BOUND('',#527,.T.);
#561=CYLINDRICAL_SURFACE('',#628,14.4445305662857);
#562=CYLINDRICAL_SURFACE('',#632,14.3674540202994);
#563=CYLINDRICAL_SURFACE('',#635,14.3674540202994);
#564=CYLINDRICAL_SURFACE('',#638,14.4445305662857);
#565=CYLINDRICAL_SURFACE('',#641,14.4445305662857);
#566=CYLINDRICAL_SURFACE('',#650,0.999999999999998);
#567=CYLINDRICAL_SURFACE('',#652,0.999999999999984);
#568=CYLINDRICAL_SURFACE('',#654,0.999999999999997);
#569=CYLINDRICAL_SURFACE('',#656,0.999999999999997);
#570=CYLINDRICAL_SURFACE('',#658,14.3674540202994);
#571=CYLINDRICAL_SURFACE('',#660,2.);
#572=CYLINDRICAL_SURFACE('',#662,2.);
#573=CYLINDRICAL_SURFACE('',#663,2.);
#574=CYLINDRICAL_SURFACE('',#665,2.);
#575=CYLINDRICAL_SURFACE('',#678,2.);
#576=CYLINDRICAL_SURFACE('',#679,2.);
#577=CYLINDRICAL_SURFACE('',#680,2.);
#578=CYLINDRICAL_SURFACE('',#681,2.);
#579=CYLINDRICAL_SURFACE('',#682,2.);
#580=ADVANCED_FACE('',(#528),#561,.F.);
#581=ADVANCED_FACE('',(#529),#20,.T.);
#582=ADVANCED_FACE('',(#530),#562,.F.);
#583=ADVANCED_FACE('',(#531),#563,.F.);
#584=ADVANCED_FACE('',(#532),#564,.F.);
#585=ADVANCED_FACE('',(#533),#21,.T.);
#586=ADVANCED_FACE('',(#534),#22,.T.);
#587=ADVANCED_FACE('',(#535),#565,.T.);
#588=ADVANCED_FACE('',(#536),#23,.F.);
#589=ADVANCED_FACE('',(#537),#24,.F.);
#590=ADVANCED_FACE('',(#538),#25,.F.);
#591=ADVANCED_FACE('',(#539),#26,.F.);
#592=ADVANCED_FACE('',(#540),#566,.T.);
#593=ADVANCED_FACE('',(#541),#567,.T.);
#594=ADVANCED_FACE('',(#542),#568,.T.);
#595=ADVANCED_FACE('',(#543),#569,.T.);
#596=ADVANCED_FACE('',(#544),#570,.T.);
#597=ADVANCED_FACE('',(#545),#27,.F.);
#598=ADVANCED_FACE('',(#546),#571,.T.);
#599=ADVANCED_FACE('',(#547),#28,.T.);
#600=ADVANCED_FACE('',(#548),#572,.T.);
#601=ADVANCED_FACE('',(#549),#573,.T.);
#602=ADVANCED_FACE('',(#550),#29,.T.);
#603=ADVANCED_FACE('',(#551),#574,.T.);
#604=ADVANCED_FACE('',(#552),#30,.T.);
#605=ADVANCED_FACE('',(#553),#31,.T.);
#606=ADVANCED_FACE('',(#554),#32,.T.);
#607=ADVANCED_FACE('',(#555),#33,.T.);
#608=ADVANCED_FACE('',(#556),#575,.T.);
#609=ADVANCED_FACE('',(#557),#576,.T.);
#610=ADVANCED_FACE('',(#558),#577,.T.);
#611=ADVANCED_FACE('',(#559),#578,.F.);
#612=ADVANCED_FACE('',(#560),#579,.F.);
#613=CLOSED_SHELL('',(#580,#581,#582,#583,#584,#585,#586,#587,#588,#589,
#590,#591,#592,#593,#594,#595,#596,#597,#598,#599,#600,#601,#602,#603,#604,
#605,#606,#607,#608,#609,#610,#611,#612));
#614=STYLED_ITEM('',(#615),#624);
#615=PRESENTATION_STYLE_ASSIGNMENT((#616));
#616=SURFACE_STYLE_USAGE(.BOTH.,#617);
#617=SURFACE_SIDE_STYLE('',(#620,#618));
#618=SURFACE_STYLE_RENDERING_WITH_PROPERTIES(.CONSTANT_SHADING.,#623,(#619));
#619=SURFACE_STYLE_TRANSPARENT(0.625);
#620=SURFACE_STYLE_FILL_AREA(#621);
#621=FILL_AREA_STYLE('',(#622));
#622=FILL_AREA_STYLE_COLOUR('',#623);
#623=DRAUGHTING_PRE_DEFINED_COLOUR('white');
#624=MANIFOLD_SOLID_BREP('',#613);
#625=SHAPE_DEFINITION_REPRESENTATION(#1101,#626);
#626=SHAPE_REPRESENTATION('TappoUSB',(#627),#1096);
#627=AXIS2_PLACEMENT_3D('',#842,#683,#684);
#628=AXIS2_PLACEMENT_3D('',#843,#685,#686);
#629=AXIS2_PLACEMENT_3D('',#844,#687,#688);
#630=AXIS2_PLACEMENT_3D('',#853,#692,#693);
#631=AXIS2_PLACEMENT_3D('',#868,#695,#696);
#632=AXIS2_PLACEMENT_3D('',#877,#701,#702);
#633=AXIS2_PLACEMENT_3D('',#884,#703,#704);
#634=AXIS2_PLACEMENT_3D('',#885,#705,#706);
#635=AXIS2_PLACEMENT_3D('',#894,#708,#709);
#636=AXIS2_PLACEMENT_3D('',#895,#710,#711);
#637=AXIS2_PLACEMENT_3D('',#907,#712,#713);
#638=AXIS2_PLACEMENT_3D('',#908,#714,#715);
#639=AXIS2_PLACEMENT_3D('',#934,#719,#720);
#640=AXIS2_PLACEMENT_3D('',#937,#723,#724);
#641=AXIS2_PLACEMENT_3D('',#943,#728,#729);
#642=AXIS2_PLACEMENT_3D('',#950,#730,#731);
#643=AXIS2_PLACEMENT_3D('',#963,#732,#733);
#644=AXIS2_PLACEMENT_3D('',#981,#735,#736);
#645=AXIS2_PLACEMENT_3D('',#984,#738,#739);
#646=AXIS2_PLACEMENT_3D('',#989,#742,#743);
#647=AXIS2_PLACEMENT_3D('',#990,#744,#745);
#648=AXIS2_PLACEMENT_3D('',#997,#749,#750);
#649=AXIS2_PLACEMENT_3D('',#1003,#754,#755);
#650=AXIS2_PLACEMENT_3D('',#1012,#760,#761);
#651=AXIS2_PLACEMENT_3D('',#1013,#762,#763);
#652=AXIS2_PLACEMENT_3D('',#1019,#764,#765);
#653=AXIS2_PLACEMENT_3D('',#1020,#766,#767);
#654=AXIS2_PLACEMENT_3D('',#1026,#768,#769);
#655=AXIS2_PLACEMENT_3D('',#1027,#770,#771);
#656=AXIS2_PLACEMENT_3D('',#1028,#772,#773);
#657=AXIS2_PLACEMENT_3D('',#1029,#774,#775);
#658=AXIS2_PLACEMENT_3D('',#1030,#776,#777);
#659=AXIS2_PLACEMENT_3D('',#1031,#778,#779);
#660=AXIS2_PLACEMENT_3D('',#1032,#780,#781);
#661=AXIS2_PLACEMENT_3D('',#1035,#784,#785);
#662=AXIS2_PLACEMENT_3D('',#1037,#787,#788);
#663=AXIS2_PLACEMENT_3D('',#1038,#789,#790);
#664=AXIS2_PLACEMENT_3D('',#1041,#793,#794);
#665=AXIS2_PLACEMENT_3D('',#1043,#796,#797);
#666=AXIS2_PLACEMENT_3D('',#1044,#798,#799);
#667=AXIS2_PLACEMENT_3D('',#1053,#804,#805);
#668=AXIS2_PLACEMENT_3D('',#1057,#807,#808);
#669=AXIS2_PLACEMENT_3D('',#1061,#810,#811);
#670=AXIS2_PLACEMENT_3D('',#1062,#812,#813);
#671=AXIS2_PLACEMENT_3D('',#1063,#814,#815);
#672=AXIS2_PLACEMENT_3D('',#1064,#816,#817);
#673=AXIS2_PLACEMENT_3D('',#1070,#821,#822);
#674=AXIS2_PLACEMENT_3D('',#1071,#823,#824);
#675=AXIS2_PLACEMENT_3D('',#1075,#826,#827);
#676=AXIS2_PLACEMENT_3D('',#1076,#828,#829);
#677=AXIS2_PLACEMENT_3D('',#1077,#830,#831);
#678=AXIS2_PLACEMENT_3D('',#1078,#832,#833);
#679=AXIS2_PLACEMENT_3D('',#1085,#834,#835);
#680=AXIS2_PLACEMENT_3D('',#1092,#836,#837);
#681=AXIS2_PLACEMENT_3D('',#1093,#838,#839);
#682=AXIS2_PLACEMENT_3D('',#1094,#840,#841);
#683=DIRECTION('',(0.,0.,1.));
#684=DIRECTION('',(1.,0.,0.));
#685=DIRECTION('',(0.,1.,0.));
#686=DIRECTION('',(0.,0.,1.));
#687=DIRECTION('',(0.,1.,1.44560289664734E-15));
#688=DIRECTION('',(0.,-1.44560289664734E-15,1.));
#689=DIRECTION('',(0.,1.,0.));
#690=DIRECTION('',(0.,1.,0.));
#691=DIRECTION('',(0.,1.,0.));
#692=DIRECTION('',(0.,-1.,-5.7824115865913E-17));
#693=DIRECTION('',(0.,5.7824115865913E-17,-1.));
#694=DIRECTION('',(0.,1.,0.));
#695=DIRECTION('',(1.59292261459605E-12,0.,-1.));
#696=DIRECTION('',(-1.,0.,-1.59292261459605E-12));
#697=DIRECTION('',(0.,1.,0.));
#698=DIRECTION('',(1.,0.,0.));
#699=DIRECTION('',(0.,1.,0.));
#700=DIRECTION('',(1.,0.,0.));
#701=DIRECTION('',(0.,1.,0.));
#702=DIRECTION('',(0.,0.,1.));
#703=DIRECTION('',(0.,-1.,-5.7824115865913E-17));
#704=DIRECTION('',(0.,5.7824115865913E-17,-1.));
#705=DIRECTION('',(0.,1.,0.));
#706=DIRECTION('',(0.,0.,1.));
#707=DIRECTION('',(0.,1.,0.));
#708=DIRECTION('',(0.,1.,0.));
#709=DIRECTION('',(0.,0.,1.));
#710=DIRECTION('',(0.,1.,1.44560289664734E-15));
#711=DIRECTION('',(0.,-1.44560289664734E-15,1.));
#712=DIRECTION('',(0.,-1.,-1.38777878078144E-15));
#713=DIRECTION('',(0.,1.38777878078144E-15,-1.));
#714=DIRECTION('',(0.,1.,0.));
#715=DIRECTION('',(0.,0.,1.));
#716=DIRECTION('',(0.,1.,0.));
#717=DIRECTION('',(0.,1.,0.));
#718=DIRECTION('',(0.,1.,0.));
#719=DIRECTION('',(1.59292261459605E-12,0.,-1.));
#720=DIRECTION('',(-1.,0.,-1.59292261459605E-12));
#721=DIRECTION('',(1.,0.,0.));
#722=DIRECTION('',(1.,0.,0.));
#723=DIRECTION('',(2.30392961653169E-15,0.,-1.));
#724=DIRECTION('',(-1.,0.,-2.30392961653169E-15));
#725=DIRECTION('',(0.,1.,0.));
#726=DIRECTION('',(1.,0.,0.));
#727=DIRECTION('',(1.,0.,0.));
#728=DIRECTION('',(0.,1.,0.));
#729=DIRECTION('',(0.,0.,1.));
#730=DIRECTION('',(0.,1.,1.44560289664734E-15));
#731=DIRECTION('',(0.,-1.44560289664734E-15,1.));
#732=DIRECTION('',(0.,-1.,-5.7824115865913E-17));
#733=DIRECTION('',(0.,5.7824115865913E-17,-1.));
#734=DIRECTION('',(0.,1.,0.));
#735=DIRECTION('',(0.,1.,0.));
#736=DIRECTION('',(0.,0.,1.));
#737=DIRECTION('',(1.,0.,0.));
#738=DIRECTION('',(0.,1.,0.));
#739=DIRECTION('',(0.,0.,1.));
#740=DIRECTION('',(1.,0.,0.));
#741=DIRECTION('',(0.,0.,1.));
#742=DIRECTION('',(0.,-1.,-1.38777878078144E-15));
#743=DIRECTION('',(0.,1.38777878078144E-15,-1.));
#744=DIRECTION('',(0.,-1.,-1.38777878078144E-15));
#745=DIRECTION('',(0.,1.38777878078144E-15,-1.));
#746=DIRECTION('',(1.,0.,0.));
#747=DIRECTION('',(0.,1.38777878078144E-15,-1.));
#748=DIRECTION('',(1.,0.,0.));
#749=DIRECTION('',(0.,3.04337451925756E-16,-1.));
#750=DIRECTION('',(0.,1.,3.04337451925756E-16));
#751=DIRECTION('',(1.,0.,0.));
#752=DIRECTION('',(0.,1.,0.));
#753=DIRECTION('',(1.,0.,0.));
#754=DIRECTION('',(0.,-1.3695185336659E-15,1.));
#755=DIRECTION('',(0.,-1.,-1.3695185336659E-15));
#756=DIRECTION('',(1.,0.,0.));
#757=DIRECTION('',(0.,1.,0.));
#758=DIRECTION('',(1.,0.,0.));
#759=DIRECTION('',(0.,1.,0.));
#760=DIRECTION('',(1.,0.,0.));
#761=DIRECTION('',(0.,0.,-1.));
#762=DIRECTION('',(-1.,0.,0.));
#763=DIRECTION('',(0.,0.,1.));
#764=DIRECTION('',(1.,0.,0.));
#765=DIRECTION('',(0.,0.,-1.));
#766=DIRECTION('',(-1.,0.,0.));
#767=DIRECTION('',(0.,0.,1.));
#768=DIRECTION('',(1.,0.,0.));
#769=DIRECTION('',(0.,0.,-1.));
#770=DIRECTION('',(-1.,0.,0.));
#771=DIRECTION('',(0.,0.,1.));
#772=DIRECTION('',(1.,0.,0.));
#773=DIRECTION('',(0.,0.,-1.));
#774=DIRECTION('',(-1.,0.,0.));
#775=DIRECTION('',(0.,0.,1.));
#776=DIRECTION('',(0.,1.,0.));
#777=DIRECTION('',(0.,0.,1.));
#778=DIRECTION('',(-1.,0.,0.));
#779=DIRECTION('',(0.,0.,1.));
#780=DIRECTION('',(1.,0.,0.));
#781=DIRECTION('',(0.,0.,-1.));
#782=DIRECTION('',(1.,0.,0.));
#783=DIRECTION('',(1.,0.,0.));
#784=DIRECTION('',(0.,-1.,-5.7824115865913E-17));
#785=DIRECTION('',(0.,5.7824115865913E-17,-1.));
#786=DIRECTION('',(1.,0.,0.));
#787=DIRECTION('',(1.,0.,0.));
#788=DIRECTION('',(0.,0.,-1.));
#789=DIRECTION('',(1.,0.,0.));
#790=DIRECTION('',(0.,0.,-1.));
#791=DIRECTION('',(1.,0.,0.));
#792=DIRECTION('',(1.,0.,0.));
#793=DIRECTION('',(0.,1.,1.44560289664734E-15));
#794=DIRECTION('',(0.,-1.44560289664734E-15,1.));
#795=DIRECTION('',(1.,0.,0.));
#796=DIRECTION('',(1.,0.,0.));
#797=DIRECTION('',(0.,0.,-1.));
#798=DIRECTION('',(3.46944695195361E-15,-1.,1.50463276905253E-29));
#799=DIRECTION('',(1.,3.46944695195361E-15,0.));
#800=DIRECTION('',(4.33680868994201E-15,0.,-1.));
#801=DIRECTION('',(-1.,-3.46944695195361E-15,5.22024357439881E-44));
#802=DIRECTION('',(4.33680868994201E-15,0.,-1.));
#803=DIRECTION('',(-1.,-3.46944695195361E-15,-4.33680868994201E-15));
#804=DIRECTION('',(-1.,0.,-4.33680868994201E-15));
#805=DIRECTION('',(-4.33680868994201E-15,0.,1.));
#806=DIRECTION('',(0.,1.,0.));
#807=DIRECTION('',(-1.,0.,-4.33680868994201E-15));
#808=DIRECTION('',(-4.33680868994201E-15,0.,1.));
#809=DIRECTION('',(4.33680868994201E-15,0.,-1.));
#810=DIRECTION('',(-1.,0.,-4.33680868994201E-15));
#811=DIRECTION('',(-4.33680868994201E-15,0.,1.));
#812=DIRECTION('',(-1.,0.,-4.33680868994201E-15));
#813=DIRECTION('',(-4.33680868994201E-15,0.,1.));
#814=DIRECTION('',(-1.,0.,-4.33680868994201E-15));
#815=DIRECTION('',(-4.33680868994201E-15,0.,1.));
#816=DIRECTION('',(0.,1.,0.));
#817=DIRECTION('',(0.,0.,1.));
#818=DIRECTION('',(4.33680868994201E-15,0.,-1.));
#819=DIRECTION('',(-1.,0.,0.));
#820=DIRECTION('',(1.,0.,4.33680868994201E-15));
#821=DIRECTION('',(1.,-1.21734980770302E-15,4.33680868994201E-15));
#822=DIRECTION('',(4.33680868994201E-15,0.,-1.));
#823=DIRECTION('',(1.,-1.21734980770302E-15,4.33680868994201E-15));
#824=DIRECTION('',(4.33680868994201E-15,0.,-1.));
#825=DIRECTION('',(-1.21734980770302E-15,-1.,-5.27941322474572E-30));
#826=DIRECTION('',(1.,-1.21734980770302E-15,4.33680868994201E-15));
#827=DIRECTION('',(4.33680868994201E-15,0.,-1.));
#828=DIRECTION('',(1.,-1.21734980770302E-15,4.33680868994201E-15));
#829=DIRECTION('',(4.33680868994201E-15,0.,-1.));
#830=DIRECTION('',(1.,-1.21734980770302E-15,4.33680868994201E-15));
#831=DIRECTION('',(4.33680868994201E-15,0.,-1.));
#832=DIRECTION('',(1.,3.46944695195361E-15,4.33680868994201E-15));
#833=DIRECTION('',(4.33680868994201E-15,0.,-1.));
#834=DIRECTION('',(-1.21734980770302E-15,-1.,-5.27941322474572E-30));
#835=DIRECTION('',(1.,-1.21734980770302E-15,0.));
#836=DIRECTION('',(-1.,0.,-4.33680868994201E-15));
#837=DIRECTION('',(-4.33680868994201E-15,0.,1.));
#838=DIRECTION('',(1.,0.,0.));
#839=DIRECTION('',(0.,0.,-1.));
#840=DIRECTION('',(1.,0.,0.));
#841=DIRECTION('',(0.,0.,-1.));
#842=CARTESIAN_POINT('',(0.,0.,0.));
#843=CARTESIAN_POINT('',(-10.2021483624204,-44.9395686840827,-1.22177957104403));
#844=CARTESIAN_POINT('',(-10.2021483624204,-22.0703190559362,-1.22177957104403));
#845=CARTESIAN_POINT('',(-23.8516557521512,-22.0703190559362,3.50425590258983));
#846=CARTESIAN_POINT('',(-24.2381127257593,-22.0703190559362,2.18940316686972));
#847=CARTESIAN_POINT('',(-23.8516557521513,-53.7279233649945,3.50425590258962));
#848=CARTESIAN_POINT('',(-23.8516557521511,-23.0703190559361,3.50425590259005));
#849=CARTESIAN_POINT('',(-23.8516557521511,-44.9395686840827,3.50425590259005));
#850=CARTESIAN_POINT('',(-23.8516557521511,-30.7703190559362,3.50425590259005));
#851=CARTESIAN_POINT('',(-23.8516557521513,-53.7279233649945,3.50425590258962));
#852=CARTESIAN_POINT('',(-23.8516557521512,-31.7703190559362,3.50425590258983));
#853=CARTESIAN_POINT('',(-10.2021483624204,-31.7703190559362,-1.22177957104403));
#854=CARTESIAN_POINT('',(-24.2381127257594,-31.7703190559362,2.1894031668697));
#855=CARTESIAN_POINT('',(-24.5775797145773,-29.7703190559362,0.189403166869702));
#856=CARTESIAN_POINT('',(-24.5775797145773,-30.3030107651935,0.189403166869702));
#857=CARTESIAN_POINT('',(-24.5431777454521,-31.3469322743317,0.634299795387192));
#858=CARTESIAN_POINT('',(-24.3638654148937,-31.7703190559362,1.67196965512438));
#859=CARTESIAN_POINT('',(-24.2381127257594,-31.7703190559362,2.1894031668697));
#860=CARTESIAN_POINT('',(-24.5775797145773,-29.7703190559362,0.189403166869702));
#861=CARTESIAN_POINT('',(-24.5775797145773,-53.7279233649945,0.189403166869721));
#862=CARTESIAN_POINT('',(-24.5775797145773,-24.0703190559362,0.189403166869714));
#863=CARTESIAN_POINT('',(-24.2381127257593,-22.0703190559362,2.18940316686972));
#864=CARTESIAN_POINT('',(-24.3638721023579,-22.0703190559362,1.67194213827266));
#865=CARTESIAN_POINT('',(-24.5428546742178,-22.4914985743478,0.636594836188613));
#866=CARTESIAN_POINT('',(-24.5775797145773,-23.5375296933219,0.189403166869716));
#867=CARTESIAN_POINT('',(-24.5775797145773,-24.0703190559362,0.189403166869715));
#868=CARTESIAN_POINT('',(-22.885997007194,-53.7279233649945,5.68940316686972));
#869=CARTESIAN_POINT('',(-22.8865415168456,-53.7279233649945,5.68940316686972));
#870=CARTESIAN_POINT('',(-22.8865415168456,-24.0703190559362,5.68940316686972));
#871=CARTESIAN_POINT('',(-22.8865415168456,-22.3382682483314,5.68940316680759));
#872=CARTESIAN_POINT('',(-61.8907677046284,-22.3382682483314,5.68940316680759));
#873=CARTESIAN_POINT('',(-22.885997007194,-22.3382682483673,5.68940316686972));
#874=CARTESIAN_POINT('',(-22.885997007194,-53.7279233649945,5.68940316686972));
#875=CARTESIAN_POINT('',(-22.885997007194,-24.0703190559362,5.68940316686972));
#876=CARTESIAN_POINT('',(-35.3522177416983,-24.0703190559362,5.68940316686972));
#877=CARTESIAN_POINT('',(-10.2719488471048,-53.7279233649945,-1.18779006888699));
#878=CARTESIAN_POINT('',(-22.8865415168456,-31.502369863505,5.68940316686971));
#879=CARTESIAN_POINT('',(-23.0526324314796,-31.6782623359027,5.38474846800813));
#880=CARTESIAN_POINT('',(-23.2231953061284,-31.7703190559363,5.04440907343035));
#881=CARTESIAN_POINT('',(-23.3823391805385,-31.7703190559363,4.68940316686974));
#882=CARTESIAN_POINT('',(-22.8865415168456,-31.5023698635409,5.68940316680759));
#883=CARTESIAN_POINT('',(-23.3823391805385,-31.7703190559362,4.68940316686972));
#884=CARTESIAN_POINT('',(-10.2719488471048,-31.7703190559362,-1.18779006888699));
#885=CARTESIAN_POINT('',(-10.2719488471048,-30.7703190559362,-1.18779006888699));
#886=CARTESIAN_POINT('',(-23.3823391805385,-30.7703190559362,4.68940316686972));
#887=CARTESIAN_POINT('',(-22.8865415168456,-29.7703190559362,5.68940316686972));
#888=CARTESIAN_POINT('',(-22.8865415168456,-30.049930009737,5.68940316686972));
#889=CARTESIAN_POINT('',(-23.0240821541537,-30.5783978908393,5.4418845359857));
#890=CARTESIAN_POINT('',(-23.2682595887026,-30.7703190559362,4.9438831402265));
#891=CARTESIAN_POINT('',(-23.3823391805385,-30.7703190559362,4.68940316686972));
#892=CARTESIAN_POINT('',(-22.8865415168456,-29.7703190559362,5.68940316686972));
#893=CARTESIAN_POINT('',(-22.8865415168456,-53.7279233649945,5.68940316686972));
#894=CARTESIAN_POINT('',(-10.2719488471048,-53.7279233649945,-1.18779006888699));
#895=CARTESIAN_POINT('',(-10.2719488471048,-22.0703190559362,-1.18779006888699));
#896=CARTESIAN_POINT('',(-23.3823391805385,-22.0703190559362,4.68940316686972));
#897=CARTESIAN_POINT('',(-23.3823391805385,-22.0703190559362,4.68940316686972));
#898=CARTESIAN_POINT('',(-23.2231550304057,-22.0703190559362,5.0444989174128));
#899=CARTESIAN_POINT('',(-23.0526217748164,-22.1623870615169,5.38476801514927));
#900=CARTESIAN_POINT('',(-22.8865415168457,-22.3382682483673,5.68940316686973));
#901=CARTESIAN_POINT('',(-23.3823391805385,-23.0703190559362,4.68940316686972));
#902=CARTESIAN_POINT('',(-23.2680656342388,-23.0703190559362,4.94431579891663));
#903=CARTESIAN_POINT('',(-23.0244857391011,-23.2620505963095,5.44107156331686));
#904=CARTESIAN_POINT('',(-22.8865415168457,-23.7899507109787,5.68940316686972));
#905=CARTESIAN_POINT('',(-22.8865415168457,-24.0703190559362,5.68940316686972));
#906=CARTESIAN_POINT('',(-23.3823391805385,-23.0703190559362,4.68940316686972));
#907=CARTESIAN_POINT('',(-10.2719488471048,-23.0703190559362,-1.18779006888699));
#908=CARTESIAN_POINT('',(-10.2021483624204,-53.7279233649945,-1.22177957104403));
#909=CARTESIAN_POINT('',(-22.885997007194,-22.3382682483673,5.68940316686972));
#910=CARTESIAN_POINT('',(-22.7235031579879,-22.5104451839221,5.98762236714214));
#911=CARTESIAN_POINT('',(-22.5702717712974,-22.7606979932166,6.24269417053066));
#912=CARTESIAN_POINT('',(-22.4587973436702,-23.0703190559362,6.4214539744386));
#913=CARTESIAN_POINT('',(-22.4587973436702,-23.0703190559362,6.4214539744386));
#914=CARTESIAN_POINT('',(-22.4587973436702,-23.0703190559362,6.4214539744386));
#915=CARTESIAN_POINT('',(-22.410589372576,-23.2042170589081,6.49876002249841));
#916=CARTESIAN_POINT('',(-22.3535081381729,-23.3245940034338,6.58868833522994));
#917=CARTESIAN_POINT('',(-22.2875797145773,-23.4328191332026,6.68940316686974));
#918=CARTESIAN_POINT('',(-22.2875797145773,-23.4328191332026,6.68940316686972));
#919=CARTESIAN_POINT('',(-22.2875797145773,-53.7279233649945,6.68940316686972));
#920=CARTESIAN_POINT('',(-22.2875797145773,-30.4078189786698,6.68940316686972));
#921=CARTESIAN_POINT('',(-22.2875797145773,-30.4078189786698,6.68940316686972));
#922=CARTESIAN_POINT('',(-22.3535081381729,-30.5160441084386,6.58868833522991));
#923=CARTESIAN_POINT('',(-22.410589372576,-30.6364210529643,6.49876002249838));
#924=CARTESIAN_POINT('',(-22.4587973436702,-30.7703190559362,6.42145397443856));
#925=CARTESIAN_POINT('',(-22.4587973436702,-30.7703190559362,6.42145397443856));
#926=CARTESIAN_POINT('',(-22.4587973436702,-30.7703190559362,6.42145397443856));
#927=CARTESIAN_POINT('',(-22.5708539817541,-31.0815572125862,6.24176054091458));
#928=CARTESIAN_POINT('',(-22.7242229397391,-31.330955601841,5.98630137721383));
#929=CARTESIAN_POINT('',(-22.885997007194,-31.502369863505,5.68940316686973));
#930=CARTESIAN_POINT('',(-22.885997007194,-31.5023698635409,5.68940316680759));
#931=CARTESIAN_POINT('',(-22.885997007194,-53.7279233649945,5.68940316686972));
#932=CARTESIAN_POINT('',(-22.885997007194,-29.7703190559362,5.68940316686972));
#933=CARTESIAN_POINT('',(-22.885997007194,-53.7279233649945,5.68940316686972));
#934=CARTESIAN_POINT('',(-22.885997007194,-53.7279233649945,5.68940316686972));
#935=CARTESIAN_POINT('',(-61.8907677046284,-31.5023698635409,5.68940316680759));
#936=CARTESIAN_POINT('',(-35.3522177416983,-29.7703190559362,5.68940316686972));
#937=CARTESIAN_POINT('',(-25.5775797145773,-53.7279233649945,0.189403166869716));
#938=CARTESIAN_POINT('',(-25.5775797145773,-53.7279233649945,0.189403166869716));
#939=CARTESIAN_POINT('',(-25.5775797145773,-29.7703190559362,0.189403166869702));
#940=CARTESIAN_POINT('',(-25.5775797145773,-24.0703190559362,0.189403166869716));
#941=CARTESIAN_POINT('',(-61.8907677046268,-24.0703190559362,0.189403166869714));
#942=CARTESIAN_POINT('',(-61.8907677046268,-29.7703190559362,0.189403166869702));
#943=CARTESIAN_POINT('',(-11.2021483624204,-44.9395686840827,-1.22177957104403));
#944=CARTESIAN_POINT('',(-24.3817683083578,-22.0703190559362,4.68940316686972));
#945=CARTESIAN_POINT('',(-24.065953655103,-22.0703190559362,5.3935460241967));
#946=CARTESIAN_POINT('',(-23.6859883831139,-22.4392942319456,6.05713162244231));
#947=CARTESIAN_POINT('',(-23.4587973436702,-23.0703190559362,6.4214539744386));
#948=CARTESIAN_POINT('',(-24.3817683083578,-22.0703190559362,4.68940316686972));
#949=CARTESIAN_POINT('',(-23.4587973436702,-23.0703190559362,6.4214539744386));
#950=CARTESIAN_POINT('',(-11.2021483624204,-22.0703190559362,-1.22177957104403));
#951=CARTESIAN_POINT('',(-25.2381127257593,-22.0703190559362,2.18940316686972));
#952=CARTESIAN_POINT('',(-25.5775797145773,-24.0703190559362,0.189403166869715));
#953=CARTESIAN_POINT('',(-25.5775797145773,-23.5376273466788,0.189403166869715));
#954=CARTESIAN_POINT('',(-25.5431777454521,-22.4937058375406,0.634299795387207));
#955=CARTESIAN_POINT('',(-25.3638654148937,-22.0703190559362,1.6719696551244));
#956=CARTESIAN_POINT('',(-25.2381127257593,-22.0703190559362,2.18940316686972));
#957=CARTESIAN_POINT('',(-25.2381127257594,-31.7703190559362,2.1894031668697));
#958=CARTESIAN_POINT('',(-25.3638721023579,-31.7703190559362,1.67194213827264));
#959=CARTESIAN_POINT('',(-25.5428546742178,-31.3491395375245,0.636594836188595));
#960=CARTESIAN_POINT('',(-25.5775797145773,-30.3031084185505,0.189403166869703));
#961=CARTESIAN_POINT('',(-25.5775797145773,-29.7703190559362,0.189403166869703));
#962=CARTESIAN_POINT('',(-25.2381127257594,-31.7703190559362,2.1894031668697));
#963=CARTESIAN_POINT('',(-11.2021483624204,-31.7703190559362,-1.22177957104403));
#964=CARTESIAN_POINT('',(-24.3817683083578,-31.7703190559362,4.68940316686972));
#965=CARTESIAN_POINT('',(-23.4587973436702,-30.7703190559364,6.42145397443846));
#966=CARTESIAN_POINT('',(-23.6862047333888,-31.4019447944452,6.05678468428317));
#967=CARTESIAN_POINT('',(-24.0669408848364,-31.7703190559362,5.39134488894817));
#968=CARTESIAN_POINT('',(-24.3817683083578,-31.7703190559362,4.68940316686972));
#969=CARTESIAN_POINT('',(-23.4587973436702,-30.7703190559364,6.42145397443846));
#970=CARTESIAN_POINT('',(-23.4587973436702,-30.7703190559362,6.42145397443856));
#971=CARTESIAN_POINT('',(-23.410589372576,-30.6364210529643,6.49876002249835));
#972=CARTESIAN_POINT('',(-23.3535081381729,-30.5160441084385,6.58868833522996));
#973=CARTESIAN_POINT('',(-23.2875797145773,-30.4078189786698,6.68940316686973));
#974=CARTESIAN_POINT('',(-23.2875797145773,-30.4078189786698,6.68940316686972));
#975=CARTESIAN_POINT('',(-23.2875797145773,-53.7279233649945,6.68940316686972));
#976=CARTESIAN_POINT('',(-23.2875797145773,-23.4328191332026,6.68940316686972));
#977=CARTESIAN_POINT('',(-23.2875797145773,-23.4328191332026,6.68940316686972));
#978=CARTESIAN_POINT('',(-23.3535081381729,-23.3245940034338,6.58868833522992));
#979=CARTESIAN_POINT('',(-23.410589372576,-23.2042170589081,6.49876002249841));
#980=CARTESIAN_POINT('',(-23.4587973436702,-23.0703190559362,6.4214539744386));
#981=CARTESIAN_POINT('',(-35.3522177416983,-30.7703190559362,4.68940316686972));
#982=CARTESIAN_POINT('',(-35.3522177416983,-30.7703190559362,4.68940316686972));
#983=CARTESIAN_POINT('',(-13.0075797145773,-30.7703190559362,4.68940316686972));
#984=CARTESIAN_POINT('',(-10.2719488471048,-30.7703190559362,-1.18779006888699));
#985=CARTESIAN_POINT('',(-24.2368441518959,-30.7703190559362,2.18940316686972));
#986=CARTESIAN_POINT('',(-35.3522177416983,-30.7703190559362,2.18940316686972));
#987=CARTESIAN_POINT('',(-13.0075797145773,-30.7703190559362,2.18940316686972));
#988=CARTESIAN_POINT('',(-13.0075797145773,-30.7703190559362,4.68940316686972));
#989=CARTESIAN_POINT('',(-35.3522177416983,-23.0703190559362,2.18940316686972));
#990=CARTESIAN_POINT('',(-10.2719488471048,-23.0703190559362,-1.18779006888699));
#991=CARTESIAN_POINT('',(-24.2368441518959,-23.0703190559362,2.18940316686972));
#992=CARTESIAN_POINT('',(-35.3522177416983,-23.0703190559362,4.68940316686972));
#993=CARTESIAN_POINT('',(-13.0075797145773,-23.0703190559362,4.68940316686972));
#994=CARTESIAN_POINT('',(-13.0075797145773,-23.0703190559362,2.18940316686972));
#995=CARTESIAN_POINT('',(-13.0075797145773,-23.0703190559362,2.18940316686972));
#996=CARTESIAN_POINT('',(-35.3522177416983,-23.0703190559362,2.18940316686972));
#997=CARTESIAN_POINT('',(-35.3522177416983,-29.7703190559362,5.68940316686972));
#998=CARTESIAN_POINT('',(-35.3522177416983,-29.7703190559362,5.68940316686972));
#999=CARTESIAN_POINT('',(-13.0075797145773,-29.7703190559362,5.68940316686972));
#1000=CARTESIAN_POINT('',(-13.0075797145773,-44.9395686840827,5.68940316686972));
#1001=CARTESIAN_POINT('',(-13.0075797145773,-24.0703190559362,5.68940316686972));
#1002=CARTESIAN_POINT('',(-35.3522177416983,-24.0703190559362,5.68940316686972));
#1003=CARTESIAN_POINT('',(-35.3522177416983,-29.7703190559362,1.18940316686972));
#1004=CARTESIAN_POINT('',(-35.3522177416983,-29.7703190559362,1.18940316686972));
#1005=CARTESIAN_POINT('',(-24.4413767588199,-29.7703190559362,1.18940316686972));
#1006=CARTESIAN_POINT('',(-13.0075797145773,-29.7703190559362,1.18940316686972));
#1007=CARTESIAN_POINT('',(-24.4413767588199,-44.9395686840827,1.18940316686972));
#1008=CARTESIAN_POINT('',(-24.4413767588199,-24.0703190559362,1.18940316686972));
#1009=CARTESIAN_POINT('',(-35.3522177416983,-24.0703190559362,1.18940316686973));
#1010=CARTESIAN_POINT('',(-13.0075797145773,-24.0703190559362,1.18940316686973));
#1011=CARTESIAN_POINT('',(-13.0075797145773,-44.9395686840827,1.18940316686972));
#1012=CARTESIAN_POINT('',(-35.3522177416983,-29.7703190559362,2.18940316686972));
#1013=CARTESIAN_POINT('',(-13.0075797145773,-29.7703190559362,2.18940316686972));
#1014=CARTESIAN_POINT('',(-24.2368441518959,-30.7703190559362,2.18940316686972));
#1015=CARTESIAN_POINT('',(-24.2995949003126,-30.7703190559362,1.9299250823292));
#1016=CARTESIAN_POINT('',(-24.4059445633975,-30.5604051718136,1.41443213115238));
#1017=CARTESIAN_POINT('',(-24.4413767588199,-30.0374540410445,1.18940316686972));
#1018=CARTESIAN_POINT('',(-24.4413767588199,-29.7703190559362,1.18940316686972));
#1019=CARTESIAN_POINT('',(-35.3522177416983,-24.0703190559362,2.18940316686971));
#1020=CARTESIAN_POINT('',(-13.0075797145773,-24.0703190559362,2.18940316686971));
#1021=CARTESIAN_POINT('',(-24.4413767588199,-24.0703190559362,1.18940316686973));
#1022=CARTESIAN_POINT('',(-24.4413767588198,-23.8032779650402,1.18940316686972));
#1023=CARTESIAN_POINT('',(-24.4061619746482,-23.2812777799169,1.41329369725794));
#1024=CARTESIAN_POINT('',(-24.2995790442845,-23.0703190559362,1.92999064795063));
#1025=CARTESIAN_POINT('',(-24.2368441518959,-23.0703190559362,2.18940316686972));
#1026=CARTESIAN_POINT('',(-35.3522177416983,-29.7703190559362,4.68940316686972));
#1027=CARTESIAN_POINT('',(-13.0075797145773,-29.7703190559362,4.68940316686972));
#1028=CARTESIAN_POINT('',(-35.3522177416983,-24.0703190559362,4.68940316686972));
#1029=CARTESIAN_POINT('',(-13.0075797145773,-24.0703190559362,4.68940316686972));
#1030=CARTESIAN_POINT('',(-10.2719488471048,-44.9395686840827,-1.18779006888699));
#1031=CARTESIAN_POINT('',(-13.0075797145773,-44.9395686840827,5.68940316686972));
#1032=CARTESIAN_POINT('',(-61.8907677046268,-29.7703190559362,4.68940316686972));
#1033=CARTESIAN_POINT('',(-61.8907677046268,-30.7703190559362,6.42145397443856));
#1034=CARTESIAN_POINT('',(-61.8907677046268,-31.7703190559362,4.68940316686972));
#1035=CARTESIAN_POINT('',(-61.8907677046268,-31.7703190559362,3.4394031668697));
#1036=CARTESIAN_POINT('',(-61.8907677046268,-31.7703190559362,2.1894031668697));
#1037=CARTESIAN_POINT('',(-61.8907677046268,-29.7703190559362,2.1894031668697));
#1038=CARTESIAN_POINT('',(-61.8907677046268,-24.0703190559362,4.68940316686972));
#1039=CARTESIAN_POINT('',(-61.8907677046268,-23.0703190559362,6.4214539744386));
#1040=CARTESIAN_POINT('',(-61.8907677046268,-22.0703190559362,4.68940316686972));
#1041=CARTESIAN_POINT('',(-61.8907677046268,-22.0703190559362,4.68940316686972));
#1042=CARTESIAN_POINT('',(-61.8907677046268,-22.0703190559362,2.18940316686972));
#1043=CARTESIAN_POINT('',(-61.8907677046268,-24.0703190559362,2.18940316686971));
#1044=CARTESIAN_POINT('',(-23.2875797145773,-29.7703190559362,11.6894031668697));
#1045=CARTESIAN_POINT('',(-23.2875797145773,-29.7703190559362,11.6894031668697));
#1046=CARTESIAN_POINT('',(-23.2875797145773,-29.7703190559362,9.68940316686971));
#1047=CARTESIAN_POINT('',(-23.2875797145773,-29.7703190559362,8.1535047820074));
#1048=CARTESIAN_POINT('',(-22.2875797145773,-29.7703190559362,8.1535047820074));
#1049=CARTESIAN_POINT('',(-22.2875797145773,-29.7703190559362,8.1535047820074));
#1050=CARTESIAN_POINT('',(-22.2875797145773,-29.7703190559362,11.6894031668697));
#1051=CARTESIAN_POINT('',(-22.2875797145773,-29.7703190559362,9.68940316686972));
#1052=CARTESIAN_POINT('',(-23.2875797145773,-29.7703190559362,9.68940316686971));
#1053=CARTESIAN_POINT('',(-23.2875797145773,-29.7703190559362,11.6894031668697));
#1054=CARTESIAN_POINT('',(-23.2875797145773,-24.0703190559362,9.95735235930082));
#1055=CARTESIAN_POINT('',(-23.2875797145773,-29.7522885890712,9.95735235930082));
#1056=CARTESIAN_POINT('',(-23.2875797145773,-24.0883495228011,9.95735235930082));
#1057=CARTESIAN_POINT('',(-23.2875797145773,-26.0703190559362,9.68940316686971));
#1058=CARTESIAN_POINT('',(-23.2875797145773,-24.0703190559362,9.68940316686971));
#1059=CARTESIAN_POINT('',(-23.2875797145773,-24.0703190559362,11.6894031668697));
#1060=CARTESIAN_POINT('',(-23.2875797145773,-24.0703190559362,8.15350478200748));
#1061=CARTESIAN_POINT('',(-23.2875797145773,-22.0703190559362,8.15350478200748));
#1062=CARTESIAN_POINT('',(-23.2875797145773,-31.7703190559363,8.1535047820074));
#1063=CARTESIAN_POINT('',(-23.2875797145773,-27.7703190559362,9.68940316686971));
#1064=CARTESIAN_POINT('',(-23.2875797145773,-24.0703190559362,11.6894031668697));
#1065=CARTESIAN_POINT('',(-22.2875797145773,-24.0703190559362,11.6894031668697));
#1066=CARTESIAN_POINT('',(-22.2875797145773,-24.0703190559362,9.68940316686972));
#1067=CARTESIAN_POINT('',(-22.2875797145773,-24.0703190559362,8.15350478200748));
#1068=CARTESIAN_POINT('',(-23.2875797145773,-24.0703190559362,8.15350478200748));
#1069=CARTESIAN_POINT('',(-22.2875797145773,-24.0703190559362,9.68940316686972));
#1070=CARTESIAN_POINT('',(-22.2875797145773,-29.7703190559362,11.6894031668697));
#1071=CARTESIAN_POINT('',(-22.2875797145773,-26.0703190559362,9.68940316686972));
#1072=CARTESIAN_POINT('',(-22.2875797145773,-26.0703190559362,11.6894031668697));
#1073=CARTESIAN_POINT('',(-22.2875797145773,-29.7703190559362,11.6894031668697));
#1074=CARTESIAN_POINT('',(-22.2875797145773,-27.7703190559362,11.6894031668697));
#1075=CARTESIAN_POINT('',(-22.2875797145773,-27.7703190559362,9.68940316686972));
#1076=CARTESIAN_POINT('',(-22.2875797145773,-31.7703190559363,8.1535047820074));
#1077=CARTESIAN_POINT('',(-22.2875797145773,-22.0703190559362,8.15350478200748));
#1078=CARTESIAN_POINT('',(-23.2875797145773,-27.7703190559362,9.68940316686971));
#1079=CARTESIAN_POINT('',(-22.2875797145773,-27.7703190559362,11.6894031668697));
#1080=CARTESIAN_POINT('',(-22.2875797145773,-28.0306369559531,11.6894031668697));
#1081=CARTESIAN_POINT('',(-22.4724553718602,-28.5158784312812,11.5868802701721));
#1082=CARTESIAN_POINT('',(-22.9846508136238,-29.2812603981327,11.1294960345253));
#1083=CARTESIAN_POINT('',(-23.2875797145774,-29.6826976538369,10.4721033543133));
#1084=CARTESIAN_POINT('',(-23.2875797145774,-29.7522885890712,9.95735235930082));
#1085=CARTESIAN_POINT('',(-21.2875797145773,2.71317808797064E-14,9.95735235930082));
#1086=CARTESIAN_POINT('',(-22.2875797145773,-26.0703190559362,11.6894031668697));
#1087=CARTESIAN_POINT('',(-22.2875797145773,-25.8100011559192,11.6894031668697));
#1088=CARTESIAN_POINT('',(-22.4724553718602,-25.3247596805912,11.5868802701721));
#1089=CARTESIAN_POINT('',(-22.9846508136238,-24.5593777137396,11.1294960345253));
#1090=CARTESIAN_POINT('',(-23.2875797145774,-24.1579404580354,10.4721033543133));
#1091=CARTESIAN_POINT('',(-23.2875797145774,-24.0883495228011,9.95735235930082));
#1092=CARTESIAN_POINT('',(-23.2875797145773,-26.0703190559362,9.68940316686971));
#1093=CARTESIAN_POINT('',(-61.8907677046268,-31.7703190559363,8.1535047820074));
#1094=CARTESIAN_POINT('',(-61.8907677046268,-22.0703190559362,8.15350478200748));
#1095=MECHANICAL_DESIGN_GEOMETRIC_PRESENTATION_REPRESENTATION('',(#614),
#1096);
#1096=(
GEOMETRIC_REPRESENTATION_CONTEXT(3)
GLOBAL_UNCERTAINTY_ASSIGNED_CONTEXT((#1097))
GLOBAL_UNIT_ASSIGNED_CONTEXT((#1100,#1099,#1098))
REPRESENTATION_CONTEXT('TappoUSB','TOP_LEVEL_ASSEMBLY_PART')
);
#1097=UNCERTAINTY_MEASURE_WITH_UNIT(LENGTH_MEASURE(0.005),#1100,
'DISTANCE_ACCURACY_VALUE','Maximum Tolerance applied to model');
#1098=(
NAMED_UNIT(*)
SI_UNIT($,.STERADIAN.)
SOLID_ANGLE_UNIT()
);
#1099=(
NAMED_UNIT(*)
PLANE_ANGLE_UNIT()
SI_UNIT($,.RADIAN.)
);
#1100=(
LENGTH_UNIT()
NAMED_UNIT(*)
SI_UNIT(.MILLI.,.METRE.)
);
#1101=PRODUCT_DEFINITION_SHAPE('','',#1102);
#1102=PRODUCT_DEFINITION('','',#1104,#1103);
#1103=PRODUCT_DEFINITION_CONTEXT('',#1110,'design');
#1104=PRODUCT_DEFINITION_FORMATION_WITH_SPECIFIED_SOURCE('','',#1106,
 .NOT_KNOWN.);
#1105=PRODUCT_RELATED_PRODUCT_CATEGORY('','',(#1106));
#1106=PRODUCT('TappoUSB','TappoUSB','TappoUSB',(#1108));
#1107=PRODUCT_CATEGORY('','');
#1108=PRODUCT_CONTEXT('',#1110,'mechanical');
#1109=APPLICATION_PROTOCOL_DEFINITION('international standard',
'automotive_design',2010,#1110);
#1110=APPLICATION_CONTEXT(
'core data for automotive mechanical design processes');
ENDSEC;
END-ISO-10303-21;
