ISO-10303-21;
HEADER;
/* Generated by software containing ST-Developer
 * from STEP Tools, Inc. (www.steptools.com) 
 */
/* OPTION: strings as raw bytes, not using required /X/ escapes */

FILE_DESCRIPTION(
/* description */ ('Unknown'),
/* implementation_level */ '2;1');

FILE_NAME(
/* name */ 'CaseServi2',
/* time_stamp */ '2024-01-05T19:14:03+01:00',
/* author */ ('Unknown'),
/* organization */ ('Unknown'),
/* preprocessor_version */ 'ST-DEVELOPER v18.102',
/* originating_system */ 'Solid Edge',
/* authorisation */ 'Unknown');

FILE_SCHEMA (('AUTOMOTIVE_DESIGN {1 0 10303 214 3 1 1}'));
ENDSEC;

DATA;
#10=PROPERTY_DEFINITION_REPRESENTATION(#14,#12);
#11=PROPERTY_DEFINITION_REPRESENTATION(#15,#13);
#12=REPRESENTATION('',(#16),#662);
#13=REPRESENTATION('',(#17),#662);
#14=PROPERTY_DEFINITION('pmi validation property','',#667);
#15=PROPERTY_DEFINITION('pmi validation property','',#667);
#16=VALUE_REPRESENTATION_ITEM('number of annotations',COUNT_MEASURE(0.));
#17=VALUE_REPRESENTATION_ITEM('number of views',COUNT_MEASURE(0.));
#18=SHAPE_REPRESENTATION_RELATIONSHIP('','',#372,#19);
#19=ADVANCED_BREP_SHAPE_REPRESENTATION('',(#370),#662);
#20=TOROIDAL_SURFACE('',#412,9.55357650226366,2.);
#21=B_SPLINE_CURVE_WITH_KNOTS('',3,(#556,#557,#558,#559,#560,#561,#562,
#563),.UNSPECIFIED.,.F.,.F.,(4,1,1,1,1,4),(0.,0.000766206859308089,0.00153241371861618,
0.00229862057792427,0.00268172400757831,0.00306482743723236),
 .UNSPECIFIED.);
#22=B_SPLINE_CURVE_WITH_KNOTS('',3,(#565,#566,#567,#568),.UNSPECIFIED.,
 .F.,.F.,(4,4),(0.0185223404909654,0.0203855864974141),.UNSPECIFIED.);
#23=B_SPLINE_CURVE_WITH_KNOTS('',3,(#576,#577,#578,#579),.UNSPECIFIED.,
 .F.,.F.,(4,4),(0.0611492044253356,0.0630022116478932),.UNSPECIFIED.);
#24=B_SPLINE_CURVE_WITH_KNOTS('',3,(#581,#582,#583,#584,#585,#586,#587,
#588),.UNSPECIFIED.,.F.,.F.,(4,1,1,1,1,4),(3.68628738645072E-18,0.000389005098542415,
0.000778010197084827,0.00155602039416965,0.00233403059125447,0.0031120407883393),
 .UNSPECIFIED.);
#25=B_SPLINE_CURVE_WITH_KNOTS('',3,(#592,#593,#594,#595,#596,#597,#598,
#599),.UNSPECIFIED.,.F.,.F.,(4,1,1,1,1,4),(1.73472347597681E-18,0.00076620685930809,
0.00153241371861618,0.00229862057792427,0.00268172400757831,0.00306482743723236),
 .UNSPECIFIED.);
#26=B_SPLINE_CURVE_WITH_KNOTS('',3,(#601,#602,#603,#604),.UNSPECIFIED.,
 .F.,.F.,(4,4),(0.0185223404909652,0.0203855864974139),.UNSPECIFIED.);
#27=B_SPLINE_CURVE_WITH_KNOTS('',3,(#612,#613,#614,#615),.UNSPECIFIED.,
 .F.,.F.,(4,4),(0.0611492044253359,0.0630022116478934),.UNSPECIFIED.);
#28=B_SPLINE_CURVE_WITH_KNOTS('',3,(#617,#618,#619,#620,#621,#622,#623,
#624),.UNSPECIFIED.,.F.,.F.,(4,1,1,1,1,4),(8.67361737988404E-19,0.000389005098542414,
0.000778010197084826,0.00155602039416965,0.00233403059125448,0.0031120407883393),
 .UNSPECIFIED.);
#29=DEGENERATE_TOROIDAL_SURFACE('',#387,0.0144580371595621,29.9968003681333,
 .F.);
#30=PLANE('',#380);
#31=PLANE('',#395);
#32=PLANE('',#396);
#33=PLANE('',#397);
#34=PLANE('',#398);
#35=PLANE('',#399);
#36=PLANE('',#402);
#37=PLANE('',#405);
#38=PLANE('',#408);
#39=LINE('',#527,#58);
#40=LINE('',#531,#59);
#41=LINE('',#536,#60);
#42=LINE('',#540,#61);
#43=LINE('',#547,#62);
#44=LINE('',#570,#63);
#45=LINE('',#574,#64);
#46=LINE('',#606,#65);
#47=LINE('',#610,#66);
#48=LINE('',#626,#67);
#49=LINE('',#627,#68);
#50=LINE('',#629,#69);
#51=LINE('',#630,#70);
#52=LINE('',#633,#71);
#53=LINE('',#635,#72);
#54=LINE('',#637,#73);
#55=LINE('',#639,#74);
#56=LINE('',#651,#75);
#57=LINE('',#655,#76);
#58=VECTOR('',#427,1000.);
#59=VECTOR('',#430,1000.);
#60=VECTOR('',#435,1000.);
#61=VECTOR('',#438,1000.);
#62=VECTOR('',#445,1000.);
#63=VECTOR('',#454,1000.);
#64=VECTOR('',#457,1000.);
#65=VECTOR('',#460,1000.);
#66=VECTOR('',#463,1000.);
#67=VECTOR('',#466,1000.);
#68=VECTOR('',#467,1000.);
#69=VECTOR('',#470,1000.);
#70=VECTOR('',#471,1000.);
#71=VECTOR('',#476,1000.);
#72=VECTOR('',#479,1000.);
#73=VECTOR('',#482,1000.);
#74=VECTOR('',#485,1000.);
#75=VECTOR('',#504,1000.);
#76=VECTOR('',#507,1000.);
#77=CYLINDRICAL_SURFACE('',#378,33.);
#78=CYLINDRICAL_SURFACE('',#393,29.9823423073515);
#79=CYLINDRICAL_SURFACE('',#394,29.9823423073515);
#80=CYLINDRICAL_SURFACE('',#400,1.335);
#81=CYLINDRICAL_SURFACE('',#403,1.335);
#82=CYLINDRICAL_SURFACE('',#406,1.);
#83=CYLINDRICAL_SURFACE('',#407,1.);
#84=CYLINDRICAL_SURFACE('',#410,2.);
#85=CYLINDRICAL_SURFACE('',#414,2.);
#86=ORIENTED_EDGE('',*,*,#180,.F.);
#87=ORIENTED_EDGE('',*,*,#181,.T.);
#88=ORIENTED_EDGE('',*,*,#182,.T.);
#89=ORIENTED_EDGE('',*,*,#181,.F.);
#90=ORIENTED_EDGE('',*,*,#183,.T.);
#91=ORIENTED_EDGE('',*,*,#184,.T.);
#92=ORIENTED_EDGE('',*,*,#185,.T.);
#93=ORIENTED_EDGE('',*,*,#186,.T.);
#94=ORIENTED_EDGE('',*,*,#187,.F.);
#95=ORIENTED_EDGE('',*,*,#188,.T.);
#96=ORIENTED_EDGE('',*,*,#189,.F.);
#97=ORIENTED_EDGE('',*,*,#190,.T.);
#98=ORIENTED_EDGE('',*,*,#191,.F.);
#99=ORIENTED_EDGE('',*,*,#184,.F.);
#100=ORIENTED_EDGE('',*,*,#192,.T.);
#101=ORIENTED_EDGE('',*,*,#193,.T.);
#102=ORIENTED_EDGE('',*,*,#194,.T.);
#103=ORIENTED_EDGE('',*,*,#195,.T.);
#104=ORIENTED_EDGE('',*,*,#196,.F.);
#105=ORIENTED_EDGE('',*,*,#197,.T.);
#106=ORIENTED_EDGE('',*,*,#198,.T.);
#107=ORIENTED_EDGE('',*,*,#199,.T.);
#108=ORIENTED_EDGE('',*,*,#200,.F.);
#109=ORIENTED_EDGE('',*,*,#201,.F.);
#110=ORIENTED_EDGE('',*,*,#202,.T.);
#111=ORIENTED_EDGE('',*,*,#203,.T.);
#112=ORIENTED_EDGE('',*,*,#204,.F.);
#113=ORIENTED_EDGE('',*,*,#205,.T.);
#114=ORIENTED_EDGE('',*,*,#206,.T.);
#115=ORIENTED_EDGE('',*,*,#207,.T.);
#116=ORIENTED_EDGE('',*,*,#208,.F.);
#117=ORIENTED_EDGE('',*,*,#209,.F.);
#118=ORIENTED_EDGE('',*,*,#210,.T.);
#119=ORIENTED_EDGE('',*,*,#211,.T.);
#120=ORIENTED_EDGE('',*,*,#212,.F.);
#121=ORIENTED_EDGE('',*,*,#200,.T.);
#122=ORIENTED_EDGE('',*,*,#213,.T.);
#123=ORIENTED_EDGE('',*,*,#188,.F.);
#124=ORIENTED_EDGE('',*,*,#208,.T.);
#125=ORIENTED_EDGE('',*,*,#214,.T.);
#126=ORIENTED_EDGE('',*,*,#186,.F.);
#127=ORIENTED_EDGE('',*,*,#215,.F.);
#128=ORIENTED_EDGE('',*,*,#180,.T.);
#129=ORIENTED_EDGE('',*,*,#195,.F.);
#130=ORIENTED_EDGE('',*,*,#198,.F.);
#131=ORIENTED_EDGE('',*,*,#216,.T.);
#132=ORIENTED_EDGE('',*,*,#210,.F.);
#133=ORIENTED_EDGE('',*,*,#209,.T.);
#134=ORIENTED_EDGE('',*,*,#215,.T.);
#135=ORIENTED_EDGE('',*,*,#189,.T.);
#136=ORIENTED_EDGE('',*,*,#213,.F.);
#137=ORIENTED_EDGE('',*,*,#199,.F.);
#138=ORIENTED_EDGE('',*,*,#206,.F.);
#139=ORIENTED_EDGE('',*,*,#217,.T.);
#140=ORIENTED_EDGE('',*,*,#202,.F.);
#141=ORIENTED_EDGE('',*,*,#201,.T.);
#142=ORIENTED_EDGE('',*,*,#212,.T.);
#143=ORIENTED_EDGE('',*,*,#187,.T.);
#144=ORIENTED_EDGE('',*,*,#214,.F.);
#145=ORIENTED_EDGE('',*,*,#207,.F.);
#146=ORIENTED_EDGE('',*,*,#204,.T.);
#147=ORIENTED_EDGE('',*,*,#218,.T.);
#148=ORIENTED_EDGE('',*,*,#196,.T.);
#149=ORIENTED_EDGE('',*,*,#219,.T.);
#150=ORIENTED_EDGE('',*,*,#220,.T.);
#151=ORIENTED_EDGE('',*,*,#190,.F.);
#152=ORIENTED_EDGE('',*,*,#220,.F.);
#153=ORIENTED_EDGE('',*,*,#221,.F.);
#154=ORIENTED_EDGE('',*,*,#191,.T.);
#155=ORIENTED_EDGE('',*,*,#221,.T.);
#156=ORIENTED_EDGE('',*,*,#203,.F.);
#157=ORIENTED_EDGE('',*,*,#217,.F.);
#158=ORIENTED_EDGE('',*,*,#205,.F.);
#159=ORIENTED_EDGE('',*,*,#218,.F.);
#160=ORIENTED_EDGE('',*,*,#211,.F.);
#161=ORIENTED_EDGE('',*,*,#216,.F.);
#162=ORIENTED_EDGE('',*,*,#197,.F.);
#163=ORIENTED_EDGE('',*,*,#219,.F.);
#164=ORIENTED_EDGE('',*,*,#193,.F.);
#165=ORIENTED_EDGE('',*,*,#222,.T.);
#166=ORIENTED_EDGE('',*,*,#223,.T.);
#167=ORIENTED_EDGE('',*,*,#224,.T.);
#168=ORIENTED_EDGE('',*,*,#194,.F.);
#169=ORIENTED_EDGE('',*,*,#224,.F.);
#170=ORIENTED_EDGE('',*,*,#225,.F.);
#171=ORIENTED_EDGE('',*,*,#185,.F.);
#172=ORIENTED_EDGE('',*,*,#225,.T.);
#173=ORIENTED_EDGE('',*,*,#223,.F.);
#174=ORIENTED_EDGE('',*,*,#226,.F.);
#175=ORIENTED_EDGE('',*,*,#182,.F.);
#176=ORIENTED_EDGE('',*,*,#226,.T.);
#177=ORIENTED_EDGE('',*,*,#222,.F.);
#178=ORIENTED_EDGE('',*,*,#192,.F.);
#179=ORIENTED_EDGE('',*,*,#183,.F.);
#180=EDGE_CURVE('',#227,#227,#261,.T.);
#181=EDGE_CURVE('',#228,#229,#262,.T.);
#182=EDGE_CURVE('',#229,#228,#263,.T.);
#183=EDGE_CURVE('',#228,#230,#39,.F.);
#184=EDGE_CURVE('',#230,#231,#264,.T.);
#185=EDGE_CURVE('',#231,#229,#40,.T.);
#186=EDGE_CURVE('',#232,#233,#265,.T.);
#187=EDGE_CURVE('',#234,#233,#41,.T.);
#188=EDGE_CURVE('',#234,#235,#266,.T.);
#189=EDGE_CURVE('',#232,#235,#42,.T.);
#190=EDGE_CURVE('',#236,#236,#267,.T.);
#191=EDGE_CURVE('',#237,#237,#268,.T.);
#192=EDGE_CURVE('',#230,#238,#269,.F.);
#193=EDGE_CURVE('',#238,#239,#43,.T.);
#194=EDGE_CURVE('',#239,#231,#270,.F.);
#195=EDGE_CURVE('',#240,#240,#271,.T.);
#196=EDGE_CURVE('',#241,#242,#272,.T.);
#197=EDGE_CURVE('',#241,#243,#21,.T.);
#198=EDGE_CURVE('',#243,#244,#22,.T.);
#199=EDGE_CURVE('',#244,#245,#44,.T.);
#200=EDGE_CURVE('',#246,#245,#273,.T.);
#201=EDGE_CURVE('',#247,#246,#45,.T.);
#202=EDGE_CURVE('',#247,#248,#23,.T.);
#203=EDGE_CURVE('',#248,#249,#24,.T.);
#204=EDGE_CURVE('',#250,#249,#274,.T.);
#205=EDGE_CURVE('',#250,#251,#25,.T.);
#206=EDGE_CURVE('',#251,#252,#26,.T.);
#207=EDGE_CURVE('',#252,#253,#46,.T.);
#208=EDGE_CURVE('',#254,#253,#275,.T.);
#209=EDGE_CURVE('',#255,#254,#47,.T.);
#210=EDGE_CURVE('',#255,#256,#27,.T.);
#211=EDGE_CURVE('',#256,#242,#28,.T.);
#212=EDGE_CURVE('',#246,#234,#48,.T.);
#213=EDGE_CURVE('',#245,#235,#49,.T.);
#214=EDGE_CURVE('',#253,#233,#50,.T.);
#215=EDGE_CURVE('',#254,#232,#51,.T.);
#216=EDGE_CURVE('',#243,#256,#52,.F.);
#217=EDGE_CURVE('',#251,#248,#53,.F.);
#218=EDGE_CURVE('',#249,#250,#54,.T.);
#219=EDGE_CURVE('',#242,#241,#55,.T.);
#220=EDGE_CURVE('',#257,#257,#276,.T.);
#221=EDGE_CURVE('',#258,#258,#277,.T.);
#222=EDGE_CURVE('',#238,#259,#56,.T.);
#223=EDGE_CURVE('',#259,#260,#278,.T.);
#224=EDGE_CURVE('',#260,#239,#57,.F.);
#225=EDGE_CURVE('',#229,#260,#279,.T.);
#226=EDGE_CURVE('',#228,#259,#280,.T.);
#227=VERTEX_POINT('',#521);
#228=VERTEX_POINT('',#523);
#229=VERTEX_POINT('',#524);
#230=VERTEX_POINT('',#528);
#231=VERTEX_POINT('',#530);
#232=VERTEX_POINT('',#534);
#233=VERTEX_POINT('',#535);
#234=VERTEX_POINT('',#537);
#235=VERTEX_POINT('',#539);
#236=VERTEX_POINT('',#542);
#237=VERTEX_POINT('',#544);
#238=VERTEX_POINT('',#546);
#239=VERTEX_POINT('',#548);
#240=VERTEX_POINT('',#552);
#241=VERTEX_POINT('',#554);
#242=VERTEX_POINT('',#555);
#243=VERTEX_POINT('',#564);
#244=VERTEX_POINT('',#569);
#245=VERTEX_POINT('',#571);
#246=VERTEX_POINT('',#573);
#247=VERTEX_POINT('',#575);
#248=VERTEX_POINT('',#580);
#249=VERTEX_POINT('',#589);
#250=VERTEX_POINT('',#591);
#251=VERTEX_POINT('',#600);
#252=VERTEX_POINT('',#605);
#253=VERTEX_POINT('',#607);
#254=VERTEX_POINT('',#609);
#255=VERTEX_POINT('',#611);
#256=VERTEX_POINT('',#616);
#257=VERTEX_POINT('',#642);
#258=VERTEX_POINT('',#646);
#259=VERTEX_POINT('',#652);
#260=VERTEX_POINT('',#654);
#261=CIRCLE('',#375,20.4151816081836);
#262=CIRCLE('',#376,33.);
#263=CIRCLE('',#377,10.1699362766033);
#264=CIRCLE('',#379,33.);
#265=CIRCLE('',#381,29.9823423073515);
#266=CIRCLE('',#382,29.9823423073515);
#267=CIRCLE('',#383,1.335);
#268=CIRCLE('',#384,1.335);
#269=CIRCLE('',#385,2.);
#270=CIRCLE('',#386,2.);
#271=CIRCLE('',#388,15.0735968861592);
#272=CIRCLE('',#389,29.8458038557251);
#273=CIRCLE('',#390,29.9823423073515);
#274=CIRCLE('',#391,29.8458038557251);
#275=CIRCLE('',#392,29.9823423073515);
#276=CIRCLE('',#401,1.335);
#277=CIRCLE('',#404,1.335);
#278=CIRCLE('',#409,9.55357650226366);
#279=CIRCLE('',#411,2.);
#280=CIRCLE('',#413,2.);
#281=EDGE_LOOP('',(#86));
#282=EDGE_LOOP('',(#87,#88));
#283=EDGE_LOOP('',(#89,#90,#91,#92));
#284=EDGE_LOOP('',(#93,#94,#95,#96));
#285=EDGE_LOOP('',(#97));
#286=EDGE_LOOP('',(#98));
#287=EDGE_LOOP('',(#99,#100,#101,#102));
#288=EDGE_LOOP('',(#103));
#289=EDGE_LOOP('',(#104,#105,#106,#107,#108,#109,#110,#111,#112,#113,#114,
#115,#116,#117,#118,#119));
#290=EDGE_LOOP('',(#120,#121,#122,#123));
#291=EDGE_LOOP('',(#124,#125,#126,#127));
#292=EDGE_LOOP('',(#128));
#293=EDGE_LOOP('',(#129));
#294=EDGE_LOOP('',(#130,#131,#132,#133,#134,#135,#136,#137));
#295=EDGE_LOOP('',(#138,#139,#140,#141,#142,#143,#144,#145));
#296=EDGE_LOOP('',(#146,#147));
#297=EDGE_LOOP('',(#148,#149));
#298=EDGE_LOOP('',(#150));
#299=EDGE_LOOP('',(#151));
#300=EDGE_LOOP('',(#152));
#301=EDGE_LOOP('',(#153));
#302=EDGE_LOOP('',(#154));
#303=EDGE_LOOP('',(#155));
#304=EDGE_LOOP('',(#156,#157,#158,#159));
#305=EDGE_LOOP('',(#160,#161,#162,#163));
#306=EDGE_LOOP('',(#164,#165,#166,#167));
#307=EDGE_LOOP('',(#168,#169,#170,#171));
#308=EDGE_LOOP('',(#172,#173,#174,#175));
#309=EDGE_LOOP('',(#176,#177,#178,#179));
#310=FACE_BOUND('',#281,.T.);
#311=FACE_BOUND('',#282,.T.);
#312=FACE_BOUND('',#283,.T.);
#313=FACE_BOUND('',#284,.T.);
#314=FACE_BOUND('',#285,.T.);
#315=FACE_BOUND('',#286,.T.);
#316=FACE_BOUND('',#287,.T.);
#317=FACE_BOUND('',#288,.T.);
#318=FACE_BOUND('',#289,.T.);
#319=FACE_BOUND('',#290,.T.);
#320=FACE_BOUND('',#291,.T.);
#321=FACE_BOUND('',#292,.T.);
#322=FACE_BOUND('',#293,.T.);
#323=FACE_BOUND('',#294,.T.);
#324=FACE_BOUND('',#295,.T.);
#325=FACE_BOUND('',#296,.T.);
#326=FACE_BOUND('',#297,.T.);
#327=FACE_BOUND('',#298,.T.);
#328=FACE_BOUND('',#299,.T.);
#329=FACE_BOUND('',#300,.T.);
#330=FACE_BOUND('',#301,.T.);
#331=FACE_BOUND('',#302,.T.);
#332=FACE_BOUND('',#303,.T.);
#333=FACE_BOUND('',#304,.T.);
#334=FACE_BOUND('',#305,.T.);
#335=FACE_BOUND('',#306,.T.);
#336=FACE_BOUND('',#307,.T.);
#337=FACE_BOUND('',#308,.T.);
#338=FACE_BOUND('',#309,.T.);
#339=SPHERICAL_SURFACE('',#374,33.);
#340=ADVANCED_FACE('',(#310,#311),#339,.T.);
#341=ADVANCED_FACE('',(#312),#77,.T.);
#342=ADVANCED_FACE('',(#313,#314,#315,#316),#30,.F.);
#343=ADVANCED_FACE('',(#317,#318),#29,.T.);
#344=ADVANCED_FACE('',(#319),#78,.F.);
#345=ADVANCED_FACE('',(#320),#79,.F.);
#346=ADVANCED_FACE('',(#321,#322),#31,.T.);
#347=ADVANCED_FACE('',(#323),#32,.F.);
#348=ADVANCED_FACE('',(#324),#33,.F.);
#349=ADVANCED_FACE('',(#325),#34,.T.);
#350=ADVANCED_FACE('',(#326),#35,.T.);
#351=ADVANCED_FACE('',(#327,#328),#80,.F.);
#352=ADVANCED_FACE('',(#329),#36,.F.);
#353=ADVANCED_FACE('',(#330,#331),#81,.F.);
#354=ADVANCED_FACE('',(#332),#37,.T.);
#355=ADVANCED_FACE('',(#333),#82,.T.);
#356=ADVANCED_FACE('',(#334),#83,.T.);
#357=ADVANCED_FACE('',(#335),#38,.T.);
#358=ADVANCED_FACE('',(#336),#84,.T.);
#359=ADVANCED_FACE('',(#337),#20,.T.);
#360=ADVANCED_FACE('',(#338),#85,.T.);
#361=CLOSED_SHELL('',(#340,#341,#342,#343,#344,#345,#346,#347,#348,#349,
#350,#351,#352,#353,#354,#355,#356,#357,#358,#359,#360));
#362=STYLED_ITEM('',(#363),#370);
#363=PRESENTATION_STYLE_ASSIGNMENT((#364));
#364=SURFACE_STYLE_USAGE(.BOTH.,#365);
#365=SURFACE_SIDE_STYLE('',(#366));
#366=SURFACE_STYLE_FILL_AREA(#367);
#367=FILL_AREA_STYLE('',(#368));
#368=FILL_AREA_STYLE_COLOUR('',#369);
#369=COLOUR_RGB('',0.699999988079071,0.670680642127991,0.670680642127991);
#370=MANIFOLD_SOLID_BREP('',#361);
#371=SHAPE_DEFINITION_REPRESENTATION(#667,#372);
#372=SHAPE_REPRESENTATION('CaseServi2',(#373),#662);
#373=AXIS2_PLACEMENT_3D('',#518,#415,#416);
#374=AXIS2_PLACEMENT_3D('',#519,#417,#418);
#375=AXIS2_PLACEMENT_3D('',#520,#419,#420);
#376=AXIS2_PLACEMENT_3D('',#522,#421,#422);
#377=AXIS2_PLACEMENT_3D('',#525,#423,#424);
#378=AXIS2_PLACEMENT_3D('',#526,#425,#426);
#379=AXIS2_PLACEMENT_3D('',#529,#428,#429);
#380=AXIS2_PLACEMENT_3D('',#532,#431,#432);
#381=AXIS2_PLACEMENT_3D('',#533,#433,#434);
#382=AXIS2_PLACEMENT_3D('',#538,#436,#437);
#383=AXIS2_PLACEMENT_3D('',#541,#439,#440);
#384=AXIS2_PLACEMENT_3D('',#543,#441,#442);
#385=AXIS2_PLACEMENT_3D('',#545,#443,#444);
#386=AXIS2_PLACEMENT_3D('',#549,#446,#447);
#387=AXIS2_PLACEMENT_3D('',#550,#448,#449);
#388=AXIS2_PLACEMENT_3D('',#551,#450,#451);
#389=AXIS2_PLACEMENT_3D('',#553,#452,#453);
#390=AXIS2_PLACEMENT_3D('',#572,#455,#456);
#391=AXIS2_PLACEMENT_3D('',#590,#458,#459);
#392=AXIS2_PLACEMENT_3D('',#608,#461,#462);
#393=AXIS2_PLACEMENT_3D('',#625,#464,#465);
#394=AXIS2_PLACEMENT_3D('',#628,#468,#469);
#395=AXIS2_PLACEMENT_3D('',#631,#472,#473);
#396=AXIS2_PLACEMENT_3D('',#632,#474,#475);
#397=AXIS2_PLACEMENT_3D('',#634,#477,#478);
#398=AXIS2_PLACEMENT_3D('',#636,#480,#481);
#399=AXIS2_PLACEMENT_3D('',#638,#483,#484);
#400=AXIS2_PLACEMENT_3D('',#640,#486,#487);
#401=AXIS2_PLACEMENT_3D('',#641,#488,#489);
#402=AXIS2_PLACEMENT_3D('',#643,#490,#491);
#403=AXIS2_PLACEMENT_3D('',#644,#492,#493);
#404=AXIS2_PLACEMENT_3D('',#645,#494,#495);
#405=AXIS2_PLACEMENT_3D('',#647,#496,#497);
#406=AXIS2_PLACEMENT_3D('',#648,#498,#499);
#407=AXIS2_PLACEMENT_3D('',#649,#500,#501);
#408=AXIS2_PLACEMENT_3D('',#650,#502,#503);
#409=AXIS2_PLACEMENT_3D('',#653,#505,#506);
#410=AXIS2_PLACEMENT_3D('',#656,#508,#509);
#411=AXIS2_PLACEMENT_3D('',#657,#510,#511);
#412=AXIS2_PLACEMENT_3D('',#658,#512,#513);
#413=AXIS2_PLACEMENT_3D('',#659,#514,#515);
#414=AXIS2_PLACEMENT_3D('',#660,#516,#517);
#415=DIRECTION('',(0.,0.,1.));
#416=DIRECTION('',(1.,0.,0.));
#417=DIRECTION('',(-1.,0.,5.78290338571004E-16));
#418=DIRECTION('',(5.78290338571004E-16,0.,1.));
#419=DIRECTION('',(-1.,0.,5.78290338571004E-16));
#420=DIRECTION('',(5.78290338571004E-16,0.,1.));
#421=DIRECTION('',(-1.,0.,5.78290338571004E-16));
#422=DIRECTION('',(-5.78290338571004E-16,0.,-1.));
#423=DIRECTION('',(5.78290338571004E-16,-1.33423730542041E-15,1.));
#424=DIRECTION('',(0.,-1.,-1.33423730542041E-15));
#425=DIRECTION('',(-1.,0.,5.78290338571004E-16));
#426=DIRECTION('',(5.78290338571004E-16,0.,1.));
#427=DIRECTION('',(-1.,0.,5.78290338571004E-16));
#428=DIRECTION('',(-1.,0.,5.78290338571004E-16));
#429=DIRECTION('',(-5.78290338571004E-16,0.,-1.));
#430=DIRECTION('',(-1.,0.,5.78290338571004E-16));
#431=DIRECTION('',(-1.,0.,5.78290338571004E-16));
#432=DIRECTION('',(5.78290338571004E-16,0.,1.));
#433=DIRECTION('',(-1.,0.,5.78290338571004E-16));
#434=DIRECTION('',(-5.78290338571004E-16,0.,-1.));
#435=DIRECTION('',(-5.78290338571004E-16,4.97738143213263E-16,-1.));
#436=DIRECTION('',(-1.,0.,5.78290338571004E-16));
#437=DIRECTION('',(-5.78290338571004E-16,0.,-1.));
#438=DIRECTION('',(5.78290338571004E-16,-6.30808536718839E-16,1.));
#439=DIRECTION('',(-1.,6.57092225748786E-17,5.78290338571004E-16));
#440=DIRECTION('',(6.5709222574879E-17,1.,6.30808536718839E-16));
#441=DIRECTION('',(1.,-6.57092225748786E-17,-5.78290338571004E-16));
#442=DIRECTION('',(6.5709222574879E-17,1.,6.30808536718839E-16));
#443=DIRECTION('',(-1.,0.,5.78290338571004E-16));
#444=DIRECTION('',(5.78290338571004E-16,0.,1.));
#445=DIRECTION('',(6.57092225748794E-17,1.,1.33423730542041E-15));
#446=DIRECTION('',(-1.,0.,5.78290338571004E-16));
#447=DIRECTION('',(5.78290338571004E-16,0.,1.));
#448=DIRECTION('',(-1.,0.,5.78290338571004E-16));
#449=DIRECTION('',(5.78290338571004E-16,0.,1.));
#450=DIRECTION('',(-1.,0.,5.78290338571004E-16));
#451=DIRECTION('',(5.78290338571004E-16,0.,1.));
#452=DIRECTION('',(-1.,6.57092225748786E-17,5.78290338571004E-16));
#453=DIRECTION('',(5.78290338571004E-16,0.,1.));
#454=DIRECTION('',(1.,0.,-5.78290338571004E-16));
#455=DIRECTION('',(-1.,0.,5.78290338571004E-16));
#456=DIRECTION('',(5.78290338571004E-16,0.,1.));
#457=DIRECTION('',(1.,0.,-5.78290338571004E-16));
#458=DIRECTION('',(-1.,6.57092225748786E-17,5.78290338571004E-16));
#459=DIRECTION('',(5.78290338571004E-16,0.,1.));
#460=DIRECTION('',(1.,0.,-5.78290338571004E-16));
#461=DIRECTION('',(-1.,0.,5.78290338571004E-16));
#462=DIRECTION('',(5.78290338571004E-16,0.,1.));
#463=DIRECTION('',(1.,0.,-5.78290338571004E-16));
#464=DIRECTION('',(-1.,0.,5.78290338571004E-16));
#465=DIRECTION('',(5.78290338571004E-16,0.,1.));
#466=DIRECTION('',(1.,0.,-5.78290338571004E-16));
#467=DIRECTION('',(1.,0.,-5.78290338571004E-16));
#468=DIRECTION('',(-1.,0.,5.78290338571004E-16));
#469=DIRECTION('',(5.78290338571004E-16,0.,1.));
#470=DIRECTION('',(1.,0.,-5.78290338571004E-16));
#471=DIRECTION('',(1.,0.,-5.78290338571004E-16));
#472=DIRECTION('',(-1.,0.,5.78290338571004E-16));
#473=DIRECTION('',(5.78290338571004E-16,0.,1.));
#474=DIRECTION('',(3.64790482272617E-31,1.,6.30808536718838E-16));
#475=DIRECTION('',(0.,-6.30808536718838E-16,1.));
#476=DIRECTION('',(5.78290338571004E-16,-6.30808536718838E-16,1.));
#477=DIRECTION('',(-2.878371593585E-31,-1.,-4.97738143213263E-16));
#478=DIRECTION('',(0.,4.97738143213263E-16,-1.));
#479=DIRECTION('',(-5.78290338571004E-16,4.97738143213263E-16,-1.));
#480=DIRECTION('',(-1.,6.57092225748786E-17,5.78290338571004E-16));
#481=DIRECTION('',(5.78290338571004E-16,0.,1.));
#482=DIRECTION('',(-5.78290338571004E-16,4.97738143213263E-16,-1.));
#483=DIRECTION('',(-1.,6.57092225748786E-17,5.78290338571004E-16));
#484=DIRECTION('',(5.78290338571004E-16,0.,1.));
#485=DIRECTION('',(5.78290338571004E-16,-6.30808536718838E-16,1.));
#486=DIRECTION('',(1.,0.,-5.78290338571004E-16));
#487=DIRECTION('',(-5.78290338571004E-16,0.,-1.));
#488=DIRECTION('',(-1.,6.57092225748786E-17,5.78290338571004E-16));
#489=DIRECTION('',(6.5709222574879E-17,1.,6.30808536718839E-16));
#490=DIRECTION('',(-1.,6.57092225748786E-17,5.78290338571004E-16));
#491=DIRECTION('',(5.78290338571004E-16,0.,1.));
#492=DIRECTION('',(1.,0.,-5.78290338571004E-16));
#493=DIRECTION('',(-5.78290338571004E-16,0.,-1.));
#494=DIRECTION('',(1.,-6.57092225748786E-17,-5.78290338571004E-16));
#495=DIRECTION('',(6.5709222574879E-17,1.,6.30808536718839E-16));
#496=DIRECTION('',(1.,-6.57092225748786E-17,-5.78290338571004E-16));
#497=DIRECTION('',(-5.78290338571004E-16,0.,-1.));
#498=DIRECTION('',(5.78290338571004E-16,-4.97738143213263E-16,1.));
#499=DIRECTION('',(1.,0.,-5.78290338571004E-16));
#500=DIRECTION('',(-5.78290338571004E-16,6.30808536718838E-16,-1.));
#501=DIRECTION('',(0.,1.,6.30808536718838E-16));
#502=DIRECTION('',(-5.78290338571004E-16,1.33423730542041E-15,-1.));
#503=DIRECTION('',(0.,1.,1.33423730542041E-15));
#504=DIRECTION('',(-1.,0.,5.78290338571004E-16));
#505=DIRECTION('',(-5.78290338571004E-16,1.33423730542041E-15,-1.));
#506=DIRECTION('',(0.,1.,1.33423730542041E-15));
#507=DIRECTION('',(-1.,0.,5.78290338571004E-16));
#508=DIRECTION('',(-1.,0.,5.78290338571004E-16));
#509=DIRECTION('',(5.78290338571004E-16,0.,1.));
#510=DIRECTION('',(-1.,-5.88493818735378E-18,5.78290338571003E-16));
#511=DIRECTION('',(5.78290338571003E-16,0.,1.));
#512=DIRECTION('',(-5.78290338571004E-16,1.33423730542041E-15,-1.));
#513=DIRECTION('',(0.,1.,1.33423730542041E-15));
#514=DIRECTION('',(1.,-1.05183877558244E-16,-1.20702965263196E-15));
#515=DIRECTION('',(-1.20702965263196E-15,0.,-1.));
#516=DIRECTION('',(-1.,0.,5.78290338571004E-16));
#517=DIRECTION('',(5.78290338571004E-16,0.,1.));
#518=CARTESIAN_POINT('',(0.,0.,0.));
#519=CARTESIAN_POINT('',(0.,0.,0.));
#520=CARTESIAN_POINT('',(-25.927212729194,0.,1.49934566273681E-14));
#521=CARTESIAN_POINT('',(-25.927212729194,0.,20.4151816081836));
#522=CARTESIAN_POINT('',(-2.08082468103687E-14,0.,0.));
#523=CARTESIAN_POINT('',(-3.8962993861768E-14,-10.1699362766032,-31.3938273571387));
#524=CARTESIAN_POINT('',(-3.8962993861768E-14,10.1699362766033,-31.3938273571387));
#525=CARTESIAN_POINT('',(-1.81547470513994E-14,4.18868156198222E-14,-31.3938273571387));
#526=CARTESIAN_POINT('',(2.13999999999998,0.,-1.23754132454195E-15));
#527=CARTESIAN_POINT('',(2.13999999999996,-10.1699362766032,-31.3938273571387));
#528=CARTESIAN_POINT('',(2.13999999999996,-10.1699362766032,-31.3938273571387));
#529=CARTESIAN_POINT('',(2.13999999999998,0.,-1.23754132454195E-15));
#530=CARTESIAN_POINT('',(2.13999999999996,10.1699362766033,-31.3938273571387));
#531=CARTESIAN_POINT('',(2.13999999999996,10.1699362766033,-31.3938273571387));
#532=CARTESIAN_POINT('',(2.13999999999998,0.,-1.23754132454195E-15));
#533=CARTESIAN_POINT('',(2.13999999999998,0.,-1.23754132454195E-15));
#534=CARTESIAN_POINT('',(2.13999999999997,27.0000011405002,-13.0361339609635));
#535=CARTESIAN_POINT('',(2.13999999999997,-27.0000011405002,-13.0361339609635));
#536=CARTESIAN_POINT('',(2.13999999999997,-27.0000011405002,-13.0361339609635));
#537=CARTESIAN_POINT('',(2.13999999999999,-27.0000011405002,13.0361339609634));
#538=CARTESIAN_POINT('',(2.13999999999998,0.,-1.23754132454195E-15));
#539=CARTESIAN_POINT('',(2.13999999999999,27.0000011405002,13.0361339609635));
#540=CARTESIAN_POINT('',(2.13999999999998,27.0000011405002,1.63270997987303E-14));
#541=CARTESIAN_POINT('',(2.13999999999998,-30.0000005702501,-2.10384506976305E-14));
#542=CARTESIAN_POINT('',(2.13999999999998,-28.6650005702501,-2.01963213011109E-14));
#543=CARTESIAN_POINT('',(2.13999999999998,30.0000005702501,1.12991515240207E-14));
#544=CARTESIAN_POINT('',(2.13999999999998,31.3350005702501,1.21412809205404E-14));
#545=CARTESIAN_POINT('',(2.13999999999996,-9.55357650226361,-29.4911711536758));
#546=CARTESIAN_POINT('',(2.13999999999996,-9.5535765022636,-31.4911711536758));
#547=CARTESIAN_POINT('',(2.13999999999996,1.73472347597681E-15,-31.4911711536757));
#548=CARTESIAN_POINT('',(2.13999999999996,9.55357650226369,-31.4911711536757));
#549=CARTESIAN_POINT('',(2.13999999999996,9.55357650226369,-29.4911711536757));
#550=CARTESIAN_POINT('',(-0.001190455105049,0.,0.));
#551=CARTESIAN_POINT('',(-25.927212729194,0.,1.49934566273681E-14));
#552=CARTESIAN_POINT('',(-25.927212729194,0.,15.0735968861592));
#553=CARTESIAN_POINT('',(-2.86000000000002,1.87850152684691E-16,1.65322193962733E-15));
#554=CARTESIAN_POINT('',(-2.86000000000001,28.0000011405002,10.3330510463464));
#555=CARTESIAN_POINT('',(-2.86000000000003,28.0000011405002,-10.3330510463464));
#556=CARTESIAN_POINT('',(-2.86000000000001,28.0000011405002,10.3330510463464));
#557=CARTESIAN_POINT('',(-2.86000000000001,27.910470645912,10.5756564432747));
#558=CARTESIAN_POINT('',(-2.83617123911839,27.7282719782833,11.0564070774726));
#559=CARTESIAN_POINT('',(-2.7164644378476,27.4508047774291,11.7569243347426));
#560=CARTESIAN_POINT('',(-2.50953278602468,27.2145360873612,12.3345307839917));
#561=CARTESIAN_POINT('',(-2.21903610836444,27.0514840492591,12.7394947593744));
#562=CARTESIAN_POINT('',(-1.99119934976442,27.0000011405002,12.8841036672843));
#563=CARTESIAN_POINT('',(-1.86000000000003,27.0000011405002,12.9029951595419));
#564=CARTESIAN_POINT('',(-1.86000000000001,27.0000011405002,12.9029951595419));
#565=CARTESIAN_POINT('',(-1.86000000000001,27.0000011405002,12.9029951595419));
#566=CARTESIAN_POINT('',(-1.24274797221226,27.0000011405002,12.9918737395414));
#567=CARTESIAN_POINT('',(-0.62313848496562,27.0000011405002,13.0361340152931));
#568=CARTESIAN_POINT('',(-0.00119045510776216,27.0000011405002,13.0361340152933));
#569=CARTESIAN_POINT('',(-0.00119045510776222,27.0000011405002,13.0361340152933));
#570=CARTESIAN_POINT('',(-0.860000000000012,27.0000011405002,13.0361339609635));
#571=CARTESIAN_POINT('',(-6.33911748587207E-15,27.0000011405002,13.0361339609635));
#572=CARTESIAN_POINT('',(-1.38777878078145E-14,0.,9.24446373305873E-30));
#573=CARTESIAN_POINT('',(-6.33911748587188E-15,-27.0000011405002,13.0361339609634));
#574=CARTESIAN_POINT('',(-0.860000000000015,-27.0000011405002,13.0361339609634));
#575=CARTESIAN_POINT('',(-0.00119045510343343,-27.0000011405002,13.0361340152932));
#576=CARTESIAN_POINT('',(-0.00119045510343129,-27.0000011405002,13.0361340152932));
#577=CARTESIAN_POINT('',(-0.626655361006215,-27.0000011405002,13.0361340152933));
#578=CARTESIAN_POINT('',(-1.24823523711705,-27.0000011405002,12.9910836241737));
#579=CARTESIAN_POINT('',(-1.86000000000001,-27.0000011405002,12.9029951595418));
#580=CARTESIAN_POINT('',(-1.86000000000001,-27.0000011405002,12.9029951595418));
#581=CARTESIAN_POINT('',(-1.86000000000001,-27.0000011405002,12.9029951595418));
#582=CARTESIAN_POINT('',(-1.99063304165855,-27.0000011405002,12.8841852104109));
#583=CARTESIAN_POINT('',(-2.21610726819947,-27.0505757455828,12.7419070355681));
#584=CARTESIAN_POINT('',(-2.50697648158024,-27.2125101423419,12.3394323302688));
#585=CARTESIAN_POINT('',(-2.71324834181869,-27.4455853660857,11.769898755591));
#586=CARTESIAN_POINT('',(-2.8366270275577,-27.7281347318385,11.0569021680438));
#587=CARTESIAN_POINT('',(-2.86000000000002,-27.9104612559086,10.575681887851));
#588=CARTESIAN_POINT('',(-2.86000000000002,-28.0000011405002,10.3330510463464));
#589=CARTESIAN_POINT('',(-2.86000000000002,-28.0000011405002,10.3330510463464));
#590=CARTESIAN_POINT('',(-2.86000000000002,1.87850152684691E-16,1.65322193962733E-15));
#591=CARTESIAN_POINT('',(-2.86000000000003,-28.0000011405002,-10.3330510463464));
#592=CARTESIAN_POINT('',(-2.86000000000003,-28.0000011405002,-10.3330510463464));
#593=CARTESIAN_POINT('',(-2.86000000000003,-27.910470645912,-10.5756564432747));
#594=CARTESIAN_POINT('',(-2.8361712391184,-27.7282719782833,-11.0564070774726));
#595=CARTESIAN_POINT('',(-2.71646443784762,-27.450804777429,-11.7569243347425));
#596=CARTESIAN_POINT('',(-2.5095327860247,-27.2145360873612,-12.3345307839916));
#597=CARTESIAN_POINT('',(-2.21903610836447,-27.0514840492591,-12.7394947593744));
#598=CARTESIAN_POINT('',(-1.99119934976443,-27.0000011405002,-12.8841036672843));
#599=CARTESIAN_POINT('',(-1.86000000000004,-27.0000011405002,-12.9029951595418));
#600=CARTESIAN_POINT('',(-1.86000000000003,-27.0000011405002,-12.9029951595418));
#601=CARTESIAN_POINT('',(-1.86000000000003,-27.0000011405002,-12.9029951595418));
#602=CARTESIAN_POINT('',(-1.24274797221228,-27.0000011405002,-12.9918737395413));
#603=CARTESIAN_POINT('',(-0.623138484965637,-27.0000011405002,-13.0361340152931));
#604=CARTESIAN_POINT('',(-0.001190455107779,-27.0000011405002,-13.0361340152932));
#605=CARTESIAN_POINT('',(-0.00119045510777906,-27.0000011405002,-13.0361340152932));
#606=CARTESIAN_POINT('',(-0.86000000000003,-27.0000011405002,-13.0361339609635));
#607=CARTESIAN_POINT('',(-2.14164581297568E-14,-27.0000011405002,-13.0361339609635));
#608=CARTESIAN_POINT('',(-1.38777878078145E-14,0.,9.24446373305873E-30));
#609=CARTESIAN_POINT('',(-2.1416458129757E-14,27.0000011405002,-13.0361339609635));
#610=CARTESIAN_POINT('',(-0.860000000000027,27.0000011405002,-13.0361339609635));
#611=CARTESIAN_POINT('',(-0.00119045510345002,27.0000011405002,-13.0361340152932));
#612=CARTESIAN_POINT('',(-0.00119045510344999,27.0000011405002,-13.0361340152932));
#613=CARTESIAN_POINT('',(-0.626655361006235,27.0000011405002,-13.0361340152933));
#614=CARTESIAN_POINT('',(-1.24823523711706,27.0000011405002,-12.9910836241738));
#615=CARTESIAN_POINT('',(-1.86000000000002,27.0000011405002,-12.9029951595418));
#616=CARTESIAN_POINT('',(-1.86000000000002,27.0000011405002,-12.9029951595418));
#617=CARTESIAN_POINT('',(-1.86000000000003,27.0000011405002,-12.9029951595418));
#618=CARTESIAN_POINT('',(-1.99063304165856,27.0000011405002,-12.8841852104109));
#619=CARTESIAN_POINT('',(-2.21610726819948,27.0505757455828,-12.7419070355681));
#620=CARTESIAN_POINT('',(-2.50697648158025,27.2125101423419,-12.3394323302688));
#621=CARTESIAN_POINT('',(-2.7132483418187,27.4455853660857,-11.769898755591));
#622=CARTESIAN_POINT('',(-2.83662702755771,27.7281347318385,-11.0569021680439));
#623=CARTESIAN_POINT('',(-2.86000000000003,27.9104612559086,-10.575681887851));
#624=CARTESIAN_POINT('',(-2.86000000000003,28.0000011405002,-10.3330510463464));
#625=CARTESIAN_POINT('',(2.13999999999998,0.,-1.23754132454195E-15));
#626=CARTESIAN_POINT('',(-0.860000000000015,-27.0000011405002,13.0361339609634));
#627=CARTESIAN_POINT('',(-0.860000000000012,27.0000011405002,13.0361339609635));
#628=CARTESIAN_POINT('',(2.13999999999998,0.,-1.23754132454195E-15));
#629=CARTESIAN_POINT('',(-0.86000000000003,-27.0000011405002,-13.0361339609635));
#630=CARTESIAN_POINT('',(-0.860000000000027,27.0000011405002,-13.0361339609635));
#631=CARTESIAN_POINT('',(-25.927212729194,0.,15.0735968861592));
#632=CARTESIAN_POINT('',(-0.860000000000019,27.0000011405002,1.80619708144433E-14));
#633=CARTESIAN_POINT('',(-1.86000000000003,27.0000011405002,-12.718960107155));
#634=CARTESIAN_POINT('',(-0.86000000000003,-27.0000011405002,-13.0361339609635));
#635=CARTESIAN_POINT('',(-1.86000000000001,-27.0000011405002,12.718960107155));
#636=CARTESIAN_POINT('',(-2.86000000000002,1.87850152684691E-16,1.65322193962733E-15));
#637=CARTESIAN_POINT('',(-2.86000000000003,-28.0000011405002,-12.718960107155));
#638=CARTESIAN_POINT('',(-2.86000000000002,1.87850152684691E-16,1.65322193962733E-15));
#639=CARTESIAN_POINT('',(-2.86000000000001,28.0000011405002,12.718960107155));
#640=CARTESIAN_POINT('',(-1.86000000000002,-30.0000005702501,-1.87252893433465E-14));
#641=CARTESIAN_POINT('',(-1.86000000000002,-30.0000005702501,-1.87252893433465E-14));
#642=CARTESIAN_POINT('',(-1.86000000000002,-28.6650005702501,-1.78831599468269E-14));
#643=CARTESIAN_POINT('',(-1.86000000000002,-30.0000005702501,-1.87252893433465E-14));
#644=CARTESIAN_POINT('',(-1.86000000000002,30.0000005702501,1.36123128783047E-14));
#645=CARTESIAN_POINT('',(-1.86000000000002,30.0000005702501,1.36123128783047E-14));
#646=CARTESIAN_POINT('',(-1.86000000000002,31.3350005702501,1.44544422748244E-14));
#647=CARTESIAN_POINT('',(-1.86000000000002,30.0000005702501,1.36123128783047E-14));
#648=CARTESIAN_POINT('',(-1.86000000000002,-28.0000011405002,-1.28617369765855E-14));
#649=CARTESIAN_POINT('',(-1.86000000000002,28.0000011405002,1.87375713486211E-14));
#650=CARTESIAN_POINT('',(-56.4689119849634,1.73472347597681E-15,-31.4911711536757));
#651=CARTESIAN_POINT('',(-56.4689119849634,-9.5535765022636,-31.4911711536757));
#652=CARTESIAN_POINT('',(-3.90156595996521E-14,-9.55357650226362,-31.4911711536758));
#653=CARTESIAN_POINT('',(-1.82110400284566E-14,4.20166953446132E-14,-31.4911711536757));
#654=CARTESIAN_POINT('',(-3.90156595996521E-14,9.5535765022637,-31.4911711536757));
#655=CARTESIAN_POINT('',(-56.4689119849634,9.55357650226369,-31.4911711536757));
#656=CARTESIAN_POINT('',(2.13999999999996,9.55357650226369,-29.4911711536757));
#657=CARTESIAN_POINT('',(-3.78590789225101E-14,9.55357650226369,-29.4911711536757));
#658=CARTESIAN_POINT('',(-1.70544593513146E-14,3.93482207337724E-14,-29.4911711536757));
#659=CARTESIAN_POINT('',(-3.66016002943882E-14,-9.55357650226362,-29.4911711536757));
#660=CARTESIAN_POINT('',(2.13999999999996,-9.55357650226361,-29.4911711536758));
#661=MECHANICAL_DESIGN_GEOMETRIC_PRESENTATION_REPRESENTATION('',(#362),
#662);
#662=(
GEOMETRIC_REPRESENTATION_CONTEXT(3)
GLOBAL_UNCERTAINTY_ASSIGNED_CONTEXT((#663))
GLOBAL_UNIT_ASSIGNED_CONTEXT((#666,#665,#664))
REPRESENTATION_CONTEXT('CaseServi2','TOP_LEVEL_ASSEMBLY_PART')
);
#663=UNCERTAINTY_MEASURE_WITH_UNIT(LENGTH_MEASURE(0.005),#666,
'DISTANCE_ACCURACY_VALUE','Maximum Tolerance applied to model');
#664=(
NAMED_UNIT(*)
SI_UNIT($,.STERADIAN.)
SOLID_ANGLE_UNIT()
);
#665=(
NAMED_UNIT(*)
PLANE_ANGLE_UNIT()
SI_UNIT($,.RADIAN.)
);
#666=(
LENGTH_UNIT()
NAMED_UNIT(*)
SI_UNIT(.MILLI.,.METRE.)
);
#667=PRODUCT_DEFINITION_SHAPE('','',#668);
#668=PRODUCT_DEFINITION('','',#670,#669);
#669=PRODUCT_DEFINITION_CONTEXT('',#676,'design');
#670=PRODUCT_DEFINITION_FORMATION_WITH_SPECIFIED_SOURCE('','',#672,
 .NOT_KNOWN.);
#671=PRODUCT_RELATED_PRODUCT_CATEGORY('','',(#672));
#672=PRODUCT('CaseServi2','CaseServi2','CaseServi2',(#674));
#673=PRODUCT_CATEGORY('','');
#674=PRODUCT_CONTEXT('',#676,'mechanical');
#675=APPLICATION_PROTOCOL_DEFINITION('international standard',
'automotive_design',2010,#676);
#676=APPLICATION_CONTEXT(
'core data for automotive mechanical design processes');
ENDSEC;
END-ISO-10303-21;
