ISO-10303-21;
HEADER;
/* Generated by software containing ST-Developer
 * from STEP Tools, Inc. (www.steptools.com) 
 */
/* OPTION: strings as raw bytes, not using required /X/ escapes */

FILE_DESCRIPTION(
/* description */ ('Unknown'),
/* implementation_level */ '2;1');

FILE_NAME(
/* name */ 'Membrana',
/* time_stamp */ '2024-01-05T19:15:23+01:00',
/* author */ ('Unknown'),
/* organization */ ('Unknown'),
/* preprocessor_version */ 'ST-DEVELOPER v18.102',
/* originating_system */ 'Solid Edge',
/* authorisation */ 'Unknown');

FILE_SCHEMA (('AUTOMOTIVE_DESIGN {1 0 10303 214 3 1 1}'));
ENDSEC;

DATA;
#10=PROPERTY_DEFINITION_REPRESENTATION(#14,#12);
#11=PROPERTY_DEFINITION_REPRESENTATION(#15,#13);
#12=REPRESENTATION('',(#16),#549);
#13=REPRESENTATION('',(#17),#549);
#14=PROPERTY_DEFINITION('pmi validation property','',#554);
#15=PROPERTY_DEFINITION('pmi validation property','',#554);
#16=VALUE_REPRESENTATION_ITEM('number of annotations',COUNT_MEASURE(0.));
#17=VALUE_REPRESENTATION_ITEM('number of views',COUNT_MEASURE(0.));
#18=SHAPE_REPRESENTATION_RELATIONSHIP('','',#314,#19);
#19=ADVANCED_BREP_SHAPE_REPRESENTATION('',(#312),#549);
#20=TOROIDAL_SURFACE('',#344,8.38879196258758,0.999999999999999);
#21=TOROIDAL_SURFACE('',#354,9.05704134666745,1.);
#22=TOROIDAL_SURFACE('',#359,9.74035417674127,2.);
#23=SPHERICAL_SURFACE('',#323,33.2);
#24=SPHERICAL_SURFACE('',#331,33.0000002980807);
#25=PLANE('',#319);
#26=PLANE('',#326);
#27=PLANE('',#337);
#28=PLANE('',#342);
#29=PLANE('',#347);
#30=PLANE('',#348);
#31=PLANE('',#350);
#32=LINE('',#471,#42);
#33=LINE('',#475,#43);
#34=LINE('',#479,#44);
#35=LINE('',#491,#45);
#36=LINE('',#507,#46);
#37=LINE('',#508,#47);
#38=LINE('',#530,#48);
#39=LINE('',#531,#49);
#40=LINE('',#536,#50);
#41=LINE('',#537,#51);
#42=VECTOR('',#368,1000.);
#43=VECTOR('',#371,1000.);
#44=VECTOR('',#376,1000.);
#45=VECTOR('',#391,1000.);
#46=VECTOR('',#408,1000.);
#47=VECTOR('',#409,1000.);
#48=VECTOR('',#438,1000.);
#49=VECTOR('',#439,1000.);
#50=VECTOR('',#444,1000.);
#51=VECTOR('',#445,1000.);
#52=ORIENTED_EDGE('',*,*,#122,.F.);
#53=ORIENTED_EDGE('',*,*,#123,.T.);
#54=ORIENTED_EDGE('',*,*,#124,.T.);
#55=ORIENTED_EDGE('',*,*,#125,.T.);
#56=ORIENTED_EDGE('',*,*,#126,.T.);
#57=ORIENTED_EDGE('',*,*,#127,.T.);
#58=ORIENTED_EDGE('',*,*,#128,.T.);
#59=ORIENTED_EDGE('',*,*,#122,.T.);
#60=ORIENTED_EDGE('',*,*,#129,.T.);
#61=ORIENTED_EDGE('',*,*,#130,.T.);
#62=ORIENTED_EDGE('',*,*,#124,.F.);
#63=ORIENTED_EDGE('',*,*,#131,.T.);
#64=ORIENTED_EDGE('',*,*,#132,.F.);
#65=ORIENTED_EDGE('',*,*,#133,.T.);
#66=ORIENTED_EDGE('',*,*,#134,.T.);
#67=ORIENTED_EDGE('',*,*,#135,.T.);
#68=ORIENTED_EDGE('',*,*,#136,.T.);
#69=ORIENTED_EDGE('',*,*,#137,.T.);
#70=ORIENTED_EDGE('',*,*,#138,.F.);
#71=ORIENTED_EDGE('',*,*,#139,.T.);
#72=ORIENTED_EDGE('',*,*,#135,.F.);
#73=ORIENTED_EDGE('',*,*,#140,.T.);
#74=ORIENTED_EDGE('',*,*,#138,.T.);
#75=ORIENTED_EDGE('',*,*,#141,.T.);
#76=ORIENTED_EDGE('',*,*,#132,.T.);
#77=ORIENTED_EDGE('',*,*,#126,.F.);
#78=ORIENTED_EDGE('',*,*,#142,.T.);
#79=ORIENTED_EDGE('',*,*,#143,.T.);
#80=ORIENTED_EDGE('',*,*,#143,.F.);
#81=ORIENTED_EDGE('',*,*,#144,.T.);
#82=ORIENTED_EDGE('',*,*,#145,.T.);
#83=ORIENTED_EDGE('',*,*,#137,.F.);
#84=ORIENTED_EDGE('',*,*,#142,.F.);
#85=ORIENTED_EDGE('',*,*,#130,.F.);
#86=ORIENTED_EDGE('',*,*,#146,.T.);
#87=ORIENTED_EDGE('',*,*,#145,.F.);
#88=ORIENTED_EDGE('',*,*,#144,.F.);
#89=ORIENTED_EDGE('',*,*,#146,.F.);
#90=ORIENTED_EDGE('',*,*,#147,.T.);
#91=ORIENTED_EDGE('',*,*,#148,.T.);
#92=ORIENTED_EDGE('',*,*,#133,.F.);
#93=ORIENTED_EDGE('',*,*,#149,.T.);
#94=ORIENTED_EDGE('',*,*,#150,.T.);
#95=ORIENTED_EDGE('',*,*,#151,.T.);
#96=ORIENTED_EDGE('',*,*,#127,.F.);
#97=ORIENTED_EDGE('',*,*,#152,.T.);
#98=ORIENTED_EDGE('',*,*,#129,.F.);
#99=ORIENTED_EDGE('',*,*,#125,.F.);
#100=ORIENTED_EDGE('',*,*,#153,.F.);
#101=ORIENTED_EDGE('',*,*,#152,.F.);
#102=ORIENTED_EDGE('',*,*,#153,.T.);
#103=ORIENTED_EDGE('',*,*,#131,.F.);
#104=ORIENTED_EDGE('',*,*,#154,.F.);
#105=ORIENTED_EDGE('',*,*,#150,.F.);
#106=ORIENTED_EDGE('',*,*,#154,.T.);
#107=ORIENTED_EDGE('',*,*,#123,.F.);
#108=ORIENTED_EDGE('',*,*,#128,.F.);
#109=ORIENTED_EDGE('',*,*,#151,.F.);
#110=ORIENTED_EDGE('',*,*,#136,.F.);
#111=ORIENTED_EDGE('',*,*,#141,.F.);
#112=ORIENTED_EDGE('',*,*,#155,.F.);
#113=ORIENTED_EDGE('',*,*,#149,.F.);
#114=ORIENTED_EDGE('',*,*,#155,.T.);
#115=ORIENTED_EDGE('',*,*,#139,.F.);
#116=ORIENTED_EDGE('',*,*,#156,.F.);
#117=ORIENTED_EDGE('',*,*,#147,.F.);
#118=ORIENTED_EDGE('',*,*,#156,.T.);
#119=ORIENTED_EDGE('',*,*,#140,.F.);
#120=ORIENTED_EDGE('',*,*,#134,.F.);
#121=ORIENTED_EDGE('',*,*,#148,.F.);
#122=EDGE_CURVE('',#157,#158,#182,.T.);
#123=EDGE_CURVE('',#157,#159,#32,.T.);
#124=EDGE_CURVE('',#159,#160,#183,.T.);
#125=EDGE_CURVE('',#160,#158,#33,.F.);
#126=EDGE_CURVE('',#161,#161,#184,.T.);
#127=EDGE_CURVE('',#162,#163,#34,.T.);
#128=EDGE_CURVE('',#163,#157,#185,.T.);
#129=EDGE_CURVE('',#158,#162,#186,.T.);
#130=EDGE_CURVE('',#164,#164,#187,.T.);
#131=EDGE_CURVE('',#159,#160,#188,.T.);
#132=EDGE_CURVE('',#165,#165,#189,.T.);
#133=EDGE_CURVE('',#166,#167,#35,.T.);
#134=EDGE_CURVE('',#167,#168,#190,.T.);
#135=EDGE_CURVE('',#168,#169,#191,.T.);
#136=EDGE_CURVE('',#169,#166,#192,.T.);
#137=EDGE_CURVE('',#170,#170,#193,.T.);
#138=EDGE_CURVE('',#171,#172,#194,.T.);
#139=EDGE_CURVE('',#171,#172,#195,.F.);
#140=EDGE_CURVE('',#168,#171,#36,.T.);
#141=EDGE_CURVE('',#172,#169,#37,.F.);
#142=EDGE_CURVE('',#173,#173,#196,.F.);
#143=EDGE_CURVE('',#174,#174,#197,.T.);
#144=EDGE_CURVE('',#175,#175,#198,.T.);
#145=EDGE_CURVE('',#176,#176,#199,.T.);
#146=EDGE_CURVE('',#177,#177,#200,.T.);
#147=EDGE_CURVE('',#178,#179,#201,.F.);
#148=EDGE_CURVE('',#179,#167,#38,.T.);
#149=EDGE_CURVE('',#166,#178,#39,.F.);
#150=EDGE_CURVE('',#180,#181,#202,.T.);
#151=EDGE_CURVE('',#181,#163,#40,.T.);
#152=EDGE_CURVE('',#162,#180,#41,.F.);
#153=EDGE_CURVE('',#180,#160,#203,.T.);
#154=EDGE_CURVE('',#181,#159,#204,.T.);
#155=EDGE_CURVE('',#178,#172,#205,.T.);
#156=EDGE_CURVE('',#179,#171,#206,.T.);
#157=VERTEX_POINT('',#469);
#158=VERTEX_POINT('',#470);
#159=VERTEX_POINT('',#472);
#160=VERTEX_POINT('',#474);
#161=VERTEX_POINT('',#478);
#162=VERTEX_POINT('',#480);
#163=VERTEX_POINT('',#481);
#164=VERTEX_POINT('',#486);
#165=VERTEX_POINT('',#490);
#166=VERTEX_POINT('',#492);
#167=VERTEX_POINT('',#493);
#168=VERTEX_POINT('',#495);
#169=VERTEX_POINT('',#497);
#170=VERTEX_POINT('',#501);
#171=VERTEX_POINT('',#503);
#172=VERTEX_POINT('',#504);
#173=VERTEX_POINT('',#512);
#174=VERTEX_POINT('',#514);
#175=VERTEX_POINT('',#517);
#176=VERTEX_POINT('',#520);
#177=VERTEX_POINT('',#524);
#178=VERTEX_POINT('',#528);
#179=VERTEX_POINT('',#529);
#180=VERTEX_POINT('',#534);
#181=VERTEX_POINT('',#535);
#182=CIRCLE('',#317,33.2);
#183=CIRCLE('',#318,33.2);
#184=CIRCLE('',#320,31.);
#185=CIRCLE('',#321,1.);
#186=CIRCLE('',#322,1.);
#187=CIRCLE('',#324,8.98879196258757);
#188=CIRCLE('',#325,9.3383159226509);
#189=CIRCLE('',#327,31.);
#190=CIRCLE('',#328,2.);
#191=CIRCLE('',#329,33.0000002980807);
#192=CIRCLE('',#330,2.);
#193=CIRCLE('',#332,8.21939174270261);
#194=CIRCLE('',#333,33.0000002980807);
#195=CIRCLE('',#334,10.3687641175853);
#196=CIRCLE('',#338,8.38879196258758);
#197=CIRCLE('',#339,2.15);
#198=CIRCLE('',#341,2.15);
#199=CIRCLE('',#343,2.25);
#200=CIRCLE('',#346,2.25);
#201=CIRCLE('',#349,9.74035417674127);
#202=CIRCLE('',#351,9.05704134666745);
#203=CIRCLE('',#353,1.);
#204=CIRCLE('',#355,1.);
#205=CIRCLE('',#358,2.);
#206=CIRCLE('',#360,2.);
#207=EDGE_LOOP('',(#52,#53,#54,#55));
#208=EDGE_LOOP('',(#56));
#209=EDGE_LOOP('',(#57,#58,#59,#60));
#210=EDGE_LOOP('',(#61));
#211=EDGE_LOOP('',(#62,#63));
#212=EDGE_LOOP('',(#64));
#213=EDGE_LOOP('',(#65,#66,#67,#68));
#214=EDGE_LOOP('',(#69));
#215=EDGE_LOOP('',(#70,#71));
#216=EDGE_LOOP('',(#72,#73,#74,#75));
#217=EDGE_LOOP('',(#76));
#218=EDGE_LOOP('',(#77));
#219=EDGE_LOOP('',(#78));
#220=EDGE_LOOP('',(#79));
#221=EDGE_LOOP('',(#80));
#222=EDGE_LOOP('',(#81));
#223=EDGE_LOOP('',(#82));
#224=EDGE_LOOP('',(#83));
#225=EDGE_LOOP('',(#84));
#226=EDGE_LOOP('',(#85));
#227=EDGE_LOOP('',(#86));
#228=EDGE_LOOP('',(#87));
#229=EDGE_LOOP('',(#88));
#230=EDGE_LOOP('',(#89));
#231=EDGE_LOOP('',(#90,#91,#92,#93));
#232=EDGE_LOOP('',(#94,#95,#96,#97));
#233=EDGE_LOOP('',(#98,#99,#100,#101));
#234=EDGE_LOOP('',(#102,#103,#104,#105));
#235=EDGE_LOOP('',(#106,#107,#108,#109));
#236=EDGE_LOOP('',(#110,#111,#112,#113));
#237=EDGE_LOOP('',(#114,#115,#116,#117));
#238=EDGE_LOOP('',(#118,#119,#120,#121));
#239=FACE_BOUND('',#207,.T.);
#240=FACE_BOUND('',#208,.T.);
#241=FACE_BOUND('',#209,.T.);
#242=FACE_BOUND('',#210,.T.);
#243=FACE_BOUND('',#211,.T.);
#244=FACE_BOUND('',#212,.T.);
#245=FACE_BOUND('',#213,.T.);
#246=FACE_BOUND('',#214,.T.);
#247=FACE_BOUND('',#215,.T.);
#248=FACE_BOUND('',#216,.T.);
#249=FACE_BOUND('',#217,.T.);
#250=FACE_BOUND('',#218,.T.);
#251=FACE_BOUND('',#219,.T.);
#252=FACE_BOUND('',#220,.T.);
#253=FACE_BOUND('',#221,.T.);
#254=FACE_BOUND('',#222,.T.);
#255=FACE_BOUND('',#223,.T.);
#256=FACE_BOUND('',#224,.T.);
#257=FACE_BOUND('',#225,.T.);
#258=FACE_BOUND('',#226,.T.);
#259=FACE_BOUND('',#227,.T.);
#260=FACE_BOUND('',#228,.T.);
#261=FACE_BOUND('',#229,.T.);
#262=FACE_BOUND('',#230,.T.);
#263=FACE_BOUND('',#231,.T.);
#264=FACE_BOUND('',#232,.T.);
#265=FACE_BOUND('',#233,.T.);
#266=FACE_BOUND('',#234,.T.);
#267=FACE_BOUND('',#235,.T.);
#268=FACE_BOUND('',#236,.T.);
#269=FACE_BOUND('',#237,.T.);
#270=FACE_BOUND('',#238,.T.);
#271=CYLINDRICAL_SURFACE('',#316,33.2);
#272=CYLINDRICAL_SURFACE('',#335,33.0000002980807);
#273=CYLINDRICAL_SURFACE('',#336,31.);
#274=CYLINDRICAL_SURFACE('',#340,2.15);
#275=CYLINDRICAL_SURFACE('',#345,2.25);
#276=CYLINDRICAL_SURFACE('',#352,1.);
#277=CYLINDRICAL_SURFACE('',#356,1.);
#278=CYLINDRICAL_SURFACE('',#357,2.);
#279=CYLINDRICAL_SURFACE('',#361,2.);
#280=ADVANCED_FACE('',(#239),#271,.T.);
#281=ADVANCED_FACE('',(#240,#241),#25,.T.);
#282=ADVANCED_FACE('',(#242,#243),#23,.T.);
#283=ADVANCED_FACE('',(#244,#245),#26,.T.);
#284=ADVANCED_FACE('',(#246,#247),#24,.F.);
#285=ADVANCED_FACE('',(#248),#272,.F.);
#286=ADVANCED_FACE('',(#249,#250),#273,.F.);
#287=ADVANCED_FACE('',(#251,#252),#27,.F.);
#288=ADVANCED_FACE('',(#253,#254),#274,.F.);
#289=ADVANCED_FACE('',(#255,#256),#28,.F.);
#290=ADVANCED_FACE('',(#257,#258),#20,.T.);
#291=ADVANCED_FACE('',(#259,#260),#275,.T.);
#292=ADVANCED_FACE('',(#261,#262),#29,.F.);
#293=ADVANCED_FACE('',(#263),#30,.F.);
#294=ADVANCED_FACE('',(#264),#31,.T.);
#295=ADVANCED_FACE('',(#265),#276,.T.);
#296=ADVANCED_FACE('',(#266),#21,.T.);
#297=ADVANCED_FACE('',(#267),#277,.T.);
#298=ADVANCED_FACE('',(#268),#278,.F.);
#299=ADVANCED_FACE('',(#269),#22,.F.);
#300=ADVANCED_FACE('',(#270),#279,.F.);
#301=CLOSED_SHELL('',(#280,#281,#282,#283,#284,#285,#286,#287,#288,#289,
#290,#291,#292,#293,#294,#295,#296,#297,#298,#299,#300));
#302=STYLED_ITEM('',(#303),#312);
#303=PRESENTATION_STYLE_ASSIGNMENT((#304));
#304=SURFACE_STYLE_USAGE(.BOTH.,#305);
#305=SURFACE_SIDE_STYLE('',(#308,#306));
#306=SURFACE_STYLE_RENDERING_WITH_PROPERTIES(.CONSTANT_SHADING.,#311,(#307));
#307=SURFACE_STYLE_TRANSPARENT(0.625);
#308=SURFACE_STYLE_FILL_AREA(#309);
#309=FILL_AREA_STYLE('',(#310));
#310=FILL_AREA_STYLE_COLOUR('',#311);
#311=DRAUGHTING_PRE_DEFINED_COLOUR('white');
#312=MANIFOLD_SOLID_BREP('',#301);
#313=SHAPE_DEFINITION_REPRESENTATION(#554,#314);
#314=SHAPE_REPRESENTATION('Membrana',(#315),#549);
#315=AXIS2_PLACEMENT_3D('',#466,#362,#363);
#316=AXIS2_PLACEMENT_3D('',#467,#364,#365);
#317=AXIS2_PLACEMENT_3D('',#468,#366,#367);
#318=AXIS2_PLACEMENT_3D('',#473,#369,#370);
#319=AXIS2_PLACEMENT_3D('',#476,#372,#373);
#320=AXIS2_PLACEMENT_3D('',#477,#374,#375);
#321=AXIS2_PLACEMENT_3D('',#482,#377,#378);
#322=AXIS2_PLACEMENT_3D('',#483,#379,#380);
#323=AXIS2_PLACEMENT_3D('',#484,#381,#382);
#324=AXIS2_PLACEMENT_3D('',#485,#383,#384);
#325=AXIS2_PLACEMENT_3D('',#487,#385,#386);
#326=AXIS2_PLACEMENT_3D('',#488,#387,#388);
#327=AXIS2_PLACEMENT_3D('',#489,#389,#390);
#328=AXIS2_PLACEMENT_3D('',#494,#392,#393);
#329=AXIS2_PLACEMENT_3D('',#496,#394,#395);
#330=AXIS2_PLACEMENT_3D('',#498,#396,#397);
#331=AXIS2_PLACEMENT_3D('',#499,#398,#399);
#332=AXIS2_PLACEMENT_3D('',#500,#400,#401);
#333=AXIS2_PLACEMENT_3D('',#502,#402,#403);
#334=AXIS2_PLACEMENT_3D('',#505,#404,#405);
#335=AXIS2_PLACEMENT_3D('',#506,#406,#407);
#336=AXIS2_PLACEMENT_3D('',#509,#410,#411);
#337=AXIS2_PLACEMENT_3D('',#510,#412,#413);
#338=AXIS2_PLACEMENT_3D('',#511,#414,#415);
#339=AXIS2_PLACEMENT_3D('',#513,#416,#417);
#340=AXIS2_PLACEMENT_3D('',#515,#418,#419);
#341=AXIS2_PLACEMENT_3D('',#516,#420,#421);
#342=AXIS2_PLACEMENT_3D('',#518,#422,#423);
#343=AXIS2_PLACEMENT_3D('',#519,#424,#425);
#344=AXIS2_PLACEMENT_3D('',#521,#426,#427);
#345=AXIS2_PLACEMENT_3D('',#522,#428,#429);
#346=AXIS2_PLACEMENT_3D('',#523,#430,#431);
#347=AXIS2_PLACEMENT_3D('',#525,#432,#433);
#348=AXIS2_PLACEMENT_3D('',#526,#434,#435);
#349=AXIS2_PLACEMENT_3D('',#527,#436,#437);
#350=AXIS2_PLACEMENT_3D('',#532,#440,#441);
#351=AXIS2_PLACEMENT_3D('',#533,#442,#443);
#352=AXIS2_PLACEMENT_3D('',#538,#446,#447);
#353=AXIS2_PLACEMENT_3D('',#539,#448,#449);
#354=AXIS2_PLACEMENT_3D('',#540,#450,#451);
#355=AXIS2_PLACEMENT_3D('',#541,#452,#453);
#356=AXIS2_PLACEMENT_3D('',#542,#454,#455);
#357=AXIS2_PLACEMENT_3D('',#543,#456,#457);
#358=AXIS2_PLACEMENT_3D('',#544,#458,#459);
#359=AXIS2_PLACEMENT_3D('',#545,#460,#461);
#360=AXIS2_PLACEMENT_3D('',#546,#462,#463);
#361=AXIS2_PLACEMENT_3D('',#547,#464,#465);
#362=DIRECTION('',(0.,0.,1.));
#363=DIRECTION('',(1.,0.,0.));
#364=DIRECTION('',(-1.,6.12303176911189E-17,1.22464679914735E-16));
#365=DIRECTION('',(1.22464679914735E-16,0.,1.));
#366=DIRECTION('',(1.,-6.12303176911188E-17,-1.22464679914735E-16));
#367=DIRECTION('',(-6.12303176911189E-17,-1.,-1.75224593533011E-16));
#368=DIRECTION('',(-1.,6.12303176911189E-17,1.22464679914735E-16));
#369=DIRECTION('',(1.,-6.12303176911189E-17,-1.22464679914735E-16));
#370=DIRECTION('',(-6.12303176911189E-17,-1.,-1.75224593533011E-16));
#371=DIRECTION('',(-1.,6.12303176911189E-17,1.22464679914735E-16));
#372=DIRECTION('',(1.,-6.12303176911188E-17,-1.22464679914735E-16));
#373=DIRECTION('',(-1.22464679914735E-16,0.,-1.));
#374=DIRECTION('',(-1.,5.8782045496202E-17,1.22464679914735E-16));
#375=DIRECTION('',(5.8782045496202E-17,1.,0.));
#376=DIRECTION('',(1.22464679914735E-16,-7.54272166639124E-16,1.));
#377=DIRECTION('',(1.,-6.12303176911188E-17,-1.22464679914735E-16));
#378=DIRECTION('',(-1.22464679914735E-16,0.,-1.));
#379=DIRECTION('',(1.,-6.12303176911188E-17,-1.22464679914735E-16));
#380=DIRECTION('',(-1.22464679914735E-16,0.,-1.));
#381=DIRECTION('',(6.12303176911189E-17,1.,8.76122967665054E-17));
#382=DIRECTION('',(-1.22464679914735E-16,8.76122967665054E-17,-1.));
#383=DIRECTION('',(1.,0.,0.));
#384=DIRECTION('',(0.,0.,-1.));
#385=DIRECTION('',(-6.12303176911189E-17,-1.,-7.54272166639124E-16));
#386=DIRECTION('',(0.,7.54272166639124E-16,-1.));
#387=DIRECTION('',(-1.,5.8782045496202E-17,1.22464679914735E-16));
#388=DIRECTION('',(1.22464679914735E-16,0.,1.));
#389=DIRECTION('',(-1.,5.8782045496202E-17,1.22464679914735E-16));
#390=DIRECTION('',(5.8782045496202E-17,1.,0.));
#391=DIRECTION('',(-1.22464679914735E-16,-6.48558961094707E-16,-1.));
#392=DIRECTION('',(-1.,5.8782045496202E-17,1.22464679914735E-16));
#393=DIRECTION('',(1.22464679914735E-16,0.,1.));
#394=DIRECTION('',(-1.,5.8782045496202E-17,1.22464679914735E-16));
#395=DIRECTION('',(5.8782045496202E-17,1.,0.));
#396=DIRECTION('',(-1.,5.8782045496202E-17,1.22464679914735E-16));
#397=DIRECTION('',(1.22464679914735E-16,0.,1.));
#398=DIRECTION('',(6.12303176911189E-17,1.,8.76122967665054E-17));
#399=DIRECTION('',(-1.22464679914735E-16,8.76122967665054E-17,-1.));
#400=DIRECTION('',(-1.,0.,0.));
#401=DIRECTION('',(0.,-1.,0.));
#402=DIRECTION('',(-1.,6.12303176911189E-17,1.22464679914735E-16));
#403=DIRECTION('',(6.12303176911189E-17,1.,1.75224593533011E-16));
#404=DIRECTION('',(-6.12303176911188E-17,-1.,6.48558961094707E-16));
#405=DIRECTION('',(0.,-6.48558961094707E-16,-1.));
#406=DIRECTION('',(-1.,6.12303176911189E-17,1.22464679914735E-16));
#407=DIRECTION('',(1.22464679914735E-16,0.,1.));
#408=DIRECTION('',(-1.,6.12303176911189E-17,1.22464679914735E-16));
#409=DIRECTION('',(-1.,6.12303176911189E-17,1.22464679914735E-16));
#410=DIRECTION('',(1.,-6.12303176911188E-17,-1.22464679914735E-16));
#411=DIRECTION('',(-1.22464679914735E-16,0.,-1.));
#412=DIRECTION('',(1.,0.,0.));
#413=DIRECTION('',(0.,0.,-1.));
#414=DIRECTION('',(1.,0.,0.));
#415=DIRECTION('',(0.,0.,-1.));
#416=DIRECTION('',(1.,0.,0.));
#417=DIRECTION('',(0.,-1.,0.));
#418=DIRECTION('',(-1.,0.,0.));
#419=DIRECTION('',(0.,0.,1.));
#420=DIRECTION('',(1.,0.,0.));
#421=DIRECTION('',(0.,1.,0.));
#422=DIRECTION('',(-1.,0.,0.));
#423=DIRECTION('',(0.,0.,1.));
#424=DIRECTION('',(-1.,0.,0.));
#425=DIRECTION('',(0.,1.,0.));
#426=DIRECTION('',(-1.,0.,0.));
#427=DIRECTION('',(0.,0.,1.));
#428=DIRECTION('',(-1.,0.,0.));
#429=DIRECTION('',(0.,0.,1.));
#430=DIRECTION('',(-1.,0.,0.));
#431=DIRECTION('',(0.,1.,0.));
#432=DIRECTION('',(-1.,0.,0.));
#433=DIRECTION('',(0.,0.,1.));
#434=DIRECTION('',(6.12303176911188E-17,1.,-6.48558961094707E-16));
#435=DIRECTION('',(0.,6.48558961094707E-16,1.));
#436=DIRECTION('',(6.12303176911188E-17,1.,-6.48558961094707E-16));
#437=DIRECTION('',(0.,6.48558961094707E-16,1.));
#438=DIRECTION('',(1.,-6.12303176911188E-17,-1.22464679914735E-16));
#439=DIRECTION('',(1.,-6.12303176911188E-17,-1.22464679914735E-16));
#440=DIRECTION('',(6.12303176911189E-17,1.,7.54272166639124E-16));
#441=DIRECTION('',(0.,-7.54272166639124E-16,1.));
#442=DIRECTION('',(6.12303176911189E-17,1.,7.54272166639124E-16));
#443=DIRECTION('',(0.,-7.54272166639124E-16,1.));
#444=DIRECTION('',(1.,-6.12303176911189E-17,-1.22464679914735E-16));
#445=DIRECTION('',(1.,-6.12303176911189E-17,-1.22464679914735E-16));
#446=DIRECTION('',(-1.,6.12303176911189E-17,1.22464679914735E-16));
#447=DIRECTION('',(1.22464679914735E-16,0.,1.));
#448=DIRECTION('',(-1.,6.12303176911189E-17,2.55341112222004E-16));
#449=DIRECTION('',(2.55341112222004E-16,0.,1.));
#450=DIRECTION('',(6.12303176911189E-17,1.,7.54272166639124E-16));
#451=DIRECTION('',(0.,-7.54272166639124E-16,1.));
#452=DIRECTION('',(1.,-6.12303176911188E-17,-2.33049772354784E-17));
#453=DIRECTION('',(6.12303176911188E-17,1.,0.));
#454=DIRECTION('',(-1.,6.12303176911189E-17,1.22464679914735E-16));
#455=DIRECTION('',(1.22464679914735E-16,0.,1.));
#456=DIRECTION('',(-1.,6.12303176911189E-17,1.22464679914735E-16));
#457=DIRECTION('',(1.22464679914735E-16,0.,1.));
#458=DIRECTION('',(1.,-6.12303176911188E-17,-2.41240722026482E-17));
#459=DIRECTION('',(6.12303176911188E-17,1.,0.));
#460=DIRECTION('',(6.12303176911188E-17,1.,-6.48558961094707E-16));
#461=DIRECTION('',(0.,6.48558961094707E-16,1.));
#462=DIRECTION('',(-1.,6.12303176911188E-17,2.26830157680171E-16));
#463=DIRECTION('',(2.26830157680171E-16,0.,1.));
#464=DIRECTION('',(-1.,6.12303176911189E-17,1.22464679914735E-16));
#465=DIRECTION('',(1.22464679914735E-16,0.,1.));
#466=CARTESIAN_POINT('',(0.,0.,0.));
#467=CARTESIAN_POINT('',(2.34,0.102655638499266,-45.392781704381));
#468=CARTESIAN_POINT('',(2.34,0.102655638499266,-45.392781704381));
#469=CARTESIAN_POINT('',(2.34,31.962283001806,-36.0544657817301));
#470=CARTESIAN_POINT('',(2.34,31.962283001806,-54.7310976270319));
#471=CARTESIAN_POINT('',(2.34,31.962283001806,-36.0544657817301));
#472=CARTESIAN_POINT('',(3.10067461274415E-15,31.962283001806,-36.0544657817301));
#473=CARTESIAN_POINT('',(6.28563735809542E-18,0.102655638499266,-45.392781704381));
#474=CARTESIAN_POINT('',(8.13446871923913E-16,31.962283001806,-54.7310976270319));
#475=CARTESIAN_POINT('',(2.34,31.962283001806,-54.7310976270319));
#476=CARTESIAN_POINT('',(2.34,0.102655638499266,-45.392781704381));
#477=CARTESIAN_POINT('',(2.34,0.102655638499261,-45.392781704381));
#478=CARTESIAN_POINT('',(2.34,31.1026556384993,-45.392781704381));
#479=CARTESIAN_POINT('',(2.34,32.0026556715859,-45.392781704381));
#480=CARTESIAN_POINT('',(2.34,32.0026556715859,-54.4498230510484));
#481=CARTESIAN_POINT('',(2.34,32.0026556715859,-36.3357403577135));
#482=CARTESIAN_POINT('',(2.34,31.0026556715859,-36.3357403577135));
#483=CARTESIAN_POINT('',(2.34,31.0026556715859,-54.4498230510484));
#484=CARTESIAN_POINT('',(6.28563735809542E-18,0.102655638499266,-45.392781704381));
#485=CARTESIAN_POINT('',(-31.9600002980807,0.102655638499267,-45.392781704381));
#486=CARTESIAN_POINT('',(-31.9600002980807,0.102655638499267,-54.3815736669686));
#487=CARTESIAN_POINT('',(1.95706074233403E-15,31.962283001806,-45.392781704381));
#488=CARTESIAN_POINT('',(2.14,0.102655638499263,-45.392781704381));
#489=CARTESIAN_POINT('',(2.14,0.102655638499261,-45.392781704381));
#490=CARTESIAN_POINT('',(2.14,31.1026556384993,-45.392781704381));
#491=CARTESIAN_POINT('',(2.14,31.5326661548522,-45.392781704381));
#492=CARTESIAN_POINT('',(2.14,31.5326661548522,-35.6524275276398));
#493=CARTESIAN_POINT('',(2.14,31.5326661548522,-55.1331358811223));
#494=CARTESIAN_POINT('',(2.14,29.5326661548522,-55.1331358811223));
#495=CARTESIAN_POINT('',(2.14,31.4313764924889,-55.7615458219664));
#496=CARTESIAN_POINT('',(2.14,0.102655638499263,-45.392781704381));
#497=CARTESIAN_POINT('',(2.14,31.4313764924889,-35.0240175867957));
#498=CARTESIAN_POINT('',(2.14,29.5326661548522,-35.6524275276398));
#499=CARTESIAN_POINT('',(6.28563735809465E-18,0.102655638499263,-45.392781704381));
#500=CARTESIAN_POINT('',(-31.9600002980807,0.102655638499261,-45.392781704381));
#501=CARTESIAN_POINT('',(-31.9600002980807,-8.11673610420335,-45.392781704381));
#502=CARTESIAN_POINT('',(6.28563735809465E-18,0.102655638499263,-45.392781704381));
#503=CARTESIAN_POINT('',(6.54745789332776E-16,31.4313764924889,-55.7615458219664));
#504=CARTESIAN_POINT('',(3.19436054687574E-15,31.4313764924889,-35.0240175867957));
#505=CARTESIAN_POINT('',(1.92455316810426E-15,31.4313764924889,-45.392781704381));
#506=CARTESIAN_POINT('',(2.34,0.102655638499263,-45.392781704381));
#507=CARTESIAN_POINT('',(2.34,31.4313764924889,-55.7615458219664));
#508=CARTESIAN_POINT('',(2.34,31.4313764924889,-35.0240175867957));
#509=CARTESIAN_POINT('',(2.14,0.102655638499261,-45.392781704381));
#510=CARTESIAN_POINT('',(-32.1600002980807,0.102655638499267,-45.392781704381));
#511=CARTESIAN_POINT('',(-32.1600002980807,0.102655638499267,-45.392781704381));
#512=CARTESIAN_POINT('',(-32.1600002980807,0.102655638499267,-53.7815736669686));
#513=CARTESIAN_POINT('',(-32.1600002980807,0.102655638499261,-45.392781704381));
#514=CARTESIAN_POINT('',(-32.1600002980807,-2.04734436150074,-45.392781704381));
#515=CARTESIAN_POINT('',(-31.9600002980807,0.102655638499261,-45.392781704381));
#516=CARTESIAN_POINT('',(-26.9600002980807,0.102655638499261,-45.392781704381));
#517=CARTESIAN_POINT('',(-26.9600002980807,2.25265563849926,-45.392781704381));
#518=CARTESIAN_POINT('',(-31.9600002980807,0.102655638499261,-45.392781704381));
#519=CARTESIAN_POINT('',(-31.9600002980807,0.102655638499261,-45.392781704381));
#520=CARTESIAN_POINT('',(-31.9600002980807,2.35265563849926,-45.392781704381));
#521=CARTESIAN_POINT('',(-31.1600002980807,0.102655638499267,-45.392781704381));
#522=CARTESIAN_POINT('',(-26.9600002980807,0.102655638499261,-45.392781704381));
#523=CARTESIAN_POINT('',(-26.9600002980807,0.102655638499261,-45.392781704381));
#524=CARTESIAN_POINT('',(-26.9600002980807,2.35265563849926,-45.392781704381));
#525=CARTESIAN_POINT('',(-26.9600002980807,0.102655638499261,-45.392781704381));
#526=CARTESIAN_POINT('',(-14.6410711119865,31.5326661548522,-45.396188866241));
#527=CARTESIAN_POINT('',(1.93075516630959E-15,31.5326661548522,-45.392781704381));
#528=CARTESIAN_POINT('',(3.18540273829529E-15,31.5326661548522,-35.6524275276398));
#529=CARTESIAN_POINT('',(8.03490113507552E-16,31.5326661548522,-55.1331358811223));
#530=CARTESIAN_POINT('',(2.14,31.5326661548522,-55.1331358811223));
#531=CARTESIAN_POINT('',(3.15822671834165E-15,31.5326661548522,-35.6524275276398));
#532=CARTESIAN_POINT('',(-48.5580480961968,32.0026556715859,-45.392781704381));
#533=CARTESIAN_POINT('',(1.9595327737307E-15,32.0026556715859,-45.392781704381));
#534=CARTESIAN_POINT('',(8.87739866391968E-16,32.0026556715859,-54.4498230510484));
#535=CARTESIAN_POINT('',(3.0965915465506E-15,32.0026556715859,-36.3357403577135));
#536=CARTESIAN_POINT('',(2.34,32.0026556715859,-36.3357403577135));
#537=CARTESIAN_POINT('',(1.79595379366793E-15,32.0026556715859,-54.4498230510484));
#538=CARTESIAN_POINT('',(2.34,31.0026556715859,-54.4498230510484));
#539=CARTESIAN_POINT('',(8.26509548700849E-16,31.002655671586,-54.4498230510484));
#540=CARTESIAN_POINT('',(1.89830245603958E-15,31.0026556715859,-45.392781704381));
#541=CARTESIAN_POINT('',(3.03536122885948E-15,31.0026556715859,-36.3357403577135));
#542=CARTESIAN_POINT('',(2.34,31.0026556715859,-36.3357403577135));
#543=CARTESIAN_POINT('',(2.34,29.5326661548522,-35.6524275276398));
#544=CARTESIAN_POINT('',(3.06294210291305E-15,29.5326661548522,-35.6524275276398));
#545=CARTESIAN_POINT('',(1.80829453092735E-15,29.5326661548522,-45.392781704381));
#546=CARTESIAN_POINT('',(6.81029478125314E-16,29.5326661548522,-55.1331358811223));
#547=CARTESIAN_POINT('',(2.34,29.5326661548522,-55.1331358811223));
#548=MECHANICAL_DESIGN_GEOMETRIC_PRESENTATION_REPRESENTATION('',(#302),
#549);
#549=(
GEOMETRIC_REPRESENTATION_CONTEXT(3)
GLOBAL_UNCERTAINTY_ASSIGNED_CONTEXT((#550))
GLOBAL_UNIT_ASSIGNED_CONTEXT((#553,#552,#551))
REPRESENTATION_CONTEXT('Membrana','TOP_LEVEL_ASSEMBLY_PART')
);
#550=UNCERTAINTY_MEASURE_WITH_UNIT(LENGTH_MEASURE(0.005),#553,
'DISTANCE_ACCURACY_VALUE','Maximum Tolerance applied to model');
#551=(
NAMED_UNIT(*)
SI_UNIT($,.STERADIAN.)
SOLID_ANGLE_UNIT()
);
#552=(
NAMED_UNIT(*)
PLANE_ANGLE_UNIT()
SI_UNIT($,.RADIAN.)
);
#553=(
LENGTH_UNIT()
NAMED_UNIT(*)
SI_UNIT(.MILLI.,.METRE.)
);
#554=PRODUCT_DEFINITION_SHAPE('','',#555);
#555=PRODUCT_DEFINITION('','',#557,#556);
#556=PRODUCT_DEFINITION_CONTEXT('',#563,'design');
#557=PRODUCT_DEFINITION_FORMATION_WITH_SPECIFIED_SOURCE('','',#559,
 .NOT_KNOWN.);
#558=PRODUCT_RELATED_PRODUCT_CATEGORY('','',(#559));
#559=PRODUCT('Membrana','Membrana','Membrana',(#561));
#560=PRODUCT_CATEGORY('','');
#561=PRODUCT_CONTEXT('',#563,'mechanical');
#562=APPLICATION_PROTOCOL_DEFINITION('international standard',
'automotive_design',2010,#563);
#563=APPLICATION_CONTEXT(
'core data for automotive mechanical design processes');
ENDSEC;
END-ISO-10303-21;
