ISO-10303-21;
HEADER;
/* Generated by software containing ST-Developer
 * from STEP Tools, Inc. (www.steptools.com) 
 */
/* OPTION: strings as raw bytes, not using required /X/ escapes */

FILE_DESCRIPTION(
/* description */ ('Unknown'),
/* implementation_level */ '2;1');

FILE_NAME(
/* name */ 'HD1370A',
/* time_stamp */ '2024-01-05T19:15:09+01:00',
/* author */ ('Unknown'),
/* organization */ ('Unknown'),
/* preprocessor_version */ 'ST-DEVELOPER v18.102',
/* originating_system */ 'Solid Edge',
/* authorisation */ 'Unknown');

FILE_SCHEMA (('AUTOMOTIVE_DESIGN {1 0 10303 214 3 1 1}'));
ENDSEC;

DATA;
#10=PROPERTY_DEFINITION_REPRESENTATION(#14,#12);
#11=PROPERTY_DEFINITION_REPRESENTATION(#15,#13);
#12=REPRESENTATION('',(#16),#2209);
#13=REPRESENTATION('',(#17),#2209);
#14=PROPERTY_DEFINITION('pmi validation property','',#2214);
#15=PROPERTY_DEFINITION('pmi validation property','',#2214);
#16=VALUE_REPRESENTATION_ITEM('number of annotations',COUNT_MEASURE(0.));
#17=VALUE_REPRESENTATION_ITEM('number of views',COUNT_MEASURE(0.));
#18=SHAPE_REPRESENTATION_RELATIONSHIP('','',#1444,#19);
#19=ADVANCED_BREP_SHAPE_REPRESENTATION('',(#1442),#2209);
#20=B_SPLINE_CURVE_WITH_KNOTS('',3,(#2116,#2117,#2118,#2119,#2120),
 .UNSPECIFIED.,.F.,.F.,(4,1,4),(4.33680868994202E-19,0.00157884475284572,
0.00315768950569143),.UNSPECIFIED.);
#21=B_SPLINE_CURVE_WITH_KNOTS('',3,(#2121,#2122,#2123,#2124,#2125),
 .UNSPECIFIED.,.F.,.F.,(4,1,4),(0.,0.00157884475284572,0.00315768950569143),
 .UNSPECIFIED.);
#22=B_SPLINE_CURVE_WITH_KNOTS('',3,(#2129,#2130,#2131,#2132,#2133),
 .UNSPECIFIED.,.F.,.F.,(4,1,4),(0.,0.00157884475284572,0.00315768950569143),
 .UNSPECIFIED.);
#23=B_SPLINE_CURVE_WITH_KNOTS('',3,(#2134,#2135,#2136,#2137,#2138),
 .UNSPECIFIED.,.F.,.F.,(4,1,4),(0.,0.00157884475284572,0.00315768950569143),
 .UNSPECIFIED.);
#24=B_SPLINE_CURVE_WITH_KNOTS('',3,(#2142,#2143,#2144,#2145,#2146),
 .UNSPECIFIED.,.F.,.F.,(4,1,4),(0.,0.00157884475284572,0.00315768950569143),
 .UNSPECIFIED.);
#25=B_SPLINE_CURVE_WITH_KNOTS('',3,(#2147,#2148,#2149,#2150,#2151),
 .UNSPECIFIED.,.F.,.F.,(4,1,4),(4.84869951806108E-19,0.00157884475284572,
0.00315768950569143),.UNSPECIFIED.);
#26=SPHERICAL_SURFACE('',#1504,1.);
#27=SPHERICAL_SURFACE('',#1506,1.);
#28=SPHERICAL_SURFACE('',#1512,1.);
#29=SPHERICAL_SURFACE('',#1514,1.);
#30=SPHERICAL_SURFACE('',#1537,1.);
#31=SPHERICAL_SURFACE('',#1541,1.);
#32=SPHERICAL_SURFACE('',#1547,1.);
#33=SPHERICAL_SURFACE('',#1551,1.);
#34=SPHERICAL_SURFACE('',#1560,1.);
#35=SPHERICAL_SURFACE('',#1565,1.);
#36=CYLINDRICAL_SURFACE('',#1485,0.7835);
#37=CYLINDRICAL_SURFACE('',#1486,0.7835);
#38=CYLINDRICAL_SURFACE('',#1487,6.44453125);
#39=CYLINDRICAL_SURFACE('',#1488,6.44453124999993);
#40=CYLINDRICAL_SURFACE('',#1489,1.);
#41=CYLINDRICAL_SURFACE('',#1490,1.);
#42=CYLINDRICAL_SURFACE('',#1491,1.);
#43=CYLINDRICAL_SURFACE('',#1492,1.);
#44=CYLINDRICAL_SURFACE('',#1493,1.);
#45=CYLINDRICAL_SURFACE('',#1495,1.);
#46=CYLINDRICAL_SURFACE('',#1497,1.);
#47=CYLINDRICAL_SURFACE('',#1499,1.);
#48=CYLINDRICAL_SURFACE('',#1501,1.);
#49=CYLINDRICAL_SURFACE('',#1508,1.);
#50=CYLINDRICAL_SURFACE('',#1510,1.);
#51=CYLINDRICAL_SURFACE('',#1516,1.);
#52=CYLINDRICAL_SURFACE('',#1522,4.25);
#53=CYLINDRICAL_SURFACE('',#1527,2.6);
#54=CYLINDRICAL_SURFACE('',#1530,1.);
#55=CYLINDRICAL_SURFACE('',#1532,1.);
#56=CYLINDRICAL_SURFACE('',#1534,1.);
#57=CYLINDRICAL_SURFACE('',#1539,1.);
#58=CYLINDRICAL_SURFACE('',#1543,1.);
#59=CYLINDRICAL_SURFACE('',#1545,1.);
#60=CYLINDRICAL_SURFACE('',#1549,1.);
#61=CYLINDRICAL_SURFACE('',#1553,1.);
#62=CYLINDRICAL_SURFACE('',#1554,1.);
#63=CYLINDRICAL_SURFACE('',#1556,1.);
#64=CYLINDRICAL_SURFACE('',#1558,1.);
#65=CYLINDRICAL_SURFACE('',#1562,1.);
#66=CYLINDRICAL_SURFACE('',#1563,1.);
#67=CYLINDRICAL_SURFACE('',#1567,1.);
#68=CYLINDRICAL_SURFACE('',#1568,2.);
#69=CIRCLE('',#1448,2.);
#70=CIRCLE('',#1449,2.6);
#71=CIRCLE('',#1450,4.25);
#72=CIRCLE('',#1455,0.7835);
#73=CIRCLE('',#1456,6.44453124999993);
#74=CIRCLE('',#1457,1.);
#75=CIRCLE('',#1458,1.);
#76=CIRCLE('',#1459,1.);
#77=CIRCLE('',#1460,1.);
#78=CIRCLE('',#1462,0.7835);
#79=CIRCLE('',#1463,1.);
#80=CIRCLE('',#1464,6.44453124999993);
#81=CIRCLE('',#1465,1.);
#82=CIRCLE('',#1466,1.);
#83=CIRCLE('',#1467,1.);
#84=CIRCLE('',#1469,0.7835);
#85=CIRCLE('',#1470,6.44453125);
#86=CIRCLE('',#1471,1.);
#87=CIRCLE('',#1472,1.);
#88=CIRCLE('',#1473,1.);
#89=CIRCLE('',#1474,1.);
#90=CIRCLE('',#1476,0.7835);
#91=CIRCLE('',#1477,1.);
#92=CIRCLE('',#1478,6.44453125);
#93=CIRCLE('',#1479,1.);
#94=CIRCLE('',#1480,1.);
#95=CIRCLE('',#1481,1.);
#96=CIRCLE('',#1494,1.);
#97=CIRCLE('',#1496,1.);
#98=CIRCLE('',#1498,1.);
#99=CIRCLE('',#1500,1.);
#100=CIRCLE('',#1502,1.);
#101=CIRCLE('',#1503,1.);
#102=CIRCLE('',#1505,1.);
#103=CIRCLE('',#1507,1.);
#104=CIRCLE('',#1509,1.);
#105=CIRCLE('',#1511,1.);
#106=CIRCLE('',#1513,1.);
#107=CIRCLE('',#1515,1.);
#108=CIRCLE('',#1519,4.25);
#109=CIRCLE('',#1520,4.25);
#110=CIRCLE('',#1521,2.6);
#111=CIRCLE('',#1523,4.25);
#112=CIRCLE('',#1524,4.25);
#113=CIRCLE('',#1531,1.);
#114=CIRCLE('',#1533,1.);
#115=CIRCLE('',#1535,1.);
#116=CIRCLE('',#1536,1.);
#117=CIRCLE('',#1538,1.);
#118=CIRCLE('',#1540,1.);
#119=CIRCLE('',#1542,1.);
#120=CIRCLE('',#1544,1.);
#121=CIRCLE('',#1546,1.);
#122=CIRCLE('',#1548,1.);
#123=CIRCLE('',#1550,1.);
#124=CIRCLE('',#1552,1.);
#125=CIRCLE('',#1555,1.);
#126=CIRCLE('',#1557,1.);
#127=CIRCLE('',#1559,1.);
#128=CIRCLE('',#1561,1.);
#129=CIRCLE('',#1564,1.);
#130=CIRCLE('',#1566,1.);
#131=CIRCLE('',#1569,2.);
#132=ORIENTED_EDGE('',*,*,#414,.T.);
#133=ORIENTED_EDGE('',*,*,#415,.T.);
#134=ORIENTED_EDGE('',*,*,#416,.T.);
#135=ORIENTED_EDGE('',*,*,#417,.T.);
#136=ORIENTED_EDGE('',*,*,#418,.T.);
#137=ORIENTED_EDGE('',*,*,#419,.T.);
#138=ORIENTED_EDGE('',*,*,#420,.T.);
#139=ORIENTED_EDGE('',*,*,#421,.T.);
#140=ORIENTED_EDGE('',*,*,#422,.T.);
#141=ORIENTED_EDGE('',*,*,#423,.T.);
#142=ORIENTED_EDGE('',*,*,#424,.T.);
#143=ORIENTED_EDGE('',*,*,#425,.T.);
#144=ORIENTED_EDGE('',*,*,#426,.T.);
#145=ORIENTED_EDGE('',*,*,#427,.T.);
#146=ORIENTED_EDGE('',*,*,#428,.T.);
#147=ORIENTED_EDGE('',*,*,#429,.F.);
#148=ORIENTED_EDGE('',*,*,#430,.T.);
#149=ORIENTED_EDGE('',*,*,#431,.T.);
#150=ORIENTED_EDGE('',*,*,#432,.F.);
#151=ORIENTED_EDGE('',*,*,#433,.F.);
#152=ORIENTED_EDGE('',*,*,#434,.T.);
#153=ORIENTED_EDGE('',*,*,#435,.T.);
#154=ORIENTED_EDGE('',*,*,#436,.T.);
#155=ORIENTED_EDGE('',*,*,#437,.T.);
#156=ORIENTED_EDGE('',*,*,#438,.T.);
#157=ORIENTED_EDGE('',*,*,#439,.F.);
#158=ORIENTED_EDGE('',*,*,#440,.T.);
#159=ORIENTED_EDGE('',*,*,#441,.F.);
#160=ORIENTED_EDGE('',*,*,#442,.T.);
#161=ORIENTED_EDGE('',*,*,#443,.T.);
#162=ORIENTED_EDGE('',*,*,#444,.T.);
#163=ORIENTED_EDGE('',*,*,#445,.F.);
#164=ORIENTED_EDGE('',*,*,#446,.T.);
#165=ORIENTED_EDGE('',*,*,#447,.T.);
#166=ORIENTED_EDGE('',*,*,#448,.T.);
#167=ORIENTED_EDGE('',*,*,#449,.T.);
#168=ORIENTED_EDGE('',*,*,#450,.T.);
#169=ORIENTED_EDGE('',*,*,#451,.T.);
#170=ORIENTED_EDGE('',*,*,#452,.T.);
#171=ORIENTED_EDGE('',*,*,#453,.T.);
#172=ORIENTED_EDGE('',*,*,#454,.T.);
#173=ORIENTED_EDGE('',*,*,#455,.F.);
#174=ORIENTED_EDGE('',*,*,#456,.T.);
#175=ORIENTED_EDGE('',*,*,#457,.T.);
#176=ORIENTED_EDGE('',*,*,#458,.T.);
#177=ORIENTED_EDGE('',*,*,#439,.T.);
#178=ORIENTED_EDGE('',*,*,#459,.T.);
#179=ORIENTED_EDGE('',*,*,#455,.T.);
#180=ORIENTED_EDGE('',*,*,#460,.T.);
#181=ORIENTED_EDGE('',*,*,#423,.F.);
#182=ORIENTED_EDGE('',*,*,#461,.T.);
#183=ORIENTED_EDGE('',*,*,#462,.T.);
#184=ORIENTED_EDGE('',*,*,#441,.T.);
#185=ORIENTED_EDGE('',*,*,#463,.T.);
#186=ORIENTED_EDGE('',*,*,#464,.T.);
#187=ORIENTED_EDGE('',*,*,#465,.T.);
#188=ORIENTED_EDGE('',*,*,#421,.F.);
#189=ORIENTED_EDGE('',*,*,#466,.T.);
#190=ORIENTED_EDGE('',*,*,#467,.F.);
#191=ORIENTED_EDGE('',*,*,#468,.T.);
#192=ORIENTED_EDGE('',*,*,#469,.T.);
#193=ORIENTED_EDGE('',*,*,#470,.F.);
#194=ORIENTED_EDGE('',*,*,#471,.T.);
#195=ORIENTED_EDGE('',*,*,#445,.T.);
#196=ORIENTED_EDGE('',*,*,#472,.T.);
#197=ORIENTED_EDGE('',*,*,#473,.T.);
#198=ORIENTED_EDGE('',*,*,#474,.T.);
#199=ORIENTED_EDGE('',*,*,#417,.F.);
#200=ORIENTED_EDGE('',*,*,#475,.T.);
#201=ORIENTED_EDGE('',*,*,#476,.T.);
#202=ORIENTED_EDGE('',*,*,#433,.T.);
#203=ORIENTED_EDGE('',*,*,#477,.T.);
#204=ORIENTED_EDGE('',*,*,#478,.F.);
#205=ORIENTED_EDGE('',*,*,#479,.T.);
#206=ORIENTED_EDGE('',*,*,#415,.F.);
#207=ORIENTED_EDGE('',*,*,#480,.T.);
#208=ORIENTED_EDGE('',*,*,#447,.F.);
#209=ORIENTED_EDGE('',*,*,#481,.T.);
#210=ORIENTED_EDGE('',*,*,#482,.T.);
#211=ORIENTED_EDGE('',*,*,#483,.T.);
#212=ORIENTED_EDGE('',*,*,#484,.T.);
#213=ORIENTED_EDGE('',*,*,#473,.F.);
#214=ORIENTED_EDGE('',*,*,#485,.T.);
#215=ORIENTED_EDGE('',*,*,#486,.T.);
#216=ORIENTED_EDGE('',*,*,#487,.T.);
#217=ORIENTED_EDGE('',*,*,#488,.T.);
#218=ORIENTED_EDGE('',*,*,#489,.T.);
#219=ORIENTED_EDGE('',*,*,#490,.T.);
#220=ORIENTED_EDGE('',*,*,#491,.T.);
#221=ORIENTED_EDGE('',*,*,#467,.T.);
#222=ORIENTED_EDGE('',*,*,#469,.F.);
#223=ORIENTED_EDGE('',*,*,#476,.F.);
#224=ORIENTED_EDGE('',*,*,#462,.F.);
#225=ORIENTED_EDGE('',*,*,#456,.F.);
#226=ORIENTED_EDGE('',*,*,#478,.T.);
#227=ORIENTED_EDGE('',*,*,#492,.T.);
#228=ORIENTED_EDGE('',*,*,#470,.T.);
#229=ORIENTED_EDGE('',*,*,#493,.T.);
#230=ORIENTED_EDGE('',*,*,#464,.F.);
#231=ORIENTED_EDGE('',*,*,#494,.T.);
#232=ORIENTED_EDGE('',*,*,#457,.F.);
#233=ORIENTED_EDGE('',*,*,#495,.T.);
#234=ORIENTED_EDGE('',*,*,#465,.F.);
#235=ORIENTED_EDGE('',*,*,#495,.F.);
#236=ORIENTED_EDGE('',*,*,#461,.F.);
#237=ORIENTED_EDGE('',*,*,#422,.F.);
#238=ORIENTED_EDGE('',*,*,#475,.F.);
#239=ORIENTED_EDGE('',*,*,#416,.F.);
#240=ORIENTED_EDGE('',*,*,#479,.F.);
#241=ORIENTED_EDGE('',*,*,#493,.F.);
#242=ORIENTED_EDGE('',*,*,#463,.F.);
#243=ORIENTED_EDGE('',*,*,#440,.F.);
#244=ORIENTED_EDGE('',*,*,#458,.F.);
#245=ORIENTED_EDGE('',*,*,#494,.F.);
#246=ORIENTED_EDGE('',*,*,#471,.F.);
#247=ORIENTED_EDGE('',*,*,#492,.F.);
#248=ORIENTED_EDGE('',*,*,#477,.F.);
#249=ORIENTED_EDGE('',*,*,#446,.F.);
#250=ORIENTED_EDGE('',*,*,#491,.F.);
#251=ORIENTED_EDGE('',*,*,#496,.T.);
#252=ORIENTED_EDGE('',*,*,#442,.F.);
#253=ORIENTED_EDGE('',*,*,#468,.F.);
#254=ORIENTED_EDGE('',*,*,#444,.F.);
#255=ORIENTED_EDGE('',*,*,#497,.T.);
#256=ORIENTED_EDGE('',*,*,#482,.F.);
#257=ORIENTED_EDGE('',*,*,#472,.F.);
#258=ORIENTED_EDGE('',*,*,#484,.F.);
#259=ORIENTED_EDGE('',*,*,#498,.T.);
#260=ORIENTED_EDGE('',*,*,#418,.F.);
#261=ORIENTED_EDGE('',*,*,#474,.F.);
#262=ORIENTED_EDGE('',*,*,#420,.F.);
#263=ORIENTED_EDGE('',*,*,#499,.T.);
#264=ORIENTED_EDGE('',*,*,#489,.F.);
#265=ORIENTED_EDGE('',*,*,#466,.F.);
#266=ORIENTED_EDGE('',*,*,#500,.F.);
#267=ORIENTED_EDGE('',*,*,#490,.F.);
#268=ORIENTED_EDGE('',*,*,#501,.F.);
#269=ORIENTED_EDGE('',*,*,#488,.F.);
#270=ORIENTED_EDGE('',*,*,#496,.F.);
#271=ORIENTED_EDGE('',*,*,#500,.T.);
#272=ORIENTED_EDGE('',*,*,#502,.F.);
#273=ORIENTED_EDGE('',*,*,#501,.T.);
#274=ORIENTED_EDGE('',*,*,#499,.F.);
#275=ORIENTED_EDGE('',*,*,#503,.F.);
#276=ORIENTED_EDGE('',*,*,#502,.T.);
#277=ORIENTED_EDGE('',*,*,#487,.F.);
#278=ORIENTED_EDGE('',*,*,#504,.F.);
#279=ORIENTED_EDGE('',*,*,#443,.F.);
#280=ORIENTED_EDGE('',*,*,#503,.T.);
#281=ORIENTED_EDGE('',*,*,#419,.F.);
#282=ORIENTED_EDGE('',*,*,#505,.F.);
#283=ORIENTED_EDGE('',*,*,#485,.F.);
#284=ORIENTED_EDGE('',*,*,#497,.F.);
#285=ORIENTED_EDGE('',*,*,#504,.T.);
#286=ORIENTED_EDGE('',*,*,#506,.F.);
#287=ORIENTED_EDGE('',*,*,#505,.T.);
#288=ORIENTED_EDGE('',*,*,#498,.F.);
#289=ORIENTED_EDGE('',*,*,#507,.F.);
#290=ORIENTED_EDGE('',*,*,#506,.T.);
#291=ORIENTED_EDGE('',*,*,#486,.F.);
#292=ORIENTED_EDGE('',*,*,#507,.T.);
#293=ORIENTED_EDGE('',*,*,#483,.F.);
#294=ORIENTED_EDGE('',*,*,#508,.T.);
#295=ORIENTED_EDGE('',*,*,#509,.T.);
#296=ORIENTED_EDGE('',*,*,#510,.T.);
#297=ORIENTED_EDGE('',*,*,#511,.T.);
#298=ORIENTED_EDGE('',*,*,#512,.T.);
#299=ORIENTED_EDGE('',*,*,#513,.T.);
#300=ORIENTED_EDGE('',*,*,#514,.T.);
#301=ORIENTED_EDGE('',*,*,#515,.T.);
#302=ORIENTED_EDGE('',*,*,#516,.F.);
#303=ORIENTED_EDGE('',*,*,#517,.F.);
#304=ORIENTED_EDGE('',*,*,#518,.F.);
#305=ORIENTED_EDGE('',*,*,#519,.T.);
#306=ORIENTED_EDGE('',*,*,#432,.T.);
#307=ORIENTED_EDGE('',*,*,#520,.F.);
#308=ORIENTED_EDGE('',*,*,#516,.T.);
#309=ORIENTED_EDGE('',*,*,#521,.T.);
#310=ORIENTED_EDGE('',*,*,#522,.T.);
#311=ORIENTED_EDGE('',*,*,#523,.F.);
#312=ORIENTED_EDGE('',*,*,#524,.T.);
#313=ORIENTED_EDGE('',*,*,#525,.T.);
#314=ORIENTED_EDGE('',*,*,#526,.F.);
#315=ORIENTED_EDGE('',*,*,#527,.T.);
#316=ORIENTED_EDGE('',*,*,#528,.T.);
#317=ORIENTED_EDGE('',*,*,#512,.F.);
#318=ORIENTED_EDGE('',*,*,#529,.T.);
#319=ORIENTED_EDGE('',*,*,#523,.T.);
#320=ORIENTED_EDGE('',*,*,#530,.T.);
#321=ORIENTED_EDGE('',*,*,#531,.T.);
#322=ORIENTED_EDGE('',*,*,#532,.T.);
#323=ORIENTED_EDGE('',*,*,#533,.T.);
#324=ORIENTED_EDGE('',*,*,#526,.T.);
#325=ORIENTED_EDGE('',*,*,#430,.F.);
#326=ORIENTED_EDGE('',*,*,#534,.F.);
#327=ORIENTED_EDGE('',*,*,#518,.T.);
#328=ORIENTED_EDGE('',*,*,#535,.T.);
#329=ORIENTED_EDGE('',*,*,#431,.F.);
#330=ORIENTED_EDGE('',*,*,#535,.F.);
#331=ORIENTED_EDGE('',*,*,#517,.T.);
#332=ORIENTED_EDGE('',*,*,#520,.T.);
#333=ORIENTED_EDGE('',*,*,#429,.T.);
#334=ORIENTED_EDGE('',*,*,#529,.F.);
#335=ORIENTED_EDGE('',*,*,#519,.F.);
#336=ORIENTED_EDGE('',*,*,#534,.T.);
#337=ORIENTED_EDGE('',*,*,#454,.F.);
#338=ORIENTED_EDGE('',*,*,#536,.T.);
#339=ORIENTED_EDGE('',*,*,#424,.F.);
#340=ORIENTED_EDGE('',*,*,#460,.F.);
#341=ORIENTED_EDGE('',*,*,#438,.F.);
#342=ORIENTED_EDGE('',*,*,#537,.T.);
#343=ORIENTED_EDGE('',*,*,#452,.F.);
#344=ORIENTED_EDGE('',*,*,#459,.F.);
#345=ORIENTED_EDGE('',*,*,#437,.F.);
#346=ORIENTED_EDGE('',*,*,#538,.T.);
#347=ORIENTED_EDGE('',*,*,#508,.F.);
#348=ORIENTED_EDGE('',*,*,#539,.F.);
#349=ORIENTED_EDGE('',*,*,#537,.F.);
#350=ORIENTED_EDGE('',*,*,#539,.T.);
#351=ORIENTED_EDGE('',*,*,#540,.F.);
#352=ORIENTED_EDGE('',*,*,#541,.F.);
#353=ORIENTED_EDGE('',*,*,#453,.F.);
#354=ORIENTED_EDGE('',*,*,#540,.T.);
#355=ORIENTED_EDGE('',*,*,#511,.F.);
#356=ORIENTED_EDGE('',*,*,#536,.F.);
#357=ORIENTED_EDGE('',*,*,#541,.T.);
#358=ORIENTED_EDGE('',*,*,#542,.F.);
#359=ORIENTED_EDGE('',*,*,#510,.F.);
#360=ORIENTED_EDGE('',*,*,#543,.T.);
#361=ORIENTED_EDGE('',*,*,#425,.F.);
#362=ORIENTED_EDGE('',*,*,#542,.T.);
#363=ORIENTED_EDGE('',*,*,#544,.F.);
#364=ORIENTED_EDGE('',*,*,#436,.F.);
#365=ORIENTED_EDGE('',*,*,#521,.F.);
#366=ORIENTED_EDGE('',*,*,#515,.F.);
#367=ORIENTED_EDGE('',*,*,#538,.F.);
#368=ORIENTED_EDGE('',*,*,#544,.T.);
#369=ORIENTED_EDGE('',*,*,#545,.F.);
#370=ORIENTED_EDGE('',*,*,#546,.F.);
#371=ORIENTED_EDGE('',*,*,#509,.F.);
#372=ORIENTED_EDGE('',*,*,#545,.T.);
#373=ORIENTED_EDGE('',*,*,#514,.F.);
#374=ORIENTED_EDGE('',*,*,#543,.F.);
#375=ORIENTED_EDGE('',*,*,#546,.T.);
#376=ORIENTED_EDGE('',*,*,#547,.F.);
#377=ORIENTED_EDGE('',*,*,#547,.T.);
#378=ORIENTED_EDGE('',*,*,#513,.F.);
#379=ORIENTED_EDGE('',*,*,#528,.F.);
#380=ORIENTED_EDGE('',*,*,#426,.F.);
#381=ORIENTED_EDGE('',*,*,#531,.F.);
#382=ORIENTED_EDGE('',*,*,#548,.T.);
#383=ORIENTED_EDGE('',*,*,#450,.F.);
#384=ORIENTED_EDGE('',*,*,#524,.F.);
#385=ORIENTED_EDGE('',*,*,#449,.F.);
#386=ORIENTED_EDGE('',*,*,#549,.T.);
#387=ORIENTED_EDGE('',*,*,#532,.F.);
#388=ORIENTED_EDGE('',*,*,#525,.F.);
#389=ORIENTED_EDGE('',*,*,#550,.F.);
#390=ORIENTED_EDGE('',*,*,#530,.F.);
#391=ORIENTED_EDGE('',*,*,#522,.F.);
#392=ORIENTED_EDGE('',*,*,#435,.F.);
#393=ORIENTED_EDGE('',*,*,#548,.F.);
#394=ORIENTED_EDGE('',*,*,#550,.T.);
#395=ORIENTED_EDGE('',*,*,#551,.F.);
#396=ORIENTED_EDGE('',*,*,#481,.F.);
#397=ORIENTED_EDGE('',*,*,#451,.F.);
#398=ORIENTED_EDGE('',*,*,#551,.T.);
#399=ORIENTED_EDGE('',*,*,#434,.F.);
#400=ORIENTED_EDGE('',*,*,#527,.F.);
#401=ORIENTED_EDGE('',*,*,#533,.F.);
#402=ORIENTED_EDGE('',*,*,#552,.F.);
#403=ORIENTED_EDGE('',*,*,#427,.F.);
#404=ORIENTED_EDGE('',*,*,#552,.T.);
#405=ORIENTED_EDGE('',*,*,#549,.F.);
#406=ORIENTED_EDGE('',*,*,#553,.F.);
#407=ORIENTED_EDGE('',*,*,#480,.F.);
#408=ORIENTED_EDGE('',*,*,#414,.F.);
#409=ORIENTED_EDGE('',*,*,#553,.T.);
#410=ORIENTED_EDGE('',*,*,#448,.F.);
#411=ORIENTED_EDGE('',*,*,#554,.T.);
#412=ORIENTED_EDGE('',*,*,#428,.F.);
#413=ORIENTED_EDGE('',*,*,#554,.F.);
#414=EDGE_CURVE('',#555,#556,#640,.F.);
#415=EDGE_CURVE('',#556,#557,#641,.T.);
#416=EDGE_CURVE('',#557,#558,#642,.F.);
#417=EDGE_CURVE('',#558,#559,#643,.T.);
#418=EDGE_CURVE('',#559,#560,#644,.F.);
#419=EDGE_CURVE('',#560,#561,#645,.F.);
#420=EDGE_CURVE('',#561,#562,#646,.F.);
#421=EDGE_CURVE('',#562,#563,#647,.T.);
#422=EDGE_CURVE('',#563,#564,#648,.F.);
#423=EDGE_CURVE('',#564,#565,#649,.T.);
#424=EDGE_CURVE('',#565,#566,#650,.F.);
#425=EDGE_CURVE('',#566,#567,#651,.T.);
#426=EDGE_CURVE('',#567,#568,#652,.T.);
#427=EDGE_CURVE('',#568,#555,#653,.F.);
#428=EDGE_CURVE('',#569,#569,#69,.T.);
#429=EDGE_CURVE('',#570,#571,#654,.T.);
#430=EDGE_CURVE('',#570,#572,#70,.T.);
#431=EDGE_CURVE('',#572,#573,#655,.T.);
#432=EDGE_CURVE('',#571,#573,#71,.T.);
#433=EDGE_CURVE('',#574,#575,#656,.T.);
#434=EDGE_CURVE('',#574,#576,#657,.T.);
#435=EDGE_CURVE('',#576,#577,#658,.F.);
#436=EDGE_CURVE('',#577,#578,#659,.F.);
#437=EDGE_CURVE('',#578,#579,#660,.F.);
#438=EDGE_CURVE('',#579,#580,#661,.T.);
#439=EDGE_CURVE('',#581,#580,#662,.T.);
#440=EDGE_CURVE('',#581,#582,#663,.F.);
#441=EDGE_CURVE('',#583,#582,#664,.T.);
#442=EDGE_CURVE('',#583,#584,#665,.T.);
#443=EDGE_CURVE('',#584,#585,#666,.T.);
#444=EDGE_CURVE('',#585,#586,#667,.T.);
#445=EDGE_CURVE('',#587,#586,#668,.T.);
#446=EDGE_CURVE('',#587,#575,#669,.F.);
#447=EDGE_CURVE('',#588,#589,#670,.T.);
#448=EDGE_CURVE('',#589,#590,#671,.T.);
#449=EDGE_CURVE('',#590,#591,#672,.F.);
#450=EDGE_CURVE('',#591,#592,#673,.F.);
#451=EDGE_CURVE('',#592,#588,#674,.F.);
#452=EDGE_CURVE('',#593,#594,#675,.F.);
#453=EDGE_CURVE('',#594,#595,#676,.F.);
#454=EDGE_CURVE('',#595,#596,#677,.T.);
#455=EDGE_CURVE('',#593,#596,#678,.T.);
#456=EDGE_CURVE('',#597,#597,#72,.F.);
#457=EDGE_CURVE('',#598,#599,#73,.T.);
#458=EDGE_CURVE('',#599,#581,#74,.T.);
#459=EDGE_CURVE('',#580,#593,#75,.F.);
#460=EDGE_CURVE('',#596,#565,#76,.F.);
#461=EDGE_CURVE('',#564,#598,#77,.T.);
#462=EDGE_CURVE('',#600,#600,#78,.F.);
#463=EDGE_CURVE('',#582,#601,#79,.T.);
#464=EDGE_CURVE('',#601,#602,#80,.T.);
#465=EDGE_CURVE('',#602,#563,#81,.T.);
#466=EDGE_CURVE('',#562,#603,#82,.F.);
#467=EDGE_CURVE('',#604,#603,#679,.T.);
#468=EDGE_CURVE('',#604,#583,#83,.F.);
#469=EDGE_CURVE('',#605,#605,#84,.F.);
#470=EDGE_CURVE('',#606,#607,#85,.F.);
#471=EDGE_CURVE('',#606,#587,#86,.T.);
#472=EDGE_CURVE('',#586,#608,#87,.F.);
#473=EDGE_CURVE('',#608,#609,#680,.T.);
#474=EDGE_CURVE('',#609,#559,#88,.F.);
#475=EDGE_CURVE('',#558,#607,#89,.T.);
#476=EDGE_CURVE('',#610,#610,#90,.F.);
#477=EDGE_CURVE('',#575,#611,#91,.T.);
#478=EDGE_CURVE('',#612,#611,#92,.T.);
#479=EDGE_CURVE('',#612,#557,#93,.T.);
#480=EDGE_CURVE('',#556,#589,#94,.F.);
#481=EDGE_CURVE('',#588,#574,#95,.F.);
#482=EDGE_CURVE('',#608,#613,#681,.F.);
#483=EDGE_CURVE('',#613,#614,#682,.T.);
#484=EDGE_CURVE('',#614,#609,#683,.T.);
#485=EDGE_CURVE('',#615,#616,#684,.T.);
#486=EDGE_CURVE('',#616,#617,#685,.F.);
#487=EDGE_CURVE('',#617,#618,#686,.F.);
#488=EDGE_CURVE('',#618,#615,#687,.T.);
#489=EDGE_CURVE('',#603,#619,#688,.T.);
#490=EDGE_CURVE('',#619,#620,#689,.F.);
#491=EDGE_CURVE('',#620,#604,#690,.F.);
#492=EDGE_CURVE('',#611,#606,#691,.F.);
#493=EDGE_CURVE('',#607,#612,#692,.T.);
#494=EDGE_CURVE('',#601,#599,#693,.T.);
#495=EDGE_CURVE('',#598,#602,#694,.F.);
#496=EDGE_CURVE('',#620,#584,#96,.T.);
#497=EDGE_CURVE('',#585,#613,#97,.F.);
#498=EDGE_CURVE('',#614,#560,#98,.T.);
#499=EDGE_CURVE('',#561,#619,#99,.F.);
#500=EDGE_CURVE('',#620,#618,#100,.T.);
#501=EDGE_CURVE('',#615,#619,#101,.T.);
#502=EDGE_CURVE('',#584,#618,#102,.T.);
#503=EDGE_CURVE('',#615,#561,#103,.T.);
#504=EDGE_CURVE('',#585,#617,#104,.T.);
#505=EDGE_CURVE('',#616,#560,#105,.T.);
#506=EDGE_CURVE('',#613,#617,#106,.T.);
#507=EDGE_CURVE('',#616,#614,#107,.T.);
#508=EDGE_CURVE('',#621,#622,#695,.T.);
#509=EDGE_CURVE('',#622,#623,#696,.F.);
#510=EDGE_CURVE('',#623,#624,#697,.F.);
#511=EDGE_CURVE('',#624,#621,#698,.T.);
#512=EDGE_CURVE('',#625,#626,#108,.T.);
#513=EDGE_CURVE('',#626,#627,#699,.F.);
#514=EDGE_CURVE('',#627,#628,#700,.T.);
#515=EDGE_CURVE('',#628,#629,#701,.T.);
#516=EDGE_CURVE('',#630,#629,#109,.T.);
#517=EDGE_CURVE('',#631,#630,#702,.T.);
#518=EDGE_CURVE('',#632,#631,#110,.T.);
#519=EDGE_CURVE('',#632,#625,#703,.T.);
#520=EDGE_CURVE('',#630,#573,#704,.T.);
#521=EDGE_CURVE('',#629,#577,#20,.T.);
#522=EDGE_CURVE('',#577,#633,#21,.F.);
#523=EDGE_CURVE('',#634,#633,#111,.T.);
#524=EDGE_CURVE('',#634,#591,#22,.T.);
#525=EDGE_CURVE('',#591,#635,#23,.F.);
#526=EDGE_CURVE('',#636,#635,#112,.T.);
#527=EDGE_CURVE('',#636,#568,#24,.T.);
#528=EDGE_CURVE('',#568,#626,#25,.F.);
#529=EDGE_CURVE('',#625,#571,#705,.T.);
#530=EDGE_CURVE('',#633,#637,#706,.T.);
#531=EDGE_CURVE('',#637,#634,#707,.T.);
#532=EDGE_CURVE('',#635,#638,#708,.T.);
#533=EDGE_CURVE('',#638,#636,#709,.T.);
#534=EDGE_CURVE('',#632,#570,#710,.T.);
#535=EDGE_CURVE('',#631,#572,#711,.T.);
#536=EDGE_CURVE('',#595,#566,#113,.T.);
#537=EDGE_CURVE('',#579,#594,#114,.F.);
#538=EDGE_CURVE('',#578,#622,#115,.T.);
#539=EDGE_CURVE('',#579,#621,#116,.T.);
#540=EDGE_CURVE('',#594,#621,#117,.T.);
#541=EDGE_CURVE('',#595,#624,#118,.T.);
#542=EDGE_CURVE('',#566,#624,#119,.T.);
#543=EDGE_CURVE('',#623,#567,#120,.F.);
#544=EDGE_CURVE('',#578,#628,#121,.T.);
#545=EDGE_CURVE('',#622,#628,#122,.T.);
#546=EDGE_CURVE('',#623,#627,#123,.T.);
#547=EDGE_CURVE('',#567,#627,#124,.T.);
#548=EDGE_CURVE('',#637,#592,#125,.T.);
#549=EDGE_CURVE('',#590,#638,#126,.F.);
#550=EDGE_CURVE('',#637,#576,#127,.T.);
#551=EDGE_CURVE('',#592,#576,#128,.T.);
#552=EDGE_CURVE('',#555,#638,#129,.T.);
#553=EDGE_CURVE('',#555,#590,#130,.T.);
#554=EDGE_CURVE('',#639,#639,#131,.T.);
#555=VERTEX_POINT('',#1898);
#556=VERTEX_POINT('',#1899);
#557=VERTEX_POINT('',#1901);
#558=VERTEX_POINT('',#1903);
#559=VERTEX_POINT('',#1905);
#560=VERTEX_POINT('',#1907);
#561=VERTEX_POINT('',#1909);
#562=VERTEX_POINT('',#1911);
#563=VERTEX_POINT('',#1913);
#564=VERTEX_POINT('',#1915);
#565=VERTEX_POINT('',#1917);
#566=VERTEX_POINT('',#1919);
#567=VERTEX_POINT('',#1921);
#568=VERTEX_POINT('',#1923);
#569=VERTEX_POINT('',#1927);
#570=VERTEX_POINT('',#1929);
#571=VERTEX_POINT('',#1930);
#572=VERTEX_POINT('',#1932);
#573=VERTEX_POINT('',#1934);
#574=VERTEX_POINT('',#1938);
#575=VERTEX_POINT('',#1939);
#576=VERTEX_POINT('',#1941);
#577=VERTEX_POINT('',#1943);
#578=VERTEX_POINT('',#1945);
#579=VERTEX_POINT('',#1947);
#580=VERTEX_POINT('',#1949);
#581=VERTEX_POINT('',#1951);
#582=VERTEX_POINT('',#1953);
#583=VERTEX_POINT('',#1955);
#584=VERTEX_POINT('',#1957);
#585=VERTEX_POINT('',#1959);
#586=VERTEX_POINT('',#1961);
#587=VERTEX_POINT('',#1963);
#588=VERTEX_POINT('',#1967);
#589=VERTEX_POINT('',#1968);
#590=VERTEX_POINT('',#1970);
#591=VERTEX_POINT('',#1972);
#592=VERTEX_POINT('',#1974);
#593=VERTEX_POINT('',#1978);
#594=VERTEX_POINT('',#1979);
#595=VERTEX_POINT('',#1981);
#596=VERTEX_POINT('',#1983);
#597=VERTEX_POINT('',#1987);
#598=VERTEX_POINT('',#1989);
#599=VERTEX_POINT('',#1990);
#600=VERTEX_POINT('',#1997);
#601=VERTEX_POINT('',#1999);
#602=VERTEX_POINT('',#2001);
#603=VERTEX_POINT('',#2004);
#604=VERTEX_POINT('',#2006);
#605=VERTEX_POINT('',#2010);
#606=VERTEX_POINT('',#2012);
#607=VERTEX_POINT('',#2013);
#608=VERTEX_POINT('',#2016);
#609=VERTEX_POINT('',#2018);
#610=VERTEX_POINT('',#2023);
#611=VERTEX_POINT('',#2025);
#612=VERTEX_POINT('',#2027);
#613=VERTEX_POINT('',#2033);
#614=VERTEX_POINT('',#2035);
#615=VERTEX_POINT('',#2039);
#616=VERTEX_POINT('',#2040);
#617=VERTEX_POINT('',#2042);
#618=VERTEX_POINT('',#2044);
#619=VERTEX_POINT('',#2048);
#620=VERTEX_POINT('',#2050);
#621=VERTEX_POINT('',#2090);
#622=VERTEX_POINT('',#2091);
#623=VERTEX_POINT('',#2093);
#624=VERTEX_POINT('',#2095);
#625=VERTEX_POINT('',#2099);
#626=VERTEX_POINT('',#2100);
#627=VERTEX_POINT('',#2102);
#628=VERTEX_POINT('',#2104);
#629=VERTEX_POINT('',#2106);
#630=VERTEX_POINT('',#2108);
#631=VERTEX_POINT('',#2110);
#632=VERTEX_POINT('',#2112);
#633=VERTEX_POINT('',#2126);
#634=VERTEX_POINT('',#2128);
#635=VERTEX_POINT('',#2139);
#636=VERTEX_POINT('',#2141);
#637=VERTEX_POINT('',#2155);
#638=VERTEX_POINT('',#2159);
#639=VERTEX_POINT('',#2206);
#640=LINE('',#1897,#712);
#641=LINE('',#1900,#713);
#642=LINE('',#1902,#714);
#643=LINE('',#1904,#715);
#644=LINE('',#1906,#716);
#645=LINE('',#1908,#717);
#646=LINE('',#1910,#718);
#647=LINE('',#1912,#719);
#648=LINE('',#1914,#720);
#649=LINE('',#1916,#721);
#650=LINE('',#1918,#722);
#651=LINE('',#1920,#723);
#652=LINE('',#1922,#724);
#653=LINE('',#1924,#725);
#654=LINE('',#1928,#726);
#655=LINE('',#1933,#727);
#656=LINE('',#1937,#728);
#657=LINE('',#1940,#729);
#658=LINE('',#1942,#730);
#659=LINE('',#1944,#731);
#660=LINE('',#1946,#732);
#661=LINE('',#1948,#733);
#662=LINE('',#1950,#734);
#663=LINE('',#1952,#735);
#664=LINE('',#1954,#736);
#665=LINE('',#1956,#737);
#666=LINE('',#1958,#738);
#667=LINE('',#1960,#739);
#668=LINE('',#1962,#740);
#669=LINE('',#1964,#741);
#670=LINE('',#1966,#742);
#671=LINE('',#1969,#743);
#672=LINE('',#1971,#744);
#673=LINE('',#1973,#745);
#674=LINE('',#1975,#746);
#675=LINE('',#1977,#747);
#676=LINE('',#1980,#748);
#677=LINE('',#1982,#749);
#678=LINE('',#1984,#750);
#679=LINE('',#2005,#751);
#680=LINE('',#2017,#752);
#681=LINE('',#2032,#753);
#682=LINE('',#2034,#754);
#683=LINE('',#2036,#755);
#684=LINE('',#2038,#756);
#685=LINE('',#2041,#757);
#686=LINE('',#2043,#758);
#687=LINE('',#2045,#759);
#688=LINE('',#2047,#760);
#689=LINE('',#2049,#761);
#690=LINE('',#2051,#762);
#691=LINE('',#2055,#763);
#692=LINE('',#2056,#764);
#693=LINE('',#2058,#765);
#694=LINE('',#2059,#766);
#695=LINE('',#2089,#767);
#696=LINE('',#2092,#768);
#697=LINE('',#2094,#769);
#698=LINE('',#2096,#770);
#699=LINE('',#2101,#771);
#700=LINE('',#2103,#772);
#701=LINE('',#2105,#773);
#702=LINE('',#2109,#774);
#703=LINE('',#2113,#775);
#704=LINE('',#2115,#776);
#705=LINE('',#2152,#777);
#706=LINE('',#2154,#778);
#707=LINE('',#2156,#779);
#708=LINE('',#2158,#780);
#709=LINE('',#2160,#781);
#710=LINE('',#2162,#782);
#711=LINE('',#2163,#783);
#712=VECTOR('',#1575,1000.);
#713=VECTOR('',#1576,1000.);
#714=VECTOR('',#1577,1000.);
#715=VECTOR('',#1578,1000.);
#716=VECTOR('',#1579,1000.);
#717=VECTOR('',#1580,1000.);
#718=VECTOR('',#1581,1000.);
#719=VECTOR('',#1582,1000.);
#720=VECTOR('',#1583,1000.);
#721=VECTOR('',#1584,1000.);
#722=VECTOR('',#1585,1000.);
#723=VECTOR('',#1586,1000.);
#724=VECTOR('',#1587,1000.);
#725=VECTOR('',#1588,1000.);
#726=VECTOR('',#1593,1000.);
#727=VECTOR('',#1596,1000.);
#728=VECTOR('',#1601,1000.);
#729=VECTOR('',#1602,1000.);
#730=VECTOR('',#1603,1000.);
#731=VECTOR('',#1604,1000.);
#732=VECTOR('',#1605,1000.);
#733=VECTOR('',#1606,1000.);
#734=VECTOR('',#1607,1000.);
#735=VECTOR('',#1608,1000.);
#736=VECTOR('',#1609,1000.);
#737=VECTOR('',#1610,1000.);
#738=VECTOR('',#1611,1000.);
#739=VECTOR('',#1612,1000.);
#740=VECTOR('',#1613,1000.);
#741=VECTOR('',#1614,1000.);
#742=VECTOR('',#1617,1000.);
#743=VECTOR('',#1618,1000.);
#744=VECTOR('',#1619,1000.);
#745=VECTOR('',#1620,1000.);
#746=VECTOR('',#1621,1000.);
#747=VECTOR('',#1624,1000.);
#748=VECTOR('',#1625,1000.);
#749=VECTOR('',#1626,1000.);
#750=VECTOR('',#1627,1000.);
#751=VECTOR('',#1654,1000.);
#752=VECTOR('',#1667,1000.);
#753=VECTOR('',#1688,1000.);
#754=VECTOR('',#1689,1000.);
#755=VECTOR('',#1690,1000.);
#756=VECTOR('',#1693,1000.);
#757=VECTOR('',#1694,1000.);
#758=VECTOR('',#1695,1000.);
#759=VECTOR('',#1696,1000.);
#760=VECTOR('',#1699,1000.);
#761=VECTOR('',#1700,1000.);
#762=VECTOR('',#1701,1000.);
#763=VECTOR('',#1708,1000.);
#764=VECTOR('',#1709,1000.);
#765=VECTOR('',#1712,1000.);
#766=VECTOR('',#1713,1000.);
#767=VECTOR('',#1772,1000.);
#768=VECTOR('',#1773,1000.);
#769=VECTOR('',#1774,1000.);
#770=VECTOR('',#1775,1000.);
#771=VECTOR('',#1780,1000.);
#772=VECTOR('',#1781,1000.);
#773=VECTOR('',#1782,1000.);
#774=VECTOR('',#1785,1000.);
#775=VECTOR('',#1788,1000.);
#776=VECTOR('',#1791,1000.);
#777=VECTOR('',#1796,1000.);
#778=VECTOR('',#1799,1000.);
#779=VECTOR('',#1800,1000.);
#780=VECTOR('',#1803,1000.);
#781=VECTOR('',#1804,1000.);
#782=VECTOR('',#1807,1000.);
#783=VECTOR('',#1808,1000.);
#784=EDGE_LOOP('',(#132,#133,#134,#135,#136,#137,#138,#139,#140,#141,#142,
#143,#144,#145));
#785=EDGE_LOOP('',(#146));
#786=EDGE_LOOP('',(#147,#148,#149,#150));
#787=EDGE_LOOP('',(#151,#152,#153,#154,#155,#156,#157,#158,#159,#160,#161,
#162,#163,#164));
#788=EDGE_LOOP('',(#165,#166,#167,#168,#169));
#789=EDGE_LOOP('',(#170,#171,#172,#173));
#790=EDGE_LOOP('',(#174));
#791=EDGE_LOOP('',(#175,#176,#177,#178,#179,#180,#181,#182));
#792=EDGE_LOOP('',(#183));
#793=EDGE_LOOP('',(#184,#185,#186,#187,#188,#189,#190,#191));
#794=EDGE_LOOP('',(#192));
#795=EDGE_LOOP('',(#193,#194,#195,#196,#197,#198,#199,#200));
#796=EDGE_LOOP('',(#201));
#797=EDGE_LOOP('',(#202,#203,#204,#205,#206,#207,#208,#209));
#798=EDGE_LOOP('',(#210,#211,#212,#213));
#799=EDGE_LOOP('',(#214,#215,#216,#217));
#800=EDGE_LOOP('',(#218,#219,#220,#221));
#801=EDGE_LOOP('',(#222));
#802=EDGE_LOOP('',(#223));
#803=EDGE_LOOP('',(#224));
#804=EDGE_LOOP('',(#225));
#805=EDGE_LOOP('',(#226,#227,#228,#229));
#806=EDGE_LOOP('',(#230,#231,#232,#233));
#807=EDGE_LOOP('',(#234,#235,#236,#237));
#808=EDGE_LOOP('',(#238,#239,#240,#241));
#809=EDGE_LOOP('',(#242,#243,#244,#245));
#810=EDGE_LOOP('',(#246,#247,#248,#249));
#811=EDGE_LOOP('',(#250,#251,#252,#253));
#812=EDGE_LOOP('',(#254,#255,#256,#257));
#813=EDGE_LOOP('',(#258,#259,#260,#261));
#814=EDGE_LOOP('',(#262,#263,#264,#265));
#815=EDGE_LOOP('',(#266,#267,#268,#269));
#816=EDGE_LOOP('',(#270,#271,#272));
#817=EDGE_LOOP('',(#273,#274,#275));
#818=EDGE_LOOP('',(#276,#277,#278,#279));
#819=EDGE_LOOP('',(#280,#281,#282,#283));
#820=EDGE_LOOP('',(#284,#285,#286));
#821=EDGE_LOOP('',(#287,#288,#289));
#822=EDGE_LOOP('',(#290,#291,#292,#293));
#823=EDGE_LOOP('',(#294,#295,#296,#297));
#824=EDGE_LOOP('',(#298,#299,#300,#301,#302,#303,#304,#305));
#825=EDGE_LOOP('',(#306,#307,#308,#309,#310,#311,#312,#313,#314,#315,#316,
#317,#318));
#826=EDGE_LOOP('',(#319,#320,#321));
#827=EDGE_LOOP('',(#322,#323,#324));
#828=EDGE_LOOP('',(#325,#326,#327,#328));
#829=EDGE_LOOP('',(#329,#330,#331,#332));
#830=EDGE_LOOP('',(#333,#334,#335,#336));
#831=EDGE_LOOP('',(#337,#338,#339,#340));
#832=EDGE_LOOP('',(#341,#342,#343,#344));
#833=EDGE_LOOP('',(#345,#346,#347,#348));
#834=EDGE_LOOP('',(#349,#350,#351));
#835=EDGE_LOOP('',(#352,#353,#354,#355));
#836=EDGE_LOOP('',(#356,#357,#358));
#837=EDGE_LOOP('',(#359,#360,#361,#362));
#838=EDGE_LOOP('',(#363,#364,#365,#366));
#839=EDGE_LOOP('',(#367,#368,#369));
#840=EDGE_LOOP('',(#370,#371,#372,#373));
#841=EDGE_LOOP('',(#374,#375,#376));
#842=EDGE_LOOP('',(#377,#378,#379,#380));
#843=EDGE_LOOP('',(#381,#382,#383,#384));
#844=EDGE_LOOP('',(#385,#386,#387,#388));
#845=EDGE_LOOP('',(#389,#390,#391,#392));
#846=EDGE_LOOP('',(#393,#394,#395));
#847=EDGE_LOOP('',(#396,#397,#398,#399));
#848=EDGE_LOOP('',(#400,#401,#402,#403));
#849=EDGE_LOOP('',(#404,#405,#406));
#850=EDGE_LOOP('',(#407,#408,#409,#410));
#851=EDGE_LOOP('',(#411));
#852=EDGE_LOOP('',(#412));
#853=EDGE_LOOP('',(#413));
#854=FACE_BOUND('',#784,.T.);
#855=FACE_BOUND('',#785,.T.);
#856=FACE_BOUND('',#786,.T.);
#857=FACE_BOUND('',#787,.T.);
#858=FACE_BOUND('',#788,.T.);
#859=FACE_BOUND('',#789,.T.);
#860=FACE_BOUND('',#790,.T.);
#861=FACE_BOUND('',#791,.T.);
#862=FACE_BOUND('',#792,.T.);
#863=FACE_BOUND('',#793,.T.);
#864=FACE_BOUND('',#794,.T.);
#865=FACE_BOUND('',#795,.T.);
#866=FACE_BOUND('',#796,.T.);
#867=FACE_BOUND('',#797,.T.);
#868=FACE_BOUND('',#798,.T.);
#869=FACE_BOUND('',#799,.T.);
#870=FACE_BOUND('',#800,.T.);
#871=FACE_BOUND('',#801,.T.);
#872=FACE_BOUND('',#802,.T.);
#873=FACE_BOUND('',#803,.T.);
#874=FACE_BOUND('',#804,.T.);
#875=FACE_BOUND('',#805,.T.);
#876=FACE_BOUND('',#806,.T.);
#877=FACE_BOUND('',#807,.T.);
#878=FACE_BOUND('',#808,.T.);
#879=FACE_BOUND('',#809,.T.);
#880=FACE_BOUND('',#810,.T.);
#881=FACE_BOUND('',#811,.T.);
#882=FACE_BOUND('',#812,.T.);
#883=FACE_BOUND('',#813,.T.);
#884=FACE_BOUND('',#814,.T.);
#885=FACE_BOUND('',#815,.T.);
#886=FACE_BOUND('',#816,.T.);
#887=FACE_BOUND('',#817,.T.);
#888=FACE_BOUND('',#818,.T.);
#889=FACE_BOUND('',#819,.T.);
#890=FACE_BOUND('',#820,.T.);
#891=FACE_BOUND('',#821,.T.);
#892=FACE_BOUND('',#822,.T.);
#893=FACE_BOUND('',#823,.T.);
#894=FACE_BOUND('',#824,.T.);
#895=FACE_BOUND('',#825,.T.);
#896=FACE_BOUND('',#826,.T.);
#897=FACE_BOUND('',#827,.T.);
#898=FACE_BOUND('',#828,.T.);
#899=FACE_BOUND('',#829,.T.);
#900=FACE_BOUND('',#830,.T.);
#901=FACE_BOUND('',#831,.T.);
#902=FACE_BOUND('',#832,.T.);
#903=FACE_BOUND('',#833,.T.);
#904=FACE_BOUND('',#834,.T.);
#905=FACE_BOUND('',#835,.T.);
#906=FACE_BOUND('',#836,.T.);
#907=FACE_BOUND('',#837,.T.);
#908=FACE_BOUND('',#838,.T.);
#909=FACE_BOUND('',#839,.T.);
#910=FACE_BOUND('',#840,.T.);
#911=FACE_BOUND('',#841,.T.);
#912=FACE_BOUND('',#842,.T.);
#913=FACE_BOUND('',#843,.T.);
#914=FACE_BOUND('',#844,.T.);
#915=FACE_BOUND('',#845,.T.);
#916=FACE_BOUND('',#846,.T.);
#917=FACE_BOUND('',#847,.T.);
#918=FACE_BOUND('',#848,.T.);
#919=FACE_BOUND('',#849,.T.);
#920=FACE_BOUND('',#850,.T.);
#921=FACE_BOUND('',#851,.T.);
#922=FACE_BOUND('',#852,.T.);
#923=FACE_BOUND('',#853,.T.);
#924=PLANE('',#1446);
#925=PLANE('',#1447);
#926=PLANE('',#1451);
#927=PLANE('',#1452);
#928=PLANE('',#1453);
#929=PLANE('',#1454);
#930=PLANE('',#1461);
#931=PLANE('',#1468);
#932=PLANE('',#1475);
#933=PLANE('',#1482);
#934=PLANE('',#1483);
#935=PLANE('',#1484);
#936=PLANE('',#1517);
#937=PLANE('',#1518);
#938=PLANE('',#1525);
#939=PLANE('',#1526);
#940=PLANE('',#1528);
#941=PLANE('',#1529);
#942=PLANE('',#1570);
#943=STYLED_ITEM('',(#1005),#1379);
#944=STYLED_ITEM('',(#1006),#1380);
#945=STYLED_ITEM('',(#1007),#1381);
#946=STYLED_ITEM('',(#1008),#1382);
#947=STYLED_ITEM('',(#1009),#1383);
#948=STYLED_ITEM('',(#1010),#1384);
#949=STYLED_ITEM('',(#1011),#1385);
#950=STYLED_ITEM('',(#1012),#1386);
#951=STYLED_ITEM('',(#1013),#1387);
#952=STYLED_ITEM('',(#1014),#1388);
#953=STYLED_ITEM('',(#1015),#1389);
#954=STYLED_ITEM('',(#1016),#1390);
#955=STYLED_ITEM('',(#1017),#1391);
#956=STYLED_ITEM('',(#1018),#1392);
#957=STYLED_ITEM('',(#1019),#1393);
#958=STYLED_ITEM('',(#1020),#1394);
#959=STYLED_ITEM('',(#1021),#1395);
#960=STYLED_ITEM('',(#1022),#1396);
#961=STYLED_ITEM('',(#1023),#1397);
#962=STYLED_ITEM('',(#1024),#1398);
#963=STYLED_ITEM('',(#1025),#1399);
#964=STYLED_ITEM('',(#1026),#1400);
#965=STYLED_ITEM('',(#1027),#1401);
#966=STYLED_ITEM('',(#1028),#1402);
#967=STYLED_ITEM('',(#1029),#1403);
#968=STYLED_ITEM('',(#1030),#1404);
#969=STYLED_ITEM('',(#1031),#1405);
#970=STYLED_ITEM('',(#1032),#1406);
#971=STYLED_ITEM('',(#1033),#1407);
#972=STYLED_ITEM('',(#1034),#1408);
#973=STYLED_ITEM('',(#1035),#1409);
#974=STYLED_ITEM('',(#1036),#1410);
#975=STYLED_ITEM('',(#1037),#1411);
#976=STYLED_ITEM('',(#1038),#1412);
#977=STYLED_ITEM('',(#1039),#1413);
#978=STYLED_ITEM('',(#1040),#1414);
#979=STYLED_ITEM('',(#1041),#1415);
#980=STYLED_ITEM('',(#1042),#1416);
#981=STYLED_ITEM('',(#1043),#1417);
#982=STYLED_ITEM('',(#1044),#1418);
#983=STYLED_ITEM('',(#1045),#1419);
#984=STYLED_ITEM('',(#1046),#1420);
#985=STYLED_ITEM('',(#1047),#1421);
#986=STYLED_ITEM('',(#1048),#1422);
#987=STYLED_ITEM('',(#1049),#1423);
#988=STYLED_ITEM('',(#1050),#1424);
#989=STYLED_ITEM('',(#1051),#1425);
#990=STYLED_ITEM('',(#1052),#1426);
#991=STYLED_ITEM('',(#1053),#1427);
#992=STYLED_ITEM('',(#1054),#1428);
#993=STYLED_ITEM('',(#1055),#1429);
#994=STYLED_ITEM('',(#1056),#1430);
#995=STYLED_ITEM('',(#1057),#1431);
#996=STYLED_ITEM('',(#1058),#1432);
#997=STYLED_ITEM('',(#1059),#1433);
#998=STYLED_ITEM('',(#1060),#1434);
#999=STYLED_ITEM('',(#1061),#1435);
#1000=STYLED_ITEM('',(#1062),#1436);
#1001=STYLED_ITEM('',(#1063),#1437);
#1002=STYLED_ITEM('',(#1064),#1438);
#1003=STYLED_ITEM('',(#1065),#1439);
#1004=STYLED_ITEM('',(#1066),#1440);
#1005=PRESENTATION_STYLE_ASSIGNMENT((#1067));
#1006=PRESENTATION_STYLE_ASSIGNMENT((#1068));
#1007=PRESENTATION_STYLE_ASSIGNMENT((#1069));
#1008=PRESENTATION_STYLE_ASSIGNMENT((#1070));
#1009=PRESENTATION_STYLE_ASSIGNMENT((#1071));
#1010=PRESENTATION_STYLE_ASSIGNMENT((#1072));
#1011=PRESENTATION_STYLE_ASSIGNMENT((#1073));
#1012=PRESENTATION_STYLE_ASSIGNMENT((#1074));
#1013=PRESENTATION_STYLE_ASSIGNMENT((#1075));
#1014=PRESENTATION_STYLE_ASSIGNMENT((#1076));
#1015=PRESENTATION_STYLE_ASSIGNMENT((#1077));
#1016=PRESENTATION_STYLE_ASSIGNMENT((#1078));
#1017=PRESENTATION_STYLE_ASSIGNMENT((#1079));
#1018=PRESENTATION_STYLE_ASSIGNMENT((#1080));
#1019=PRESENTATION_STYLE_ASSIGNMENT((#1081));
#1020=PRESENTATION_STYLE_ASSIGNMENT((#1082));
#1021=PRESENTATION_STYLE_ASSIGNMENT((#1083));
#1022=PRESENTATION_STYLE_ASSIGNMENT((#1084));
#1023=PRESENTATION_STYLE_ASSIGNMENT((#1085));
#1024=PRESENTATION_STYLE_ASSIGNMENT((#1086));
#1025=PRESENTATION_STYLE_ASSIGNMENT((#1087));
#1026=PRESENTATION_STYLE_ASSIGNMENT((#1088));
#1027=PRESENTATION_STYLE_ASSIGNMENT((#1089));
#1028=PRESENTATION_STYLE_ASSIGNMENT((#1090));
#1029=PRESENTATION_STYLE_ASSIGNMENT((#1091));
#1030=PRESENTATION_STYLE_ASSIGNMENT((#1092));
#1031=PRESENTATION_STYLE_ASSIGNMENT((#1093));
#1032=PRESENTATION_STYLE_ASSIGNMENT((#1094));
#1033=PRESENTATION_STYLE_ASSIGNMENT((#1095));
#1034=PRESENTATION_STYLE_ASSIGNMENT((#1096));
#1035=PRESENTATION_STYLE_ASSIGNMENT((#1097));
#1036=PRESENTATION_STYLE_ASSIGNMENT((#1098));
#1037=PRESENTATION_STYLE_ASSIGNMENT((#1099));
#1038=PRESENTATION_STYLE_ASSIGNMENT((#1100));
#1039=PRESENTATION_STYLE_ASSIGNMENT((#1101));
#1040=PRESENTATION_STYLE_ASSIGNMENT((#1102));
#1041=PRESENTATION_STYLE_ASSIGNMENT((#1103));
#1042=PRESENTATION_STYLE_ASSIGNMENT((#1104));
#1043=PRESENTATION_STYLE_ASSIGNMENT((#1105));
#1044=PRESENTATION_STYLE_ASSIGNMENT((#1106));
#1045=PRESENTATION_STYLE_ASSIGNMENT((#1107));
#1046=PRESENTATION_STYLE_ASSIGNMENT((#1108));
#1047=PRESENTATION_STYLE_ASSIGNMENT((#1109));
#1048=PRESENTATION_STYLE_ASSIGNMENT((#1110));
#1049=PRESENTATION_STYLE_ASSIGNMENT((#1111));
#1050=PRESENTATION_STYLE_ASSIGNMENT((#1112));
#1051=PRESENTATION_STYLE_ASSIGNMENT((#1113));
#1052=PRESENTATION_STYLE_ASSIGNMENT((#1114));
#1053=PRESENTATION_STYLE_ASSIGNMENT((#1115));
#1054=PRESENTATION_STYLE_ASSIGNMENT((#1116));
#1055=PRESENTATION_STYLE_ASSIGNMENT((#1117));
#1056=PRESENTATION_STYLE_ASSIGNMENT((#1118));
#1057=PRESENTATION_STYLE_ASSIGNMENT((#1119));
#1058=PRESENTATION_STYLE_ASSIGNMENT((#1120));
#1059=PRESENTATION_STYLE_ASSIGNMENT((#1121));
#1060=PRESENTATION_STYLE_ASSIGNMENT((#1122));
#1061=PRESENTATION_STYLE_ASSIGNMENT((#1123));
#1062=PRESENTATION_STYLE_ASSIGNMENT((#1124));
#1063=PRESENTATION_STYLE_ASSIGNMENT((#1125));
#1064=PRESENTATION_STYLE_ASSIGNMENT((#1126));
#1065=PRESENTATION_STYLE_ASSIGNMENT((#1127));
#1066=PRESENTATION_STYLE_ASSIGNMENT((#1128));
#1067=SURFACE_STYLE_USAGE(.BOTH.,#1129);
#1068=SURFACE_STYLE_USAGE(.BOTH.,#1130);
#1069=SURFACE_STYLE_USAGE(.BOTH.,#1131);
#1070=SURFACE_STYLE_USAGE(.BOTH.,#1132);
#1071=SURFACE_STYLE_USAGE(.BOTH.,#1133);
#1072=SURFACE_STYLE_USAGE(.BOTH.,#1134);
#1073=SURFACE_STYLE_USAGE(.BOTH.,#1135);
#1074=SURFACE_STYLE_USAGE(.BOTH.,#1136);
#1075=SURFACE_STYLE_USAGE(.BOTH.,#1137);
#1076=SURFACE_STYLE_USAGE(.BOTH.,#1138);
#1077=SURFACE_STYLE_USAGE(.BOTH.,#1139);
#1078=SURFACE_STYLE_USAGE(.BOTH.,#1140);
#1079=SURFACE_STYLE_USAGE(.BOTH.,#1141);
#1080=SURFACE_STYLE_USAGE(.BOTH.,#1142);
#1081=SURFACE_STYLE_USAGE(.BOTH.,#1143);
#1082=SURFACE_STYLE_USAGE(.BOTH.,#1144);
#1083=SURFACE_STYLE_USAGE(.BOTH.,#1145);
#1084=SURFACE_STYLE_USAGE(.BOTH.,#1146);
#1085=SURFACE_STYLE_USAGE(.BOTH.,#1147);
#1086=SURFACE_STYLE_USAGE(.BOTH.,#1148);
#1087=SURFACE_STYLE_USAGE(.BOTH.,#1149);
#1088=SURFACE_STYLE_USAGE(.BOTH.,#1150);
#1089=SURFACE_STYLE_USAGE(.BOTH.,#1151);
#1090=SURFACE_STYLE_USAGE(.BOTH.,#1152);
#1091=SURFACE_STYLE_USAGE(.BOTH.,#1153);
#1092=SURFACE_STYLE_USAGE(.BOTH.,#1154);
#1093=SURFACE_STYLE_USAGE(.BOTH.,#1155);
#1094=SURFACE_STYLE_USAGE(.BOTH.,#1156);
#1095=SURFACE_STYLE_USAGE(.BOTH.,#1157);
#1096=SURFACE_STYLE_USAGE(.BOTH.,#1158);
#1097=SURFACE_STYLE_USAGE(.BOTH.,#1159);
#1098=SURFACE_STYLE_USAGE(.BOTH.,#1160);
#1099=SURFACE_STYLE_USAGE(.BOTH.,#1161);
#1100=SURFACE_STYLE_USAGE(.BOTH.,#1162);
#1101=SURFACE_STYLE_USAGE(.BOTH.,#1163);
#1102=SURFACE_STYLE_USAGE(.BOTH.,#1164);
#1103=SURFACE_STYLE_USAGE(.BOTH.,#1165);
#1104=SURFACE_STYLE_USAGE(.BOTH.,#1166);
#1105=SURFACE_STYLE_USAGE(.BOTH.,#1167);
#1106=SURFACE_STYLE_USAGE(.BOTH.,#1168);
#1107=SURFACE_STYLE_USAGE(.BOTH.,#1169);
#1108=SURFACE_STYLE_USAGE(.BOTH.,#1170);
#1109=SURFACE_STYLE_USAGE(.BOTH.,#1171);
#1110=SURFACE_STYLE_USAGE(.BOTH.,#1172);
#1111=SURFACE_STYLE_USAGE(.BOTH.,#1173);
#1112=SURFACE_STYLE_USAGE(.BOTH.,#1174);
#1113=SURFACE_STYLE_USAGE(.BOTH.,#1175);
#1114=SURFACE_STYLE_USAGE(.BOTH.,#1176);
#1115=SURFACE_STYLE_USAGE(.BOTH.,#1177);
#1116=SURFACE_STYLE_USAGE(.BOTH.,#1178);
#1117=SURFACE_STYLE_USAGE(.BOTH.,#1179);
#1118=SURFACE_STYLE_USAGE(.BOTH.,#1180);
#1119=SURFACE_STYLE_USAGE(.BOTH.,#1181);
#1120=SURFACE_STYLE_USAGE(.BOTH.,#1182);
#1121=SURFACE_STYLE_USAGE(.BOTH.,#1183);
#1122=SURFACE_STYLE_USAGE(.BOTH.,#1184);
#1123=SURFACE_STYLE_USAGE(.BOTH.,#1185);
#1124=SURFACE_STYLE_USAGE(.BOTH.,#1186);
#1125=SURFACE_STYLE_USAGE(.BOTH.,#1187);
#1126=SURFACE_STYLE_USAGE(.BOTH.,#1188);
#1127=SURFACE_STYLE_USAGE(.BOTH.,#1189);
#1128=SURFACE_STYLE_USAGE(.BOTH.,#1190);
#1129=SURFACE_SIDE_STYLE('',(#1191));
#1130=SURFACE_SIDE_STYLE('',(#1192));
#1131=SURFACE_SIDE_STYLE('',(#1193));
#1132=SURFACE_SIDE_STYLE('',(#1194));
#1133=SURFACE_SIDE_STYLE('',(#1195));
#1134=SURFACE_SIDE_STYLE('',(#1196));
#1135=SURFACE_SIDE_STYLE('',(#1197));
#1136=SURFACE_SIDE_STYLE('',(#1198));
#1137=SURFACE_SIDE_STYLE('',(#1199));
#1138=SURFACE_SIDE_STYLE('',(#1200));
#1139=SURFACE_SIDE_STYLE('',(#1201));
#1140=SURFACE_SIDE_STYLE('',(#1202));
#1141=SURFACE_SIDE_STYLE('',(#1203));
#1142=SURFACE_SIDE_STYLE('',(#1204));
#1143=SURFACE_SIDE_STYLE('',(#1205));
#1144=SURFACE_SIDE_STYLE('',(#1206));
#1145=SURFACE_SIDE_STYLE('',(#1207));
#1146=SURFACE_SIDE_STYLE('',(#1208));
#1147=SURFACE_SIDE_STYLE('',(#1209));
#1148=SURFACE_SIDE_STYLE('',(#1210));
#1149=SURFACE_SIDE_STYLE('',(#1211));
#1150=SURFACE_SIDE_STYLE('',(#1212));
#1151=SURFACE_SIDE_STYLE('',(#1213));
#1152=SURFACE_SIDE_STYLE('',(#1214));
#1153=SURFACE_SIDE_STYLE('',(#1215));
#1154=SURFACE_SIDE_STYLE('',(#1216));
#1155=SURFACE_SIDE_STYLE('',(#1217));
#1156=SURFACE_SIDE_STYLE('',(#1218));
#1157=SURFACE_SIDE_STYLE('',(#1219));
#1158=SURFACE_SIDE_STYLE('',(#1220));
#1159=SURFACE_SIDE_STYLE('',(#1221));
#1160=SURFACE_SIDE_STYLE('',(#1222));
#1161=SURFACE_SIDE_STYLE('',(#1223));
#1162=SURFACE_SIDE_STYLE('',(#1224));
#1163=SURFACE_SIDE_STYLE('',(#1225));
#1164=SURFACE_SIDE_STYLE('',(#1226));
#1165=SURFACE_SIDE_STYLE('',(#1227));
#1166=SURFACE_SIDE_STYLE('',(#1228));
#1167=SURFACE_SIDE_STYLE('',(#1229));
#1168=SURFACE_SIDE_STYLE('',(#1230));
#1169=SURFACE_SIDE_STYLE('',(#1231));
#1170=SURFACE_SIDE_STYLE('',(#1232));
#1171=SURFACE_SIDE_STYLE('',(#1233));
#1172=SURFACE_SIDE_STYLE('',(#1234));
#1173=SURFACE_SIDE_STYLE('',(#1235));
#1174=SURFACE_SIDE_STYLE('',(#1236));
#1175=SURFACE_SIDE_STYLE('',(#1237));
#1176=SURFACE_SIDE_STYLE('',(#1238));
#1177=SURFACE_SIDE_STYLE('',(#1239));
#1178=SURFACE_SIDE_STYLE('',(#1240));
#1179=SURFACE_SIDE_STYLE('',(#1241));
#1180=SURFACE_SIDE_STYLE('',(#1242));
#1181=SURFACE_SIDE_STYLE('',(#1243));
#1182=SURFACE_SIDE_STYLE('',(#1244));
#1183=SURFACE_SIDE_STYLE('',(#1245));
#1184=SURFACE_SIDE_STYLE('',(#1246));
#1185=SURFACE_SIDE_STYLE('',(#1247));
#1186=SURFACE_SIDE_STYLE('',(#1248));
#1187=SURFACE_SIDE_STYLE('',(#1249));
#1188=SURFACE_SIDE_STYLE('',(#1250));
#1189=SURFACE_SIDE_STYLE('',(#1251));
#1190=SURFACE_SIDE_STYLE('',(#1252));
#1191=SURFACE_STYLE_FILL_AREA(#1253);
#1192=SURFACE_STYLE_FILL_AREA(#1254);
#1193=SURFACE_STYLE_FILL_AREA(#1255);
#1194=SURFACE_STYLE_FILL_AREA(#1256);
#1195=SURFACE_STYLE_FILL_AREA(#1257);
#1196=SURFACE_STYLE_FILL_AREA(#1258);
#1197=SURFACE_STYLE_FILL_AREA(#1259);
#1198=SURFACE_STYLE_FILL_AREA(#1260);
#1199=SURFACE_STYLE_FILL_AREA(#1261);
#1200=SURFACE_STYLE_FILL_AREA(#1262);
#1201=SURFACE_STYLE_FILL_AREA(#1263);
#1202=SURFACE_STYLE_FILL_AREA(#1264);
#1203=SURFACE_STYLE_FILL_AREA(#1265);
#1204=SURFACE_STYLE_FILL_AREA(#1266);
#1205=SURFACE_STYLE_FILL_AREA(#1267);
#1206=SURFACE_STYLE_FILL_AREA(#1268);
#1207=SURFACE_STYLE_FILL_AREA(#1269);
#1208=SURFACE_STYLE_FILL_AREA(#1270);
#1209=SURFACE_STYLE_FILL_AREA(#1271);
#1210=SURFACE_STYLE_FILL_AREA(#1272);
#1211=SURFACE_STYLE_FILL_AREA(#1273);
#1212=SURFACE_STYLE_FILL_AREA(#1274);
#1213=SURFACE_STYLE_FILL_AREA(#1275);
#1214=SURFACE_STYLE_FILL_AREA(#1276);
#1215=SURFACE_STYLE_FILL_AREA(#1277);
#1216=SURFACE_STYLE_FILL_AREA(#1278);
#1217=SURFACE_STYLE_FILL_AREA(#1279);
#1218=SURFACE_STYLE_FILL_AREA(#1280);
#1219=SURFACE_STYLE_FILL_AREA(#1281);
#1220=SURFACE_STYLE_FILL_AREA(#1282);
#1221=SURFACE_STYLE_FILL_AREA(#1283);
#1222=SURFACE_STYLE_FILL_AREA(#1284);
#1223=SURFACE_STYLE_FILL_AREA(#1285);
#1224=SURFACE_STYLE_FILL_AREA(#1286);
#1225=SURFACE_STYLE_FILL_AREA(#1287);
#1226=SURFACE_STYLE_FILL_AREA(#1288);
#1227=SURFACE_STYLE_FILL_AREA(#1289);
#1228=SURFACE_STYLE_FILL_AREA(#1290);
#1229=SURFACE_STYLE_FILL_AREA(#1291);
#1230=SURFACE_STYLE_FILL_AREA(#1292);
#1231=SURFACE_STYLE_FILL_AREA(#1293);
#1232=SURFACE_STYLE_FILL_AREA(#1294);
#1233=SURFACE_STYLE_FILL_AREA(#1295);
#1234=SURFACE_STYLE_FILL_AREA(#1296);
#1235=SURFACE_STYLE_FILL_AREA(#1297);
#1236=SURFACE_STYLE_FILL_AREA(#1298);
#1237=SURFACE_STYLE_FILL_AREA(#1299);
#1238=SURFACE_STYLE_FILL_AREA(#1300);
#1239=SURFACE_STYLE_FILL_AREA(#1301);
#1240=SURFACE_STYLE_FILL_AREA(#1302);
#1241=SURFACE_STYLE_FILL_AREA(#1303);
#1242=SURFACE_STYLE_FILL_AREA(#1304);
#1243=SURFACE_STYLE_FILL_AREA(#1305);
#1244=SURFACE_STYLE_FILL_AREA(#1306);
#1245=SURFACE_STYLE_FILL_AREA(#1307);
#1246=SURFACE_STYLE_FILL_AREA(#1308);
#1247=SURFACE_STYLE_FILL_AREA(#1309);
#1248=SURFACE_STYLE_FILL_AREA(#1310);
#1249=SURFACE_STYLE_FILL_AREA(#1311);
#1250=SURFACE_STYLE_FILL_AREA(#1312);
#1251=SURFACE_STYLE_FILL_AREA(#1313);
#1252=SURFACE_STYLE_FILL_AREA(#1314);
#1253=FILL_AREA_STYLE('',(#1315));
#1254=FILL_AREA_STYLE('',(#1316));
#1255=FILL_AREA_STYLE('',(#1317));
#1256=FILL_AREA_STYLE('',(#1318));
#1257=FILL_AREA_STYLE('',(#1319));
#1258=FILL_AREA_STYLE('',(#1320));
#1259=FILL_AREA_STYLE('',(#1321));
#1260=FILL_AREA_STYLE('',(#1322));
#1261=FILL_AREA_STYLE('',(#1323));
#1262=FILL_AREA_STYLE('',(#1324));
#1263=FILL_AREA_STYLE('',(#1325));
#1264=FILL_AREA_STYLE('',(#1326));
#1265=FILL_AREA_STYLE('',(#1327));
#1266=FILL_AREA_STYLE('',(#1328));
#1267=FILL_AREA_STYLE('',(#1329));
#1268=FILL_AREA_STYLE('',(#1330));
#1269=FILL_AREA_STYLE('',(#1331));
#1270=FILL_AREA_STYLE('',(#1332));
#1271=FILL_AREA_STYLE('',(#1333));
#1272=FILL_AREA_STYLE('',(#1334));
#1273=FILL_AREA_STYLE('',(#1335));
#1274=FILL_AREA_STYLE('',(#1336));
#1275=FILL_AREA_STYLE('',(#1337));
#1276=FILL_AREA_STYLE('',(#1338));
#1277=FILL_AREA_STYLE('',(#1339));
#1278=FILL_AREA_STYLE('',(#1340));
#1279=FILL_AREA_STYLE('',(#1341));
#1280=FILL_AREA_STYLE('',(#1342));
#1281=FILL_AREA_STYLE('',(#1343));
#1282=FILL_AREA_STYLE('',(#1344));
#1283=FILL_AREA_STYLE('',(#1345));
#1284=FILL_AREA_STYLE('',(#1346));
#1285=FILL_AREA_STYLE('',(#1347));
#1286=FILL_AREA_STYLE('',(#1348));
#1287=FILL_AREA_STYLE('',(#1349));
#1288=FILL_AREA_STYLE('',(#1350));
#1289=FILL_AREA_STYLE('',(#1351));
#1290=FILL_AREA_STYLE('',(#1352));
#1291=FILL_AREA_STYLE('',(#1353));
#1292=FILL_AREA_STYLE('',(#1354));
#1293=FILL_AREA_STYLE('',(#1355));
#1294=FILL_AREA_STYLE('',(#1356));
#1295=FILL_AREA_STYLE('',(#1357));
#1296=FILL_AREA_STYLE('',(#1358));
#1297=FILL_AREA_STYLE('',(#1359));
#1298=FILL_AREA_STYLE('',(#1360));
#1299=FILL_AREA_STYLE('',(#1361));
#1300=FILL_AREA_STYLE('',(#1362));
#1301=FILL_AREA_STYLE('',(#1363));
#1302=FILL_AREA_STYLE('',(#1364));
#1303=FILL_AREA_STYLE('',(#1365));
#1304=FILL_AREA_STYLE('',(#1366));
#1305=FILL_AREA_STYLE('',(#1367));
#1306=FILL_AREA_STYLE('',(#1368));
#1307=FILL_AREA_STYLE('',(#1369));
#1308=FILL_AREA_STYLE('',(#1370));
#1309=FILL_AREA_STYLE('',(#1371));
#1310=FILL_AREA_STYLE('',(#1372));
#1311=FILL_AREA_STYLE('',(#1373));
#1312=FILL_AREA_STYLE('',(#1374));
#1313=FILL_AREA_STYLE('',(#1375));
#1314=FILL_AREA_STYLE('',(#1376));
#1315=FILL_AREA_STYLE_COLOUR('',#1377);
#1316=FILL_AREA_STYLE_COLOUR('',#1377);
#1317=FILL_AREA_STYLE_COLOUR('',#1377);
#1318=FILL_AREA_STYLE_COLOUR('',#1377);
#1319=FILL_AREA_STYLE_COLOUR('',#1377);
#1320=FILL_AREA_STYLE_COLOUR('',#1377);
#1321=FILL_AREA_STYLE_COLOUR('',#1377);
#1322=FILL_AREA_STYLE_COLOUR('',#1377);
#1323=FILL_AREA_STYLE_COLOUR('',#1377);
#1324=FILL_AREA_STYLE_COLOUR('',#1377);
#1325=FILL_AREA_STYLE_COLOUR('',#1377);
#1326=FILL_AREA_STYLE_COLOUR('',#1377);
#1327=FILL_AREA_STYLE_COLOUR('',#1378);
#1328=FILL_AREA_STYLE_COLOUR('',#1378);
#1329=FILL_AREA_STYLE_COLOUR('',#1377);
#1330=FILL_AREA_STYLE_COLOUR('',#1377);
#1331=FILL_AREA_STYLE_COLOUR('',#1377);
#1332=FILL_AREA_STYLE_COLOUR('',#1377);
#1333=FILL_AREA_STYLE_COLOUR('',#1377);
#1334=FILL_AREA_STYLE_COLOUR('',#1377);
#1335=FILL_AREA_STYLE_COLOUR('',#1377);
#1336=FILL_AREA_STYLE_COLOUR('',#1377);
#1337=FILL_AREA_STYLE_COLOUR('',#1377);
#1338=FILL_AREA_STYLE_COLOUR('',#1377);
#1339=FILL_AREA_STYLE_COLOUR('',#1377);
#1340=FILL_AREA_STYLE_COLOUR('',#1377);
#1341=FILL_AREA_STYLE_COLOUR('',#1377);
#1342=FILL_AREA_STYLE_COLOUR('',#1377);
#1343=FILL_AREA_STYLE_COLOUR('',#1377);
#1344=FILL_AREA_STYLE_COLOUR('',#1377);
#1345=FILL_AREA_STYLE_COLOUR('',#1377);
#1346=FILL_AREA_STYLE_COLOUR('',#1377);
#1347=FILL_AREA_STYLE_COLOUR('',#1377);
#1348=FILL_AREA_STYLE_COLOUR('',#1377);
#1349=FILL_AREA_STYLE_COLOUR('',#1377);
#1350=FILL_AREA_STYLE_COLOUR('',#1377);
#1351=FILL_AREA_STYLE_COLOUR('',#1377);
#1352=FILL_AREA_STYLE_COLOUR('',#1377);
#1353=FILL_AREA_STYLE_COLOUR('',#1377);
#1354=FILL_AREA_STYLE_COLOUR('',#1377);
#1355=FILL_AREA_STYLE_COLOUR('',#1377);
#1356=FILL_AREA_STYLE_COLOUR('',#1377);
#1357=FILL_AREA_STYLE_COLOUR('',#1377);
#1358=FILL_AREA_STYLE_COLOUR('',#1377);
#1359=FILL_AREA_STYLE_COLOUR('',#1377);
#1360=FILL_AREA_STYLE_COLOUR('',#1377);
#1361=FILL_AREA_STYLE_COLOUR('',#1377);
#1362=FILL_AREA_STYLE_COLOUR('',#1377);
#1363=FILL_AREA_STYLE_COLOUR('',#1377);
#1364=FILL_AREA_STYLE_COLOUR('',#1377);
#1365=FILL_AREA_STYLE_COLOUR('',#1377);
#1366=FILL_AREA_STYLE_COLOUR('',#1377);
#1367=FILL_AREA_STYLE_COLOUR('',#1377);
#1368=FILL_AREA_STYLE_COLOUR('',#1377);
#1369=FILL_AREA_STYLE_COLOUR('',#1377);
#1370=FILL_AREA_STYLE_COLOUR('',#1377);
#1371=FILL_AREA_STYLE_COLOUR('',#1377);
#1372=FILL_AREA_STYLE_COLOUR('',#1377);
#1373=FILL_AREA_STYLE_COLOUR('',#1377);
#1374=FILL_AREA_STYLE_COLOUR('',#1377);
#1375=FILL_AREA_STYLE_COLOUR('',#1377);
#1376=FILL_AREA_STYLE_COLOUR('',#1377);
#1377=COLOUR_RGB('',0.,0.25,0.75);
#1378=COLOUR_RGB('',0.1875,0.75,0.581249892711639);
#1379=ADVANCED_FACE('',(#854),#924,.F.);
#1380=ADVANCED_FACE('',(#855,#856),#925,.F.);
#1381=ADVANCED_FACE('',(#857),#926,.T.);
#1382=ADVANCED_FACE('',(#858),#927,.F.);
#1383=ADVANCED_FACE('',(#859),#928,.F.);
#1384=ADVANCED_FACE('',(#860,#861),#929,.T.);
#1385=ADVANCED_FACE('',(#862,#863),#930,.T.);
#1386=ADVANCED_FACE('',(#864,#865),#931,.T.);
#1387=ADVANCED_FACE('',(#866,#867),#932,.T.);
#1388=ADVANCED_FACE('',(#868),#933,.F.);
#1389=ADVANCED_FACE('',(#869),#934,.F.);
#1390=ADVANCED_FACE('',(#870),#935,.F.);
#1391=ADVANCED_FACE('',(#871,#872),#36,.F.);
#1392=ADVANCED_FACE('',(#873,#874),#37,.F.);
#1393=ADVANCED_FACE('',(#875),#38,.T.);
#1394=ADVANCED_FACE('',(#876),#39,.T.);
#1395=ADVANCED_FACE('',(#877),#40,.T.);
#1396=ADVANCED_FACE('',(#878),#41,.T.);
#1397=ADVANCED_FACE('',(#879),#42,.T.);
#1398=ADVANCED_FACE('',(#880),#43,.T.);
#1399=ADVANCED_FACE('',(#881),#44,.T.);
#1400=ADVANCED_FACE('',(#882),#45,.T.);
#1401=ADVANCED_FACE('',(#883),#46,.T.);
#1402=ADVANCED_FACE('',(#884),#47,.T.);
#1403=ADVANCED_FACE('',(#885),#48,.T.);
#1404=ADVANCED_FACE('',(#886),#26,.T.);
#1405=ADVANCED_FACE('',(#887),#27,.T.);
#1406=ADVANCED_FACE('',(#888),#49,.T.);
#1407=ADVANCED_FACE('',(#889),#50,.T.);
#1408=ADVANCED_FACE('',(#890),#28,.T.);
#1409=ADVANCED_FACE('',(#891),#29,.T.);
#1410=ADVANCED_FACE('',(#892),#51,.T.);
#1411=ADVANCED_FACE('',(#893),#936,.F.);
#1412=ADVANCED_FACE('',(#894),#937,.F.);
#1413=ADVANCED_FACE('',(#895),#52,.T.);
#1414=ADVANCED_FACE('',(#896),#938,.F.);
#1415=ADVANCED_FACE('',(#897),#939,.F.);
#1416=ADVANCED_FACE('',(#898),#53,.T.);
#1417=ADVANCED_FACE('',(#899),#940,.T.);
#1418=ADVANCED_FACE('',(#900),#941,.F.);
#1419=ADVANCED_FACE('',(#901),#54,.T.);
#1420=ADVANCED_FACE('',(#902),#55,.T.);
#1421=ADVANCED_FACE('',(#903),#56,.T.);
#1422=ADVANCED_FACE('',(#904),#30,.T.);
#1423=ADVANCED_FACE('',(#905),#57,.T.);
#1424=ADVANCED_FACE('',(#906),#31,.T.);
#1425=ADVANCED_FACE('',(#907),#58,.T.);
#1426=ADVANCED_FACE('',(#908),#59,.T.);
#1427=ADVANCED_FACE('',(#909),#32,.T.);
#1428=ADVANCED_FACE('',(#910),#60,.T.);
#1429=ADVANCED_FACE('',(#911),#33,.T.);
#1430=ADVANCED_FACE('',(#912),#61,.T.);
#1431=ADVANCED_FACE('',(#913),#62,.T.);
#1432=ADVANCED_FACE('',(#914),#63,.T.);
#1433=ADVANCED_FACE('',(#915),#64,.T.);
#1434=ADVANCED_FACE('',(#916),#34,.T.);
#1435=ADVANCED_FACE('',(#917),#65,.T.);
#1436=ADVANCED_FACE('',(#918),#66,.T.);
#1437=ADVANCED_FACE('',(#919),#35,.T.);
#1438=ADVANCED_FACE('',(#920),#67,.T.);
#1439=ADVANCED_FACE('',(#921,#922),#68,.T.);
#1440=ADVANCED_FACE('',(#923),#942,.F.);
#1441=CLOSED_SHELL('',(#1379,#1380,#1381,#1382,#1383,#1384,#1385,#1386,
#1387,#1388,#1389,#1390,#1391,#1392,#1393,#1394,#1395,#1396,#1397,#1398,
#1399,#1400,#1401,#1402,#1403,#1404,#1405,#1406,#1407,#1408,#1409,#1410,
#1411,#1412,#1413,#1414,#1415,#1416,#1417,#1418,#1419,#1420,#1421,#1422,
#1423,#1424,#1425,#1426,#1427,#1428,#1429,#1430,#1431,#1432,#1433,#1434,
#1435,#1436,#1437,#1438,#1439,#1440));
#1442=MANIFOLD_SOLID_BREP('',#1441);
#1443=SHAPE_DEFINITION_REPRESENTATION(#2214,#1444);
#1444=SHAPE_REPRESENTATION('HD1370A',(#1445),#2209);
#1445=AXIS2_PLACEMENT_3D('',#1895,#1571,#1572);
#1446=AXIS2_PLACEMENT_3D('',#1896,#1573,#1574);
#1447=AXIS2_PLACEMENT_3D('',#1925,#1589,#1590);
#1448=AXIS2_PLACEMENT_3D('',#1926,#1591,#1592);
#1449=AXIS2_PLACEMENT_3D('',#1931,#1594,#1595);
#1450=AXIS2_PLACEMENT_3D('',#1935,#1597,#1598);
#1451=AXIS2_PLACEMENT_3D('',#1936,#1599,#1600);
#1452=AXIS2_PLACEMENT_3D('',#1965,#1615,#1616);
#1453=AXIS2_PLACEMENT_3D('',#1976,#1622,#1623);
#1454=AXIS2_PLACEMENT_3D('',#1985,#1628,#1629);
#1455=AXIS2_PLACEMENT_3D('',#1986,#1630,#1631);
#1456=AXIS2_PLACEMENT_3D('',#1988,#1632,#1633);
#1457=AXIS2_PLACEMENT_3D('',#1991,#1634,#1635);
#1458=AXIS2_PLACEMENT_3D('',#1992,#1636,#1637);
#1459=AXIS2_PLACEMENT_3D('',#1993,#1638,#1639);
#1460=AXIS2_PLACEMENT_3D('',#1994,#1640,#1641);
#1461=AXIS2_PLACEMENT_3D('',#1995,#1642,#1643);
#1462=AXIS2_PLACEMENT_3D('',#1996,#1644,#1645);
#1463=AXIS2_PLACEMENT_3D('',#1998,#1646,#1647);
#1464=AXIS2_PLACEMENT_3D('',#2000,#1648,#1649);
#1465=AXIS2_PLACEMENT_3D('',#2002,#1650,#1651);
#1466=AXIS2_PLACEMENT_3D('',#2003,#1652,#1653);
#1467=AXIS2_PLACEMENT_3D('',#2007,#1655,#1656);
#1468=AXIS2_PLACEMENT_3D('',#2008,#1657,#1658);
#1469=AXIS2_PLACEMENT_3D('',#2009,#1659,#1660);
#1470=AXIS2_PLACEMENT_3D('',#2011,#1661,#1662);
#1471=AXIS2_PLACEMENT_3D('',#2014,#1663,#1664);
#1472=AXIS2_PLACEMENT_3D('',#2015,#1665,#1666);
#1473=AXIS2_PLACEMENT_3D('',#2019,#1668,#1669);
#1474=AXIS2_PLACEMENT_3D('',#2020,#1670,#1671);
#1475=AXIS2_PLACEMENT_3D('',#2021,#1672,#1673);
#1476=AXIS2_PLACEMENT_3D('',#2022,#1674,#1675);
#1477=AXIS2_PLACEMENT_3D('',#2024,#1676,#1677);
#1478=AXIS2_PLACEMENT_3D('',#2026,#1678,#1679);
#1479=AXIS2_PLACEMENT_3D('',#2028,#1680,#1681);
#1480=AXIS2_PLACEMENT_3D('',#2029,#1682,#1683);
#1481=AXIS2_PLACEMENT_3D('',#2030,#1684,#1685);
#1482=AXIS2_PLACEMENT_3D('',#2031,#1686,#1687);
#1483=AXIS2_PLACEMENT_3D('',#2037,#1691,#1692);
#1484=AXIS2_PLACEMENT_3D('',#2046,#1697,#1698);
#1485=AXIS2_PLACEMENT_3D('',#2052,#1702,#1703);
#1486=AXIS2_PLACEMENT_3D('',#2053,#1704,#1705);
#1487=AXIS2_PLACEMENT_3D('',#2054,#1706,#1707);
#1488=AXIS2_PLACEMENT_3D('',#2057,#1710,#1711);
#1489=AXIS2_PLACEMENT_3D('',#2060,#1714,#1715);
#1490=AXIS2_PLACEMENT_3D('',#2061,#1716,#1717);
#1491=AXIS2_PLACEMENT_3D('',#2062,#1718,#1719);
#1492=AXIS2_PLACEMENT_3D('',#2063,#1720,#1721);
#1493=AXIS2_PLACEMENT_3D('',#2064,#1722,#1723);
#1494=AXIS2_PLACEMENT_3D('',#2065,#1724,#1725);
#1495=AXIS2_PLACEMENT_3D('',#2066,#1726,#1727);
#1496=AXIS2_PLACEMENT_3D('',#2067,#1728,#1729);
#1497=AXIS2_PLACEMENT_3D('',#2068,#1730,#1731);
#1498=AXIS2_PLACEMENT_3D('',#2069,#1732,#1733);
#1499=AXIS2_PLACEMENT_3D('',#2070,#1734,#1735);
#1500=AXIS2_PLACEMENT_3D('',#2071,#1736,#1737);
#1501=AXIS2_PLACEMENT_3D('',#2072,#1738,#1739);
#1502=AXIS2_PLACEMENT_3D('',#2073,#1740,#1741);
#1503=AXIS2_PLACEMENT_3D('',#2074,#1742,#1743);
#1504=AXIS2_PLACEMENT_3D('',#2075,#1744,#1745);
#1505=AXIS2_PLACEMENT_3D('',#2076,#1746,#1747);
#1506=AXIS2_PLACEMENT_3D('',#2077,#1748,#1749);
#1507=AXIS2_PLACEMENT_3D('',#2078,#1750,#1751);
#1508=AXIS2_PLACEMENT_3D('',#2079,#1752,#1753);
#1509=AXIS2_PLACEMENT_3D('',#2080,#1754,#1755);
#1510=AXIS2_PLACEMENT_3D('',#2081,#1756,#1757);
#1511=AXIS2_PLACEMENT_3D('',#2082,#1758,#1759);
#1512=AXIS2_PLACEMENT_3D('',#2083,#1760,#1761);
#1513=AXIS2_PLACEMENT_3D('',#2084,#1762,#1763);
#1514=AXIS2_PLACEMENT_3D('',#2085,#1764,#1765);
#1515=AXIS2_PLACEMENT_3D('',#2086,#1766,#1767);
#1516=AXIS2_PLACEMENT_3D('',#2087,#1768,#1769);
#1517=AXIS2_PLACEMENT_3D('',#2088,#1770,#1771);
#1518=AXIS2_PLACEMENT_3D('',#2097,#1776,#1777);
#1519=AXIS2_PLACEMENT_3D('',#2098,#1778,#1779);
#1520=AXIS2_PLACEMENT_3D('',#2107,#1783,#1784);
#1521=AXIS2_PLACEMENT_3D('',#2111,#1786,#1787);
#1522=AXIS2_PLACEMENT_3D('',#2114,#1789,#1790);
#1523=AXIS2_PLACEMENT_3D('',#2127,#1792,#1793);
#1524=AXIS2_PLACEMENT_3D('',#2140,#1794,#1795);
#1525=AXIS2_PLACEMENT_3D('',#2153,#1797,#1798);
#1526=AXIS2_PLACEMENT_3D('',#2157,#1801,#1802);
#1527=AXIS2_PLACEMENT_3D('',#2161,#1805,#1806);
#1528=AXIS2_PLACEMENT_3D('',#2164,#1809,#1810);
#1529=AXIS2_PLACEMENT_3D('',#2165,#1811,#1812);
#1530=AXIS2_PLACEMENT_3D('',#2166,#1813,#1814);
#1531=AXIS2_PLACEMENT_3D('',#2167,#1815,#1816);
#1532=AXIS2_PLACEMENT_3D('',#2168,#1817,#1818);
#1533=AXIS2_PLACEMENT_3D('',#2169,#1819,#1820);
#1534=AXIS2_PLACEMENT_3D('',#2170,#1821,#1822);
#1535=AXIS2_PLACEMENT_3D('',#2171,#1823,#1824);
#1536=AXIS2_PLACEMENT_3D('',#2172,#1825,#1826);
#1537=AXIS2_PLACEMENT_3D('',#2173,#1827,#1828);
#1538=AXIS2_PLACEMENT_3D('',#2174,#1829,#1830);
#1539=AXIS2_PLACEMENT_3D('',#2175,#1831,#1832);
#1540=AXIS2_PLACEMENT_3D('',#2176,#1833,#1834);
#1541=AXIS2_PLACEMENT_3D('',#2177,#1835,#1836);
#1542=AXIS2_PLACEMENT_3D('',#2178,#1837,#1838);
#1543=AXIS2_PLACEMENT_3D('',#2179,#1839,#1840);
#1544=AXIS2_PLACEMENT_3D('',#2180,#1841,#1842);
#1545=AXIS2_PLACEMENT_3D('',#2181,#1843,#1844);
#1546=AXIS2_PLACEMENT_3D('',#2182,#1845,#1846);
#1547=AXIS2_PLACEMENT_3D('',#2183,#1847,#1848);
#1548=AXIS2_PLACEMENT_3D('',#2184,#1849,#1850);
#1549=AXIS2_PLACEMENT_3D('',#2185,#1851,#1852);
#1550=AXIS2_PLACEMENT_3D('',#2186,#1853,#1854);
#1551=AXIS2_PLACEMENT_3D('',#2187,#1855,#1856);
#1552=AXIS2_PLACEMENT_3D('',#2188,#1857,#1858);
#1553=AXIS2_PLACEMENT_3D('',#2189,#1859,#1860);
#1554=AXIS2_PLACEMENT_3D('',#2190,#1861,#1862);
#1555=AXIS2_PLACEMENT_3D('',#2191,#1863,#1864);
#1556=AXIS2_PLACEMENT_3D('',#2192,#1865,#1866);
#1557=AXIS2_PLACEMENT_3D('',#2193,#1867,#1868);
#1558=AXIS2_PLACEMENT_3D('',#2194,#1869,#1870);
#1559=AXIS2_PLACEMENT_3D('',#2195,#1871,#1872);
#1560=AXIS2_PLACEMENT_3D('',#2196,#1873,#1874);
#1561=AXIS2_PLACEMENT_3D('',#2197,#1875,#1876);
#1562=AXIS2_PLACEMENT_3D('',#2198,#1877,#1878);
#1563=AXIS2_PLACEMENT_3D('',#2199,#1879,#1880);
#1564=AXIS2_PLACEMENT_3D('',#2200,#1881,#1882);
#1565=AXIS2_PLACEMENT_3D('',#2201,#1883,#1884);
#1566=AXIS2_PLACEMENT_3D('',#2202,#1885,#1886);
#1567=AXIS2_PLACEMENT_3D('',#2203,#1887,#1888);
#1568=AXIS2_PLACEMENT_3D('',#2204,#1889,#1890);
#1569=AXIS2_PLACEMENT_3D('',#2205,#1891,#1892);
#1570=AXIS2_PLACEMENT_3D('',#2207,#1893,#1894);
#1571=DIRECTION('',(0.,0.,1.));
#1572=DIRECTION('',(1.,0.,0.));
#1573=DIRECTION('',(0.,0.,1.));
#1574=DIRECTION('',(1.,0.,0.));
#1575=DIRECTION('',(0.,1.,0.));
#1576=DIRECTION('',(1.,-5.42101086242752E-16,0.));
#1577=DIRECTION('',(5.42101086242752E-16,1.,0.));
#1578=DIRECTION('',(-1.,2.71050543121376E-16,0.));
#1579=DIRECTION('',(0.,1.,0.));
#1580=DIRECTION('',(1.,8.5877399800832E-17,0.));
#1581=DIRECTION('',(1.44560289664734E-16,-1.,0.));
#1582=DIRECTION('',(-1.,-1.35525271560688E-16,0.));
#1583=DIRECTION('',(-5.42101086242752E-16,-1.,0.));
#1584=DIRECTION('',(1.,0.,0.));
#1585=DIRECTION('',(1.44560289664734E-16,-1.,0.));
#1586=DIRECTION('',(0.966234939601246,0.257662650560333,0.));
#1587=DIRECTION('',(1.,2.79794109028518E-16,0.));
#1588=DIRECTION('',(-1.,0.,0.));
#1589=DIRECTION('',(8.5877399800832E-17,-1.,0.));
#1590=DIRECTION('',(1.,8.5877399800832E-17,0.));
#1591=DIRECTION('',(0.,-1.,0.));
#1592=DIRECTION('',(1.,0.,0.));
#1593=DIRECTION('',(1.,0.,4.88334865051429E-16));
#1594=DIRECTION('',(0.,1.,0.));
#1595=DIRECTION('',(1.,0.,0.));
#1596=DIRECTION('',(1.,0.,0.));
#1597=DIRECTION('',(0.,-1.,0.));
#1598=DIRECTION('',(1.,0.,0.));
#1599=DIRECTION('',(0.,0.,1.));
#1600=DIRECTION('',(1.,0.,0.));
#1601=DIRECTION('',(1.,-5.42101086242752E-16,0.));
#1602=DIRECTION('',(0.,1.,0.));
#1603=DIRECTION('',(1.,0.,0.));
#1604=DIRECTION('',(1.,2.79794109028518E-16,0.));
#1605=DIRECTION('',(0.966234939601246,0.257662650560333,0.));
#1606=DIRECTION('',(1.44560289664734E-16,-1.,0.));
#1607=DIRECTION('',(1.,0.,0.));
#1608=DIRECTION('',(5.42101086242752E-16,1.,0.));
#1609=DIRECTION('',(-1.,-1.35525271560688E-16,0.));
#1610=DIRECTION('',(1.44560289664734E-16,-1.,0.));
#1611=DIRECTION('',(1.,8.5877399800832E-17,0.));
#1612=DIRECTION('',(0.,1.,0.));
#1613=DIRECTION('',(-1.,2.71050543121376E-16,0.));
#1614=DIRECTION('',(-5.42101086242752E-16,-1.,0.));
#1615=DIRECTION('',(-1.,0.,0.));
#1616=DIRECTION('',(0.,0.,1.));
#1617=DIRECTION('',(0.,0.,-1.));
#1618=DIRECTION('',(0.,1.,0.));
#1619=DIRECTION('',(0.,0.,-1.));
#1620=DIRECTION('',(0.,0.,-1.));
#1621=DIRECTION('',(0.,1.,0.));
#1622=DIRECTION('',(1.,1.44560289664734E-16,0.));
#1623=DIRECTION('',(-1.44560289664734E-16,1.,0.));
#1624=DIRECTION('',(1.44560289664734E-16,-1.,0.));
#1625=DIRECTION('',(0.,0.,1.));
#1626=DIRECTION('',(1.44560289664734E-16,-1.,0.));
#1627=DIRECTION('',(0.,0.,-1.));
#1628=DIRECTION('',(0.,1.,0.));
#1629=DIRECTION('',(0.,0.,1.));
#1630=DIRECTION('',(0.,1.,0.));
#1631=DIRECTION('',(0.,0.,1.));
#1632=DIRECTION('',(5.42101086242752E-16,1.,0.));
#1633=DIRECTION('',(1.,-5.42101086242752E-16,0.));
#1634=DIRECTION('',(0.,1.,0.));
#1635=DIRECTION('',(0.,0.,1.));
#1636=DIRECTION('',(0.,1.,0.));
#1637=DIRECTION('',(0.,0.,1.));
#1638=DIRECTION('',(0.,1.,0.));
#1639=DIRECTION('',(0.,0.,1.));
#1640=DIRECTION('',(0.,1.,0.));
#1641=DIRECTION('',(0.,0.,1.));
#1642=DIRECTION('',(1.35525271560688E-16,-1.,0.));
#1643=DIRECTION('',(1.,1.35525271560688E-16,0.));
#1644=DIRECTION('',(1.35525271560688E-16,-1.,0.));
#1645=DIRECTION('',(1.,1.35525271560688E-16,0.));
#1646=DIRECTION('',(1.35525271560688E-16,-1.,0.));
#1647=DIRECTION('',(1.,1.35525271560688E-16,0.));
#1648=DIRECTION('',(1.35525271560688E-16,-1.,0.));
#1649=DIRECTION('',(1.,1.35525271560688E-16,0.));
#1650=DIRECTION('',(1.35525271560688E-16,-1.,0.));
#1651=DIRECTION('',(1.,1.35525271560688E-16,0.));
#1652=DIRECTION('',(1.35525271560688E-16,-1.,0.));
#1653=DIRECTION('',(1.,1.35525271560688E-16,0.));
#1654=DIRECTION('',(0.,0.,-1.));
#1655=DIRECTION('',(1.35525271560688E-16,-1.,0.));
#1656=DIRECTION('',(1.,1.35525271560688E-16,0.));
#1657=DIRECTION('',(-2.71050543121376E-16,-1.,0.));
#1658=DIRECTION('',(1.,-2.71050543121376E-16,0.));
#1659=DIRECTION('',(-2.71050543121376E-16,-1.,0.));
#1660=DIRECTION('',(1.,-2.71050543121376E-16,0.));
#1661=DIRECTION('',(-2.71050543121376E-16,-1.,0.));
#1662=DIRECTION('',(1.,-2.71050543121376E-16,0.));
#1663=DIRECTION('',(-2.71050543121376E-16,-1.,0.));
#1664=DIRECTION('',(1.,-2.71050543121376E-16,0.));
#1665=DIRECTION('',(-2.71050543121376E-16,-1.,0.));
#1666=DIRECTION('',(1.,-2.71050543121376E-16,0.));
#1667=DIRECTION('',(0.,0.,-1.));
#1668=DIRECTION('',(-2.71050543121376E-16,-1.,0.));
#1669=DIRECTION('',(1.,-2.71050543121376E-16,0.));
#1670=DIRECTION('',(-2.71050543121376E-16,-1.,0.));
#1671=DIRECTION('',(1.,-2.71050543121376E-16,0.));
#1672=DIRECTION('',(5.42101086242752E-16,1.,0.));
#1673=DIRECTION('',(-1.,5.42101086242752E-16,0.));
#1674=DIRECTION('',(5.42101086242752E-16,1.,0.));
#1675=DIRECTION('',(-1.,5.42101086242752E-16,0.));
#1676=DIRECTION('',(5.42101086242752E-16,1.,0.));
#1677=DIRECTION('',(-1.,5.42101086242752E-16,0.));
#1678=DIRECTION('',(-5.42101086242752E-16,-1.,0.));
#1679=DIRECTION('',(-1.,5.42101086242752E-16,0.));
#1680=DIRECTION('',(5.42101086242752E-16,1.,0.));
#1681=DIRECTION('',(-1.,5.42101086242752E-16,0.));
#1682=DIRECTION('',(5.42101086242752E-16,1.,0.));
#1683=DIRECTION('',(-1.,5.42101086242752E-16,0.));
#1684=DIRECTION('',(5.42101086242752E-16,1.,0.));
#1685=DIRECTION('',(-1.,5.42101086242752E-16,0.));
#1686=DIRECTION('',(-1.,0.,0.));
#1687=DIRECTION('',(0.,0.,1.));
#1688=DIRECTION('',(0.,1.,0.));
#1689=DIRECTION('',(0.,0.,-1.));
#1690=DIRECTION('',(0.,1.,0.));
#1691=DIRECTION('',(-8.5877399800832E-17,1.,0.));
#1692=DIRECTION('',(-1.,-8.5877399800832E-17,0.));
#1693=DIRECTION('',(1.,8.5877399800832E-17,0.));
#1694=DIRECTION('',(0.,0.,-1.));
#1695=DIRECTION('',(1.,8.5877399800832E-17,0.));
#1696=DIRECTION('',(0.,0.,-1.));
#1697=DIRECTION('',(1.,1.44560289664734E-16,0.));
#1698=DIRECTION('',(-1.44560289664734E-16,1.,0.));
#1699=DIRECTION('',(1.44560289664734E-16,-1.,0.));
#1700=DIRECTION('',(0.,0.,-1.));
#1701=DIRECTION('',(1.44560289664734E-16,-1.,0.));
#1702=DIRECTION('',(5.42101086242752E-16,1.,0.));
#1703=DIRECTION('',(-1.,5.42101086242752E-16,0.));
#1704=DIRECTION('',(5.42101086242752E-16,1.,0.));
#1705=DIRECTION('',(-1.,5.42101086242752E-16,0.));
#1706=DIRECTION('',(5.42101086242752E-16,1.,0.));
#1707=DIRECTION('',(-1.,5.42101086242752E-16,0.));
#1708=DIRECTION('',(5.42101086242752E-16,1.,0.));
#1709=DIRECTION('',(5.42101086242752E-16,1.,0.));
#1710=DIRECTION('',(5.42101086242752E-16,1.,0.));
#1711=DIRECTION('',(-1.,5.42101086242752E-16,0.));
#1712=DIRECTION('',(5.42101086242752E-16,1.,0.));
#1713=DIRECTION('',(5.42101086242752E-16,1.,0.));
#1714=DIRECTION('',(5.42101086242752E-16,1.,0.));
#1715=DIRECTION('',(-1.,5.42101086242752E-16,0.));
#1716=DIRECTION('',(5.42101086242752E-16,1.,0.));
#1717=DIRECTION('',(-1.,5.42101086242752E-16,0.));
#1718=DIRECTION('',(5.42101086242752E-16,1.,0.));
#1719=DIRECTION('',(-1.,5.42101086242752E-16,0.));
#1720=DIRECTION('',(5.42101086242752E-16,1.,0.));
#1721=DIRECTION('',(-1.,5.42101086242752E-16,0.));
#1722=DIRECTION('',(-1.44560289664734E-16,1.,0.));
#1723=DIRECTION('',(-1.,-1.44560289664734E-16,0.));
#1724=DIRECTION('',(-1.44560289664734E-16,1.,0.));
#1725=DIRECTION('',(-1.,-1.44560289664734E-16,0.));
#1726=DIRECTION('',(0.,-1.,0.));
#1727=DIRECTION('',(0.,0.,-1.));
#1728=DIRECTION('',(0.,-1.,0.));
#1729=DIRECTION('',(0.,0.,-1.));
#1730=DIRECTION('',(0.,1.,0.));
#1731=DIRECTION('',(0.,0.,1.));
#1732=DIRECTION('',(0.,1.,0.));
#1733=DIRECTION('',(0.,0.,1.));
#1734=DIRECTION('',(1.44560289664734E-16,-1.,0.));
#1735=DIRECTION('',(1.,1.44560289664734E-16,0.));
#1736=DIRECTION('',(1.44560289664734E-16,-1.,0.));
#1737=DIRECTION('',(1.,1.44560289664734E-16,0.));
#1738=DIRECTION('',(0.,0.,-1.));
#1739=DIRECTION('',(-1.,0.,0.));
#1740=DIRECTION('',(0.,0.,1.));
#1741=DIRECTION('',(1.,0.,0.));
#1742=DIRECTION('',(0.,0.,-1.));
#1743=DIRECTION('',(-1.,0.,0.));
#1744=DIRECTION('',(-8.5877399800832E-17,1.,0.));
#1745=DIRECTION('',(-1.,-8.5877399800832E-17,0.));
#1746=DIRECTION('',(1.,0.,0.));
#1747=DIRECTION('',(0.,0.,-1.));
#1748=DIRECTION('',(-8.5877399800832E-17,1.,0.));
#1749=DIRECTION('',(-1.,-8.5877399800832E-17,0.));
#1750=DIRECTION('',(1.,0.,0.));
#1751=DIRECTION('',(0.,0.,-1.));
#1752=DIRECTION('',(-1.,-8.5877399800832E-17,0.));
#1753=DIRECTION('',(8.5877399800832E-17,-1.,0.));
#1754=DIRECTION('',(1.,0.,0.));
#1755=DIRECTION('',(0.,0.,-1.));
#1756=DIRECTION('',(1.,8.5877399800832E-17,0.));
#1757=DIRECTION('',(-8.5877399800832E-17,1.,0.));
#1758=DIRECTION('',(1.,0.,0.));
#1759=DIRECTION('',(0.,0.,-1.));
#1760=DIRECTION('',(-8.5877399800832E-17,1.,0.));
#1761=DIRECTION('',(-1.,-8.5877399800832E-17,0.));
#1762=DIRECTION('',(0.,0.,-1.));
#1763=DIRECTION('',(-1.,0.,0.));
#1764=DIRECTION('',(-8.5877399800832E-17,1.,0.));
#1765=DIRECTION('',(-1.,-8.5877399800832E-17,0.));
#1766=DIRECTION('',(0.,0.,1.));
#1767=DIRECTION('',(1.,0.,0.));
#1768=DIRECTION('',(0.,0.,-1.));
#1769=DIRECTION('',(-1.,0.,0.));
#1770=DIRECTION('',(0.257662650560333,-0.966234939601246,0.));
#1771=DIRECTION('',(0.966234939601246,0.257662650560333,0.));
#1772=DIRECTION('',(0.966234939601246,0.257662650560333,0.));
#1773=DIRECTION('',(0.,0.,1.));
#1774=DIRECTION('',(0.966234939601246,0.257662650560333,0.));
#1775=DIRECTION('',(0.,0.,1.));
#1776=DIRECTION('',(2.79794109028518E-16,-1.,0.));
#1777=DIRECTION('',(1.,2.79794109028518E-16,0.));
#1778=DIRECTION('',(0.,-1.,0.));
#1779=DIRECTION('',(1.,0.,0.));
#1780=DIRECTION('',(1.,2.79794109028518E-16,0.));
#1781=DIRECTION('',(0.,0.,1.));
#1782=DIRECTION('',(1.,2.79794109028518E-16,0.));
#1783=DIRECTION('',(0.,1.,0.));
#1784=DIRECTION('',(1.,0.,0.));
#1785=DIRECTION('',(1.,0.,0.));
#1786=DIRECTION('',(0.,1.,0.));
#1787=DIRECTION('',(1.,0.,0.));
#1788=DIRECTION('',(1.,0.,4.88334865051429E-16));
#1789=DIRECTION('',(-1.56281394232145E-16,1.,0.));
#1790=DIRECTION('',(-1.,-1.56281394232145E-16,0.));
#1791=DIRECTION('',(-1.56281394232145E-16,1.,0.));
#1792=DIRECTION('',(0.,-1.,0.));
#1793=DIRECTION('',(1.,0.,0.));
#1794=DIRECTION('',(0.,-1.,0.));
#1795=DIRECTION('',(-1.,0.,0.));
#1796=DIRECTION('',(-1.56281394232145E-16,1.,0.));
#1797=DIRECTION('',(0.,-1.,0.));
#1798=DIRECTION('',(0.,0.,-1.));
#1799=DIRECTION('',(1.,0.,0.));
#1800=DIRECTION('',(0.,0.,-1.));
#1801=DIRECTION('',(0.,-1.,0.));
#1802=DIRECTION('',(0.,0.,-1.));
#1803=DIRECTION('',(0.,0.,-1.));
#1804=DIRECTION('',(-1.,0.,0.));
#1805=DIRECTION('',(-1.56281394232145E-16,1.,0.));
#1806=DIRECTION('',(-1.,-1.56281394232145E-16,0.));
#1807=DIRECTION('',(-1.56281394232145E-16,1.,0.));
#1808=DIRECTION('',(-1.56281394232145E-16,1.,0.));
#1809=DIRECTION('',(0.,0.,1.));
#1810=DIRECTION('',(1.,0.,0.));
#1811=DIRECTION('',(-4.88334865051429E-16,-7.63176535624035E-32,1.));
#1812=DIRECTION('',(1.,0.,4.88334865051429E-16));
#1813=DIRECTION('',(1.44560289664734E-16,-1.,0.));
#1814=DIRECTION('',(1.,1.44560289664734E-16,0.));
#1815=DIRECTION('',(1.44560289664734E-16,-1.,0.));
#1816=DIRECTION('',(1.,1.44560289664734E-16,0.));
#1817=DIRECTION('',(-1.44560289664734E-16,1.,0.));
#1818=DIRECTION('',(-1.,-1.44560289664734E-16,0.));
#1819=DIRECTION('',(-1.44560289664734E-16,1.,0.));
#1820=DIRECTION('',(-1.,-1.44560289664734E-16,0.));
#1821=DIRECTION('',(-0.966234939601246,-0.257662650560333,0.));
#1822=DIRECTION('',(0.257662650560333,-0.966234939601246,0.));
#1823=DIRECTION('',(-0.966234939601246,-0.257662650560333,0.));
#1824=DIRECTION('',(0.257662650560333,-0.966234939601246,0.));
#1825=DIRECTION('',(-0.966234939601246,-0.257662650560333,0.));
#1826=DIRECTION('',(0.257662650560333,-0.966234939601246,0.));
#1827=DIRECTION('',(0.257662650560333,-0.966234939601246,0.));
#1828=DIRECTION('',(0.966234939601246,0.257662650560333,0.));
#1829=DIRECTION('',(0.,0.,-1.));
#1830=DIRECTION('',(-1.,0.,0.));
#1831=DIRECTION('',(0.,0.,1.));
#1832=DIRECTION('',(1.,0.,0.));
#1833=DIRECTION('',(0.,0.,-1.));
#1834=DIRECTION('',(-1.,0.,0.));
#1835=DIRECTION('',(0.257662650560333,-0.966234939601246,0.));
#1836=DIRECTION('',(0.966234939601246,0.257662650560333,0.));
#1837=DIRECTION('',(0.966234939601246,0.257662650560333,0.));
#1838=DIRECTION('',(-0.257662650560333,0.966234939601246,0.));
#1839=DIRECTION('',(0.966234939601246,0.257662650560333,0.));
#1840=DIRECTION('',(-0.257662650560333,0.966234939601246,0.));
#1841=DIRECTION('',(0.966234939601246,0.257662650560333,0.));
#1842=DIRECTION('',(-0.257662650560333,0.966234939601246,0.));
#1843=DIRECTION('',(-1.,-2.79794109028518E-16,0.));
#1844=DIRECTION('',(2.79794109028518E-16,-1.,0.));
#1845=DIRECTION('',(-1.,0.,0.));
#1846=DIRECTION('',(0.,0.,1.));
#1847=DIRECTION('',(2.79794109028518E-16,-1.,0.));
#1848=DIRECTION('',(1.,2.79794109028518E-16,0.));
#1849=DIRECTION('',(0.,0.,-1.));
#1850=DIRECTION('',(-1.,0.,0.));
#1851=DIRECTION('',(0.,0.,1.));
#1852=DIRECTION('',(1.,0.,0.));
#1853=DIRECTION('',(8.13151629364125E-16,2.16840434497101E-16,-1.));
#1854=DIRECTION('',(-1.,0.,-8.13151629364125E-16));
#1855=DIRECTION('',(2.79794109028518E-16,-1.,0.));
#1856=DIRECTION('',(1.,2.79794109028518E-16,0.));
#1857=DIRECTION('',(1.,-8.67361737988403E-16,8.67361737988402E-16));
#1858=DIRECTION('',(8.67361737988403E-16,1.,0.));
#1859=DIRECTION('',(1.,2.79794109028518E-16,0.));
#1860=DIRECTION('',(-2.79794109028518E-16,1.,0.));
#1861=DIRECTION('',(0.,0.,-1.));
#1862=DIRECTION('',(-1.,0.,0.));
#1863=DIRECTION('',(0.,0.,-1.));
#1864=DIRECTION('',(-1.,0.,0.));
#1865=DIRECTION('',(0.,0.,-1.));
#1866=DIRECTION('',(-1.,0.,0.));
#1867=DIRECTION('',(0.,0.,-1.));
#1868=DIRECTION('',(-1.,0.,0.));
#1869=DIRECTION('',(-1.,0.,0.));
#1870=DIRECTION('',(0.,0.,1.));
#1871=DIRECTION('',(1.,0.,0.));
#1872=DIRECTION('',(0.,0.,-1.));
#1873=DIRECTION('',(0.,0.,1.));
#1874=DIRECTION('',(1.,0.,0.));
#1875=DIRECTION('',(0.,-1.,0.));
#1876=DIRECTION('',(0.,0.,-1.));
#1877=DIRECTION('',(0.,-1.,0.));
#1878=DIRECTION('',(0.,0.,-1.));
#1879=DIRECTION('',(-1.,0.,0.));
#1880=DIRECTION('',(0.,0.,1.));
#1881=DIRECTION('',(1.,0.,0.));
#1882=DIRECTION('',(0.,0.,-1.));
#1883=DIRECTION('',(0.,0.,1.));
#1884=DIRECTION('',(1.,0.,0.));
#1885=DIRECTION('',(0.,-1.,0.));
#1886=DIRECTION('',(0.,0.,-1.));
#1887=DIRECTION('',(0.,1.,0.));
#1888=DIRECTION('',(0.,0.,1.));
#1889=DIRECTION('',(1.56281394232145E-16,-1.,0.));
#1890=DIRECTION('',(1.,1.56281394232145E-16,0.));
#1891=DIRECTION('',(0.,-1.,0.));
#1892=DIRECTION('',(1.,0.,0.));
#1893=DIRECTION('',(0.,-1.,0.));
#1894=DIRECTION('',(0.,0.,-1.));
#1895=CARTESIAN_POINT('',(0.,0.,0.));
#1896=CARTESIAN_POINT('',(0.,0.,0.));
#1897=CARTESIAN_POINT('',(9.1,0.,0.));
#1898=CARTESIAN_POINT('',(9.1,5.8,0.));
#1899=CARTESIAN_POINT('',(9.1,4.2,0.));
#1900=CARTESIAN_POINT('',(13.3,4.2,0.));
#1901=CARTESIAN_POINT('',(11.2235828204229,4.2,0.));
#1902=CARTESIAN_POINT('',(11.2235828204229,-6.08431643848675E-15,0.));
#1903=CARTESIAN_POINT('',(11.2235828204229,3.2,0.));
#1904=CARTESIAN_POINT('',(10.1,3.2,0.));
#1905=CARTESIAN_POINT('',(9.1,3.2,0.));
#1906=CARTESIAN_POINT('',(9.1,0.,0.));
#1907=CARTESIAN_POINT('',(9.1,-7.8,0.));
#1908=CARTESIAN_POINT('',(6.6984371844649E-16,-7.8,0.));
#1909=CARTESIAN_POINT('',(-9.1,-7.8,0.));
#1910=CARTESIAN_POINT('',(-9.1,-1.31549863594908E-15,0.));
#1911=CARTESIAN_POINT('',(-9.1,3.2,0.));
#1912=CARTESIAN_POINT('',(-10.1,3.2,0.));
#1913=CARTESIAN_POINT('',(-11.2235828204229,3.2,0.));
#1914=CARTESIAN_POINT('',(-11.2235828204229,4.20000000000002,0.));
#1915=CARTESIAN_POINT('',(-11.2235828204229,4.2,0.));
#1916=CARTESIAN_POINT('',(-13.3,4.2,0.));
#1917=CARTESIAN_POINT('',(-9.1,4.2,0.));
#1918=CARTESIAN_POINT('',(-9.1,-1.31549863594908E-15,0.));
#1919=CARTESIAN_POINT('',(-9.1,4.431721686916,0.));
#1920=CARTESIAN_POINT('',(-1.70748257765544,6.40305966620788,0.));
#1921=CARTESIAN_POINT('',(-3.96895632593499,5.8,0.));
#1922=CARTESIAN_POINT('',(-1.6228058323654E-15,5.8,0.));
#1923=CARTESIAN_POINT('',(5.85,5.80000000000001,0.));
#1924=CARTESIAN_POINT('',(0.,5.8,0.));
#1925=CARTESIAN_POINT('',(10.1,8.8,8.5));
#1926=CARTESIAN_POINT('',(5.85,8.8,4.25));
#1927=CARTESIAN_POINT('',(7.85,8.8,4.25));
#1928=CARTESIAN_POINT('',(1.6,8.8,1.65));
#1929=CARTESIAN_POINT('',(1.6,8.8,1.65));
#1930=CARTESIAN_POINT('',(2.48808090519715,8.8,1.65));
#1931=CARTESIAN_POINT('',(1.6,8.8,4.25));
#1932=CARTESIAN_POINT('',(1.6,8.8,6.85));
#1933=CARTESIAN_POINT('',(1.6,8.8,6.85));
#1934=CARTESIAN_POINT('',(2.48808090519715,8.8,6.85));
#1935=CARTESIAN_POINT('',(5.85,8.8,4.25));
#1936=CARTESIAN_POINT('',(0.,0.,8.5));
#1937=CARTESIAN_POINT('',(13.3,4.2,8.5));
#1938=CARTESIAN_POINT('',(9.1,4.2,8.5));
#1939=CARTESIAN_POINT('',(11.2235828204229,4.2,8.5));
#1940=CARTESIAN_POINT('',(9.1,5.8,8.5));
#1941=CARTESIAN_POINT('',(9.1,5.8,8.5));
#1942=CARTESIAN_POINT('',(5.85,5.8,8.5));
#1943=CARTESIAN_POINT('',(5.85,5.80000000000001,8.5));
#1944=CARTESIAN_POINT('',(-0.218956325934994,5.8,8.5));
#1945=CARTESIAN_POINT('',(-3.96895632593499,5.8,8.5));
#1946=CARTESIAN_POINT('',(-8.84233734943967,4.50043172706542,8.5));
#1947=CARTESIAN_POINT('',(-9.1,4.431721686916,8.5));
#1948=CARTESIAN_POINT('',(-9.1,4.2,8.5));
#1949=CARTESIAN_POINT('',(-9.1,4.2,8.5));
#1950=CARTESIAN_POINT('',(-13.3,4.2,8.5));
#1951=CARTESIAN_POINT('',(-11.2235828204228,4.2,8.5));
#1952=CARTESIAN_POINT('',(-11.2235828204229,6.08431643848672E-15,8.5));
#1953=CARTESIAN_POINT('',(-11.2235828204228,3.2,8.5));
#1954=CARTESIAN_POINT('',(-10.1,3.2,8.5));
#1955=CARTESIAN_POINT('',(-9.1,3.2,8.5));
#1956=CARTESIAN_POINT('',(-9.1,-8.8,8.5));
#1957=CARTESIAN_POINT('',(-9.1,-7.8,8.5));
#1958=CARTESIAN_POINT('',(9.1,-7.8,8.5));
#1959=CARTESIAN_POINT('',(9.1,-7.8,8.5));
#1960=CARTESIAN_POINT('',(9.1,3.2,8.5));
#1961=CARTESIAN_POINT('',(9.1,3.2,8.5));
#1962=CARTESIAN_POINT('',(10.1,3.2,8.5));
#1963=CARTESIAN_POINT('',(11.2235828204229,3.2,8.5));
#1964=CARTESIAN_POINT('',(11.2235828204229,4.2,8.5));
#1965=CARTESIAN_POINT('',(10.1,4.2,8.5));
#1966=CARTESIAN_POINT('',(10.1,4.2,8.5));
#1967=CARTESIAN_POINT('',(10.1,4.2,7.5));
#1968=CARTESIAN_POINT('',(10.1,4.2,1.));
#1969=CARTESIAN_POINT('',(10.1,4.2,1.));
#1970=CARTESIAN_POINT('',(10.1,5.8,1.));
#1971=CARTESIAN_POINT('',(10.1,5.8,8.5));
#1972=CARTESIAN_POINT('',(10.1,5.8,4.25));
#1973=CARTESIAN_POINT('',(10.1,5.8,8.5));
#1974=CARTESIAN_POINT('',(10.1,5.8,7.5));
#1975=CARTESIAN_POINT('',(10.1,4.2,7.5));
#1976=CARTESIAN_POINT('',(-10.1,3.2,8.5));
#1977=CARTESIAN_POINT('',(-10.1,5.2,7.5));
#1978=CARTESIAN_POINT('',(-10.1,4.2,7.5));
#1979=CARTESIAN_POINT('',(-10.1,4.43172168691599,7.5));
#1980=CARTESIAN_POINT('',(-10.1,4.431721686916,8.5));
#1981=CARTESIAN_POINT('',(-10.1,4.431721686916,1.));
#1982=CARTESIAN_POINT('',(-10.1,3.2,1.));
#1983=CARTESIAN_POINT('',(-10.1,4.2,1.));
#1984=CARTESIAN_POINT('',(-10.1,4.2,8.5));
#1985=CARTESIAN_POINT('',(-13.3,4.2,8.5));
#1986=CARTESIAN_POINT('',(-11.7,4.2,4.25));
#1987=CARTESIAN_POINT('',(-11.7,4.2,5.0335));
#1988=CARTESIAN_POINT('',(-6.85546875000006,4.20000000000001,4.24999999999996));
#1989=CARTESIAN_POINT('',(-12.0258766947437,4.20000000000002,0.403070741856795));
#1990=CARTESIAN_POINT('',(-12.0258766947436,4.20000000000002,8.09692925814322));
#1991=CARTESIAN_POINT('',(-11.2235828204228,4.2,7.5));
#1992=CARTESIAN_POINT('',(-9.1,4.2,7.5));
#1993=CARTESIAN_POINT('',(-9.1,4.2,1.));
#1994=CARTESIAN_POINT('',(-11.2235828204229,4.2,1.));
#1995=CARTESIAN_POINT('',(-10.1,3.2,8.5));
#1996=CARTESIAN_POINT('',(-11.7,3.2,4.25));
#1997=CARTESIAN_POINT('',(-10.9165,3.2,4.25));
#1998=CARTESIAN_POINT('',(-11.2235828204228,3.2,7.5));
#1999=CARTESIAN_POINT('',(-12.0258766947436,3.2,8.09692925814322));
#2000=CARTESIAN_POINT('',(-6.85546875000006,3.2,4.24999999999996));
#2001=CARTESIAN_POINT('',(-12.0258766947437,3.2,0.403070741856795));
#2002=CARTESIAN_POINT('',(-11.2235828204229,3.2,1.));
#2003=CARTESIAN_POINT('',(-9.1,3.2,1.));
#2004=CARTESIAN_POINT('',(-10.1,3.2,1.));
#2005=CARTESIAN_POINT('',(-10.1,3.2,8.5));
#2006=CARTESIAN_POINT('',(-10.1,3.2,7.5));
#2007=CARTESIAN_POINT('',(-9.1,3.2,7.5));
#2008=CARTESIAN_POINT('',(10.1,3.2,8.5));
#2009=CARTESIAN_POINT('',(11.7,3.2,4.25));
#2010=CARTESIAN_POINT('',(12.4835,3.2,4.25));
#2011=CARTESIAN_POINT('',(6.85546875,3.2,4.25));
#2012=CARTESIAN_POINT('',(12.0258766947437,3.2,8.0969292581432));
#2013=CARTESIAN_POINT('',(12.0258766947437,3.2,0.403070741856795));
#2014=CARTESIAN_POINT('',(11.2235828204229,3.2,7.5));
#2015=CARTESIAN_POINT('',(9.1,3.2,7.5));
#2016=CARTESIAN_POINT('',(10.1,3.2,7.5));
#2017=CARTESIAN_POINT('',(10.1,3.2,8.5));
#2018=CARTESIAN_POINT('',(10.1,3.2,1.));
#2019=CARTESIAN_POINT('',(9.1,3.2,1.));
#2020=CARTESIAN_POINT('',(11.2235828204229,3.2,1.));
#2021=CARTESIAN_POINT('',(13.3,4.2,8.5));
#2022=CARTESIAN_POINT('',(11.7,4.2,4.25));
#2023=CARTESIAN_POINT('',(10.9165,4.2,4.25));
#2024=CARTESIAN_POINT('',(11.2235828204229,4.2,7.5));
#2025=CARTESIAN_POINT('',(12.0258766947437,4.2,8.0969292581432));
#2026=CARTESIAN_POINT('',(6.85546875,4.2,4.25));
#2027=CARTESIAN_POINT('',(12.0258766947437,4.2,0.403070741856795));
#2028=CARTESIAN_POINT('',(11.2235828204229,4.2,1.));
#2029=CARTESIAN_POINT('',(9.1,4.2,1.));
#2030=CARTESIAN_POINT('',(9.1,4.2,7.5));
#2031=CARTESIAN_POINT('',(10.1,4.2,8.5));
#2032=CARTESIAN_POINT('',(10.1,-8.8,7.5));
#2033=CARTESIAN_POINT('',(10.1,-7.8,7.5));
#2034=CARTESIAN_POINT('',(10.1,-7.8,8.5));
#2035=CARTESIAN_POINT('',(10.1,-7.8,1.));
#2036=CARTESIAN_POINT('',(10.1,4.2,1.));
#2037=CARTESIAN_POINT('',(-10.1,-8.8,8.5));
#2038=CARTESIAN_POINT('',(-10.1,-8.8,1.));
#2039=CARTESIAN_POINT('',(-9.1,-8.8,1.));
#2040=CARTESIAN_POINT('',(9.1,-8.8,1.));
#2041=CARTESIAN_POINT('',(9.1,-8.8,8.5));
#2042=CARTESIAN_POINT('',(9.1,-8.8,7.5));
#2043=CARTESIAN_POINT('',(-9.1,-8.8,7.5));
#2044=CARTESIAN_POINT('',(-9.1,-8.8,7.5));
#2045=CARTESIAN_POINT('',(-9.1,-8.8,8.5));
#2046=CARTESIAN_POINT('',(-10.1,3.2,8.5));
#2047=CARTESIAN_POINT('',(-10.1,3.2,1.));
#2048=CARTESIAN_POINT('',(-10.1,-7.8,1.));
#2049=CARTESIAN_POINT('',(-10.1,-7.8,8.5));
#2050=CARTESIAN_POINT('',(-10.1,-7.8,7.5));
#2051=CARTESIAN_POINT('',(-10.1,3.2,7.5));
#2052=CARTESIAN_POINT('',(11.7,-3.23716109690086,4.25));
#2053=CARTESIAN_POINT('',(-11.7,-4.46789279022823,4.25));
#2054=CARTESIAN_POINT('',(6.85546874999999,-5.40213956546619,4.25));
#2055=CARTESIAN_POINT('',(12.0258766947437,-5.40213956546619,8.0969292581432));
#2056=CARTESIAN_POINT('',(12.0258766947437,-5.40213956546619,0.403070741856795));
#2057=CARTESIAN_POINT('',(-6.85546875000006,-5.65024894451778,4.24999999999996));
#2058=CARTESIAN_POINT('',(-12.0258766947436,-5.65024894451777,8.09692925814322));
#2059=CARTESIAN_POINT('',(-12.0258766947437,-5.65024894451777,0.403070741856795));
#2060=CARTESIAN_POINT('',(-11.2235828204229,-5.65024894451777,1.));
#2061=CARTESIAN_POINT('',(11.2235828204229,-5.40213956546619,1.));
#2062=CARTESIAN_POINT('',(-11.2235828204229,-5.65024894451777,7.5));
#2063=CARTESIAN_POINT('',(11.2235828204229,-5.40213956546619,7.5));
#2064=CARTESIAN_POINT('',(-9.1,-1.31549863594908E-15,7.5));
#2065=CARTESIAN_POINT('',(-9.1,-7.8,7.5));
#2066=CARTESIAN_POINT('',(9.1,0.,7.5));
#2067=CARTESIAN_POINT('',(9.1,-7.8,7.5));
#2068=CARTESIAN_POINT('',(9.1,4.2,1.));
#2069=CARTESIAN_POINT('',(9.1,-7.8,1.));
#2070=CARTESIAN_POINT('',(-9.1,3.2,1.));
#2071=CARTESIAN_POINT('',(-9.1,-7.8,1.));
#2072=CARTESIAN_POINT('',(-9.1,-7.8,8.5));
#2073=CARTESIAN_POINT('',(-9.1,-7.8,7.5));
#2074=CARTESIAN_POINT('',(-9.1,-7.8,1.));
#2075=CARTESIAN_POINT('',(-9.1,-7.8,7.5));
#2076=CARTESIAN_POINT('',(-9.1,-7.8,7.5));
#2077=CARTESIAN_POINT('',(-9.1,-7.8,1.));
#2078=CARTESIAN_POINT('',(-9.1,-7.8,1.));
#2079=CARTESIAN_POINT('',(6.6984371844649E-16,-7.8,7.5));
#2080=CARTESIAN_POINT('',(9.1,-7.8,7.5));
#2081=CARTESIAN_POINT('',(-10.1,-7.8,1.));
#2082=CARTESIAN_POINT('',(9.1,-7.8,1.));
#2083=CARTESIAN_POINT('',(9.1,-7.8,7.5));
#2084=CARTESIAN_POINT('',(9.1,-7.8,7.5));
#2085=CARTESIAN_POINT('',(9.1,-7.8,1.));
#2086=CARTESIAN_POINT('',(9.1,-7.8,1.));
#2087=CARTESIAN_POINT('',(9.1,-7.8,8.5));
#2088=CARTESIAN_POINT('',(-4.1,6.8,-3.31638281707059));
#2089=CARTESIAN_POINT('',(-4.1,6.8,7.5));
#2090=CARTESIAN_POINT('',(-9.35766265056033,5.39795662651724,7.5));
#2091=CARTESIAN_POINT('',(-4.22661897649532,6.76623493960125,7.5));
#2092=CARTESIAN_POINT('',(-4.22661897649532,6.76623493960125,-3.31638281707059));
#2093=CARTESIAN_POINT('',(-4.22661897649532,6.76623493960125,1.));
#2094=CARTESIAN_POINT('',(-4.1,6.8,1.));
#2095=CARTESIAN_POINT('',(-9.35766265056033,5.39795662651724,1.));
#2096=CARTESIAN_POINT('',(-9.35766265056033,5.39795662651724,-3.31638281707059));
#2097=CARTESIAN_POINT('',(-1.,6.8,-3.31638281707059));
#2098=CARTESIAN_POINT('',(5.85,6.8,4.25));
#2099=CARTESIAN_POINT('',(2.48808090519715,6.8,1.65));
#2100=CARTESIAN_POINT('',(3.11138721247417,6.8,1.));
#2101=CARTESIAN_POINT('',(-1.,6.8,1.));
#2102=CARTESIAN_POINT('',(-3.96895632593499,6.8,1.));
#2103=CARTESIAN_POINT('',(-3.96895632593499,6.8,-3.31638281707059));
#2104=CARTESIAN_POINT('',(-3.96895632593499,6.8,7.5));
#2105=CARTESIAN_POINT('',(5.85,6.80000000000001,7.5));
#2106=CARTESIAN_POINT('',(3.11138721247417,6.8,7.5));
#2107=CARTESIAN_POINT('',(5.85,6.8,4.25));
#2108=CARTESIAN_POINT('',(2.48808090519715,6.8,6.85));
#2109=CARTESIAN_POINT('',(1.6,6.8,6.85));
#2110=CARTESIAN_POINT('',(1.6,6.8,6.85));
#2111=CARTESIAN_POINT('',(1.6,6.8,4.25));
#2112=CARTESIAN_POINT('',(1.6,6.8,1.65));
#2113=CARTESIAN_POINT('',(1.6,6.8,1.65));
#2114=CARTESIAN_POINT('',(5.85,6.8,4.25));
#2115=CARTESIAN_POINT('',(2.48808090519715,6.8,6.85));
#2116=CARTESIAN_POINT('',(3.11138721247417,6.80000000000001,7.5));
#2117=CARTESIAN_POINT('',(3.51951219416608,6.80000000000001,7.8439065519293));
#2118=CARTESIAN_POINT('',(4.4237980711979,6.49002683522857,8.34373549349793));
#2119=CARTESIAN_POINT('',(5.37648518896638,6.029687737518,8.5));
#2120=CARTESIAN_POINT('',(5.85,5.80000000000001,8.5));
#2121=CARTESIAN_POINT('',(8.58861278752583,6.8,7.5));
#2122=CARTESIAN_POINT('',(8.18048780583392,6.8,7.8439065519293));
#2123=CARTESIAN_POINT('',(7.27620192880207,6.49002683522863,8.34373549349793));
#2124=CARTESIAN_POINT('',(6.32351481103368,6.02968773751787,8.5));
#2125=CARTESIAN_POINT('',(5.85,5.8,8.5));
#2126=CARTESIAN_POINT('',(8.58861278752583,6.8,7.5));
#2127=CARTESIAN_POINT('',(5.85,6.8,4.25));
#2128=CARTESIAN_POINT('',(9.1,6.8,6.98861278752583));
#2129=CARTESIAN_POINT('',(9.1,6.8,6.98861278752583));
#2130=CARTESIAN_POINT('',(9.4439065519293,6.8,6.58048780583392));
#2131=CARTESIAN_POINT('',(9.94373549349793,6.49002683522869,5.67620192880204));
#2132=CARTESIAN_POINT('',(10.1,6.02968773751776,4.72351481103373));
#2133=CARTESIAN_POINT('',(10.1,5.8,4.25));
#2134=CARTESIAN_POINT('',(9.1,6.8,1.51138721247417));
#2135=CARTESIAN_POINT('',(9.4439065519293,6.8,1.91951219416608));
#2136=CARTESIAN_POINT('',(9.94373549349793,6.49002683522869,2.82379807119795));
#2137=CARTESIAN_POINT('',(10.1,6.02968773751776,3.77648518896627));
#2138=CARTESIAN_POINT('',(10.1,5.8,4.25));
#2139=CARTESIAN_POINT('',(9.1,6.8,1.51138721247417));
#2140=CARTESIAN_POINT('',(5.85,6.8,4.25));
#2141=CARTESIAN_POINT('',(8.58861278752583,6.8,1.));
#2142=CARTESIAN_POINT('',(8.58861278752583,6.8,1.));
#2143=CARTESIAN_POINT('',(8.18048780583392,6.8,0.656093448070703));
#2144=CARTESIAN_POINT('',(7.27620192880269,6.49002683522736,0.156264506502068));
#2145=CARTESIAN_POINT('',(6.32351481103245,6.02968773752041,-1.25832347803308E-16));
#2146=CARTESIAN_POINT('',(5.85,5.8,-1.0842021724855E-16));
#2147=CARTESIAN_POINT('',(3.11138721247417,6.80000000000001,1.));
#2148=CARTESIAN_POINT('',(3.51951219416608,6.80000000000001,0.656093448070703));
#2149=CARTESIAN_POINT('',(4.42379807119867,6.49002683523016,0.156264506502067));
#2150=CARTESIAN_POINT('',(5.37648518896485,6.02968773751483,2.24928465554575E-17));
#2151=CARTESIAN_POINT('',(5.85,5.80000000000001,-9.14852862560653E-32));
#2152=CARTESIAN_POINT('',(2.48808090519715,6.8,1.65));
#2153=CARTESIAN_POINT('',(5.85,6.8,4.25));
#2154=CARTESIAN_POINT('',(9.1,6.8,7.5));
#2155=CARTESIAN_POINT('',(9.1,6.8,7.5));
#2156=CARTESIAN_POINT('',(9.1,6.8,4.25));
#2157=CARTESIAN_POINT('',(5.85,6.8,4.25));
#2158=CARTESIAN_POINT('',(9.1,6.8,4.25));
#2159=CARTESIAN_POINT('',(9.1,6.8,1.));
#2160=CARTESIAN_POINT('',(5.85,6.8,1.));
#2161=CARTESIAN_POINT('',(1.6,6.8,4.25));
#2162=CARTESIAN_POINT('',(1.6,6.8,1.65));
#2163=CARTESIAN_POINT('',(1.6,6.8,6.85));
#2164=CARTESIAN_POINT('',(1.6,6.8,6.85));
#2165=CARTESIAN_POINT('',(1.6,6.8,1.65));
#2166=CARTESIAN_POINT('',(-9.1,3.2,1.));
#2167=CARTESIAN_POINT('',(-9.1,4.431721686916,1.));
#2168=CARTESIAN_POINT('',(-9.1,-1.31549863594908E-15,7.5));
#2169=CARTESIAN_POINT('',(-9.1,4.43172168691599,7.5));
#2170=CARTESIAN_POINT('',(-3.84233734943966,5.83376506039876,7.5));
#2171=CARTESIAN_POINT('',(-3.96895632593499,5.8,7.5));
#2172=CARTESIAN_POINT('',(-9.1,4.431721686916,7.5));
#2173=CARTESIAN_POINT('',(-9.1,4.43172168691599,7.5));
#2174=CARTESIAN_POINT('',(-9.1,4.43172168691599,7.5));
#2175=CARTESIAN_POINT('',(-9.1,4.431721686916,-3.31638281707059));
#2176=CARTESIAN_POINT('',(-9.1,4.431721686916,1.));
#2177=CARTESIAN_POINT('',(-9.1,4.431721686916,1.));
#2178=CARTESIAN_POINT('',(-9.1,4.431721686916,1.));
#2179=CARTESIAN_POINT('',(-1.70748257765544,6.40305966620788,1.));
#2180=CARTESIAN_POINT('',(-3.96895632593499,5.8,1.));
#2181=CARTESIAN_POINT('',(-1.,5.8,7.5));
#2182=CARTESIAN_POINT('',(-3.96895632593499,5.8,7.5));
#2183=CARTESIAN_POINT('',(-3.96895632593499,5.8,7.5));
#2184=CARTESIAN_POINT('',(-3.96895632593499,5.8,7.5));
#2185=CARTESIAN_POINT('',(-3.96895632593499,5.8,-3.31638281707059));
#2186=CARTESIAN_POINT('',(-3.96895632593499,5.8,1.));
#2187=CARTESIAN_POINT('',(-3.96895632593499,5.8,1.));
#2188=CARTESIAN_POINT('',(-3.96895632593499,5.8,1.));
#2189=CARTESIAN_POINT('',(-1.6228058323654E-15,5.8,1.));
#2190=CARTESIAN_POINT('',(9.1,5.8,4.25));
#2191=CARTESIAN_POINT('',(9.1,5.8,7.5));
#2192=CARTESIAN_POINT('',(9.1,5.8,4.25));
#2193=CARTESIAN_POINT('',(9.1,5.8,1.));
#2194=CARTESIAN_POINT('',(5.85,5.8,7.5));
#2195=CARTESIAN_POINT('',(9.1,5.8,7.5));
#2196=CARTESIAN_POINT('',(9.1,5.8,7.5));
#2197=CARTESIAN_POINT('',(9.1,5.8,7.5));
#2198=CARTESIAN_POINT('',(9.1,0.,7.5));
#2199=CARTESIAN_POINT('',(5.85,5.8,1.));
#2200=CARTESIAN_POINT('',(9.1,5.8,1.));
#2201=CARTESIAN_POINT('',(9.1,5.8,1.));
#2202=CARTESIAN_POINT('',(9.1,5.8,1.));
#2203=CARTESIAN_POINT('',(9.1,4.2,1.));
#2204=CARTESIAN_POINT('',(5.85,11.3,4.25));
#2205=CARTESIAN_POINT('',(5.85,11.3,4.25));
#2206=CARTESIAN_POINT('',(7.85,11.3,4.25));
#2207=CARTESIAN_POINT('',(5.85,11.3,4.25));
#2208=MECHANICAL_DESIGN_GEOMETRIC_PRESENTATION_REPRESENTATION('',(#943,
#944,#945,#946,#947,#948,#949,#950,#951,#952,#953,#954,#955,#956,#957,#958,
#959,#960,#961,#962,#963,#964,#965,#966,#967,#968,#969,#970,#971,#972,#973,
#974,#975,#976,#977,#978,#979,#980,#981,#982,#983,#984,#985,#986,#987,#988,
#989,#990,#991,#992,#993,#994,#995,#996,#997,#998,#999,#1000,#1001,#1002,
#1003,#1004),#2209);
#2209=(
GEOMETRIC_REPRESENTATION_CONTEXT(3)
GLOBAL_UNCERTAINTY_ASSIGNED_CONTEXT((#2210))
GLOBAL_UNIT_ASSIGNED_CONTEXT((#2213,#2212,#2211))
REPRESENTATION_CONTEXT('HD1370A','TOP_LEVEL_ASSEMBLY_PART')
);
#2210=UNCERTAINTY_MEASURE_WITH_UNIT(LENGTH_MEASURE(0.005),#2213,
'DISTANCE_ACCURACY_VALUE','Maximum Tolerance applied to model');
#2211=(
NAMED_UNIT(*)
SI_UNIT($,.STERADIAN.)
SOLID_ANGLE_UNIT()
);
#2212=(
NAMED_UNIT(*)
PLANE_ANGLE_UNIT()
SI_UNIT($,.RADIAN.)
);
#2213=(
LENGTH_UNIT()
NAMED_UNIT(*)
SI_UNIT(.MILLI.,.METRE.)
);
#2214=PRODUCT_DEFINITION_SHAPE('','',#2215);
#2215=PRODUCT_DEFINITION('','',#2217,#2216);
#2216=PRODUCT_DEFINITION_CONTEXT('',#2223,'design');
#2217=PRODUCT_DEFINITION_FORMATION_WITH_SPECIFIED_SOURCE('','',#2219,
 .NOT_KNOWN.);
#2218=PRODUCT_RELATED_PRODUCT_CATEGORY('','',(#2219));
#2219=PRODUCT('HD1370A','HD1370A','HD1370A',(#2221));
#2220=PRODUCT_CATEGORY('','');
#2221=PRODUCT_CONTEXT('',#2223,'mechanical');
#2222=APPLICATION_PROTOCOL_DEFINITION('international standard',
'automotive_design',2010,#2223);
#2223=APPLICATION_CONTEXT(
'core data for automotive mechanical design processes');
ENDSEC;
END-ISO-10303-21;
