ISO-10303-21;
HEADER;
/* Generated by software containing ST-Developer
 * from STEP Tools, Inc. (www.steptools.com) 
 */
/* OPTION: strings as raw bytes, not using required /X/ escapes */

FILE_DESCRIPTION(
/* description */ ('Unknown'),
/* implementation_level */ '2;1');

FILE_NAME(
/* name */ 'Supporto1',
/* time_stamp */ '2024-01-05T19:16:49+01:00',
/* author */ ('Unknown'),
/* organization */ ('Unknown'),
/* preprocessor_version */ 'ST-DEVELOPER v18.102',
/* originating_system */ 'Solid Edge',
/* authorisation */ 'Unknown');

FILE_SCHEMA (('AUTOMOTIVE_DESIGN {1 0 10303 214 3 1 1}'));
ENDSEC;

DATA;
#10=PROPERTY_DEFINITION_REPRESENTATION(#14,#12);
#11=PROPERTY_DEFINITION_REPRESENTATION(#15,#13);
#12=REPRESENTATION('',(#16),#1887);
#13=REPRESENTATION('',(#17),#1887);
#14=PROPERTY_DEFINITION('pmi validation property','',#1892);
#15=PROPERTY_DEFINITION('pmi validation property','',#1892);
#16=VALUE_REPRESENTATION_ITEM('number of annotations',COUNT_MEASURE(0.));
#17=VALUE_REPRESENTATION_ITEM('number of views',COUNT_MEASURE(0.));
#18=SHAPE_REPRESENTATION_RELATIONSHIP('','',#1140,#19);
#19=ADVANCED_BREP_SHAPE_REPRESENTATION('',(#1138),#1887);
#20=ELLIPSE('',#1160,999.574791339986,0.785);
#21=ELLIPSE('',#1188,999.574791339986,0.785);
#22=ELLIPSE('',#1192,0.785000060502716,0.785);
#23=ELLIPSE('',#1197,0.785000030154581,0.785);
#24=ELLIPSE('',#1199,0.785000030154581,0.785);
#25=ELLIPSE('',#1211,1.00000069384324,1.);
#26=ELLIPSE('',#1226,0.785000544666947,0.785000000000001);
#27=ELLIPSE('',#1229,0.785000968234019,0.785000000000001);
#28=B_SPLINE_CURVE_WITH_KNOTS('',3,(#1619,#1620,#1621,#1622),
 .UNSPECIFIED.,.F.,.F.,(4,4),(0.00123042502792341,0.00123277648611617),
 .UNSPECIFIED.);
#29=B_SPLINE_CURVE_WITH_KNOTS('',3,(#1633,#1634,#1635,#1636),
 .UNSPECIFIED.,.F.,.F.,(4,4),(0.00369743708456749,0.00369977434309431),
 .UNSPECIFIED.);
#30=CYLINDRICAL_SURFACE('',#1152,3.);
#31=CYLINDRICAL_SURFACE('',#1154,3.);
#32=CYLINDRICAL_SURFACE('',#1171,2.);
#33=CYLINDRICAL_SURFACE('',#1175,0.785);
#34=CYLINDRICAL_SURFACE('',#1177,2.);
#35=CYLINDRICAL_SURFACE('',#1206,0.785);
#36=CYLINDRICAL_SURFACE('',#1207,0.785);
#37=CYLINDRICAL_SURFACE('',#1231,0.785000000000001);
#38=CYLINDRICAL_SURFACE('',#1232,0.785000000000001);
#39=CYLINDRICAL_SURFACE('',#1233,1.);
#40=CYLINDRICAL_SURFACE('',#1234,1.);
#41=CYLINDRICAL_SURFACE('',#1235,1.);
#42=CYLINDRICAL_SURFACE('',#1236,1.);
#43=CYLINDRICAL_SURFACE('',#1237,1.);
#44=CYLINDRICAL_SURFACE('',#1238,1.);
#45=CYLINDRICAL_SURFACE('',#1239,1.);
#46=CYLINDRICAL_SURFACE('',#1240,1.);
#47=CYLINDRICAL_SURFACE('',#1241,1.);
#48=CYLINDRICAL_SURFACE('',#1242,1.);
#49=CYLINDRICAL_SURFACE('',#1243,1.);
#50=CYLINDRICAL_SURFACE('',#1244,1.);
#51=CIRCLE('',#1143,1.);
#52=CIRCLE('',#1144,1.);
#53=CIRCLE('',#1145,1.);
#54=CIRCLE('',#1146,1.);
#55=CIRCLE('',#1148,1.);
#56=CIRCLE('',#1149,1.);
#57=CIRCLE('',#1150,1.);
#58=CIRCLE('',#1151,1.);
#59=CIRCLE('',#1153,3.);
#60=CIRCLE('',#1155,3.);
#61=CIRCLE('',#1156,3.);
#62=CIRCLE('',#1164,2.);
#63=CIRCLE('',#1165,1.);
#64=CIRCLE('',#1166,1.);
#65=CIRCLE('',#1167,1.);
#66=CIRCLE('',#1168,1.);
#67=CIRCLE('',#1170,2.);
#68=CIRCLE('',#1172,2.);
#69=CIRCLE('',#1174,0.785);
#70=CIRCLE('',#1176,0.785);
#71=CIRCLE('',#1178,2.);
#72=CIRCLE('',#1182,0.785);
#73=CIRCLE('',#1183,1.);
#74=CIRCLE('',#1184,1.);
#75=CIRCLE('',#1186,1.);
#76=CIRCLE('',#1195,0.785);
#77=CIRCLE('',#1202,1.);
#78=CIRCLE('',#1203,1.);
#79=CIRCLE('',#1204,1.);
#80=CIRCLE('',#1205,1.);
#81=CIRCLE('',#1210,0.785000000000001);
#82=CIRCLE('',#1212,1.);
#83=CIRCLE('',#1213,1.);
#84=CIRCLE('',#1222,0.785000000000001);
#85=CIRCLE('',#1223,1.);
#86=CIRCLE('',#1224,1.);
#87=ORIENTED_EDGE('',*,*,#395,.T.);
#88=ORIENTED_EDGE('',*,*,#396,.T.);
#89=ORIENTED_EDGE('',*,*,#397,.F.);
#90=ORIENTED_EDGE('',*,*,#398,.T.);
#91=ORIENTED_EDGE('',*,*,#399,.T.);
#92=ORIENTED_EDGE('',*,*,#400,.T.);
#93=ORIENTED_EDGE('',*,*,#401,.T.);
#94=ORIENTED_EDGE('',*,*,#402,.T.);
#95=ORIENTED_EDGE('',*,*,#403,.T.);
#96=ORIENTED_EDGE('',*,*,#404,.T.);
#97=ORIENTED_EDGE('',*,*,#405,.T.);
#98=ORIENTED_EDGE('',*,*,#406,.T.);
#99=ORIENTED_EDGE('',*,*,#407,.F.);
#100=ORIENTED_EDGE('',*,*,#408,.F.);
#101=ORIENTED_EDGE('',*,*,#409,.F.);
#102=ORIENTED_EDGE('',*,*,#410,.T.);
#103=ORIENTED_EDGE('',*,*,#411,.F.);
#104=ORIENTED_EDGE('',*,*,#412,.F.);
#105=ORIENTED_EDGE('',*,*,#413,.T.);
#106=ORIENTED_EDGE('',*,*,#414,.F.);
#107=ORIENTED_EDGE('',*,*,#415,.T.);
#108=ORIENTED_EDGE('',*,*,#416,.F.);
#109=ORIENTED_EDGE('',*,*,#417,.T.);
#110=ORIENTED_EDGE('',*,*,#418,.F.);
#111=ORIENTED_EDGE('',*,*,#419,.T.);
#112=ORIENTED_EDGE('',*,*,#420,.F.);
#113=ORIENTED_EDGE('',*,*,#421,.T.);
#114=ORIENTED_EDGE('',*,*,#422,.F.);
#115=ORIENTED_EDGE('',*,*,#423,.F.);
#116=ORIENTED_EDGE('',*,*,#424,.T.);
#117=ORIENTED_EDGE('',*,*,#425,.T.);
#118=ORIENTED_EDGE('',*,*,#426,.T.);
#119=ORIENTED_EDGE('',*,*,#427,.F.);
#120=ORIENTED_EDGE('',*,*,#428,.T.);
#121=ORIENTED_EDGE('',*,*,#429,.F.);
#122=ORIENTED_EDGE('',*,*,#430,.F.);
#123=ORIENTED_EDGE('',*,*,#431,.F.);
#124=ORIENTED_EDGE('',*,*,#430,.T.);
#125=ORIENTED_EDGE('',*,*,#432,.F.);
#126=ORIENTED_EDGE('',*,*,#433,.F.);
#127=ORIENTED_EDGE('',*,*,#434,.T.);
#128=ORIENTED_EDGE('',*,*,#435,.F.);
#129=ORIENTED_EDGE('',*,*,#436,.F.);
#130=ORIENTED_EDGE('',*,*,#437,.F.);
#131=ORIENTED_EDGE('',*,*,#438,.T.);
#132=ORIENTED_EDGE('',*,*,#423,.T.);
#133=ORIENTED_EDGE('',*,*,#428,.F.);
#134=ORIENTED_EDGE('',*,*,#439,.T.);
#135=ORIENTED_EDGE('',*,*,#440,.T.);
#136=ORIENTED_EDGE('',*,*,#441,.F.);
#137=ORIENTED_EDGE('',*,*,#442,.T.);
#138=ORIENTED_EDGE('',*,*,#443,.T.);
#139=ORIENTED_EDGE('',*,*,#444,.F.);
#140=ORIENTED_EDGE('',*,*,#445,.T.);
#141=ORIENTED_EDGE('',*,*,#434,.F.);
#142=ORIENTED_EDGE('',*,*,#441,.T.);
#143=ORIENTED_EDGE('',*,*,#446,.T.);
#144=ORIENTED_EDGE('',*,*,#447,.T.);
#145=ORIENTED_EDGE('',*,*,#448,.T.);
#146=ORIENTED_EDGE('',*,*,#449,.T.);
#147=ORIENTED_EDGE('',*,*,#450,.T.);
#148=ORIENTED_EDGE('',*,*,#451,.T.);
#149=ORIENTED_EDGE('',*,*,#452,.T.);
#150=ORIENTED_EDGE('',*,*,#453,.T.);
#151=ORIENTED_EDGE('',*,*,#454,.T.);
#152=ORIENTED_EDGE('',*,*,#455,.T.);
#153=ORIENTED_EDGE('',*,*,#456,.T.);
#154=ORIENTED_EDGE('',*,*,#457,.T.);
#155=ORIENTED_EDGE('',*,*,#426,.F.);
#156=ORIENTED_EDGE('',*,*,#458,.T.);
#157=ORIENTED_EDGE('',*,*,#457,.F.);
#158=ORIENTED_EDGE('',*,*,#459,.F.);
#159=ORIENTED_EDGE('',*,*,#458,.F.);
#160=ORIENTED_EDGE('',*,*,#460,.F.);
#161=ORIENTED_EDGE('',*,*,#459,.T.);
#162=ORIENTED_EDGE('',*,*,#461,.T.);
#163=ORIENTED_EDGE('',*,*,#448,.F.);
#164=ORIENTED_EDGE('',*,*,#460,.T.);
#165=ORIENTED_EDGE('',*,*,#461,.F.);
#166=ORIENTED_EDGE('',*,*,#462,.F.);
#167=ORIENTED_EDGE('',*,*,#463,.T.);
#168=ORIENTED_EDGE('',*,*,#464,.F.);
#169=ORIENTED_EDGE('',*,*,#465,.T.);
#170=ORIENTED_EDGE('',*,*,#466,.F.);
#171=ORIENTED_EDGE('',*,*,#432,.T.);
#172=ORIENTED_EDGE('',*,*,#429,.T.);
#173=ORIENTED_EDGE('',*,*,#443,.F.);
#174=ORIENTED_EDGE('',*,*,#467,.T.);
#175=ORIENTED_EDGE('',*,*,#468,.F.);
#176=ORIENTED_EDGE('',*,*,#469,.T.);
#177=ORIENTED_EDGE('',*,*,#464,.T.);
#178=ORIENTED_EDGE('',*,*,#470,.T.);
#179=ORIENTED_EDGE('',*,*,#471,.T.);
#180=ORIENTED_EDGE('',*,*,#408,.T.);
#181=ORIENTED_EDGE('',*,*,#472,.T.);
#182=ORIENTED_EDGE('',*,*,#473,.T.);
#183=ORIENTED_EDGE('',*,*,#474,.F.);
#184=ORIENTED_EDGE('',*,*,#411,.T.);
#185=ORIENTED_EDGE('',*,*,#475,.T.);
#186=ORIENTED_EDGE('',*,*,#476,.F.);
#187=ORIENTED_EDGE('',*,*,#477,.T.);
#188=ORIENTED_EDGE('',*,*,#466,.T.);
#189=ORIENTED_EDGE('',*,*,#478,.T.);
#190=ORIENTED_EDGE('',*,*,#479,.T.);
#191=ORIENTED_EDGE('',*,*,#480,.T.);
#192=ORIENTED_EDGE('',*,*,#481,.T.);
#193=ORIENTED_EDGE('',*,*,#482,.T.);
#194=ORIENTED_EDGE('',*,*,#444,.T.);
#195=ORIENTED_EDGE('',*,*,#433,.T.);
#196=ORIENTED_EDGE('',*,*,#483,.T.);
#197=ORIENTED_EDGE('',*,*,#484,.T.);
#198=ORIENTED_EDGE('',*,*,#425,.F.);
#199=ORIENTED_EDGE('',*,*,#485,.T.);
#200=ORIENTED_EDGE('',*,*,#447,.F.);
#201=ORIENTED_EDGE('',*,*,#486,.F.);
#202=ORIENTED_EDGE('',*,*,#487,.T.);
#203=ORIENTED_EDGE('',*,*,#488,.F.);
#204=ORIENTED_EDGE('',*,*,#467,.F.);
#205=ORIENTED_EDGE('',*,*,#442,.F.);
#206=ORIENTED_EDGE('',*,*,#488,.T.);
#207=ORIENTED_EDGE('',*,*,#489,.T.);
#208=ORIENTED_EDGE('',*,*,#490,.T.);
#209=ORIENTED_EDGE('',*,*,#468,.T.);
#210=ORIENTED_EDGE('',*,*,#491,.T.);
#211=ORIENTED_EDGE('',*,*,#492,.T.);
#212=ORIENTED_EDGE('',*,*,#493,.T.);
#213=ORIENTED_EDGE('',*,*,#455,.F.);
#214=ORIENTED_EDGE('',*,*,#494,.T.);
#215=ORIENTED_EDGE('',*,*,#495,.T.);
#216=ORIENTED_EDGE('',*,*,#496,.T.);
#217=ORIENTED_EDGE('',*,*,#449,.F.);
#218=ORIENTED_EDGE('',*,*,#497,.T.);
#219=ORIENTED_EDGE('',*,*,#498,.T.);
#220=ORIENTED_EDGE('',*,*,#451,.F.);
#221=ORIENTED_EDGE('',*,*,#499,.T.);
#222=ORIENTED_EDGE('',*,*,#500,.T.);
#223=ORIENTED_EDGE('',*,*,#501,.T.);
#224=ORIENTED_EDGE('',*,*,#437,.T.);
#225=ORIENTED_EDGE('',*,*,#502,.T.);
#226=ORIENTED_EDGE('',*,*,#435,.T.);
#227=ORIENTED_EDGE('',*,*,#445,.F.);
#228=ORIENTED_EDGE('',*,*,#482,.F.);
#229=ORIENTED_EDGE('',*,*,#503,.T.);
#230=ORIENTED_EDGE('',*,*,#440,.F.);
#231=ORIENTED_EDGE('',*,*,#504,.T.);
#232=ORIENTED_EDGE('',*,*,#483,.F.);
#233=ORIENTED_EDGE('',*,*,#505,.T.);
#234=ORIENTED_EDGE('',*,*,#486,.T.);
#235=ORIENTED_EDGE('',*,*,#446,.F.);
#236=ORIENTED_EDGE('',*,*,#506,.T.);
#237=ORIENTED_EDGE('',*,*,#507,.T.);
#238=ORIENTED_EDGE('',*,*,#453,.F.);
#239=ORIENTED_EDGE('',*,*,#508,.T.);
#240=ORIENTED_EDGE('',*,*,#503,.F.);
#241=ORIENTED_EDGE('',*,*,#509,.T.);
#242=ORIENTED_EDGE('',*,*,#473,.F.);
#243=ORIENTED_EDGE('',*,*,#510,.T.);
#244=ORIENTED_EDGE('',*,*,#489,.F.);
#245=ORIENTED_EDGE('',*,*,#487,.F.);
#246=ORIENTED_EDGE('',*,*,#505,.F.);
#247=ORIENTED_EDGE('',*,*,#485,.F.);
#248=ORIENTED_EDGE('',*,*,#424,.F.);
#249=ORIENTED_EDGE('',*,*,#438,.F.);
#250=ORIENTED_EDGE('',*,*,#492,.F.);
#251=ORIENTED_EDGE('',*,*,#511,.T.);
#252=ORIENTED_EDGE('',*,*,#506,.F.);
#253=ORIENTED_EDGE('',*,*,#512,.T.);
#254=ORIENTED_EDGE('',*,*,#500,.F.);
#255=ORIENTED_EDGE('',*,*,#513,.T.);
#256=ORIENTED_EDGE('',*,*,#495,.F.);
#257=ORIENTED_EDGE('',*,*,#514,.T.);
#258=ORIENTED_EDGE('',*,*,#491,.F.);
#259=ORIENTED_EDGE('',*,*,#436,.T.);
#260=ORIENTED_EDGE('',*,*,#422,.T.);
#261=ORIENTED_EDGE('',*,*,#484,.F.);
#262=ORIENTED_EDGE('',*,*,#504,.F.);
#263=ORIENTED_EDGE('',*,*,#439,.F.);
#264=ORIENTED_EDGE('',*,*,#427,.T.);
#265=ORIENTED_EDGE('',*,*,#431,.T.);
#266=ORIENTED_EDGE('',*,*,#502,.F.);
#267=ORIENTED_EDGE('',*,*,#498,.F.);
#268=ORIENTED_EDGE('',*,*,#469,.F.);
#269=ORIENTED_EDGE('',*,*,#471,.F.);
#270=ORIENTED_EDGE('',*,*,#515,.T.);
#271=ORIENTED_EDGE('',*,*,#516,.T.);
#272=ORIENTED_EDGE('',*,*,#517,.T.);
#273=ORIENTED_EDGE('',*,*,#518,.T.);
#274=ORIENTED_EDGE('',*,*,#516,.F.);
#275=ORIENTED_EDGE('',*,*,#519,.T.);
#276=ORIENTED_EDGE('',*,*,#462,.T.);
#277=ORIENTED_EDGE('',*,*,#490,.F.);
#278=ORIENTED_EDGE('',*,*,#520,.F.);
#279=ORIENTED_EDGE('',*,*,#413,.F.);
#280=ORIENTED_EDGE('',*,*,#521,.F.);
#281=ORIENTED_EDGE('',*,*,#522,.F.);
#282=ORIENTED_EDGE('',*,*,#523,.T.);
#283=ORIENTED_EDGE('',*,*,#395,.F.);
#284=ORIENTED_EDGE('',*,*,#524,.T.);
#285=ORIENTED_EDGE('',*,*,#525,.F.);
#286=ORIENTED_EDGE('',*,*,#479,.F.);
#287=ORIENTED_EDGE('',*,*,#526,.T.);
#288=ORIENTED_EDGE('',*,*,#476,.T.);
#289=ORIENTED_EDGE('',*,*,#527,.T.);
#290=ORIENTED_EDGE('',*,*,#510,.F.);
#291=ORIENTED_EDGE('',*,*,#472,.F.);
#292=ORIENTED_EDGE('',*,*,#407,.T.);
#293=ORIENTED_EDGE('',*,*,#520,.T.);
#294=ORIENTED_EDGE('',*,*,#509,.F.);
#295=ORIENTED_EDGE('',*,*,#481,.F.);
#296=ORIENTED_EDGE('',*,*,#528,.T.);
#297=ORIENTED_EDGE('',*,*,#412,.T.);
#298=ORIENTED_EDGE('',*,*,#474,.T.);
#299=ORIENTED_EDGE('',*,*,#529,.T.);
#300=ORIENTED_EDGE('',*,*,#521,.T.);
#301=ORIENTED_EDGE('',*,*,#528,.F.);
#302=ORIENTED_EDGE('',*,*,#480,.F.);
#303=ORIENTED_EDGE('',*,*,#527,.F.);
#304=ORIENTED_EDGE('',*,*,#475,.F.);
#305=ORIENTED_EDGE('',*,*,#517,.F.);
#306=ORIENTED_EDGE('',*,*,#530,.F.);
#307=ORIENTED_EDGE('',*,*,#531,.F.);
#308=ORIENTED_EDGE('',*,*,#532,.F.);
#309=ORIENTED_EDGE('',*,*,#533,.T.);
#310=ORIENTED_EDGE('',*,*,#522,.T.);
#311=ORIENTED_EDGE('',*,*,#529,.F.);
#312=ORIENTED_EDGE('',*,*,#410,.F.);
#313=ORIENTED_EDGE('',*,*,#525,.T.);
#314=ORIENTED_EDGE('',*,*,#534,.T.);
#315=ORIENTED_EDGE('',*,*,#535,.F.);
#316=ORIENTED_EDGE('',*,*,#530,.T.);
#317=ORIENTED_EDGE('',*,*,#536,.T.);
#318=ORIENTED_EDGE('',*,*,#397,.T.);
#319=ORIENTED_EDGE('',*,*,#537,.T.);
#320=ORIENTED_EDGE('',*,*,#532,.T.);
#321=ORIENTED_EDGE('',*,*,#409,.T.);
#322=ORIENTED_EDGE('',*,*,#531,.T.);
#323=ORIENTED_EDGE('',*,*,#535,.T.);
#324=ORIENTED_EDGE('',*,*,#538,.T.);
#325=ORIENTED_EDGE('',*,*,#539,.T.);
#326=ORIENTED_EDGE('',*,*,#401,.F.);
#327=ORIENTED_EDGE('',*,*,#540,.T.);
#328=ORIENTED_EDGE('',*,*,#414,.T.);
#329=ORIENTED_EDGE('',*,*,#541,.T.);
#330=ORIENTED_EDGE('',*,*,#420,.T.);
#331=ORIENTED_EDGE('',*,*,#542,.T.);
#332=ORIENTED_EDGE('',*,*,#403,.F.);
#333=ORIENTED_EDGE('',*,*,#543,.T.);
#334=ORIENTED_EDGE('',*,*,#544,.T.);
#335=ORIENTED_EDGE('',*,*,#405,.F.);
#336=ORIENTED_EDGE('',*,*,#545,.T.);
#337=ORIENTED_EDGE('',*,*,#418,.T.);
#338=ORIENTED_EDGE('',*,*,#546,.T.);
#339=ORIENTED_EDGE('',*,*,#416,.T.);
#340=ORIENTED_EDGE('',*,*,#547,.T.);
#341=ORIENTED_EDGE('',*,*,#399,.F.);
#342=ORIENTED_EDGE('',*,*,#548,.T.);
#343=ORIENTED_EDGE('',*,*,#518,.F.);
#344=ORIENTED_EDGE('',*,*,#544,.F.);
#345=ORIENTED_EDGE('',*,*,#539,.F.);
#346=ORIENTED_EDGE('',*,*,#536,.F.);
#347=ORIENTED_EDGE('',*,*,#538,.F.);
#348=ORIENTED_EDGE('',*,*,#534,.F.);
#349=ORIENTED_EDGE('',*,*,#524,.F.);
#350=ORIENTED_EDGE('',*,*,#398,.F.);
#351=ORIENTED_EDGE('',*,*,#477,.F.);
#352=ORIENTED_EDGE('',*,*,#526,.F.);
#353=ORIENTED_EDGE('',*,*,#478,.F.);
#354=ORIENTED_EDGE('',*,*,#465,.F.);
#355=ORIENTED_EDGE('',*,*,#537,.F.);
#356=ORIENTED_EDGE('',*,*,#396,.F.);
#357=ORIENTED_EDGE('',*,*,#523,.F.);
#358=ORIENTED_EDGE('',*,*,#533,.F.);
#359=ORIENTED_EDGE('',*,*,#470,.F.);
#360=ORIENTED_EDGE('',*,*,#463,.F.);
#361=ORIENTED_EDGE('',*,*,#519,.F.);
#362=ORIENTED_EDGE('',*,*,#515,.F.);
#363=ORIENTED_EDGE('',*,*,#417,.F.);
#364=ORIENTED_EDGE('',*,*,#548,.F.);
#365=ORIENTED_EDGE('',*,*,#406,.F.);
#366=ORIENTED_EDGE('',*,*,#546,.F.);
#367=ORIENTED_EDGE('',*,*,#421,.F.);
#368=ORIENTED_EDGE('',*,*,#543,.F.);
#369=ORIENTED_EDGE('',*,*,#402,.F.);
#370=ORIENTED_EDGE('',*,*,#541,.F.);
#371=ORIENTED_EDGE('',*,*,#419,.F.);
#372=ORIENTED_EDGE('',*,*,#545,.F.);
#373=ORIENTED_EDGE('',*,*,#404,.F.);
#374=ORIENTED_EDGE('',*,*,#542,.F.);
#375=ORIENTED_EDGE('',*,*,#415,.F.);
#376=ORIENTED_EDGE('',*,*,#540,.F.);
#377=ORIENTED_EDGE('',*,*,#400,.F.);
#378=ORIENTED_EDGE('',*,*,#547,.F.);
#379=ORIENTED_EDGE('',*,*,#512,.F.);
#380=ORIENTED_EDGE('',*,*,#508,.F.);
#381=ORIENTED_EDGE('',*,*,#452,.F.);
#382=ORIENTED_EDGE('',*,*,#501,.F.);
#383=ORIENTED_EDGE('',*,*,#511,.F.);
#384=ORIENTED_EDGE('',*,*,#494,.F.);
#385=ORIENTED_EDGE('',*,*,#454,.F.);
#386=ORIENTED_EDGE('',*,*,#507,.F.);
#387=ORIENTED_EDGE('',*,*,#514,.F.);
#388=ORIENTED_EDGE('',*,*,#497,.F.);
#389=ORIENTED_EDGE('',*,*,#456,.F.);
#390=ORIENTED_EDGE('',*,*,#493,.F.);
#391=ORIENTED_EDGE('',*,*,#513,.F.);
#392=ORIENTED_EDGE('',*,*,#499,.F.);
#393=ORIENTED_EDGE('',*,*,#450,.F.);
#394=ORIENTED_EDGE('',*,*,#496,.F.);
#395=EDGE_CURVE('',#549,#550,#654,.T.);
#396=EDGE_CURVE('',#550,#551,#655,.F.);
#397=EDGE_CURVE('',#552,#551,#656,.T.);
#398=EDGE_CURVE('',#552,#549,#657,.T.);
#399=EDGE_CURVE('',#553,#554,#658,.T.);
#400=EDGE_CURVE('',#554,#555,#51,.T.);
#401=EDGE_CURVE('',#555,#556,#659,.T.);
#402=EDGE_CURVE('',#556,#557,#52,.T.);
#403=EDGE_CURVE('',#557,#558,#660,.T.);
#404=EDGE_CURVE('',#558,#559,#53,.T.);
#405=EDGE_CURVE('',#559,#560,#661,.T.);
#406=EDGE_CURVE('',#560,#553,#54,.T.);
#407=EDGE_CURVE('',#561,#562,#662,.T.);
#408=EDGE_CURVE('',#563,#561,#663,.T.);
#409=EDGE_CURVE('',#564,#563,#664,.T.);
#410=EDGE_CURVE('',#564,#565,#665,.T.);
#411=EDGE_CURVE('',#566,#565,#666,.T.);
#412=EDGE_CURVE('',#567,#566,#667,.T.);
#413=EDGE_CURVE('',#567,#562,#668,.T.);
#414=EDGE_CURVE('',#568,#569,#669,.T.);
#415=EDGE_CURVE('',#568,#570,#55,.T.);
#416=EDGE_CURVE('',#571,#570,#670,.T.);
#417=EDGE_CURVE('',#571,#572,#56,.T.);
#418=EDGE_CURVE('',#573,#572,#671,.T.);
#419=EDGE_CURVE('',#573,#574,#57,.T.);
#420=EDGE_CURVE('',#575,#574,#672,.T.);
#421=EDGE_CURVE('',#575,#569,#58,.T.);
#422=EDGE_CURVE('',#576,#577,#28,.T.);
#423=EDGE_CURVE('',#578,#576,#673,.T.);
#424=EDGE_CURVE('',#578,#579,#59,.T.);
#425=EDGE_CURVE('',#579,#577,#674,.T.);
#426=EDGE_CURVE('',#580,#580,#60,.T.);
#427=EDGE_CURVE('',#581,#582,#29,.T.);
#428=EDGE_CURVE('',#581,#583,#675,.T.);
#429=EDGE_CURVE('',#584,#583,#61,.T.);
#430=EDGE_CURVE('',#582,#584,#676,.T.);
#431=EDGE_CURVE('',#582,#585,#677,.F.);
#432=EDGE_CURVE('',#586,#584,#678,.T.);
#433=EDGE_CURVE('',#587,#586,#679,.T.);
#434=EDGE_CURVE('',#587,#588,#680,.T.);
#435=EDGE_CURVE('',#585,#588,#681,.T.);
#436=EDGE_CURVE('',#589,#576,#682,.T.);
#437=EDGE_CURVE('',#590,#589,#683,.T.);
#438=EDGE_CURVE('',#590,#578,#684,.T.);
#439=EDGE_CURVE('',#581,#591,#20,.F.);
#440=EDGE_CURVE('',#591,#592,#685,.T.);
#441=EDGE_CURVE('',#593,#592,#686,.T.);
#442=EDGE_CURVE('',#593,#594,#687,.T.);
#443=EDGE_CURVE('',#594,#583,#688,.T.);
#444=EDGE_CURVE('',#595,#587,#689,.T.);
#445=EDGE_CURVE('',#595,#588,#690,.T.);
#446=EDGE_CURVE('',#592,#596,#691,.T.);
#447=EDGE_CURVE('',#596,#593,#692,.T.);
#448=EDGE_CURVE('',#597,#597,#62,.T.);
#449=EDGE_CURVE('',#598,#599,#693,.T.);
#450=EDGE_CURVE('',#599,#600,#63,.T.);
#451=EDGE_CURVE('',#600,#601,#694,.T.);
#452=EDGE_CURVE('',#601,#602,#64,.T.);
#453=EDGE_CURVE('',#602,#603,#695,.T.);
#454=EDGE_CURVE('',#603,#604,#65,.T.);
#455=EDGE_CURVE('',#604,#605,#696,.T.);
#456=EDGE_CURVE('',#605,#598,#66,.T.);
#457=EDGE_CURVE('',#606,#606,#67,.T.);
#458=EDGE_CURVE('',#607,#607,#68,.T.);
#459=EDGE_CURVE('',#608,#608,#69,.F.);
#460=EDGE_CURVE('',#609,#609,#70,.T.);
#461=EDGE_CURVE('',#610,#610,#71,.T.);
#462=EDGE_CURVE('',#611,#612,#697,.T.);
#463=EDGE_CURVE('',#611,#613,#698,.F.);
#464=EDGE_CURVE('',#614,#613,#699,.T.);
#465=EDGE_CURVE('',#614,#615,#700,.T.);
#466=EDGE_CURVE('',#586,#615,#701,.T.);
#467=EDGE_CURVE('',#594,#616,#702,.T.);
#468=EDGE_CURVE('',#612,#616,#703,.T.);
#469=EDGE_CURVE('',#617,#617,#72,.T.);
#470=EDGE_CURVE('',#613,#618,#73,.T.);
#471=EDGE_CURVE('',#618,#563,#704,.T.);
#472=EDGE_CURVE('',#561,#619,#705,.T.);
#473=EDGE_CURVE('',#619,#620,#706,.T.);
#474=EDGE_CURVE('',#566,#620,#707,.T.);
#475=EDGE_CURVE('',#565,#621,#708,.T.);
#476=EDGE_CURVE('',#622,#621,#709,.T.);
#477=EDGE_CURVE('',#622,#614,#74,.T.);
#478=EDGE_CURVE('',#615,#623,#75,.T.);
#479=EDGE_CURVE('',#623,#624,#710,.T.);
#480=EDGE_CURVE('',#624,#625,#711,.T.);
#481=EDGE_CURVE('',#625,#626,#712,.T.);
#482=EDGE_CURVE('',#626,#595,#713,.T.);
#483=EDGE_CURVE('',#627,#628,#714,.T.);
#484=EDGE_CURVE('',#628,#577,#21,.F.);
#485=EDGE_CURVE('',#579,#627,#715,.T.);
#486=EDGE_CURVE('',#629,#596,#716,.T.);
#487=EDGE_CURVE('',#629,#630,#717,.T.);
#488=EDGE_CURVE('',#616,#630,#718,.F.);
#489=EDGE_CURVE('',#630,#631,#719,.T.);
#490=EDGE_CURVE('',#631,#612,#720,.T.);
#491=EDGE_CURVE('',#632,#632,#22,.F.);
#492=EDGE_CURVE('',#633,#634,#721,.T.);
#493=EDGE_CURVE('',#634,#605,#722,.T.);
#494=EDGE_CURVE('',#604,#633,#723,.F.);
#495=EDGE_CURVE('',#635,#636,#724,.T.);
#496=EDGE_CURVE('',#636,#599,#725,.T.);
#497=EDGE_CURVE('',#598,#635,#726,.F.);
#498=EDGE_CURVE('',#637,#637,#76,.F.);
#499=EDGE_CURVE('',#600,#638,#727,.F.);
#500=EDGE_CURVE('',#638,#639,#728,.T.);
#501=EDGE_CURVE('',#639,#601,#729,.T.);
#502=EDGE_CURVE('',#589,#585,#23,.F.);
#503=EDGE_CURVE('',#626,#590,#730,.T.);
#504=EDGE_CURVE('',#591,#628,#24,.F.);
#505=EDGE_CURVE('',#627,#629,#731,.T.);
#506=EDGE_CURVE('',#640,#641,#732,.T.);
#507=EDGE_CURVE('',#641,#603,#733,.T.);
#508=EDGE_CURVE('',#602,#640,#734,.F.);
#509=EDGE_CURVE('',#626,#620,#735,.T.);
#510=EDGE_CURVE('',#619,#631,#736,.T.);
#511=EDGE_CURVE('',#633,#641,#77,.T.);
#512=EDGE_CURVE('',#640,#639,#78,.T.);
#513=EDGE_CURVE('',#638,#636,#79,.T.);
#514=EDGE_CURVE('',#635,#634,#80,.T.);
#515=EDGE_CURVE('',#618,#642,#737,.T.);
#516=EDGE_CURVE('',#642,#643,#738,.T.);
#517=EDGE_CURVE('',#643,#563,#739,.T.);
#518=EDGE_CURVE('',#644,#644,#81,.F.);
#519=EDGE_CURVE('',#642,#611,#25,.T.);
#520=EDGE_CURVE('',#562,#631,#740,.T.);
#521=EDGE_CURVE('',#645,#567,#741,.T.);
#522=EDGE_CURVE('',#646,#645,#742,.T.);
#523=EDGE_CURVE('',#646,#550,#82,.T.);
#524=EDGE_CURVE('',#549,#647,#83,.T.);
#525=EDGE_CURVE('',#643,#647,#743,.T.);
#526=EDGE_CURVE('',#623,#622,#744,.F.);
#527=EDGE_CURVE('',#621,#624,#745,.T.);
#528=EDGE_CURVE('',#625,#567,#746,.T.);
#529=EDGE_CURVE('',#565,#645,#747,.T.);
#530=EDGE_CURVE('',#648,#643,#748,.T.);
#531=EDGE_CURVE('',#563,#648,#749,.T.);
#532=EDGE_CURVE('',#649,#564,#750,.T.);
#533=EDGE_CURVE('',#649,#646,#751,.T.);
#534=EDGE_CURVE('',#647,#650,#752,.F.);
#535=EDGE_CURVE('',#648,#650,#753,.T.);
#536=EDGE_CURVE('',#651,#651,#84,.T.);
#537=EDGE_CURVE('',#551,#649,#85,.T.);
#538=EDGE_CURVE('',#650,#552,#86,.T.);
#539=EDGE_CURVE('',#652,#652,#26,.F.);
#540=EDGE_CURVE('',#555,#568,#754,.F.);
#541=EDGE_CURVE('',#569,#556,#755,.T.);
#542=EDGE_CURVE('',#574,#558,#756,.T.);
#543=EDGE_CURVE('',#557,#575,#757,.F.);
#544=EDGE_CURVE('',#653,#653,#27,.F.);
#545=EDGE_CURVE('',#559,#573,#758,.F.);
#546=EDGE_CURVE('',#572,#560,#759,.T.);
#547=EDGE_CURVE('',#570,#554,#760,.T.);
#548=EDGE_CURVE('',#553,#571,#761,.F.);
#549=VERTEX_POINT('',#1564);
#550=VERTEX_POINT('',#1565);
#551=VERTEX_POINT('',#1567);
#552=VERTEX_POINT('',#1569);
#553=VERTEX_POINT('',#1572);
#554=VERTEX_POINT('',#1573);
#555=VERTEX_POINT('',#1575);
#556=VERTEX_POINT('',#1577);
#557=VERTEX_POINT('',#1579);
#558=VERTEX_POINT('',#1581);
#559=VERTEX_POINT('',#1583);
#560=VERTEX_POINT('',#1585);
#561=VERTEX_POINT('',#1589);
#562=VERTEX_POINT('',#1590);
#563=VERTEX_POINT('',#1592);
#564=VERTEX_POINT('',#1594);
#565=VERTEX_POINT('',#1596);
#566=VERTEX_POINT('',#1598);
#567=VERTEX_POINT('',#1600);
#568=VERTEX_POINT('',#1603);
#569=VERTEX_POINT('',#1604);
#570=VERTEX_POINT('',#1606);
#571=VERTEX_POINT('',#1608);
#572=VERTEX_POINT('',#1610);
#573=VERTEX_POINT('',#1612);
#574=VERTEX_POINT('',#1614);
#575=VERTEX_POINT('',#1616);
#576=VERTEX_POINT('',#1623);
#577=VERTEX_POINT('',#1624);
#578=VERTEX_POINT('',#1626);
#579=VERTEX_POINT('',#1628);
#580=VERTEX_POINT('',#1632);
#581=VERTEX_POINT('',#1637);
#582=VERTEX_POINT('',#1638);
#583=VERTEX_POINT('',#1640);
#584=VERTEX_POINT('',#1642);
#585=VERTEX_POINT('',#1646);
#586=VERTEX_POINT('',#1648);
#587=VERTEX_POINT('',#1650);
#588=VERTEX_POINT('',#1652);
#589=VERTEX_POINT('',#1656);
#590=VERTEX_POINT('',#1658);
#591=VERTEX_POINT('',#1662);
#592=VERTEX_POINT('',#1664);
#593=VERTEX_POINT('',#1666);
#594=VERTEX_POINT('',#1668);
#595=VERTEX_POINT('',#1672);
#596=VERTEX_POINT('',#1676);
#597=VERTEX_POINT('',#1680);
#598=VERTEX_POINT('',#1682);
#599=VERTEX_POINT('',#1683);
#600=VERTEX_POINT('',#1685);
#601=VERTEX_POINT('',#1687);
#602=VERTEX_POINT('',#1689);
#603=VERTEX_POINT('',#1691);
#604=VERTEX_POINT('',#1693);
#605=VERTEX_POINT('',#1695);
#606=VERTEX_POINT('',#1699);
#607=VERTEX_POINT('',#1702);
#608=VERTEX_POINT('',#1705);
#609=VERTEX_POINT('',#1708);
#610=VERTEX_POINT('',#1711);
#611=VERTEX_POINT('',#1715);
#612=VERTEX_POINT('',#1716);
#613=VERTEX_POINT('',#1718);
#614=VERTEX_POINT('',#1720);
#615=VERTEX_POINT('',#1722);
#616=VERTEX_POINT('',#1725);
#617=VERTEX_POINT('',#1729);
#618=VERTEX_POINT('',#1731);
#619=VERTEX_POINT('',#1734);
#620=VERTEX_POINT('',#1736);
#621=VERTEX_POINT('',#1739);
#622=VERTEX_POINT('',#1741);
#623=VERTEX_POINT('',#1745);
#624=VERTEX_POINT('',#1747);
#625=VERTEX_POINT('',#1749);
#626=VERTEX_POINT('',#1751);
#627=VERTEX_POINT('',#1755);
#628=VERTEX_POINT('',#1756);
#629=VERTEX_POINT('',#1761);
#630=VERTEX_POINT('',#1763);
#631=VERTEX_POINT('',#1767);
#632=VERTEX_POINT('',#1771);
#633=VERTEX_POINT('',#1773);
#634=VERTEX_POINT('',#1774);
#635=VERTEX_POINT('',#1779);
#636=VERTEX_POINT('',#1780);
#637=VERTEX_POINT('',#1785);
#638=VERTEX_POINT('',#1787);
#639=VERTEX_POINT('',#1789);
#640=VERTEX_POINT('',#1799);
#641=VERTEX_POINT('',#1800);
#642=VERTEX_POINT('',#1814);
#643=VERTEX_POINT('',#1816);
#644=VERTEX_POINT('',#1820);
#645=VERTEX_POINT('',#1824);
#646=VERTEX_POINT('',#1826);
#647=VERTEX_POINT('',#1829);
#648=VERTEX_POINT('',#1841);
#649=VERTEX_POINT('',#1845);
#650=VERTEX_POINT('',#1849);
#651=VERTEX_POINT('',#1853);
#652=VERTEX_POINT('',#1858);
#653=VERTEX_POINT('',#1866);
#654=LINE('',#1563,#762);
#655=LINE('',#1566,#763);
#656=LINE('',#1568,#764);
#657=LINE('',#1570,#765);
#658=LINE('',#1571,#766);
#659=LINE('',#1576,#767);
#660=LINE('',#1580,#768);
#661=LINE('',#1584,#769);
#662=LINE('',#1588,#770);
#663=LINE('',#1591,#771);
#664=LINE('',#1593,#772);
#665=LINE('',#1595,#773);
#666=LINE('',#1597,#774);
#667=LINE('',#1599,#775);
#668=LINE('',#1601,#776);
#669=LINE('',#1602,#777);
#670=LINE('',#1607,#778);
#671=LINE('',#1611,#779);
#672=LINE('',#1615,#780);
#673=LINE('',#1625,#781);
#674=LINE('',#1629,#782);
#675=LINE('',#1639,#783);
#676=LINE('',#1643,#784);
#677=LINE('',#1645,#785);
#678=LINE('',#1647,#786);
#679=LINE('',#1649,#787);
#680=LINE('',#1651,#788);
#681=LINE('',#1653,#789);
#682=LINE('',#1655,#790);
#683=LINE('',#1657,#791);
#684=LINE('',#1659,#792);
#685=LINE('',#1663,#793);
#686=LINE('',#1665,#794);
#687=LINE('',#1667,#795);
#688=LINE('',#1669,#796);
#689=LINE('',#1671,#797);
#690=LINE('',#1673,#798);
#691=LINE('',#1675,#799);
#692=LINE('',#1677,#800);
#693=LINE('',#1681,#801);
#694=LINE('',#1686,#802);
#695=LINE('',#1690,#803);
#696=LINE('',#1694,#804);
#697=LINE('',#1714,#805);
#698=LINE('',#1717,#806);
#699=LINE('',#1719,#807);
#700=LINE('',#1721,#808);
#701=LINE('',#1723,#809);
#702=LINE('',#1724,#810);
#703=LINE('',#1726,#811);
#704=LINE('',#1732,#812);
#705=LINE('',#1733,#813);
#706=LINE('',#1735,#814);
#707=LINE('',#1737,#815);
#708=LINE('',#1738,#816);
#709=LINE('',#1740,#817);
#710=LINE('',#1746,#818);
#711=LINE('',#1748,#819);
#712=LINE('',#1750,#820);
#713=LINE('',#1752,#821);
#714=LINE('',#1754,#822);
#715=LINE('',#1758,#823);
#716=LINE('',#1760,#824);
#717=LINE('',#1762,#825);
#718=LINE('',#1764,#826);
#719=LINE('',#1766,#827);
#720=LINE('',#1768,#828);
#721=LINE('',#1772,#829);
#722=LINE('',#1775,#830);
#723=LINE('',#1776,#831);
#724=LINE('',#1778,#832);
#725=LINE('',#1781,#833);
#726=LINE('',#1782,#834);
#727=LINE('',#1786,#835);
#728=LINE('',#1788,#836);
#729=LINE('',#1790,#837);
#730=LINE('',#1793,#838);
#731=LINE('',#1796,#839);
#732=LINE('',#1798,#840);
#733=LINE('',#1801,#841);
#734=LINE('',#1802,#842);
#735=LINE('',#1804,#843);
#736=LINE('',#1805,#844);
#737=LINE('',#1813,#845);
#738=LINE('',#1815,#846);
#739=LINE('',#1817,#847);
#740=LINE('',#1822,#848);
#741=LINE('',#1823,#849);
#742=LINE('',#1825,#850);
#743=LINE('',#1830,#851);
#744=LINE('',#1832,#852);
#745=LINE('',#1833,#853);
#746=LINE('',#1836,#854);
#747=LINE('',#1838,#855);
#748=LINE('',#1840,#856);
#749=LINE('',#1842,#857);
#750=LINE('',#1844,#858);
#751=LINE('',#1846,#859);
#752=LINE('',#1848,#860);
#753=LINE('',#1850,#861);
#754=LINE('',#1859,#862);
#755=LINE('',#1860,#863);
#756=LINE('',#1862,#864);
#757=LINE('',#1863,#865);
#758=LINE('',#1867,#866);
#759=LINE('',#1868,#867);
#760=LINE('',#1870,#868);
#761=LINE('',#1871,#869);
#762=VECTOR('',#1249,1000.);
#763=VECTOR('',#1250,1000.);
#764=VECTOR('',#1251,1000.);
#765=VECTOR('',#1252,1000.);
#766=VECTOR('',#1253,1000.);
#767=VECTOR('',#1256,1000.);
#768=VECTOR('',#1259,1000.);
#769=VECTOR('',#1262,1000.);
#770=VECTOR('',#1267,1000.);
#771=VECTOR('',#1268,1000.);
#772=VECTOR('',#1269,1000.);
#773=VECTOR('',#1270,1000.);
#774=VECTOR('',#1271,1000.);
#775=VECTOR('',#1272,1000.);
#776=VECTOR('',#1273,1000.);
#777=VECTOR('',#1274,1000.);
#778=VECTOR('',#1277,1000.);
#779=VECTOR('',#1280,1000.);
#780=VECTOR('',#1283,1000.);
#781=VECTOR('',#1288,1000.);
#782=VECTOR('',#1291,1000.);
#783=VECTOR('',#1296,1000.);
#784=VECTOR('',#1299,1000.);
#785=VECTOR('',#1302,1000.);
#786=VECTOR('',#1303,1000.);
#787=VECTOR('',#1304,1000.);
#788=VECTOR('',#1305,1000.);
#789=VECTOR('',#1306,1000.);
#790=VECTOR('',#1309,1000.);
#791=VECTOR('',#1310,1000.);
#792=VECTOR('',#1311,1000.);
#793=VECTOR('',#1316,1000.);
#794=VECTOR('',#1317,1000.);
#795=VECTOR('',#1318,1000.);
#796=VECTOR('',#1319,1000.);
#797=VECTOR('',#1322,1000.);
#798=VECTOR('',#1323,1000.);
#799=VECTOR('',#1326,1000.);
#800=VECTOR('',#1327,1000.);
#801=VECTOR('',#1332,1000.);
#802=VECTOR('',#1335,1000.);
#803=VECTOR('',#1338,1000.);
#804=VECTOR('',#1341,1000.);
#805=VECTOR('',#1368,1000.);
#806=VECTOR('',#1369,1000.);
#807=VECTOR('',#1370,1000.);
#808=VECTOR('',#1371,1000.);
#809=VECTOR('',#1372,1000.);
#810=VECTOR('',#1373,1000.);
#811=VECTOR('',#1374,1000.);
#812=VECTOR('',#1381,1000.);
#813=VECTOR('',#1382,1000.);
#814=VECTOR('',#1383,1000.);
#815=VECTOR('',#1384,1000.);
#816=VECTOR('',#1385,1000.);
#817=VECTOR('',#1386,1000.);
#818=VECTOR('',#1393,1000.);
#819=VECTOR('',#1394,1000.);
#820=VECTOR('',#1395,1000.);
#821=VECTOR('',#1396,1000.);
#822=VECTOR('',#1399,1000.);
#823=VECTOR('',#1402,1000.);
#824=VECTOR('',#1405,1000.);
#825=VECTOR('',#1406,1000.);
#826=VECTOR('',#1407,1000.);
#827=VECTOR('',#1410,1000.);
#828=VECTOR('',#1411,1000.);
#829=VECTOR('',#1416,1000.);
#830=VECTOR('',#1417,1000.);
#831=VECTOR('',#1418,1000.);
#832=VECTOR('',#1421,1000.);
#833=VECTOR('',#1422,1000.);
#834=VECTOR('',#1423,1000.);
#835=VECTOR('',#1428,1000.);
#836=VECTOR('',#1429,1000.);
#837=VECTOR('',#1430,1000.);
#838=VECTOR('',#1435,1000.);
#839=VECTOR('',#1440,1000.);
#840=VECTOR('',#1443,1000.);
#841=VECTOR('',#1444,1000.);
#842=VECTOR('',#1445,1000.);
#843=VECTOR('',#1448,1000.);
#844=VECTOR('',#1449,1000.);
#845=VECTOR('',#1464,1000.);
#846=VECTOR('',#1465,1000.);
#847=VECTOR('',#1466,1000.);
#848=VECTOR('',#1473,1000.);
#849=VECTOR('',#1474,1000.);
#850=VECTOR('',#1475,1000.);
#851=VECTOR('',#1480,1000.);
#852=VECTOR('',#1483,1000.);
#853=VECTOR('',#1484,1000.);
#854=VECTOR('',#1489,1000.);
#855=VECTOR('',#1492,1000.);
#856=VECTOR('',#1495,1000.);
#857=VECTOR('',#1496,1000.);
#858=VECTOR('',#1499,1000.);
#859=VECTOR('',#1500,1000.);
#860=VECTOR('',#1503,1000.);
#861=VECTOR('',#1504,1000.);
#862=VECTOR('',#1517,1000.);
#863=VECTOR('',#1518,1000.);
#864=VECTOR('',#1521,1000.);
#865=VECTOR('',#1522,1000.);
#866=VECTOR('',#1527,1000.);
#867=VECTOR('',#1528,1000.);
#868=VECTOR('',#1531,1000.);
#869=VECTOR('',#1532,1000.);
#870=EDGE_LOOP('',(#87,#88,#89,#90));
#871=EDGE_LOOP('',(#91,#92,#93,#94,#95,#96,#97,#98));
#872=EDGE_LOOP('',(#99,#100,#101,#102,#103,#104,#105));
#873=EDGE_LOOP('',(#106,#107,#108,#109,#110,#111,#112,#113));
#874=EDGE_LOOP('',(#114,#115,#116,#117));
#875=EDGE_LOOP('',(#118));
#876=EDGE_LOOP('',(#119,#120,#121,#122));
#877=EDGE_LOOP('',(#123,#124,#125,#126,#127,#128));
#878=EDGE_LOOP('',(#129,#130,#131,#132));
#879=EDGE_LOOP('',(#133,#134,#135,#136,#137,#138));
#880=EDGE_LOOP('',(#139,#140,#141));
#881=EDGE_LOOP('',(#142,#143,#144));
#882=EDGE_LOOP('',(#145));
#883=EDGE_LOOP('',(#146,#147,#148,#149,#150,#151,#152,#153));
#884=EDGE_LOOP('',(#154));
#885=EDGE_LOOP('',(#155));
#886=EDGE_LOOP('',(#156));
#887=EDGE_LOOP('',(#157));
#888=EDGE_LOOP('',(#158));
#889=EDGE_LOOP('',(#159));
#890=EDGE_LOOP('',(#160));
#891=EDGE_LOOP('',(#161));
#892=EDGE_LOOP('',(#162));
#893=EDGE_LOOP('',(#163));
#894=EDGE_LOOP('',(#164));
#895=EDGE_LOOP('',(#165));
#896=EDGE_LOOP('',(#166,#167,#168,#169,#170,#171,#172,#173,#174,#175));
#897=EDGE_LOOP('',(#176));
#898=EDGE_LOOP('',(#177,#178,#179,#180,#181,#182,#183,#184,#185,#186,#187));
#899=EDGE_LOOP('',(#188,#189,#190,#191,#192,#193,#194,#195));
#900=EDGE_LOOP('',(#196,#197,#198,#199));
#901=EDGE_LOOP('',(#200,#201,#202,#203,#204,#205));
#902=EDGE_LOOP('',(#206,#207,#208,#209));
#903=EDGE_LOOP('',(#210));
#904=EDGE_LOOP('',(#211,#212,#213,#214));
#905=EDGE_LOOP('',(#215,#216,#217,#218));
#906=EDGE_LOOP('',(#219));
#907=EDGE_LOOP('',(#220,#221,#222,#223));
#908=EDGE_LOOP('',(#224,#225,#226,#227,#228,#229));
#909=EDGE_LOOP('',(#230,#231,#232,#233,#234,#235));
#910=EDGE_LOOP('',(#236,#237,#238,#239));
#911=EDGE_LOOP('',(#240,#241,#242,#243,#244,#245,#246,#247,#248,#249));
#912=EDGE_LOOP('',(#250,#251,#252,#253,#254,#255,#256,#257));
#913=EDGE_LOOP('',(#258));
#914=EDGE_LOOP('',(#259,#260,#261,#262,#263,#264,#265,#266));
#915=EDGE_LOOP('',(#267));
#916=EDGE_LOOP('',(#268));
#917=EDGE_LOOP('',(#269,#270,#271,#272));
#918=EDGE_LOOP('',(#273));
#919=EDGE_LOOP('',(#274,#275,#276,#277,#278,#279,#280,#281,#282,#283,#284,
#285));
#920=EDGE_LOOP('',(#286,#287,#288,#289));
#921=EDGE_LOOP('',(#290,#291,#292,#293));
#922=EDGE_LOOP('',(#294,#295,#296,#297,#298));
#923=EDGE_LOOP('',(#299,#300,#301,#302,#303,#304));
#924=EDGE_LOOP('',(#305,#306,#307));
#925=EDGE_LOOP('',(#308,#309,#310,#311,#312));
#926=EDGE_LOOP('',(#313,#314,#315,#316));
#927=EDGE_LOOP('',(#317));
#928=EDGE_LOOP('',(#318,#319,#320,#321,#322,#323,#324));
#929=EDGE_LOOP('',(#325));
#930=EDGE_LOOP('',(#326,#327,#328,#329));
#931=EDGE_LOOP('',(#330,#331,#332,#333));
#932=EDGE_LOOP('',(#334));
#933=EDGE_LOOP('',(#335,#336,#337,#338));
#934=EDGE_LOOP('',(#339,#340,#341,#342));
#935=EDGE_LOOP('',(#343));
#936=EDGE_LOOP('',(#344));
#937=EDGE_LOOP('',(#345));
#938=EDGE_LOOP('',(#346));
#939=EDGE_LOOP('',(#347,#348,#349,#350));
#940=EDGE_LOOP('',(#351,#352,#353,#354));
#941=EDGE_LOOP('',(#355,#356,#357,#358));
#942=EDGE_LOOP('',(#359,#360,#361,#362));
#943=EDGE_LOOP('',(#363,#364,#365,#366));
#944=EDGE_LOOP('',(#367,#368,#369,#370));
#945=EDGE_LOOP('',(#371,#372,#373,#374));
#946=EDGE_LOOP('',(#375,#376,#377,#378));
#947=EDGE_LOOP('',(#379,#380,#381,#382));
#948=EDGE_LOOP('',(#383,#384,#385,#386));
#949=EDGE_LOOP('',(#387,#388,#389,#390));
#950=EDGE_LOOP('',(#391,#392,#393,#394));
#951=FACE_BOUND('',#870,.T.);
#952=FACE_BOUND('',#871,.T.);
#953=FACE_BOUND('',#872,.T.);
#954=FACE_BOUND('',#873,.T.);
#955=FACE_BOUND('',#874,.T.);
#956=FACE_BOUND('',#875,.T.);
#957=FACE_BOUND('',#876,.T.);
#958=FACE_BOUND('',#877,.T.);
#959=FACE_BOUND('',#878,.T.);
#960=FACE_BOUND('',#879,.T.);
#961=FACE_BOUND('',#880,.T.);
#962=FACE_BOUND('',#881,.T.);
#963=FACE_BOUND('',#882,.T.);
#964=FACE_BOUND('',#883,.T.);
#965=FACE_BOUND('',#884,.T.);
#966=FACE_BOUND('',#885,.T.);
#967=FACE_BOUND('',#886,.T.);
#968=FACE_BOUND('',#887,.T.);
#969=FACE_BOUND('',#888,.T.);
#970=FACE_BOUND('',#889,.T.);
#971=FACE_BOUND('',#890,.T.);
#972=FACE_BOUND('',#891,.T.);
#973=FACE_BOUND('',#892,.T.);
#974=FACE_BOUND('',#893,.T.);
#975=FACE_BOUND('',#894,.T.);
#976=FACE_BOUND('',#895,.T.);
#977=FACE_BOUND('',#896,.T.);
#978=FACE_BOUND('',#897,.T.);
#979=FACE_BOUND('',#898,.T.);
#980=FACE_BOUND('',#899,.T.);
#981=FACE_BOUND('',#900,.T.);
#982=FACE_BOUND('',#901,.T.);
#983=FACE_BOUND('',#902,.T.);
#984=FACE_BOUND('',#903,.T.);
#985=FACE_BOUND('',#904,.T.);
#986=FACE_BOUND('',#905,.T.);
#987=FACE_BOUND('',#906,.T.);
#988=FACE_BOUND('',#907,.T.);
#989=FACE_BOUND('',#908,.T.);
#990=FACE_BOUND('',#909,.T.);
#991=FACE_BOUND('',#910,.T.);
#992=FACE_BOUND('',#911,.T.);
#993=FACE_BOUND('',#912,.T.);
#994=FACE_BOUND('',#913,.T.);
#995=FACE_BOUND('',#914,.T.);
#996=FACE_BOUND('',#915,.T.);
#997=FACE_BOUND('',#916,.T.);
#998=FACE_BOUND('',#917,.T.);
#999=FACE_BOUND('',#918,.T.);
#1000=FACE_BOUND('',#919,.T.);
#1001=FACE_BOUND('',#920,.T.);
#1002=FACE_BOUND('',#921,.T.);
#1003=FACE_BOUND('',#922,.T.);
#1004=FACE_BOUND('',#923,.T.);
#1005=FACE_BOUND('',#924,.T.);
#1006=FACE_BOUND('',#925,.T.);
#1007=FACE_BOUND('',#926,.T.);
#1008=FACE_BOUND('',#927,.T.);
#1009=FACE_BOUND('',#928,.T.);
#1010=FACE_BOUND('',#929,.T.);
#1011=FACE_BOUND('',#930,.T.);
#1012=FACE_BOUND('',#931,.T.);
#1013=FACE_BOUND('',#932,.T.);
#1014=FACE_BOUND('',#933,.T.);
#1015=FACE_BOUND('',#934,.T.);
#1016=FACE_BOUND('',#935,.T.);
#1017=FACE_BOUND('',#936,.T.);
#1018=FACE_BOUND('',#937,.T.);
#1019=FACE_BOUND('',#938,.T.);
#1020=FACE_BOUND('',#939,.T.);
#1021=FACE_BOUND('',#940,.T.);
#1022=FACE_BOUND('',#941,.T.);
#1023=FACE_BOUND('',#942,.T.);
#1024=FACE_BOUND('',#943,.T.);
#1025=FACE_BOUND('',#944,.T.);
#1026=FACE_BOUND('',#945,.T.);
#1027=FACE_BOUND('',#946,.T.);
#1028=FACE_BOUND('',#947,.T.);
#1029=FACE_BOUND('',#948,.T.);
#1030=FACE_BOUND('',#949,.T.);
#1031=FACE_BOUND('',#950,.T.);
#1032=PLANE('',#1142);
#1033=PLANE('',#1147);
#1034=PLANE('',#1157);
#1035=PLANE('',#1158);
#1036=PLANE('',#1159);
#1037=PLANE('',#1161);
#1038=PLANE('',#1162);
#1039=PLANE('',#1163);
#1040=PLANE('',#1169);
#1041=PLANE('',#1173);
#1042=PLANE('',#1179);
#1043=PLANE('',#1180);
#1044=PLANE('',#1181);
#1045=PLANE('',#1185);
#1046=PLANE('',#1187);
#1047=PLANE('',#1189);
#1048=PLANE('',#1190);
#1049=PLANE('',#1191);
#1050=PLANE('',#1193);
#1051=PLANE('',#1194);
#1052=PLANE('',#1196);
#1053=PLANE('',#1198);
#1054=PLANE('',#1200);
#1055=PLANE('',#1201);
#1056=PLANE('',#1208);
#1057=PLANE('',#1209);
#1058=PLANE('',#1214);
#1059=PLANE('',#1215);
#1060=PLANE('',#1216);
#1061=PLANE('',#1217);
#1062=PLANE('',#1218);
#1063=PLANE('',#1219);
#1064=PLANE('',#1220);
#1065=PLANE('',#1221);
#1066=PLANE('',#1225);
#1067=PLANE('',#1227);
#1068=PLANE('',#1228);
#1069=PLANE('',#1230);
#1070=ADVANCED_FACE('',(#951,#952),#1032,.F.);
#1071=ADVANCED_FACE('',(#953,#954),#1033,.F.);
#1072=ADVANCED_FACE('',(#955),#30,.T.);
#1073=ADVANCED_FACE('',(#956,#957),#31,.T.);
#1074=ADVANCED_FACE('',(#958),#1034,.F.);
#1075=ADVANCED_FACE('',(#959),#1035,.F.);
#1076=ADVANCED_FACE('',(#960),#1036,.T.);
#1077=ADVANCED_FACE('',(#961),#1037,.T.);
#1078=ADVANCED_FACE('',(#962),#1038,.T.);
#1079=ADVANCED_FACE('',(#963,#964),#1039,.T.);
#1080=ADVANCED_FACE('',(#965,#966),#1040,.F.);
#1081=ADVANCED_FACE('',(#967,#968),#32,.F.);
#1082=ADVANCED_FACE('',(#969,#970),#1041,.F.);
#1083=ADVANCED_FACE('',(#971,#972),#33,.F.);
#1084=ADVANCED_FACE('',(#973,#974),#34,.F.);
#1085=ADVANCED_FACE('',(#975,#976),#1042,.F.);
#1086=ADVANCED_FACE('',(#977),#1043,.F.);
#1087=ADVANCED_FACE('',(#978,#979),#1044,.T.);
#1088=ADVANCED_FACE('',(#980),#1045,.T.);
#1089=ADVANCED_FACE('',(#981),#1046,.T.);
#1090=ADVANCED_FACE('',(#982),#1047,.F.);
#1091=ADVANCED_FACE('',(#983),#1048,.T.);
#1092=ADVANCED_FACE('',(#984,#985),#1049,.T.);
#1093=ADVANCED_FACE('',(#986),#1050,.T.);
#1094=ADVANCED_FACE('',(#987,#988),#1051,.T.);
#1095=ADVANCED_FACE('',(#989),#1052,.T.);
#1096=ADVANCED_FACE('',(#990),#1053,.T.);
#1097=ADVANCED_FACE('',(#991),#1054,.T.);
#1098=ADVANCED_FACE('',(#992,#993),#1055,.F.);
#1099=ADVANCED_FACE('',(#994,#995),#35,.F.);
#1100=ADVANCED_FACE('',(#996,#997),#36,.F.);
#1101=ADVANCED_FACE('',(#998),#1056,.T.);
#1102=ADVANCED_FACE('',(#999,#1000),#1057,.T.);
#1103=ADVANCED_FACE('',(#1001),#1058,.F.);
#1104=ADVANCED_FACE('',(#1002),#1059,.T.);
#1105=ADVANCED_FACE('',(#1003),#1060,.T.);
#1106=ADVANCED_FACE('',(#1004),#1061,.F.);
#1107=ADVANCED_FACE('',(#1005),#1062,.F.);
#1108=ADVANCED_FACE('',(#1006),#1063,.F.);
#1109=ADVANCED_FACE('',(#1007),#1064,.F.);
#1110=ADVANCED_FACE('',(#1008,#1009),#1065,.T.);
#1111=ADVANCED_FACE('',(#1010,#1011),#1066,.T.);
#1112=ADVANCED_FACE('',(#1012),#1067,.T.);
#1113=ADVANCED_FACE('',(#1013,#1014),#1068,.T.);
#1114=ADVANCED_FACE('',(#1015),#1069,.T.);
#1115=ADVANCED_FACE('',(#1016,#1017),#37,.F.);
#1116=ADVANCED_FACE('',(#1018,#1019),#38,.F.);
#1117=ADVANCED_FACE('',(#1020),#39,.T.);
#1118=ADVANCED_FACE('',(#1021),#40,.T.);
#1119=ADVANCED_FACE('',(#1022),#41,.T.);
#1120=ADVANCED_FACE('',(#1023),#42,.T.);
#1121=ADVANCED_FACE('',(#1024),#43,.F.);
#1122=ADVANCED_FACE('',(#1025),#44,.F.);
#1123=ADVANCED_FACE('',(#1026),#45,.F.);
#1124=ADVANCED_FACE('',(#1027),#46,.F.);
#1125=ADVANCED_FACE('',(#1028),#47,.F.);
#1126=ADVANCED_FACE('',(#1029),#48,.F.);
#1127=ADVANCED_FACE('',(#1030),#49,.F.);
#1128=ADVANCED_FACE('',(#1031),#50,.F.);
#1129=CLOSED_SHELL('',(#1070,#1071,#1072,#1073,#1074,#1075,#1076,#1077,
#1078,#1079,#1080,#1081,#1082,#1083,#1084,#1085,#1086,#1087,#1088,#1089,
#1090,#1091,#1092,#1093,#1094,#1095,#1096,#1097,#1098,#1099,#1100,#1101,
#1102,#1103,#1104,#1105,#1106,#1107,#1108,#1109,#1110,#1111,#1112,#1113,
#1114,#1115,#1116,#1117,#1118,#1119,#1120,#1121,#1122,#1123,#1124,#1125,
#1126,#1127,#1128));
#1130=STYLED_ITEM('',(#1131),#1138);
#1131=PRESENTATION_STYLE_ASSIGNMENT((#1132));
#1132=SURFACE_STYLE_USAGE(.BOTH.,#1133);
#1133=SURFACE_SIDE_STYLE('',(#1134));
#1134=SURFACE_STYLE_FILL_AREA(#1135);
#1135=FILL_AREA_STYLE('',(#1136));
#1136=FILL_AREA_STYLE_COLOUR('',#1137);
#1137=COLOUR_RGB('',0.699999988079071,0.670680642127991,0.670680642127991);
#1138=MANIFOLD_SOLID_BREP('',#1129);
#1139=SHAPE_DEFINITION_REPRESENTATION(#1892,#1140);
#1140=SHAPE_REPRESENTATION('Supporto1',(#1141),#1887);
#1141=AXIS2_PLACEMENT_3D('',#1561,#1245,#1246);
#1142=AXIS2_PLACEMENT_3D('',#1562,#1247,#1248);
#1143=AXIS2_PLACEMENT_3D('',#1574,#1254,#1255);
#1144=AXIS2_PLACEMENT_3D('',#1578,#1257,#1258);
#1145=AXIS2_PLACEMENT_3D('',#1582,#1260,#1261);
#1146=AXIS2_PLACEMENT_3D('',#1586,#1263,#1264);
#1147=AXIS2_PLACEMENT_3D('',#1587,#1265,#1266);
#1148=AXIS2_PLACEMENT_3D('',#1605,#1275,#1276);
#1149=AXIS2_PLACEMENT_3D('',#1609,#1278,#1279);
#1150=AXIS2_PLACEMENT_3D('',#1613,#1281,#1282);
#1151=AXIS2_PLACEMENT_3D('',#1617,#1284,#1285);
#1152=AXIS2_PLACEMENT_3D('',#1618,#1286,#1287);
#1153=AXIS2_PLACEMENT_3D('',#1627,#1289,#1290);
#1154=AXIS2_PLACEMENT_3D('',#1630,#1292,#1293);
#1155=AXIS2_PLACEMENT_3D('',#1631,#1294,#1295);
#1156=AXIS2_PLACEMENT_3D('',#1641,#1297,#1298);
#1157=AXIS2_PLACEMENT_3D('',#1644,#1300,#1301);
#1158=AXIS2_PLACEMENT_3D('',#1654,#1307,#1308);
#1159=AXIS2_PLACEMENT_3D('',#1660,#1312,#1313);
#1160=AXIS2_PLACEMENT_3D('',#1661,#1314,#1315);
#1161=AXIS2_PLACEMENT_3D('',#1670,#1320,#1321);
#1162=AXIS2_PLACEMENT_3D('',#1674,#1324,#1325);
#1163=AXIS2_PLACEMENT_3D('',#1678,#1328,#1329);
#1164=AXIS2_PLACEMENT_3D('',#1679,#1330,#1331);
#1165=AXIS2_PLACEMENT_3D('',#1684,#1333,#1334);
#1166=AXIS2_PLACEMENT_3D('',#1688,#1336,#1337);
#1167=AXIS2_PLACEMENT_3D('',#1692,#1339,#1340);
#1168=AXIS2_PLACEMENT_3D('',#1696,#1342,#1343);
#1169=AXIS2_PLACEMENT_3D('',#1697,#1344,#1345);
#1170=AXIS2_PLACEMENT_3D('',#1698,#1346,#1347);
#1171=AXIS2_PLACEMENT_3D('',#1700,#1348,#1349);
#1172=AXIS2_PLACEMENT_3D('',#1701,#1350,#1351);
#1173=AXIS2_PLACEMENT_3D('',#1703,#1352,#1353);
#1174=AXIS2_PLACEMENT_3D('',#1704,#1354,#1355);
#1175=AXIS2_PLACEMENT_3D('',#1706,#1356,#1357);
#1176=AXIS2_PLACEMENT_3D('',#1707,#1358,#1359);
#1177=AXIS2_PLACEMENT_3D('',#1709,#1360,#1361);
#1178=AXIS2_PLACEMENT_3D('',#1710,#1362,#1363);
#1179=AXIS2_PLACEMENT_3D('',#1712,#1364,#1365);
#1180=AXIS2_PLACEMENT_3D('',#1713,#1366,#1367);
#1181=AXIS2_PLACEMENT_3D('',#1727,#1375,#1376);
#1182=AXIS2_PLACEMENT_3D('',#1728,#1377,#1378);
#1183=AXIS2_PLACEMENT_3D('',#1730,#1379,#1380);
#1184=AXIS2_PLACEMENT_3D('',#1742,#1387,#1388);
#1185=AXIS2_PLACEMENT_3D('',#1743,#1389,#1390);
#1186=AXIS2_PLACEMENT_3D('',#1744,#1391,#1392);
#1187=AXIS2_PLACEMENT_3D('',#1753,#1397,#1398);
#1188=AXIS2_PLACEMENT_3D('',#1757,#1400,#1401);
#1189=AXIS2_PLACEMENT_3D('',#1759,#1403,#1404);
#1190=AXIS2_PLACEMENT_3D('',#1765,#1408,#1409);
#1191=AXIS2_PLACEMENT_3D('',#1769,#1412,#1413);
#1192=AXIS2_PLACEMENT_3D('',#1770,#1414,#1415);
#1193=AXIS2_PLACEMENT_3D('',#1777,#1419,#1420);
#1194=AXIS2_PLACEMENT_3D('',#1783,#1424,#1425);
#1195=AXIS2_PLACEMENT_3D('',#1784,#1426,#1427);
#1196=AXIS2_PLACEMENT_3D('',#1791,#1431,#1432);
#1197=AXIS2_PLACEMENT_3D('',#1792,#1433,#1434);
#1198=AXIS2_PLACEMENT_3D('',#1794,#1436,#1437);
#1199=AXIS2_PLACEMENT_3D('',#1795,#1438,#1439);
#1200=AXIS2_PLACEMENT_3D('',#1797,#1441,#1442);
#1201=AXIS2_PLACEMENT_3D('',#1803,#1446,#1447);
#1202=AXIS2_PLACEMENT_3D('',#1806,#1450,#1451);
#1203=AXIS2_PLACEMENT_3D('',#1807,#1452,#1453);
#1204=AXIS2_PLACEMENT_3D('',#1808,#1454,#1455);
#1205=AXIS2_PLACEMENT_3D('',#1809,#1456,#1457);
#1206=AXIS2_PLACEMENT_3D('',#1810,#1458,#1459);
#1207=AXIS2_PLACEMENT_3D('',#1811,#1460,#1461);
#1208=AXIS2_PLACEMENT_3D('',#1812,#1462,#1463);
#1209=AXIS2_PLACEMENT_3D('',#1818,#1467,#1468);
#1210=AXIS2_PLACEMENT_3D('',#1819,#1469,#1470);
#1211=AXIS2_PLACEMENT_3D('',#1821,#1471,#1472);
#1212=AXIS2_PLACEMENT_3D('',#1827,#1476,#1477);
#1213=AXIS2_PLACEMENT_3D('',#1828,#1478,#1479);
#1214=AXIS2_PLACEMENT_3D('',#1831,#1481,#1482);
#1215=AXIS2_PLACEMENT_3D('',#1834,#1485,#1486);
#1216=AXIS2_PLACEMENT_3D('',#1835,#1487,#1488);
#1217=AXIS2_PLACEMENT_3D('',#1837,#1490,#1491);
#1218=AXIS2_PLACEMENT_3D('',#1839,#1493,#1494);
#1219=AXIS2_PLACEMENT_3D('',#1843,#1497,#1498);
#1220=AXIS2_PLACEMENT_3D('',#1847,#1501,#1502);
#1221=AXIS2_PLACEMENT_3D('',#1851,#1505,#1506);
#1222=AXIS2_PLACEMENT_3D('',#1852,#1507,#1508);
#1223=AXIS2_PLACEMENT_3D('',#1854,#1509,#1510);
#1224=AXIS2_PLACEMENT_3D('',#1855,#1511,#1512);
#1225=AXIS2_PLACEMENT_3D('',#1856,#1513,#1514);
#1226=AXIS2_PLACEMENT_3D('',#1857,#1515,#1516);
#1227=AXIS2_PLACEMENT_3D('',#1861,#1519,#1520);
#1228=AXIS2_PLACEMENT_3D('',#1864,#1523,#1524);
#1229=AXIS2_PLACEMENT_3D('',#1865,#1525,#1526);
#1230=AXIS2_PLACEMENT_3D('',#1869,#1529,#1530);
#1231=AXIS2_PLACEMENT_3D('',#1872,#1533,#1534);
#1232=AXIS2_PLACEMENT_3D('',#1873,#1535,#1536);
#1233=AXIS2_PLACEMENT_3D('',#1874,#1537,#1538);
#1234=AXIS2_PLACEMENT_3D('',#1875,#1539,#1540);
#1235=AXIS2_PLACEMENT_3D('',#1876,#1541,#1542);
#1236=AXIS2_PLACEMENT_3D('',#1877,#1543,#1544);
#1237=AXIS2_PLACEMENT_3D('',#1878,#1545,#1546);
#1238=AXIS2_PLACEMENT_3D('',#1879,#1547,#1548);
#1239=AXIS2_PLACEMENT_3D('',#1880,#1549,#1550);
#1240=AXIS2_PLACEMENT_3D('',#1881,#1551,#1552);
#1241=AXIS2_PLACEMENT_3D('',#1882,#1553,#1554);
#1242=AXIS2_PLACEMENT_3D('',#1883,#1555,#1556);
#1243=AXIS2_PLACEMENT_3D('',#1884,#1557,#1558);
#1244=AXIS2_PLACEMENT_3D('',#1885,#1559,#1560);
#1245=DIRECTION('',(0.,0.,1.));
#1246=DIRECTION('',(1.,0.,0.));
#1247=DIRECTION('',(-6.53922060638758E-19,1.,5.55111512312578E-16));
#1248=DIRECTION('',(0.,-5.55111512312578E-16,1.));
#1249=DIRECTION('',(-0.00117800044210118,-5.5511189747295E-16,0.999999306157239));
#1250=DIRECTION('',(0.999999306157239,9.62964972193618E-35,0.00117800044210118));
#1251=DIRECTION('',(-0.00117800044210118,-5.5511189747295E-16,0.999999306157239));
#1252=DIRECTION('',(0.999999306157239,9.62964972193618E-35,0.00117800044210118));
#1253=DIRECTION('',(-1.,8.66707214115102E-16,-7.10802944281497E-16));
#1254=DIRECTION('',(-6.53922060638758E-19,1.,5.55111512312578E-16));
#1255=DIRECTION('',(0.,-5.55111512312578E-16,1.));
#1256=DIRECTION('',(-5.03069808033274E-17,-5.5613326482339E-16,1.));
#1257=DIRECTION('',(-6.53922060638758E-19,1.,5.55111512312578E-16));
#1258=DIRECTION('',(0.,-5.55111512312578E-16,1.));
#1259=DIRECTION('',(1.,-8.66707214115102E-16,1.33725495954362E-15));
#1260=DIRECTION('',(-6.53922060638758E-19,1.,5.55111512312578E-16));
#1261=DIRECTION('',(0.,-5.55111512312578E-16,1.));
#1262=DIRECTION('',(-0.000392615627603125,5.56473504757061E-16,-0.999999922926482));
#1263=DIRECTION('',(-6.53922060638758E-19,1.,5.55111512312578E-16));
#1264=DIRECTION('',(0.,-5.55111512312578E-16,1.));
#1265=DIRECTION('',(0.,-1.,0.));
#1266=DIRECTION('',(0.,0.,-1.));
#1267=DIRECTION('',(1.,0.,7.59037338322513E-16));
#1268=DIRECTION('',(-4.33680868994202E-16,0.,1.));
#1269=DIRECTION('',(0.00117800044210118,0.,-0.999999306157239));
#1270=DIRECTION('',(0.999999306157239,0.,0.00117800044210118));
#1271=DIRECTION('',(-8.67361737988404E-16,0.,1.));
#1272=DIRECTION('',(-1.,0.,-4.33680868994202E-16));
#1273=DIRECTION('',(0.00117800044210118,0.,-0.999999306157239));
#1274=DIRECTION('',(-5.03069808033274E-17,0.,1.));
#1275=DIRECTION('',(0.,-1.,0.));
#1276=DIRECTION('',(0.,0.,-1.));
#1277=DIRECTION('',(-1.,0.,-7.10802944281497E-16));
#1278=DIRECTION('',(0.,-1.,0.));
#1279=DIRECTION('',(0.,0.,-1.));
#1280=DIRECTION('',(-0.000392615627603125,0.,-0.999999922926482));
#1281=DIRECTION('',(0.,-1.,0.));
#1282=DIRECTION('',(0.,0.,-1.));
#1283=DIRECTION('',(1.,0.,1.33725495954362E-15));
#1284=DIRECTION('',(0.,-1.,0.));
#1285=DIRECTION('',(0.,0.,-1.));
#1286=DIRECTION('',(0.,1.,0.));
#1287=DIRECTION('',(0.,0.,1.));
#1288=DIRECTION('',(0.,1.,0.));
#1289=DIRECTION('',(0.,1.,0.));
#1290=DIRECTION('',(-1.,0.,-7.23085380153173E-16));
#1291=DIRECTION('',(0.,1.,0.));
#1292=DIRECTION('',(0.,1.,0.));
#1293=DIRECTION('',(0.,0.,1.));
#1294=DIRECTION('',(0.,-1.,0.));
#1295=DIRECTION('',(1.,0.,0.));
#1296=DIRECTION('',(0.,1.,0.));
#1297=DIRECTION('',(0.,-1.,0.));
#1298=DIRECTION('',(0.,0.,-1.));
#1299=DIRECTION('',(0.,1.,0.));
#1300=DIRECTION('',(0.,-8.49830834647197E-16,1.));
#1301=DIRECTION('',(0.,-1.,-8.49830834647197E-16));
#1302=DIRECTION('',(-1.,0.,0.));
#1303=DIRECTION('',(-1.,0.,0.));
#1304=DIRECTION('',(0.,1.,8.49830834647197E-16));
#1305=DIRECTION('',(-1.,0.,0.));
#1306=DIRECTION('',(0.,1.,0.));
#1307=DIRECTION('',(0.,-8.49830834647197E-16,1.));
#1308=DIRECTION('',(0.,-1.,-8.49830834647197E-16));
#1309=DIRECTION('',(-1.,0.,0.));
#1310=DIRECTION('',(0.,1.,0.));
#1311=DIRECTION('',(-1.,0.,8.77578956175965E-18));
#1312=DIRECTION('',(0.000785333930788374,-8.67361737988403E-16,0.999999691625261));
#1313=DIRECTION('',(0.999999691625261,0.,-0.000785333930788374));
#1314=DIRECTION('',(0.000785333930788374,-8.67361737988403E-16,0.999999691625261));
#1315=DIRECTION('',(-0.999999691625261,-6.81168813165124E-19,0.000785333930788374));
#1316=DIRECTION('',(0.,1.,0.));
#1317=DIRECTION('',(-0.999999691625261,0.,0.000785333930788374));
#1318=DIRECTION('',(6.81168603109868E-19,1.,8.67361470515954E-16));
#1319=DIRECTION('',(-0.999999691625261,0.,0.000785333930788374));
#1320=DIRECTION('',(0.,-1.,0.));
#1321=DIRECTION('',(0.,0.,-1.));
#1322=DIRECTION('',(0.,0.,-1.));
#1323=DIRECTION('',(-0.000277176756281803,0.,-0.999999961586522));
#1324=DIRECTION('',(0.,-1.,0.));
#1325=DIRECTION('',(0.,0.,-1.));
#1326=DIRECTION('',(-0.00027717675603166,0.,-0.999999961586522));
#1327=DIRECTION('',(0.000785333930788374,0.,0.999999691625261));
#1328=DIRECTION('',(0.,-1.,0.));
#1329=DIRECTION('',(0.,0.,-1.));
#1330=DIRECTION('',(0.,1.,0.));
#1331=DIRECTION('',(0.,0.,-1.));
#1332=DIRECTION('',(-1.,0.,-8.67645669817907E-16));
#1333=DIRECTION('',(0.,-1.,0.));
#1334=DIRECTION('',(0.,0.,-1.));
#1335=DIRECTION('',(1.44844232647686E-16,0.,-1.));
#1336=DIRECTION('',(0.,-1.,0.));
#1337=DIRECTION('',(0.,0.,-1.));
#1338=DIRECTION('',(1.,0.,7.23085380153173E-16));
#1339=DIRECTION('',(0.,-1.,0.));
#1340=DIRECTION('',(0.,0.,-1.));
#1341=DIRECTION('',(0.000392615627603144,0.,0.999999922926482));
#1342=DIRECTION('',(0.,-1.,0.));
#1343=DIRECTION('',(0.,0.,-1.));
#1344=DIRECTION('',(0.,-1.,0.));
#1345=DIRECTION('',(0.,0.,-1.));
#1346=DIRECTION('',(0.,-1.,0.));
#1347=DIRECTION('',(1.,0.,0.));
#1348=DIRECTION('',(0.,1.,0.));
#1349=DIRECTION('',(0.,0.,1.));
#1350=DIRECTION('',(0.,-1.,0.));
#1351=DIRECTION('',(1.,0.,0.));
#1352=DIRECTION('',(0.,-1.,0.));
#1353=DIRECTION('',(0.,0.,-1.));
#1354=DIRECTION('',(0.,-1.,0.));
#1355=DIRECTION('',(0.,0.,-1.));
#1356=DIRECTION('',(0.,-1.,0.));
#1357=DIRECTION('',(0.,0.,-1.));
#1358=DIRECTION('',(0.,1.,0.));
#1359=DIRECTION('',(1.,0.,0.));
#1360=DIRECTION('',(0.,-1.,0.));
#1361=DIRECTION('',(0.,0.,-1.));
#1362=DIRECTION('',(0.,1.,0.));
#1363=DIRECTION('',(1.,0.,0.));
#1364=DIRECTION('',(0.,1.,0.));
#1365=DIRECTION('',(0.,0.,1.));
#1366=DIRECTION('',(0.,-1.,0.));
#1367=DIRECTION('',(0.,0.,-1.));
#1368=DIRECTION('',(-0.00117800044210118,0.,0.999999306157239));
#1369=DIRECTION('',(1.,0.,4.33680868994202E-16));
#1370=DIRECTION('',(0.,-1.020425574104E-16,-1.));
#1371=DIRECTION('',(1.,0.,4.33680868994202E-16));
#1372=DIRECTION('',(0.,-1.020425574104E-16,1.));
#1373=DIRECTION('',(-0.000785333930788374,0.,-0.999999691625261));
#1374=DIRECTION('',(-7.80795923287265E-16,3.46944695195361E-16,1.));
#1375=DIRECTION('',(-1.,0.,0.));
#1376=DIRECTION('',(0.,0.,1.));
#1377=DIRECTION('',(1.,0.,0.));
#1378=DIRECTION('',(0.,1.,1.92747052886312E-16));
#1379=DIRECTION('',(-1.,0.,0.));
#1380=DIRECTION('',(0.,0.,1.));
#1381=DIRECTION('',(0.,-1.,0.));
#1382=DIRECTION('',(0.,1.,0.));
#1383=DIRECTION('',(-1.1083003569077E-16,0.,1.));
#1384=DIRECTION('',(0.,1.,0.));
#1385=DIRECTION('',(-8.67361737988404E-16,0.,1.));
#1386=DIRECTION('',(0.,-1.,0.));
#1387=DIRECTION('',(-1.,0.,0.));
#1388=DIRECTION('',(0.,0.,1.));
#1389=DIRECTION('',(1.,0.,0.));
#1390=DIRECTION('',(0.,0.,-1.));
#1391=DIRECTION('',(1.,0.,0.));
#1392=DIRECTION('',(0.,0.,-1.));
#1393=DIRECTION('',(0.,-1.,0.));
#1394=DIRECTION('',(8.67361737988404E-16,0.,-1.));
#1395=DIRECTION('',(0.,1.,0.));
#1396=DIRECTION('',(0.,1.,0.));
#1397=DIRECTION('',(0.000785333930788374,-8.67361737988403E-16,0.999999691625261));
#1398=DIRECTION('',(0.999999691625261,0.,-0.000785333930788374));
#1399=DIRECTION('',(0.,1.,0.));
#1400=DIRECTION('',(0.000785333930788374,-8.67361737988403E-16,0.999999691625261));
#1401=DIRECTION('',(-0.999999691625261,-6.81168813165124E-19,0.000785333930788374));
#1402=DIRECTION('',(0.999999691625261,0.,-0.000785333930788385));
#1403=DIRECTION('',(-0.999999691625261,0.,0.000785333930788374));
#1404=DIRECTION('',(0.000785333930788374,0.,0.999999691625261));
#1405=DIRECTION('',(0.,1.,0.));
#1406=DIRECTION('',(-0.000785786615519189,0.,-0.99999969126965));
#1407=DIRECTION('',(0.,1.,0.));
#1408=DIRECTION('',(1.,0.,7.80795923287265E-16));
#1409=DIRECTION('',(7.80795923287265E-16,0.,-1.));
#1410=DIRECTION('',(7.23085380153173E-16,0.,-1.));
#1411=DIRECTION('',(0.,1.,0.));
#1412=DIRECTION('',(-0.999999922926482,0.,0.000392615627603144));
#1413=DIRECTION('',(0.000392615627603144,0.,0.999999922926482));
#1414=DIRECTION('',(-0.999999922926482,0.,0.000392615627603144));
#1415=DIRECTION('',(-0.000392615627603144,0.,-0.999999922926482));
#1416=DIRECTION('',(0.000392615627603144,0.,0.999999922926482));
#1417=DIRECTION('',(0.,1.,0.));
#1418=DIRECTION('',(0.,1.,0.));
#1419=DIRECTION('',(8.67645669817907E-16,0.,-1.));
#1420=DIRECTION('',(-1.,0.,-8.67645669817907E-16));
#1421=DIRECTION('',(-1.,0.,-8.67645669817907E-16));
#1422=DIRECTION('',(0.,1.,0.));
#1423=DIRECTION('',(0.,1.,0.));
#1424=DIRECTION('',(1.,0.,1.44844232647686E-16));
#1425=DIRECTION('',(1.44844232647686E-16,0.,-1.));
#1426=DIRECTION('',(1.,0.,1.44844232647686E-16));
#1427=DIRECTION('',(1.44844232647686E-16,0.,-1.));
#1428=DIRECTION('',(0.,1.,0.));
#1429=DIRECTION('',(1.44844232647686E-16,0.,-1.));
#1430=DIRECTION('',(0.,1.,0.));
#1431=DIRECTION('',(0.999999961586522,0.,-0.000277176756281803));
#1432=DIRECTION('',(-0.000277176756281803,0.,-0.999999961586522));
#1433=DIRECTION('',(0.999999961586522,0.,-0.000277176756281803));
#1434=DIRECTION('',(-0.000277176756281803,0.,-0.999999961586522));
#1435=DIRECTION('',(-0.000277176756281803,0.,-0.999999961586522));
#1436=DIRECTION('',(0.999999961586522,0.,-0.00027717675603166));
#1437=DIRECTION('',(-0.00027717675603166,0.,-0.999999961586522));
#1438=DIRECTION('',(0.999999961586522,0.,-0.00027717675603166));
#1439=DIRECTION('',(-0.00027717675603166,0.,-0.999999961586522));
#1440=DIRECTION('',(-0.00027717675603166,0.,-0.999999961586522));
#1441=DIRECTION('',(-7.23085380153173E-16,0.,1.));
#1442=DIRECTION('',(1.,0.,7.23085380153173E-16));
#1443=DIRECTION('',(1.,0.,7.23085380153173E-16));
#1444=DIRECTION('',(0.,1.,0.));
#1445=DIRECTION('',(0.,1.,0.));
#1446=DIRECTION('',(0.,1.,0.));
#1447=DIRECTION('',(0.,0.,1.));
#1448=DIRECTION('',(-1.,0.,-4.33680868994202E-16));
#1449=DIRECTION('',(1.,0.,7.59037338322513E-16));
#1450=DIRECTION('',(0.,1.,0.));
#1451=DIRECTION('',(0.,0.,1.));
#1452=DIRECTION('',(0.,1.,0.));
#1453=DIRECTION('',(0.,0.,1.));
#1454=DIRECTION('',(0.,1.,0.));
#1455=DIRECTION('',(0.,0.,1.));
#1456=DIRECTION('',(0.,1.,0.));
#1457=DIRECTION('',(0.,0.,1.));
#1458=DIRECTION('',(-1.,0.,0.));
#1459=DIRECTION('',(0.,0.,1.));
#1460=DIRECTION('',(-1.,0.,0.));
#1461=DIRECTION('',(0.,0.,1.));
#1462=DIRECTION('',(4.33680868994202E-16,0.,-1.));
#1463=DIRECTION('',(-1.,0.,-4.33680868994202E-16));
#1464=DIRECTION('',(1.,0.,4.33680868994202E-16));
#1465=DIRECTION('',(0.,-1.,0.));
#1466=DIRECTION('',(-1.,0.,-4.33680868994202E-16));
#1467=DIRECTION('',(0.999999306157238,0.,0.00117800044210118));
#1468=DIRECTION('',(0.00117800044210118,0.,-0.999999306157239));
#1469=DIRECTION('',(0.999999306157238,0.,0.00117800044210118));
#1470=DIRECTION('',(0.00117800044210118,0.,-0.999999306157239));
#1471=DIRECTION('',(0.999999306157238,0.,0.00117800044210118));
#1472=DIRECTION('',(-0.00117800044210118,0.,0.999999306157239));
#1473=DIRECTION('',(0.,1.,0.));
#1474=DIRECTION('',(0.00117800044210118,0.,-0.999999306157239));
#1475=DIRECTION('',(0.,1.,0.));
#1476=DIRECTION('',(0.999999306157238,0.,0.00117800044210118));
#1477=DIRECTION('',(0.00117800044210118,0.,-0.999999306157239));
#1478=DIRECTION('',(0.999999306157238,0.,0.00117800044210118));
#1479=DIRECTION('',(0.00117800044210118,0.,-0.999999306157239));
#1480=DIRECTION('',(6.81168340541323E-19,-1.,-5.78240757450494E-16));
#1481=DIRECTION('',(4.33680868994202E-16,0.,-1.));
#1482=DIRECTION('',(-1.,0.,-4.33680868994202E-16));
#1483=DIRECTION('',(1.,0.,4.33680868994202E-16));
#1484=DIRECTION('',(1.,0.,4.33680868994202E-16));
#1485=DIRECTION('',(-7.59037338322513E-16,0.,1.));
#1486=DIRECTION('',(1.,0.,7.59037338322513E-16));
#1487=DIRECTION('',(4.33680868994202E-16,0.,-1.));
#1488=DIRECTION('',(-1.,0.,-4.33680868994202E-16));
#1489=DIRECTION('',(-1.,0.,-4.33680868994202E-16));
#1490=DIRECTION('',(0.,1.,0.));
#1491=DIRECTION('',(0.,0.,1.));
#1492=DIRECTION('',(0.999999306157239,0.,0.00117800044210118));
#1493=DIRECTION('',(0.,-1.,0.));
#1494=DIRECTION('',(0.,0.,-1.));
#1495=DIRECTION('',(0.999999306157239,0.,0.00117800044210118));
#1496=DIRECTION('',(0.00117800044210118,0.,-0.999999306157239));
#1497=DIRECTION('',(0.00117800044210118,0.,-0.999999306157239));
#1498=DIRECTION('',(-0.999999306157239,0.,-0.00117800044210118));
#1499=DIRECTION('',(0.,1.,0.));
#1500=DIRECTION('',(0.999999306157239,9.62964972193618E-35,0.00117800044210118));
#1501=DIRECTION('',(-0.00117800044210118,-5.78241158658936E-16,0.999999306157239));
#1502=DIRECTION('',(0.999999306157239,0.,0.00117800044210118));
#1503=DIRECTION('',(0.999999306157239,1.92592994438724E-34,0.00117800044210118));
#1504=DIRECTION('',(6.81168340541323E-19,-1.,-5.78240757450494E-16));
#1505=DIRECTION('',(-0.999999306157239,0.,-0.00117800044210118));
#1506=DIRECTION('',(-0.00117800044210118,0.,0.999999306157239));
#1507=DIRECTION('',(0.999999306157239,1.68518870133883E-32,0.00117800044210115));
#1508=DIRECTION('',(-0.00117800044210115,-5.5511189747295E-16,0.999999306157238));
#1509=DIRECTION('',(-0.999999306157239,0.,-0.00117800044210118));
#1510=DIRECTION('',(-0.00117800044210118,0.,0.999999306157239));
#1511=DIRECTION('',(-0.999999306157239,0.,-0.00117800044210118));
#1512=DIRECTION('',(-0.00117800044210118,0.,0.999999306157239));
#1513=DIRECTION('',(1.,6.53922060638749E-19,5.03069808033274E-17));
#1514=DIRECTION('',(5.03069808033274E-17,0.,-1.));
#1515=DIRECTION('',(1.,6.53922060638749E-19,5.03069808033274E-17));
#1516=DIRECTION('',(5.03069808033274E-17,5.55111512312594E-16,-1.));
#1517=DIRECTION('',(6.53922060638777E-19,-1.,-5.55111512312578E-16));
#1518=DIRECTION('',(6.53922060638777E-19,-1.,-5.55111512312578E-16));
#1519=DIRECTION('',(1.33725495954362E-15,5.55111512312578E-16,-1.));
#1520=DIRECTION('',(-1.,0.,-1.33725495954362E-15));
#1521=DIRECTION('',(6.53922060638777E-19,-1.,-5.55111512312578E-16));
#1522=DIRECTION('',(6.53922060638777E-19,-1.,-5.55111512312578E-16));
#1523=DIRECTION('',(-0.999999922926482,-8.71867465035026E-19,0.000392615627603125));
#1524=DIRECTION('',(0.000392615627603125,0.,0.999999922926482));
#1525=DIRECTION('',(-0.999999922926482,-8.71867465035026E-19,0.000392615627603125));
#1526=DIRECTION('',(-0.000392615627603125,5.55111212788173E-16,-0.999999922926482));
#1527=DIRECTION('',(6.53922060638777E-19,-1.,-5.55111512312578E-16));
#1528=DIRECTION('',(6.53922060638777E-19,-1.,-5.55111512312578E-16));
#1529=DIRECTION('',(-7.10802944281497E-16,-5.55111512312578E-16,1.));
#1530=DIRECTION('',(1.,0.,7.10802944281497E-16));
#1531=DIRECTION('',(6.53922060638777E-19,-1.,-5.55111512312578E-16));
#1532=DIRECTION('',(6.53922060638777E-19,-1.,-5.55111512312578E-16));
#1533=DIRECTION('',(-0.999999306157238,2.13778223826983E-32,-0.00117800044210122));
#1534=DIRECTION('',(-0.00117800044210122,0.,0.999999306157239));
#1535=DIRECTION('',(-0.999999306157238,2.13778223826983E-32,-0.00117800044210122));
#1536=DIRECTION('',(-0.00117800044210122,0.,0.999999306157239));
#1537=DIRECTION('',(0.999999306157239,9.62964972193618E-35,0.00117800044210118));
#1538=DIRECTION('',(0.00117800044210118,0.,-0.999999306157239));
#1539=DIRECTION('',(1.,0.,4.33680868994202E-16));
#1540=DIRECTION('',(4.33680868994202E-16,0.,-1.));
#1541=DIRECTION('',(0.999999306157239,9.62964972193618E-35,0.00117800044210118));
#1542=DIRECTION('',(0.00117800044210118,0.,-0.999999306157239));
#1543=DIRECTION('',(-1.,0.,-4.33680868994202E-16));
#1544=DIRECTION('',(-4.33680868994202E-16,0.,1.));
#1545=DIRECTION('',(-6.53922060638777E-19,1.,5.55111512312578E-16));
#1546=DIRECTION('',(0.,-5.55111512312578E-16,1.));
#1547=DIRECTION('',(-6.53922060638777E-19,1.,5.55111512312578E-16));
#1548=DIRECTION('',(0.,-5.55111512312578E-16,1.));
#1549=DIRECTION('',(-6.53922060638777E-19,1.,5.55111512312578E-16));
#1550=DIRECTION('',(0.,-5.55111512312578E-16,1.));
#1551=DIRECTION('',(-6.53922060638777E-19,1.,5.55111512312578E-16));
#1552=DIRECTION('',(0.,-5.55111512312578E-16,1.));
#1553=DIRECTION('',(0.,-1.,0.));
#1554=DIRECTION('',(0.,0.,-1.));
#1555=DIRECTION('',(0.,-1.,0.));
#1556=DIRECTION('',(0.,0.,-1.));
#1557=DIRECTION('',(0.,-1.,0.));
#1558=DIRECTION('',(0.,0.,-1.));
#1559=DIRECTION('',(0.,-1.,0.));
#1560=DIRECTION('',(0.,0.,-1.));
#1561=CARTESIAN_POINT('',(0.,0.,0.));
#1562=CARTESIAN_POINT('',(-3.99999444925791,-32.02,-6.25942400353681));
#1563=CARTESIAN_POINT('',(4.,-32.02,-6.25));
#1564=CARTESIAN_POINT('',(3.9988219995579,-32.02,-5.25000069384276));
#1565=CARTESIAN_POINT('',(3.98645300513268,-32.02,5.24998334777974));
#1566=CARTESIAN_POINT('',(-4.01354144412523,-32.02,5.24055934424293));
#1567=CARTESIAN_POINT('',(-4.01354144412523,-32.02,5.24055934424293));
#1568=CARTESIAN_POINT('',(-3.99999444925791,-32.02,-6.25942400353681));
#1569=CARTESIAN_POINT('',(-4.00117244970001,-32.02,-5.25942469737957));
#1570=CARTESIAN_POINT('',(-4.00117244970001,-32.02,-5.25942469737957));
#1571=CARTESIAN_POINT('',(2.99823322950554,-32.02,-2.25000008679861));
#1572=CARTESIAN_POINT('',(1.99862576808988,-32.02,-2.25000008679861));
#1573=CARTESIAN_POINT('',(-2.,-32.02,-2.25000008679861));
#1574=CARTESIAN_POINT('',(-2.,-32.02,-1.25000008679861));
#1575=CARTESIAN_POINT('',(-3.,-32.02,-1.25000008679861));
#1576=CARTESIAN_POINT('',(-3.,-32.02,-2.25000008679861));
#1577=CARTESIAN_POINT('',(-3.,-32.02,1.24999999999998));
#1578=CARTESIAN_POINT('',(-2.,-32.02,1.24999999999998));
#1579=CARTESIAN_POINT('',(-2.,-32.02,2.24999999999998));
#1580=CARTESIAN_POINT('',(-3.,-32.02,2.24999999999998));
#1581=CARTESIAN_POINT('',(1.99960730726861,-32.02,2.24999999999999));
#1582=CARTESIAN_POINT('',(1.99960730726861,-32.02,1.24999999999999));
#1583=CARTESIAN_POINT('',(2.99960723019509,-32.02,1.24960738437239));
#1584=CARTESIAN_POINT('',(3.,-32.02,2.24999999999999));
#1585=CARTESIAN_POINT('',(2.99862569101636,-32.02,-1.25039270242621));
#1586=CARTESIAN_POINT('',(1.99862576808988,-32.02,-1.25000008679861));
#1587=CARTESIAN_POINT('',(-4.0023504517768,-27.52,-4.25942400353681));
#1588=CARTESIAN_POINT('',(3.9976439974811,-27.52,-4.25));
#1589=CARTESIAN_POINT('',(-4.,-27.52,-4.25));
#1590=CARTESIAN_POINT('',(3.9976439974811,-27.52,-4.25));
#1591=CARTESIAN_POINT('',(-4.,-27.52,-6.25));
#1592=CARTESIAN_POINT('',(-4.00000555073439,-27.52,-6.25000000980817));
#1593=CARTESIAN_POINT('',(-4.01471944456733,-27.52,6.24055865040017));
#1594=CARTESIAN_POINT('',(-4.01471944456733,-27.52,6.24055865040017));
#1595=CARTESIAN_POINT('',(-4.01471944456733,-27.52,6.24055865040017));
#1596=CARTESIAN_POINT('',(-4.,-27.52,6.24057598992441));
#1597=CARTESIAN_POINT('',(-4.,-27.52,4.25));
#1598=CARTESIAN_POINT('',(-4.,-27.52,4.25));
#1599=CARTESIAN_POINT('',(-4.,-27.52,4.25));
#1600=CARTESIAN_POINT('',(3.98763098677579,-27.52,4.25));
#1601=CARTESIAN_POINT('',(3.9976439974811,-27.52,-4.25));
#1602=CARTESIAN_POINT('',(-3.,-27.52,-4.25942400353681));
#1603=CARTESIAN_POINT('',(-3.,-27.52,-1.25000008679861));
#1604=CARTESIAN_POINT('',(-3.,-27.52,1.24999999999999));
#1605=CARTESIAN_POINT('',(-2.,-27.52,-1.25000008679861));
#1606=CARTESIAN_POINT('',(-2.,-27.52,-2.25000008679861));
#1607=CARTESIAN_POINT('',(-4.00235045177681,-27.52,-2.25000008679861));
#1608=CARTESIAN_POINT('',(1.99862576808988,-27.52,-2.25000008679861));
#1609=CARTESIAN_POINT('',(1.99862576808988,-27.52,-1.25000008679861));
#1610=CARTESIAN_POINT('',(2.99862569101636,-27.52,-1.25039270242621));
#1611=CARTESIAN_POINT('',(2.99744321921496,-27.52,-4.26217223213385));
#1612=CARTESIAN_POINT('',(2.99960723019509,-27.52,1.24960738437239));
#1613=CARTESIAN_POINT('',(1.99960730726861,-27.52,1.24999999999999));
#1614=CARTESIAN_POINT('',(1.99960730726861,-27.52,2.24999999999999));
#1615=CARTESIAN_POINT('',(-4.00235045177681,-27.52,2.24999999999998));
#1616=CARTESIAN_POINT('',(-2.,-27.52,2.24999999999999));
#1617=CARTESIAN_POINT('',(-2.,-27.52,1.24999999999999));
#1618=CARTESIAN_POINT('',(0.,-3.5,0.));
#1619=CARTESIAN_POINT('',(3.,-6.6849981990946,-7.3242717503459E-13));
#1620=CARTESIAN_POINT('',(3.,-6.68500055584572,-0.00078524613141367));
#1621=CARTESIAN_POINT('',(2.99999969169432,-6.68500173460049,-0.00157057734777737));
#1622=CARTESIAN_POINT('',(2.99999907488214,-6.68500173460858,-0.00235599370409411));
#1623=CARTESIAN_POINT('',(3.00000000000107,-6.68499819909868,-4.38418094311985E-13));
#1624=CARTESIAN_POINT('',(2.99999861231382,-6.68500173460858,-0.0023560014290994));
#1625=CARTESIAN_POINT('',(3.,-3.5,0.));
#1626=CARTESIAN_POINT('',(3.,-7.5,-8.49830834647197E-16));
#1627=CARTESIAN_POINT('',(0.,-7.5,0.));
#1628=CARTESIAN_POINT('',(2.99999907487578,-7.5,-0.00235600179236507));
#1629=CARTESIAN_POINT('',(2.99999861231382,-3.5,-0.0023560014290994));
#1630=CARTESIAN_POINT('',(0.,-3.5,0.));
#1631=CARTESIAN_POINT('',(0.,0.,0.));
#1632=CARTESIAN_POINT('',(3.,0.,0.));
#1633=CARTESIAN_POINT('',(2.99999907488723,-5.11500173460858,-0.00235598721903847));
#1634=CARTESIAN_POINT('',(2.99999969175027,-5.11500173462316,-0.00157050394561567));
#1635=CARTESIAN_POINT('',(3.,-5.11500291358513,-0.000785174932485501));
#1636=CARTESIAN_POINT('',(3.,-5.11500527012256,-1.67641799613978E-16));
#1637=CARTESIAN_POINT('',(2.99999861231382,-5.11500173460858,-0.0023560014290994));
#1638=CARTESIAN_POINT('',(3.,-5.11500527012256,-5.37059097291815E-17));
#1639=CARTESIAN_POINT('',(2.99999861231382,-3.5,-0.0023560014290994));
#1640=CARTESIAN_POINT('',(2.99999907487578,-3.,-0.00235600179236512));
#1641=CARTESIAN_POINT('',(0.,-3.,0.));
#1642=CARTESIAN_POINT('',(3.,-3.,0.));
#1643=CARTESIAN_POINT('',(3.,-3.5,0.));
#1644=CARTESIAN_POINT('',(4.,-4.,-8.49830834647197E-16));
#1645=CARTESIAN_POINT('',(4.9413612565445,-5.11500527012256,-1.79775167590076E-15));
#1646=CARTESIAN_POINT('',(3.99882199874055,-5.11500527012256,-1.79775167590076E-15));
#1647=CARTESIAN_POINT('',(4.,-3.,0.));
#1648=CARTESIAN_POINT('',(4.,-3.,0.));
#1649=CARTESIAN_POINT('',(4.,-4.,-8.49830834647197E-16));
#1650=CARTESIAN_POINT('',(4.,-4.,-8.49830834647197E-16));
#1651=CARTESIAN_POINT('',(4.,-4.,-8.49830834647197E-16));
#1652=CARTESIAN_POINT('',(3.99882199874055,-4.,-8.585962863178E-16));
#1653=CARTESIAN_POINT('',(3.99882199874055,-7.5,-8.585962863178E-16));
#1654=CARTESIAN_POINT('',(4.,-4.,-8.49830834647197E-16));
#1655=CARTESIAN_POINT('',(4.9413612565445,-6.6849981990946,-3.13198007711927E-15));
#1656=CARTESIAN_POINT('',(3.99882199874055,-6.6849981990946,-3.13198007711927E-15));
#1657=CARTESIAN_POINT('',(3.99882199874055,-7.5,-8.585962863178E-16));
#1658=CARTESIAN_POINT('',(3.99882199874055,-7.5,-8.585962863178E-16));
#1659=CARTESIAN_POINT('',(3.99882199874055,-7.5,-8.585962863178E-16));
#1660=CARTESIAN_POINT('',(3.99999784137711,-4.,-0.00314133499662309));
#1661=CARTESIAN_POINT('',(2.99999907487232,-5.90000173460858,-0.00235600179236509));
#1662=CARTESIAN_POINT('',(3.99882112829162,-5.11500212651799,-0.00314041088362529));
#1663=CARTESIAN_POINT('',(3.99882112829162,-7.5,-0.00314041088362529));
#1664=CARTESIAN_POINT('',(3.99882112829162,-4.,-0.00314041088362529));
#1665=CARTESIAN_POINT('',(3.99999784137711,-4.,-0.00314133499662309));
#1666=CARTESIAN_POINT('',(3.99999784137711,-4.,-0.00314133499662309));
#1667=CARTESIAN_POINT('',(3.99999784137711,-4.,-0.00314133499662309));
#1668=CARTESIAN_POINT('',(3.99999784137711,-3.,-0.00314133499662223));
#1669=CARTESIAN_POINT('',(3.99999784137711,-3.,-0.00314133499662223));
#1670=CARTESIAN_POINT('',(0.,-4.,0.));
#1671=CARTESIAN_POINT('',(4.,-4.,-8.49830834647197E-16));
#1672=CARTESIAN_POINT('',(4.,-4.,4.25));
#1673=CARTESIAN_POINT('',(4.,-4.,4.25));
#1674=CARTESIAN_POINT('',(0.,-4.,0.));
#1675=CARTESIAN_POINT('',(3.99882112829162,-4.,-0.00314041088362529));
#1676=CARTESIAN_POINT('',(3.99817928439478,-4.,-2.31878866738364));
#1677=CARTESIAN_POINT('',(3.99764368910636,-4.,-3.00078533393079));
#1678=CARTESIAN_POINT('',(0.,-4.,0.));
#1679=CARTESIAN_POINT('',(0.,-4.,0.));
#1680=CARTESIAN_POINT('',(0.,-4.,-2.));
#1681=CARTESIAN_POINT('',(-3.,-4.,2.25));
#1682=CARTESIAN_POINT('',(1.99960730726861,-4.,2.25));
#1683=CARTESIAN_POINT('',(-2.,-4.,2.25));
#1684=CARTESIAN_POINT('',(-2.,-4.,1.25));
#1685=CARTESIAN_POINT('',(-3.,-4.,1.25));
#1686=CARTESIAN_POINT('',(-3.,-4.,2.25));
#1687=CARTESIAN_POINT('',(-3.,-4.,-1.2500000867986));
#1688=CARTESIAN_POINT('',(-2.,-4.,-1.2500000867986));
#1689=CARTESIAN_POINT('',(-2.,-4.,-2.2500000867986));
#1690=CARTESIAN_POINT('',(2.99823322950554,-4.,-2.2500000867986));
#1691=CARTESIAN_POINT('',(1.99862576808987,-4.,-2.2500000867986));
#1692=CARTESIAN_POINT('',(1.99862576808987,-4.,-1.25000008679859));
#1693=CARTESIAN_POINT('',(2.99862569101636,-4.,-1.2503927024262));
#1694=CARTESIAN_POINT('',(2.99823322950554,-4.,-2.2500000867986));
#1695=CARTESIAN_POINT('',(2.99960723019509,-4.,1.2496073843724));
#1696=CARTESIAN_POINT('',(1.99960730726861,-4.,1.25));
#1697=CARTESIAN_POINT('',(0.,0.,0.));
#1698=CARTESIAN_POINT('',(0.,0.,0.));
#1699=CARTESIAN_POINT('',(2.,0.,0.));
#1700=CARTESIAN_POINT('',(0.,-2.5,0.));
#1701=CARTESIAN_POINT('',(0.,-2.5,0.));
#1702=CARTESIAN_POINT('',(2.,-2.5,0.));
#1703=CARTESIAN_POINT('',(0.,-2.5,0.));
#1704=CARTESIAN_POINT('',(0.,-2.5,0.));
#1705=CARTESIAN_POINT('',(0.,-2.5,-0.785));
#1706=CARTESIAN_POINT('',(0.,4.01597556086594,0.));
#1707=CARTESIAN_POINT('',(0.,-3.,0.));
#1708=CARTESIAN_POINT('',(0.785,-3.,0.));
#1709=CARTESIAN_POINT('',(0.,-3.,0.));
#1710=CARTESIAN_POINT('',(0.,-3.,0.));
#1711=CARTESIAN_POINT('',(2.,-3.,0.));
#1712=CARTESIAN_POINT('',(0.,-3.,0.));
#1713=CARTESIAN_POINT('',(0.,-3.,0.));
#1714=CARTESIAN_POINT('',(4.,-3.,-6.25));
#1715=CARTESIAN_POINT('',(3.99882199874055,-3.,-5.25));
#1716=CARTESIAN_POINT('',(3.9976439974811,-3.,-4.25));
#1717=CARTESIAN_POINT('',(-4.,-3.,-5.25));
#1718=CARTESIAN_POINT('',(-4.,-3.,-5.25));
#1719=CARTESIAN_POINT('',(-4.,-3.,0.));
#1720=CARTESIAN_POINT('',(-4.,-3.,5.25));
#1721=CARTESIAN_POINT('',(-2.27682456221956E-15,-3.,5.25));
#1722=CARTESIAN_POINT('',(4.,-3.,5.25));
#1723=CARTESIAN_POINT('',(4.,-3.,0.));
#1724=CARTESIAN_POINT('',(3.99764368910636,-3.,-3.00078533393079));
#1725=CARTESIAN_POINT('',(3.9976439974811,-3.,-3.));
#1726=CARTESIAN_POINT('',(3.9976439974811,-3.,-3.));
#1727=CARTESIAN_POINT('',(-4.,0.,0.));
#1728=CARTESIAN_POINT('',(-4.,-5.90000173460858,-0.00235600179236509));
#1729=CARTESIAN_POINT('',(-4.,-5.11500173460858,-0.00235600179236494));
#1730=CARTESIAN_POINT('',(-4.,-4.,-5.25));
#1731=CARTESIAN_POINT('',(-4.,-4.,-6.25));
#1732=CARTESIAN_POINT('',(-4.,-3.,-6.25));
#1733=CARTESIAN_POINT('',(-4.,-27.52,-4.25));
#1734=CARTESIAN_POINT('',(-4.,-7.5,-4.25));
#1735=CARTESIAN_POINT('',(-4.,-7.5,-4.25));
#1736=CARTESIAN_POINT('',(-4.,-7.5,4.25));
#1737=CARTESIAN_POINT('',(-4.,-27.52,4.25));
#1738=CARTESIAN_POINT('',(-4.,-27.52,4.25));
#1739=CARTESIAN_POINT('',(-4.,-27.52,6.25));
#1740=CARTESIAN_POINT('',(-4.,-3.,6.25));
#1741=CARTESIAN_POINT('',(-4.,-4.,6.25));
#1742=CARTESIAN_POINT('',(-4.,-4.,5.25));
#1743=CARTESIAN_POINT('',(4.,0.,0.));
#1744=CARTESIAN_POINT('',(4.,-4.,5.25));
#1745=CARTESIAN_POINT('',(4.,-4.,6.25));
#1746=CARTESIAN_POINT('',(4.,-3.,6.25));
#1747=CARTESIAN_POINT('',(4.,-27.52,6.25));
#1748=CARTESIAN_POINT('',(4.,-27.52,6.25));
#1749=CARTESIAN_POINT('',(4.,-27.52,4.25));
#1750=CARTESIAN_POINT('',(4.,-27.52,4.25));
#1751=CARTESIAN_POINT('',(4.,-7.5,4.25));
#1752=CARTESIAN_POINT('',(4.,-7.5,4.25));
#1753=CARTESIAN_POINT('',(3.99999784137711,-4.,-0.00314133499662309));
#1754=CARTESIAN_POINT('',(3.99882112829162,-7.5,-0.00314041088362529));
#1755=CARTESIAN_POINT('',(3.99882112829162,-7.5,-0.00314041088362529));
#1756=CARTESIAN_POINT('',(3.99882112829162,-6.68500134269917,-0.00314041088362529));
#1757=CARTESIAN_POINT('',(2.99999907487232,-5.90000173460858,-0.00235600179236509));
#1758=CARTESIAN_POINT('',(3.99882112829162,-7.5,-0.00314041088362529));
#1759=CARTESIAN_POINT('',(3.99999784137711,0.,-0.00314133499662206));
#1760=CARTESIAN_POINT('',(3.99817928439579,-7.5,-2.31878866494182));
#1761=CARTESIAN_POINT('',(3.99817928439579,-7.5,-2.31878866494182));
#1762=CARTESIAN_POINT('',(3.9976439974811,-7.5,-3.));
#1763=CARTESIAN_POINT('',(3.9976439974811,-7.5,-3.));
#1764=CARTESIAN_POINT('',(3.9976439974811,0.,-3.));
#1765=CARTESIAN_POINT('',(3.9976439974811,0.,3.12134413598705E-15));
#1766=CARTESIAN_POINT('',(3.9976439974811,-7.5,-3.));
#1767=CARTESIAN_POINT('',(3.9976439974811,-7.5,-4.25));
#1768=CARTESIAN_POINT('',(3.9976439974811,-3.,-4.25));
#1769=CARTESIAN_POINT('',(2.99823322950554,-7.5,-2.2500000867986));
#1770=CARTESIAN_POINT('',(2.99911568976661,-5.90000173460858,-0.00235600179236509));
#1771=CARTESIAN_POINT('',(2.99880748647519,-5.90000173460858,-0.787356001792365));
#1772=CARTESIAN_POINT('',(2.99823322950554,-7.5,-2.2500000867986));
#1773=CARTESIAN_POINT('',(2.99862569101636,-7.5,-1.2503927024262));
#1774=CARTESIAN_POINT('',(2.99960723019509,-7.5,1.2496073843724));
#1775=CARTESIAN_POINT('',(2.99960723019509,-4.,1.2496073843724));
#1776=CARTESIAN_POINT('',(2.99862569101636,-7.5,-1.2503927024262));
#1777=CARTESIAN_POINT('',(-3.,-7.5,2.25));
#1778=CARTESIAN_POINT('',(-3.,-7.5,2.25));
#1779=CARTESIAN_POINT('',(1.99960730726861,-7.5,2.25));
#1780=CARTESIAN_POINT('',(-2.,-7.5,2.25));
#1781=CARTESIAN_POINT('',(-2.,-4.,2.25));
#1782=CARTESIAN_POINT('',(1.99960730726861,-7.5,2.25));
#1783=CARTESIAN_POINT('',(-3.,-7.5,2.25));
#1784=CARTESIAN_POINT('',(-3.,-5.90000173460858,-0.00235600179236509));
#1785=CARTESIAN_POINT('',(-3.,-5.90000173460858,-0.787356001792365));
#1786=CARTESIAN_POINT('',(-3.,-7.5,1.25));
#1787=CARTESIAN_POINT('',(-3.,-7.5,1.25));
#1788=CARTESIAN_POINT('',(-3.,-7.5,2.25));
#1789=CARTESIAN_POINT('',(-3.,-7.5,-1.2500000867986));
#1790=CARTESIAN_POINT('',(-3.,-4.,-1.2500000867986));
#1791=CARTESIAN_POINT('',(4.,-7.5,4.25));
#1792=CARTESIAN_POINT('',(3.99882134571159,-5.90000173460858,-0.00235600179236509));
#1793=CARTESIAN_POINT('',(4.,-7.5,4.25));
#1794=CARTESIAN_POINT('',(3.99882112829162,-7.5,-0.00314041088362529));
#1795=CARTESIAN_POINT('',(3.99882134571159,-5.90000173460858,-0.00235600179236509));
#1796=CARTESIAN_POINT('',(3.99882112829162,-7.5,-0.00314041088362529));
#1797=CARTESIAN_POINT('',(2.99823322950554,-7.5,-2.2500000867986));
#1798=CARTESIAN_POINT('',(2.99823322950554,-7.5,-2.2500000867986));
#1799=CARTESIAN_POINT('',(-2.,-7.5,-2.2500000867986));
#1800=CARTESIAN_POINT('',(1.99862576808987,-7.5,-2.2500000867986));
#1801=CARTESIAN_POINT('',(1.99862576808987,-4.,-2.2500000867986));
#1802=CARTESIAN_POINT('',(-2.,-7.5,-2.2500000867986));
#1803=CARTESIAN_POINT('',(0.,-7.5,0.));
#1804=CARTESIAN_POINT('',(-4.,-7.5,4.25));
#1805=CARTESIAN_POINT('',(3.9976439974811,-7.5,-4.25));
#1806=CARTESIAN_POINT('',(1.99862576808987,-7.5,-1.25000008679859));
#1807=CARTESIAN_POINT('',(-2.,-7.5,-1.2500000867986));
#1808=CARTESIAN_POINT('',(-2.,-7.5,1.25));
#1809=CARTESIAN_POINT('',(1.99960730726861,-7.5,1.25));
#1810=CARTESIAN_POINT('',(4.9413612565445,-5.90000173460858,-0.00235600179236509));
#1811=CARTESIAN_POINT('',(4.9413612565445,-5.90000173460858,-0.00235600179236509));
#1812=CARTESIAN_POINT('',(-4.,-3.,-6.25));
#1813=CARTESIAN_POINT('',(4.,-4.,-6.25));
#1814=CARTESIAN_POINT('',(4.,-4.,-6.25));
#1815=CARTESIAN_POINT('',(4.,-3.,-6.25));
#1816=CARTESIAN_POINT('',(4.,-27.52,-6.25));
#1817=CARTESIAN_POINT('',(-4.,-27.52,-6.25));
#1818=CARTESIAN_POINT('',(4.,-3.,-6.25));
#1819=CARTESIAN_POINT('',(3.99263195160705,-29.12,0.0047033238328129));
#1820=CARTESIAN_POINT('',(3.9935566819541,-29.12,-0.78029613150062));
#1821=CARTESIAN_POINT('',(3.99882199874055,-4.,-5.25));
#1822=CARTESIAN_POINT('',(3.9976439974811,-27.52,-4.25));
#1823=CARTESIAN_POINT('',(3.9976439974811,-27.52,-4.25));
#1824=CARTESIAN_POINT('',(3.98527500469058,-27.52,6.24998265393698));
#1825=CARTESIAN_POINT('',(3.98527500469058,-32.02,6.24998265393698));
#1826=CARTESIAN_POINT('',(3.98527500469058,-31.02,6.24998265393698));
#1827=CARTESIAN_POINT('',(3.98645300513268,-31.02,5.24998334777974));
#1828=CARTESIAN_POINT('',(3.9988219995579,-31.02,-5.25000069384276));
#1829=CARTESIAN_POINT('',(4.,-31.02,-6.25));
#1830=CARTESIAN_POINT('',(4.,-27.52,-6.25));
#1831=CARTESIAN_POINT('',(-4.,-3.,6.25));
#1832=CARTESIAN_POINT('',(-4.,-4.,6.25));
#1833=CARTESIAN_POINT('',(-4.,-27.52,6.25));
#1834=CARTESIAN_POINT('',(3.9976439974811,-27.52,-4.25));
#1835=CARTESIAN_POINT('',(-4.,-27.52,4.25));
#1836=CARTESIAN_POINT('',(-4.,-27.52,4.25));
#1837=CARTESIAN_POINT('',(0.,-27.52,0.));
#1838=CARTESIAN_POINT('',(-4.01471944456733,-27.52,6.24055865040017));
#1839=CARTESIAN_POINT('',(-4.0023504517768,-27.52,-4.25942400353681));
#1840=CARTESIAN_POINT('',(-3.99999444925791,-27.52,-6.25942400353681));
#1841=CARTESIAN_POINT('',(-3.99999444925791,-27.52,-6.25942400353681));
#1842=CARTESIAN_POINT('',(-4.01471944456733,-27.52,6.24055865040017));
#1843=CARTESIAN_POINT('',(-4.01471944456733,-32.02,6.24055865040017));
#1844=CARTESIAN_POINT('',(-4.01471944456733,-32.02,6.24055865040017));
#1845=CARTESIAN_POINT('',(-4.01471944456733,-31.02,6.24055865040017));
#1846=CARTESIAN_POINT('',(-4.01471944456733,-31.02,6.24055865040017));
#1847=CARTESIAN_POINT('',(-3.99999444925791,-27.52,-6.25942400353681));
#1848=CARTESIAN_POINT('',(-3.99999444925791,-31.02,-6.25942400353681));
#1849=CARTESIAN_POINT('',(-3.99999444925791,-31.02,-6.25942400353681));
#1850=CARTESIAN_POINT('',(-3.99999444925791,-27.52,-6.25942400353681));
#1851=CARTESIAN_POINT('',(-4.00736249765279,0.,-0.00472067806930297));
#1852=CARTESIAN_POINT('',(-4.00736249765086,-29.12,-0.00472067970399682));
#1853=CARTESIAN_POINT('',(-4.00828722799791,-29.12,0.780278775629436));
#1854=CARTESIAN_POINT('',(-4.01354144412523,-31.02,5.24055934424293));
#1855=CARTESIAN_POINT('',(-4.00117244970001,-31.02,-5.25942469737957));
#1856=CARTESIAN_POINT('',(-3.,-17.7893611949847,-2.25000008679861));
#1857=CARTESIAN_POINT('',(-3.,-29.12,-0.00353400541304255));
#1858=CARTESIAN_POINT('',(-3.,-29.12,-0.788534550079989));
#1859=CARTESIAN_POINT('',(-3.,-27.52,-1.25000008679861));
#1860=CARTESIAN_POINT('',(-3.,-32.02,1.24999999999998));
#1861=CARTESIAN_POINT('',(-3.,-17.7893611949847,2.24999999999999));
#1862=CARTESIAN_POINT('',(1.99960730726861,-32.02,2.24999999999999));
#1863=CARTESIAN_POINT('',(-2.,-27.52,2.24999999999999));
#1864=CARTESIAN_POINT('',(3.,-17.7893611949847,2.25));
#1865=CARTESIAN_POINT('',(2.99911800186646,-29.12,0.00353296314873847));
#1866=CARTESIAN_POINT('',(2.99880979821865,-29.12,-0.781467944582494));
#1867=CARTESIAN_POINT('',(2.99960723019509,-27.52,1.24960738437239));
#1868=CARTESIAN_POINT('',(2.99862569101636,-32.02,-1.25039270242621));
#1869=CARTESIAN_POINT('',(2.99823322950554,-17.7893611949847,-2.2500000867986));
#1870=CARTESIAN_POINT('',(-2.,-32.02,-2.25000008679861));
#1871=CARTESIAN_POINT('',(1.99862576808988,-27.52,-2.25000008679861));
#1872=CARTESIAN_POINT('',(9.80628098665106,-29.12,0.0115518097180884));
#1873=CARTESIAN_POINT('',(9.80628098665106,-29.12,0.0115518097180884));
#1874=CARTESIAN_POINT('',(-4.00117244970001,-31.02,-5.25942469737957));
#1875=CARTESIAN_POINT('',(-2.27682456221956E-15,-4.,5.25));
#1876=CARTESIAN_POINT('',(-4.01354144412523,-31.02,5.24055934424293));
#1877=CARTESIAN_POINT('',(-4.,-4.,-5.25));
#1878=CARTESIAN_POINT('',(1.99862576808988,-17.7893611949847,-1.2500000867986));
#1879=CARTESIAN_POINT('',(-2.,-17.7893611949847,1.24999999999999));
#1880=CARTESIAN_POINT('',(1.99960730726861,-17.7893611949847,1.25));
#1881=CARTESIAN_POINT('',(-2.,-17.7893611949847,-1.2500000867986));
#1882=CARTESIAN_POINT('',(-2.,-7.5,-1.2500000867986));
#1883=CARTESIAN_POINT('',(1.99862576808987,-7.5,-1.25000008679859));
#1884=CARTESIAN_POINT('',(1.99960730726861,-7.5,1.25));
#1885=CARTESIAN_POINT('',(-2.,-7.5,1.25));
#1886=MECHANICAL_DESIGN_GEOMETRIC_PRESENTATION_REPRESENTATION('',(#1130),
#1887);
#1887=(
GEOMETRIC_REPRESENTATION_CONTEXT(3)
GLOBAL_UNCERTAINTY_ASSIGNED_CONTEXT((#1888))
GLOBAL_UNIT_ASSIGNED_CONTEXT((#1891,#1890,#1889))
REPRESENTATION_CONTEXT('Supporto1','TOP_LEVEL_ASSEMBLY_PART')
);
#1888=UNCERTAINTY_MEASURE_WITH_UNIT(LENGTH_MEASURE(0.005),#1891,
'DISTANCE_ACCURACY_VALUE','Maximum Tolerance applied to model');
#1889=(
NAMED_UNIT(*)
SI_UNIT($,.STERADIAN.)
SOLID_ANGLE_UNIT()
);
#1890=(
NAMED_UNIT(*)
PLANE_ANGLE_UNIT()
SI_UNIT($,.RADIAN.)
);
#1891=(
LENGTH_UNIT()
NAMED_UNIT(*)
SI_UNIT(.MILLI.,.METRE.)
);
#1892=PRODUCT_DEFINITION_SHAPE('','',#1893);
#1893=PRODUCT_DEFINITION('','',#1895,#1894);
#1894=PRODUCT_DEFINITION_CONTEXT('',#1901,'design');
#1895=PRODUCT_DEFINITION_FORMATION_WITH_SPECIFIED_SOURCE('','',#1897,
 .NOT_KNOWN.);
#1896=PRODUCT_RELATED_PRODUCT_CATEGORY('','',(#1897));
#1897=PRODUCT('Supporto1','Supporto1','Supporto1',(#1899));
#1898=PRODUCT_CATEGORY('','');
#1899=PRODUCT_CONTEXT('',#1901,'mechanical');
#1900=APPLICATION_PROTOCOL_DEFINITION('international standard',
'automotive_design',2010,#1901);
#1901=APPLICATION_CONTEXT(
'core data for automotive mechanical design processes');
ENDSEC;
END-ISO-10303-21;
