ISO-10303-21;
HEADER;
/* Generated by software containing ST-Developer
 * from STEP Tools, Inc. (www.steptools.com) 
 */
/* OPTION: strings as raw bytes, not using required /X/ escapes */

FILE_DESCRIPTION(
/* description */ ('Unknown'),
/* implementation_level */ '2;1');

FILE_NAME(
/* name */ 'Supporto2',
/* time_stamp */ '2024-01-05T19:17:34+01:00',
/* author */ ('Unknown'),
/* organization */ ('Unknown'),
/* preprocessor_version */ 'ST-DEVELOPER v18.102',
/* originating_system */ 'Solid Edge',
/* authorisation */ 'Unknown');

FILE_SCHEMA (('AUTOMOTIVE_DESIGN {1 0 10303 214 3 1 1}'));
ENDSEC;

DATA;
#10=PROPERTY_DEFINITION_REPRESENTATION(#14,#12);
#11=PROPERTY_DEFINITION_REPRESENTATION(#15,#13);
#12=REPRESENTATION('',(#16),#682);
#13=REPRESENTATION('',(#17),#682);
#14=PROPERTY_DEFINITION('pmi validation property','',#687);
#15=PROPERTY_DEFINITION('pmi validation property','',#687);
#16=VALUE_REPRESENTATION_ITEM('number of annotations',COUNT_MEASURE(0.));
#17=VALUE_REPRESENTATION_ITEM('number of views',COUNT_MEASURE(0.));
#18=SHAPE_REPRESENTATION_RELATIONSHIP('','',#395,#19);
#19=ADVANCED_BREP_SHAPE_REPRESENTATION('',(#393),#682);
#20=DEGENERATE_TOROIDAL_SURFACE('',#446,0.0144580158915292,29.9968003681333,
 .F.);
#21=CONICAL_SURFACE('',#436,18.901539361287,0.683009269488559);
#22=ELLIPSE('',#416,1.00000112093103,1.);
#23=ELLIPSE('',#431,1.00000713257157,0.999999999999999);
#24=SPHERICAL_SURFACE('',#405,26.9974328637332);
#25=B_SPLINE_CURVE_WITH_KNOTS('',3,(#602,#603,#604,#605,#606,#607,#608),
 .UNSPECIFIED.,.F.,.F.,(4,1,1,1,4),(1.97162159859639E-7,0.00312431474947855,
0.00624843233679724,0.00937254992411594,0.0124966675114346),
 .UNSPECIFIED.);
#26=CYLINDRICAL_SURFACE('',#404,4.);
#27=CYLINDRICAL_SURFACE('',#417,4.);
#28=CYLINDRICAL_SURFACE('',#422,2.);
#29=CYLINDRICAL_SURFACE('',#425,2.);
#30=CYLINDRICAL_SURFACE('',#429,0.785);
#31=CYLINDRICAL_SURFACE('',#433,0.999999999999999);
#32=CYLINDRICAL_SURFACE('',#434,1.);
#33=CYLINDRICAL_SURFACE('',#435,4.);
#34=CYLINDRICAL_SURFACE('',#440,2.25);
#35=CYLINDRICAL_SURFACE('',#444,4.);
#36=CIRCLE('',#398,26.6994711760596);
#37=CIRCLE('',#399,0.999999999999999);
#38=CIRCLE('',#400,1.);
#39=CIRCLE('',#402,4.);
#40=CIRCLE('',#403,4.);
#41=CIRCLE('',#406,17.0141157567668);
#42=CIRCLE('',#407,4.);
#43=CIRCLE('',#408,26.6994545294535);
#44=CIRCLE('',#409,26.6971891934796);
#45=CIRCLE('',#410,23.6193540373979);
#46=CIRCLE('',#412,4.);
#47=CIRCLE('',#413,2.);
#48=CIRCLE('',#418,4.);
#49=CIRCLE('',#420,0.785);
#50=CIRCLE('',#421,2.);
#51=CIRCLE('',#424,2.);
#52=CIRCLE('',#426,2.);
#53=CIRCLE('',#428,0.785);
#54=CIRCLE('',#437,18.901539361287);
#55=CIRCLE('',#439,2.25);
#56=CIRCLE('',#441,2.25);
#57=CIRCLE('',#443,4.);
#58=CIRCLE('',#445,4.);
#59=ORIENTED_EDGE('',*,*,#151,.T.);
#60=ORIENTED_EDGE('',*,*,#152,.T.);
#61=ORIENTED_EDGE('',*,*,#153,.F.);
#62=ORIENTED_EDGE('',*,*,#154,.T.);
#63=ORIENTED_EDGE('',*,*,#155,.T.);
#64=ORIENTED_EDGE('',*,*,#156,.F.);
#65=ORIENTED_EDGE('',*,*,#157,.T.);
#66=ORIENTED_EDGE('',*,*,#158,.F.);
#67=ORIENTED_EDGE('',*,*,#159,.T.);
#68=ORIENTED_EDGE('',*,*,#160,.T.);
#69=ORIENTED_EDGE('',*,*,#161,.F.);
#70=ORIENTED_EDGE('',*,*,#151,.F.);
#71=ORIENTED_EDGE('',*,*,#162,.T.);
#72=ORIENTED_EDGE('',*,*,#163,.F.);
#73=ORIENTED_EDGE('',*,*,#164,.F.);
#74=ORIENTED_EDGE('',*,*,#160,.F.);
#75=ORIENTED_EDGE('',*,*,#165,.F.);
#76=ORIENTED_EDGE('',*,*,#166,.T.);
#77=ORIENTED_EDGE('',*,*,#167,.F.);
#78=ORIENTED_EDGE('',*,*,#153,.T.);
#79=ORIENTED_EDGE('',*,*,#168,.T.);
#80=ORIENTED_EDGE('',*,*,#166,.F.);
#81=ORIENTED_EDGE('',*,*,#169,.F.);
#82=ORIENTED_EDGE('',*,*,#170,.F.);
#83=ORIENTED_EDGE('',*,*,#171,.T.);
#84=ORIENTED_EDGE('',*,*,#171,.F.);
#85=ORIENTED_EDGE('',*,*,#172,.F.);
#86=ORIENTED_EDGE('',*,*,#173,.T.);
#87=ORIENTED_EDGE('',*,*,#174,.T.);
#88=ORIENTED_EDGE('',*,*,#154,.F.);
#89=ORIENTED_EDGE('',*,*,#175,.F.);
#90=ORIENTED_EDGE('',*,*,#172,.T.);
#91=ORIENTED_EDGE('',*,*,#170,.T.);
#92=ORIENTED_EDGE('',*,*,#176,.T.);
#93=ORIENTED_EDGE('',*,*,#177,.F.);
#94=ORIENTED_EDGE('',*,*,#178,.F.);
#95=ORIENTED_EDGE('',*,*,#176,.F.);
#96=ORIENTED_EDGE('',*,*,#169,.T.);
#97=ORIENTED_EDGE('',*,*,#165,.T.);
#98=ORIENTED_EDGE('',*,*,#163,.T.);
#99=ORIENTED_EDGE('',*,*,#179,.T.);
#100=ORIENTED_EDGE('',*,*,#180,.T.);
#101=ORIENTED_EDGE('',*,*,#181,.T.);
#102=ORIENTED_EDGE('',*,*,#155,.F.);
#103=ORIENTED_EDGE('',*,*,#174,.F.);
#104=ORIENTED_EDGE('',*,*,#182,.T.);
#105=ORIENTED_EDGE('',*,*,#183,.F.);
#106=ORIENTED_EDGE('',*,*,#183,.T.);
#107=ORIENTED_EDGE('',*,*,#175,.T.);
#108=ORIENTED_EDGE('',*,*,#184,.T.);
#109=ORIENTED_EDGE('',*,*,#185,.F.);
#110=ORIENTED_EDGE('',*,*,#186,.T.);
#111=ORIENTED_EDGE('',*,*,#156,.T.);
#112=ORIENTED_EDGE('',*,*,#181,.F.);
#113=ORIENTED_EDGE('',*,*,#187,.T.);
#114=ORIENTED_EDGE('',*,*,#184,.F.);
#115=ORIENTED_EDGE('',*,*,#188,.F.);
#116=ORIENTED_EDGE('',*,*,#187,.F.);
#117=ORIENTED_EDGE('',*,*,#182,.F.);
#118=ORIENTED_EDGE('',*,*,#188,.T.);
#119=ORIENTED_EDGE('',*,*,#178,.T.);
#120=ORIENTED_EDGE('',*,*,#189,.T.);
#121=ORIENTED_EDGE('',*,*,#185,.T.);
#122=ORIENTED_EDGE('',*,*,#180,.F.);
#123=ORIENTED_EDGE('',*,*,#173,.F.);
#124=ORIENTED_EDGE('',*,*,#177,.T.);
#125=ORIENTED_EDGE('',*,*,#190,.T.);
#126=ORIENTED_EDGE('',*,*,#158,.T.);
#127=ORIENTED_EDGE('',*,*,#191,.F.);
#128=ORIENTED_EDGE('',*,*,#189,.F.);
#129=ORIENTED_EDGE('',*,*,#191,.T.);
#130=ORIENTED_EDGE('',*,*,#157,.F.);
#131=ORIENTED_EDGE('',*,*,#186,.F.);
#132=ORIENTED_EDGE('',*,*,#179,.F.);
#133=ORIENTED_EDGE('',*,*,#162,.F.);
#134=ORIENTED_EDGE('',*,*,#159,.F.);
#135=ORIENTED_EDGE('',*,*,#190,.F.);
#136=ORIENTED_EDGE('',*,*,#152,.F.);
#137=ORIENTED_EDGE('',*,*,#161,.T.);
#138=ORIENTED_EDGE('',*,*,#164,.T.);
#139=ORIENTED_EDGE('',*,*,#168,.F.);
#140=ORIENTED_EDGE('',*,*,#167,.T.);
#141=ORIENTED_EDGE('',*,*,#192,.F.);
#142=ORIENTED_EDGE('',*,*,#193,.F.);
#143=ORIENTED_EDGE('',*,*,#193,.T.);
#144=ORIENTED_EDGE('',*,*,#194,.F.);
#145=ORIENTED_EDGE('',*,*,#194,.T.);
#146=ORIENTED_EDGE('',*,*,#195,.T.);
#147=ORIENTED_EDGE('',*,*,#196,.F.);
#148=ORIENTED_EDGE('',*,*,#195,.F.);
#149=ORIENTED_EDGE('',*,*,#192,.T.);
#150=ORIENTED_EDGE('',*,*,#196,.T.);
#151=EDGE_CURVE('',#197,#198,#231,.T.);
#152=EDGE_CURVE('',#198,#199,#232,.F.);
#153=EDGE_CURVE('',#200,#199,#36,.F.);
#154=EDGE_CURVE('',#200,#201,#233,.T.);
#155=EDGE_CURVE('',#201,#202,#234,.T.);
#156=EDGE_CURVE('',#203,#202,#235,.T.);
#157=EDGE_CURVE('',#203,#204,#37,.T.);
#158=EDGE_CURVE('',#205,#204,#236,.T.);
#159=EDGE_CURVE('',#205,#197,#38,.F.);
#160=EDGE_CURVE('',#206,#207,#39,.T.);
#161=EDGE_CURVE('',#198,#207,#40,.T.);
#162=EDGE_CURVE('',#197,#208,#237,.F.);
#163=EDGE_CURVE('',#206,#208,#238,.T.);
#164=EDGE_CURVE('',#207,#209,#239,.F.);
#165=EDGE_CURVE('',#210,#206,#240,.T.);
#166=EDGE_CURVE('',#210,#209,#25,.T.);
#167=EDGE_CURVE('',#211,#211,#41,.T.);
#168=EDGE_CURVE('',#199,#209,#42,.F.);
#169=EDGE_CURVE('',#212,#210,#43,.F.);
#170=EDGE_CURVE('',#213,#212,#44,.F.);
#171=EDGE_CURVE('',#213,#200,#45,.F.);
#172=EDGE_CURVE('',#214,#213,#241,.T.);
#173=EDGE_CURVE('',#214,#215,#242,.T.);
#174=EDGE_CURVE('',#215,#201,#46,.T.);
#175=EDGE_CURVE('',#216,#216,#47,.T.);
#176=EDGE_CURVE('',#212,#217,#243,.T.);
#177=EDGE_CURVE('',#218,#217,#244,.T.);
#178=EDGE_CURVE('',#214,#218,#245,.T.);
#179=EDGE_CURVE('',#208,#217,#22,.T.);
#180=EDGE_CURVE('',#215,#219,#246,.T.);
#181=EDGE_CURVE('',#219,#202,#48,.T.);
#182=EDGE_CURVE('',#220,#220,#49,.T.);
#183=EDGE_CURVE('',#221,#221,#50,.F.);
#184=EDGE_CURVE('',#222,#222,#51,.T.);
#185=EDGE_CURVE('',#223,#219,#247,.T.);
#186=EDGE_CURVE('',#223,#203,#248,.T.);
#187=EDGE_CURVE('',#224,#224,#52,.T.);
#188=EDGE_CURVE('',#225,#225,#53,.F.);
#189=EDGE_CURVE('',#218,#223,#23,.F.);
#190=EDGE_CURVE('',#217,#205,#249,.T.);
#191=EDGE_CURVE('',#218,#204,#250,.T.);
#192=EDGE_CURVE('',#226,#226,#54,.T.);
#193=EDGE_CURVE('',#227,#227,#55,.T.);
#194=EDGE_CURVE('',#228,#228,#56,.T.);
#195=EDGE_CURVE('',#229,#229,#57,.T.);
#196=EDGE_CURVE('',#230,#230,#58,.T.);
#197=VERTEX_POINT('',#572);
#198=VERTEX_POINT('',#573);
#199=VERTEX_POINT('',#575);
#200=VERTEX_POINT('',#577);
#201=VERTEX_POINT('',#579);
#202=VERTEX_POINT('',#581);
#203=VERTEX_POINT('',#583);
#204=VERTEX_POINT('',#585);
#205=VERTEX_POINT('',#587);
#206=VERTEX_POINT('',#591);
#207=VERTEX_POINT('',#592);
#208=VERTEX_POINT('',#595);
#209=VERTEX_POINT('',#599);
#210=VERTEX_POINT('',#601);
#211=VERTEX_POINT('',#611);
#212=VERTEX_POINT('',#614);
#213=VERTEX_POINT('',#616);
#214=VERTEX_POINT('',#620);
#215=VERTEX_POINT('',#622);
#216=VERTEX_POINT('',#625);
#217=VERTEX_POINT('',#628);
#218=VERTEX_POINT('',#630);
#219=VERTEX_POINT('',#636);
#220=VERTEX_POINT('',#640);
#221=VERTEX_POINT('',#642);
#222=VERTEX_POINT('',#646);
#223=VERTEX_POINT('',#648);
#224=VERTEX_POINT('',#652);
#225=VERTEX_POINT('',#655);
#226=VERTEX_POINT('',#667);
#227=VERTEX_POINT('',#670);
#228=VERTEX_POINT('',#673);
#229=VERTEX_POINT('',#676);
#230=VERTEX_POINT('',#679);
#231=LINE('',#571,#251);
#232=LINE('',#574,#252);
#233=LINE('',#578,#253);
#234=LINE('',#580,#254);
#235=LINE('',#582,#255);
#236=LINE('',#586,#256);
#237=LINE('',#594,#257);
#238=LINE('',#596,#258);
#239=LINE('',#598,#259);
#240=LINE('',#600,#260);
#241=LINE('',#619,#261);
#242=LINE('',#621,#262);
#243=LINE('',#627,#263);
#244=LINE('',#629,#264);
#245=LINE('',#631,#265);
#246=LINE('',#635,#266);
#247=LINE('',#647,#267);
#248=LINE('',#649,#268);
#249=LINE('',#660,#269);
#250=LINE('',#661,#270);
#251=VECTOR('',#451,1000.);
#252=VECTOR('',#452,1000.);
#253=VECTOR('',#455,1000.);
#254=VECTOR('',#456,1000.);
#255=VECTOR('',#457,1000.);
#256=VECTOR('',#460,1000.);
#257=VECTOR('',#469,1000.);
#258=VECTOR('',#470,1000.);
#259=VECTOR('',#473,1000.);
#260=VECTOR('',#474,1000.);
#261=VECTOR('',#489,1000.);
#262=VECTOR('',#490,1000.);
#263=VECTOR('',#497,1000.);
#264=VECTOR('',#498,1000.);
#265=VECTOR('',#499,1000.);
#266=VECTOR('',#506,1000.);
#267=VECTOR('',#521,1000.);
#268=VECTOR('',#522,1000.);
#269=VECTOR('',#539,1000.);
#270=VECTOR('',#540,1000.);
#271=EDGE_LOOP('',(#59,#60,#61,#62,#63,#64,#65,#66,#67));
#272=EDGE_LOOP('',(#68,#69,#70,#71,#72));
#273=EDGE_LOOP('',(#73,#74,#75,#76));
#274=EDGE_LOOP('',(#77));
#275=EDGE_LOOP('',(#78,#79,#80,#81,#82,#83));
#276=EDGE_LOOP('',(#84,#85,#86,#87,#88));
#277=EDGE_LOOP('',(#89));
#278=EDGE_LOOP('',(#90,#91,#92,#93,#94));
#279=EDGE_LOOP('',(#95,#96,#97,#98,#99));
#280=EDGE_LOOP('',(#100,#101,#102,#103));
#281=EDGE_LOOP('',(#104));
#282=EDGE_LOOP('',(#105));
#283=EDGE_LOOP('',(#106));
#284=EDGE_LOOP('',(#107));
#285=EDGE_LOOP('',(#108));
#286=EDGE_LOOP('',(#109,#110,#111,#112));
#287=EDGE_LOOP('',(#113));
#288=EDGE_LOOP('',(#114));
#289=EDGE_LOOP('',(#115));
#290=EDGE_LOOP('',(#116));
#291=EDGE_LOOP('',(#117));
#292=EDGE_LOOP('',(#118));
#293=EDGE_LOOP('',(#119,#120,#121,#122,#123));
#294=EDGE_LOOP('',(#124,#125,#126,#127));
#295=EDGE_LOOP('',(#128,#129,#130,#131));
#296=EDGE_LOOP('',(#132,#133,#134,#135));
#297=EDGE_LOOP('',(#136,#137,#138,#139));
#298=EDGE_LOOP('',(#140));
#299=EDGE_LOOP('',(#141));
#300=EDGE_LOOP('',(#142));
#301=EDGE_LOOP('',(#143));
#302=EDGE_LOOP('',(#144));
#303=EDGE_LOOP('',(#145));
#304=EDGE_LOOP('',(#146));
#305=EDGE_LOOP('',(#147));
#306=EDGE_LOOP('',(#148));
#307=EDGE_LOOP('',(#149));
#308=EDGE_LOOP('',(#150));
#309=FACE_BOUND('',#271,.T.);
#310=FACE_BOUND('',#272,.T.);
#311=FACE_BOUND('',#273,.T.);
#312=FACE_BOUND('',#274,.T.);
#313=FACE_BOUND('',#275,.T.);
#314=FACE_BOUND('',#276,.T.);
#315=FACE_BOUND('',#277,.T.);
#316=FACE_BOUND('',#278,.T.);
#317=FACE_BOUND('',#279,.T.);
#318=FACE_BOUND('',#280,.T.);
#319=FACE_BOUND('',#281,.T.);
#320=FACE_BOUND('',#282,.T.);
#321=FACE_BOUND('',#283,.T.);
#322=FACE_BOUND('',#284,.T.);
#323=FACE_BOUND('',#285,.T.);
#324=FACE_BOUND('',#286,.T.);
#325=FACE_BOUND('',#287,.T.);
#326=FACE_BOUND('',#288,.T.);
#327=FACE_BOUND('',#289,.T.);
#328=FACE_BOUND('',#290,.T.);
#329=FACE_BOUND('',#291,.T.);
#330=FACE_BOUND('',#292,.T.);
#331=FACE_BOUND('',#293,.T.);
#332=FACE_BOUND('',#294,.T.);
#333=FACE_BOUND('',#295,.T.);
#334=FACE_BOUND('',#296,.T.);
#335=FACE_BOUND('',#297,.T.);
#336=FACE_BOUND('',#298,.T.);
#337=FACE_BOUND('',#299,.T.);
#338=FACE_BOUND('',#300,.T.);
#339=FACE_BOUND('',#301,.T.);
#340=FACE_BOUND('',#302,.T.);
#341=FACE_BOUND('',#303,.T.);
#342=FACE_BOUND('',#304,.T.);
#343=FACE_BOUND('',#305,.T.);
#344=FACE_BOUND('',#306,.T.);
#345=FACE_BOUND('',#307,.T.);
#346=FACE_BOUND('',#308,.T.);
#347=PLANE('',#397);
#348=PLANE('',#401);
#349=PLANE('',#411);
#350=PLANE('',#414);
#351=PLANE('',#415);
#352=PLANE('',#419);
#353=PLANE('',#423);
#354=PLANE('',#427);
#355=PLANE('',#430);
#356=PLANE('',#432);
#357=PLANE('',#438);
#358=PLANE('',#442);
#359=ADVANCED_FACE('',(#309),#347,.T.);
#360=ADVANCED_FACE('',(#310),#348,.F.);
#361=ADVANCED_FACE('',(#311),#26,.T.);
#362=ADVANCED_FACE('',(#312,#313),#24,.F.);
#363=ADVANCED_FACE('',(#314,#315),#349,.T.);
#364=ADVANCED_FACE('',(#316),#350,.F.);
#365=ADVANCED_FACE('',(#317),#351,.F.);
#366=ADVANCED_FACE('',(#318),#27,.T.);
#367=ADVANCED_FACE('',(#319,#320),#352,.T.);
#368=ADVANCED_FACE('',(#321,#322),#28,.F.);
#369=ADVANCED_FACE('',(#323,#324),#353,.F.);
#370=ADVANCED_FACE('',(#325,#326),#29,.F.);
#371=ADVANCED_FACE('',(#327,#328),#354,.F.);
#372=ADVANCED_FACE('',(#329,#330),#30,.F.);
#373=ADVANCED_FACE('',(#331),#355,.F.);
#374=ADVANCED_FACE('',(#332),#356,.F.);
#375=ADVANCED_FACE('',(#333),#31,.T.);
#376=ADVANCED_FACE('',(#334),#32,.F.);
#377=ADVANCED_FACE('',(#335),#33,.T.);
#378=ADVANCED_FACE('',(#336,#337),#21,.T.);
#379=ADVANCED_FACE('',(#338),#357,.F.);
#380=ADVANCED_FACE('',(#339,#340),#34,.F.);
#381=ADVANCED_FACE('',(#341,#342),#358,.T.);
#382=ADVANCED_FACE('',(#343,#344),#35,.T.);
#383=ADVANCED_FACE('',(#345,#346),#20,.F.);
#384=CLOSED_SHELL('',(#359,#360,#361,#362,#363,#364,#365,#366,#367,#368,
#369,#370,#371,#372,#373,#374,#375,#376,#377,#378,#379,#380,#381,#382,#383));
#385=STYLED_ITEM('',(#386),#393);
#386=PRESENTATION_STYLE_ASSIGNMENT((#387));
#387=SURFACE_STYLE_USAGE(.BOTH.,#388);
#388=SURFACE_SIDE_STYLE('',(#389));
#389=SURFACE_STYLE_FILL_AREA(#390);
#390=FILL_AREA_STYLE('',(#391));
#391=FILL_AREA_STYLE_COLOUR('',#392);
#392=COLOUR_RGB('',0.699999988079071,0.670680642127991,0.670680642127991);
#393=MANIFOLD_SOLID_BREP('',#384);
#394=SHAPE_DEFINITION_REPRESENTATION(#687,#395);
#395=SHAPE_REPRESENTATION('Supporto2',(#396),#682);
#396=AXIS2_PLACEMENT_3D('',#569,#447,#448);
#397=AXIS2_PLACEMENT_3D('',#570,#449,#450);
#398=AXIS2_PLACEMENT_3D('',#576,#453,#454);
#399=AXIS2_PLACEMENT_3D('',#584,#458,#459);
#400=AXIS2_PLACEMENT_3D('',#588,#461,#462);
#401=AXIS2_PLACEMENT_3D('',#589,#463,#464);
#402=AXIS2_PLACEMENT_3D('',#590,#465,#466);
#403=AXIS2_PLACEMENT_3D('',#593,#467,#468);
#404=AXIS2_PLACEMENT_3D('',#597,#471,#472);
#405=AXIS2_PLACEMENT_3D('',#609,#475,#476);
#406=AXIS2_PLACEMENT_3D('',#610,#477,#478);
#407=AXIS2_PLACEMENT_3D('',#612,#479,#480);
#408=AXIS2_PLACEMENT_3D('',#613,#481,#482);
#409=AXIS2_PLACEMENT_3D('',#615,#483,#484);
#410=AXIS2_PLACEMENT_3D('',#617,#485,#486);
#411=AXIS2_PLACEMENT_3D('',#618,#487,#488);
#412=AXIS2_PLACEMENT_3D('',#623,#491,#492);
#413=AXIS2_PLACEMENT_3D('',#624,#493,#494);
#414=AXIS2_PLACEMENT_3D('',#626,#495,#496);
#415=AXIS2_PLACEMENT_3D('',#632,#500,#501);
#416=AXIS2_PLACEMENT_3D('',#633,#502,#503);
#417=AXIS2_PLACEMENT_3D('',#634,#504,#505);
#418=AXIS2_PLACEMENT_3D('',#637,#507,#508);
#419=AXIS2_PLACEMENT_3D('',#638,#509,#510);
#420=AXIS2_PLACEMENT_3D('',#639,#511,#512);
#421=AXIS2_PLACEMENT_3D('',#641,#513,#514);
#422=AXIS2_PLACEMENT_3D('',#643,#515,#516);
#423=AXIS2_PLACEMENT_3D('',#644,#517,#518);
#424=AXIS2_PLACEMENT_3D('',#645,#519,#520);
#425=AXIS2_PLACEMENT_3D('',#650,#523,#524);
#426=AXIS2_PLACEMENT_3D('',#651,#525,#526);
#427=AXIS2_PLACEMENT_3D('',#653,#527,#528);
#428=AXIS2_PLACEMENT_3D('',#654,#529,#530);
#429=AXIS2_PLACEMENT_3D('',#656,#531,#532);
#430=AXIS2_PLACEMENT_3D('',#657,#533,#534);
#431=AXIS2_PLACEMENT_3D('',#658,#535,#536);
#432=AXIS2_PLACEMENT_3D('',#659,#537,#538);
#433=AXIS2_PLACEMENT_3D('',#662,#541,#542);
#434=AXIS2_PLACEMENT_3D('',#663,#543,#544);
#435=AXIS2_PLACEMENT_3D('',#664,#545,#546);
#436=AXIS2_PLACEMENT_3D('',#665,#547,#548);
#437=AXIS2_PLACEMENT_3D('',#666,#549,#550);
#438=AXIS2_PLACEMENT_3D('',#668,#551,#552);
#439=AXIS2_PLACEMENT_3D('',#669,#553,#554);
#440=AXIS2_PLACEMENT_3D('',#671,#555,#556);
#441=AXIS2_PLACEMENT_3D('',#672,#557,#558);
#442=AXIS2_PLACEMENT_3D('',#674,#559,#560);
#443=AXIS2_PLACEMENT_3D('',#675,#561,#562);
#444=AXIS2_PLACEMENT_3D('',#677,#563,#564);
#445=AXIS2_PLACEMENT_3D('',#678,#565,#566);
#446=AXIS2_PLACEMENT_3D('',#680,#567,#568);
#447=DIRECTION('',(0.,0.,1.));
#448=DIRECTION('',(1.,0.,0.));
#449=DIRECTION('',(0.,0.,1.));
#450=DIRECTION('',(1.,0.,0.));
#451=DIRECTION('',(0.,1.,0.));
#452=DIRECTION('',(1.,0.,0.));
#453=DIRECTION('',(0.,0.,1.));
#454=DIRECTION('',(1.,0.,0.));
#455=DIRECTION('',(1.,1.22464679914735E-16,0.));
#456=DIRECTION('',(0.,1.,0.));
#457=DIRECTION('',(1.,1.22464679914735E-16,0.));
#458=DIRECTION('',(0.,0.,1.));
#459=DIRECTION('',(1.,0.,0.));
#460=DIRECTION('',(1.,0.,3.01691039300314E-16));
#461=DIRECTION('',(0.,0.,1.));
#462=DIRECTION('',(1.,0.,0.));
#463=DIRECTION('',(-1.,0.,0.));
#464=DIRECTION('',(0.,0.,1.));
#465=DIRECTION('',(1.,0.,0.));
#466=DIRECTION('',(0.,-1.,6.62614009158444E-17));
#467=DIRECTION('',(-1.,0.,0.));
#468=DIRECTION('',(0.,-1.,-9.54193331120356E-17));
#469=DIRECTION('',(0.,0.,1.));
#470=DIRECTION('',(0.,-0.999998879070223,-0.00149728363960258));
#471=DIRECTION('',(-1.,0.,0.));
#472=DIRECTION('',(0.,0.,1.));
#473=DIRECTION('',(1.,0.,0.));
#474=DIRECTION('',(1.,0.,0.));
#475=DIRECTION('',(1.,5.78290338571004E-16,-1.99238799077115E-18));
#476=DIRECTION('',(5.78293770755376E-16,-0.999994064799438,0.0034453397360489));
#477=DIRECTION('',(-1.,-5.78290338571004E-16,1.99238799077115E-18));
#478=DIRECTION('',(5.78290338571004E-16,-1.,0.));
#479=DIRECTION('',(1.,0.,0.));
#480=DIRECTION('',(0.,0.,-1.));
#481=DIRECTION('',(0.,-0.00149728363960258,0.999998879070223));
#482=DIRECTION('',(0.,-0.999998879070223,-0.00149728363960258));
#483=DIRECTION('',(-3.01691039300314E-16,0.,1.));
#484=DIRECTION('',(1.,0.,3.01691039300314E-16));
#485=DIRECTION('',(0.,-1.,0.));
#486=DIRECTION('',(0.,0.,-1.));
#487=DIRECTION('',(0.,-1.,0.));
#488=DIRECTION('',(0.,0.,-1.));
#489=DIRECTION('',(-1.,0.,-3.01691039300314E-16));
#490=DIRECTION('',(0.999992867479298,1.22463806432871E-16,0.00377690223997649));
#491=DIRECTION('',(0.,-1.,0.));
#492=DIRECTION('',(1.,0.,0.));
#493=DIRECTION('',(0.,-1.,0.));
#494=DIRECTION('',(1.,0.,0.));
#495=DIRECTION('',(-3.01691039300314E-16,0.,1.));
#496=DIRECTION('',(1.,0.,3.01691039300314E-16));
#497=DIRECTION('',(1.,0.,0.));
#498=DIRECTION('',(-1.,0.,-3.01691039300314E-16));
#499=DIRECTION('',(0.,1.,0.));
#500=DIRECTION('',(0.,-0.00149728363960258,0.999998879070223));
#501=DIRECTION('',(0.,-0.999998879070223,-0.00149728363960258));
#502=DIRECTION('',(0.,-0.00149728363960258,0.999998879070223));
#503=DIRECTION('',(0.,-0.999998879070223,-0.00149728363960258));
#504=DIRECTION('',(0.,1.,0.));
#505=DIRECTION('',(0.,0.,1.));
#506=DIRECTION('',(0.,1.,0.));
#507=DIRECTION('',(0.,-1.,0.));
#508=DIRECTION('',(1.,0.,0.));
#509=DIRECTION('',(0.,-1.,0.));
#510=DIRECTION('',(0.,0.,-1.));
#511=DIRECTION('',(0.,1.,0.));
#512=DIRECTION('',(1.,0.,0.));
#513=DIRECTION('',(0.,-1.,0.));
#514=DIRECTION('',(0.,0.,-1.));
#515=DIRECTION('',(0.,1.,0.));
#516=DIRECTION('',(0.,0.,1.));
#517=DIRECTION('',(0.,-1.,0.));
#518=DIRECTION('',(0.,0.,-1.));
#519=DIRECTION('',(1.22464679914735E-16,-1.,0.));
#520=DIRECTION('',(-1.,-1.22464679914735E-16,0.));
#521=DIRECTION('',(0.999992867479298,1.22463806432871E-16,0.00377690223997649));
#522=DIRECTION('',(0.,0.,1.));
#523=DIRECTION('',(0.,1.,0.));
#524=DIRECTION('',(0.,0.,1.));
#525=DIRECTION('',(1.22464679914735E-16,-1.,0.));
#526=DIRECTION('',(-1.,-1.22464679914735E-16,0.));
#527=DIRECTION('',(1.22464679914735E-16,-1.,0.));
#528=DIRECTION('',(1.,1.22464679914735E-16,0.));
#529=DIRECTION('',(1.22464679914735E-16,-1.,0.));
#530=DIRECTION('',(1.,1.22464679914735E-16,0.));
#531=DIRECTION('',(0.,-1.,0.));
#532=DIRECTION('',(0.,0.,-1.));
#533=DIRECTION('',(-0.00377690223997649,0.,0.999992867479298));
#534=DIRECTION('',(0.999992867479298,0.,0.00377690223997649));
#535=DIRECTION('',(-0.00377690223997649,0.,0.999992867479298));
#536=DIRECTION('',(0.999992867479298,0.,0.00377690223997649));
#537=DIRECTION('',(0.,-1.,0.));
#538=DIRECTION('',(0.,0.,-1.));
#539=DIRECTION('',(0.,0.,1.));
#540=DIRECTION('',(0.,0.,1.));
#541=DIRECTION('',(0.,0.,1.));
#542=DIRECTION('',(1.,0.,0.));
#543=DIRECTION('',(0.,0.,-1.));
#544=DIRECTION('',(-1.,0.,0.));
#545=DIRECTION('',(1.,0.,0.));
#546=DIRECTION('',(0.,0.,-1.));
#547=DIRECTION('',(-1.,-5.78290338571004E-16,1.99238799077115E-18));
#548=DIRECTION('',(5.78290338571004E-16,-1.,0.));
#549=DIRECTION('',(-1.,-5.78290338571004E-16,1.99238799077115E-18));
#550=DIRECTION('',(5.78290338571004E-16,-1.,0.));
#551=DIRECTION('',(1.,0.,0.));
#552=DIRECTION('',(0.,0.,-1.));
#553=DIRECTION('',(1.,0.,0.));
#554=DIRECTION('',(0.,-1.,0.));
#555=DIRECTION('',(-1.,0.,0.));
#556=DIRECTION('',(0.,0.,1.));
#557=DIRECTION('',(1.,0.,0.));
#558=DIRECTION('',(0.,-1.,0.));
#559=DIRECTION('',(-1.,0.,0.));
#560=DIRECTION('',(0.,0.,1.));
#561=DIRECTION('',(-1.,0.,0.));
#562=DIRECTION('',(0.,-1.,-9.54193331120356E-17));
#563=DIRECTION('',(1.,0.,0.));
#564=DIRECTION('',(0.,0.,-1.));
#565=DIRECTION('',(1.,5.78290338571004E-16,-1.99238799077115E-18));
#566=DIRECTION('',(-5.78290338571004E-16,1.,0.));
#567=DIRECTION('',(-1.,-5.78290338571004E-16,1.99238799077115E-18));
#568=DIRECTION('',(5.78290338571004E-16,-1.,0.));
#569=CARTESIAN_POINT('',(0.,0.,0.));
#570=CARTESIAN_POINT('',(-4.,-3.5,4.));
#571=CARTESIAN_POINT('',(-12.75,-0.5,4.));
#572=CARTESIAN_POINT('',(-12.75,0.5,4.));
#573=CARTESIAN_POINT('',(-12.75,9.55672899596186,4.));
#574=CARTESIAN_POINT('',(-20.75,9.55672899596238,4.));
#575=CARTESIAN_POINT('',(-15.4520153716608,9.55672899596238,4.));
#576=CARTESIAN_POINT('',(11.2474486909712,9.57621872285095,4.));
#577=CARTESIAN_POINT('',(-12.0307442155539,-3.5,4.));
#578=CARTESIAN_POINT('',(-4.,-3.5,4.));
#579=CARTESIAN_POINT('',(8.67361737988404E-16,-3.5,4.));
#580=CARTESIAN_POINT('',(8.67361737988404E-16,-3.5,4.));
#581=CARTESIAN_POINT('',(8.67361737988404E-16,9.62964972193618E-32,4.));
#582=CARTESIAN_POINT('',(-4.,-4.89858719658941E-16,4.));
#583=CARTESIAN_POINT('',(-3.13397459621556,-4.33680868994202E-16,4.));
#584=CARTESIAN_POINT('',(-3.13397459621556,-0.999999999999999,4.));
#585=CARTESIAN_POINT('',(-4.,-0.5,4.));
#586=CARTESIAN_POINT('',(-4.,-0.5,4.));
#587=CARTESIAN_POINT('',(-11.75,-0.5,4.));
#588=CARTESIAN_POINT('',(-11.75,0.5,4.));
#589=CARTESIAN_POINT('',(-12.75,0.,0.));
#590=CARTESIAN_POINT('',(-12.75,9.59,-2.38524477946811E-15));
#591=CARTESIAN_POINT('',(-12.75,9.59,-4.));
#592=CARTESIAN_POINT('',(-12.75,9.59689069992064,3.99999406477742));
#593=CARTESIAN_POINT('',(-12.75,9.57621872285087,4.7481463585028E-5));
#594=CARTESIAN_POINT('',(-12.75,0.5,-4.01510760885816));
#595=CARTESIAN_POINT('',(-12.75,0.499999999999999,-4.01361032354021));
#596=CARTESIAN_POINT('',(-12.75,9.59,-4.));
#597=CARTESIAN_POINT('',(-12.75,9.59,-2.38524477946811E-15));
#598=CARTESIAN_POINT('',(-16.75,9.59689069992064,3.99999406477742));
#599=CARTESIAN_POINT('',(-15.4520153716608,9.59689069992064,3.99999406477742));
#600=CARTESIAN_POINT('',(-15.75,9.59,-4.));
#601=CARTESIAN_POINT('',(-15.4520047014527,9.59,-4.));
#602=CARTESIAN_POINT('',(-15.4520047014527,9.59,-4.));
#603=CARTESIAN_POINT('',(-15.451459448792,10.6463569576029,-4.));
#604=CARTESIAN_POINT('',(-15.4503921041466,12.7171055013371,-3.13429228305762));
#605=CARTESIAN_POINT('',(-15.4497229193265,14.0242232723211,-0.00747171020099034));
#606=CARTESIAN_POINT('',(-15.450398663203,12.7259734459613,3.12754248586936));
#607=CARTESIAN_POINT('',(-15.4514701622588,10.6531580024706,3.99817445682301));
#608=CARTESIAN_POINT('',(-15.4520153716608,9.59689069992064,3.99999406477742));
#609=CARTESIAN_POINT('',(11.2474486909712,9.57621872285095,4.74814635847442E-5));
#610=CARTESIAN_POINT('',(-9.71397411968554,9.57621872285093,4.74814635847915E-5));
#611=CARTESIAN_POINT('',(-9.71397411968553,-7.43789703391583,4.74814635847915E-5));
#612=CARTESIAN_POINT('',(-15.4520153716608,9.57621872285087,4.7481463585028E-5));
#613=CARTESIAN_POINT('',(11.2474486909712,9.58220795268477,-4.00001166691804));
#614=CARTESIAN_POINT('',(-13.4752074584338,-0.5,-4.01510760885816));
#615=CARTESIAN_POINT('',(11.2474486909712,9.57621872285095,-4.01510760885815));
#616=CARTESIAN_POINT('',(-12.0281268066316,-3.5,-4.01510760885816));
#617=CARTESIAN_POINT('',(11.2474486909712,-3.5,4.74814635847442E-5));
#618=CARTESIAN_POINT('',(0.,-3.5,0.));
#619=CARTESIAN_POINT('',(-4.,-3.5,-4.01510760885816));
#620=CARTESIAN_POINT('',(-4.,-3.5,-4.01510760885816));
#621=CARTESIAN_POINT('',(-4.,-3.5,-4.01510760885816));
#622=CARTESIAN_POINT('',(-2.85300829627744E-5,-3.5,-3.99999999989825));
#623=CARTESIAN_POINT('',(0.,-3.5,0.));
#624=CARTESIAN_POINT('',(0.,-3.5,0.));
#625=CARTESIAN_POINT('',(2.,-3.5,0.));
#626=CARTESIAN_POINT('',(-4.,-0.5,-4.01510760885816));
#627=CARTESIAN_POINT('',(-15.75,-0.5,-4.01510760885816));
#628=CARTESIAN_POINT('',(-11.75,-0.5,-4.01510760885816));
#629=CARTESIAN_POINT('',(-4.,-0.5,-4.01510760885816));
#630=CARTESIAN_POINT('',(-4.,-0.5,-4.01510760885816));
#631=CARTESIAN_POINT('',(-4.,-3.5,-4.01510760885816));
#632=CARTESIAN_POINT('',(-15.75,9.59,-4.));
#633=CARTESIAN_POINT('',(-11.75,0.5,-4.01361032354021));
#634=CARTESIAN_POINT('',(0.,-3.5,0.));
#635=CARTESIAN_POINT('',(-2.85300829627744E-5,-3.5,-3.99999999989825));
#636=CARTESIAN_POINT('',(-2.85300829627744E-5,0.,-3.99999999989825));
#637=CARTESIAN_POINT('',(0.,0.,0.));
#638=CARTESIAN_POINT('',(0.,-3.,0.));
#639=CARTESIAN_POINT('',(0.,-3.,0.));
#640=CARTESIAN_POINT('',(0.785,-3.,0.));
#641=CARTESIAN_POINT('',(0.,-3.,0.));
#642=CARTESIAN_POINT('',(0.,-3.,-2.));
#643=CARTESIAN_POINT('',(0.,-3.5,0.));
#644=CARTESIAN_POINT('',(0.,0.,0.));
#645=CARTESIAN_POINT('',(0.,0.,0.));
#646=CARTESIAN_POINT('',(-2.,-2.44929359829471E-16,0.));
#647=CARTESIAN_POINT('',(-4.,-4.89858719658941E-16,-4.01510760885816));
#648=CARTESIAN_POINT('',(-3.13397459621556,0.,-4.01183669224085));
#649=CARTESIAN_POINT('',(-3.13397459621556,0.,0.));
#650=CARTESIAN_POINT('',(0.,-2.5,0.));
#651=CARTESIAN_POINT('',(0.,-2.5,0.));
#652=CARTESIAN_POINT('',(-2.,-2.5,0.));
#653=CARTESIAN_POINT('',(0.,-2.5,0.));
#654=CARTESIAN_POINT('',(0.,-2.5,0.));
#655=CARTESIAN_POINT('',(0.785,-2.5,0.));
#656=CARTESIAN_POINT('',(0.,3.88870364263219,0.));
#657=CARTESIAN_POINT('',(-4.,-3.5,-4.01510760885816));
#658=CARTESIAN_POINT('',(-3.13397459621556,-0.999999999999999,-4.01183669224085));
#659=CARTESIAN_POINT('',(-4.,-0.5,-0.00755380442907932));
#660=CARTESIAN_POINT('',(-11.75,-0.5,4.));
#661=CARTESIAN_POINT('',(-4.,-0.5,0.));
#662=CARTESIAN_POINT('',(-3.13397459621556,-0.999999999999999,0.));
#663=CARTESIAN_POINT('',(-11.75,0.5,-0.00755380442907932));
#664=CARTESIAN_POINT('',(-20.75,9.57621872285087,4.7481463585028E-5));
#665=CARTESIAN_POINT('',(-12.0336718621629,9.57621872285093,4.74814635847961E-5));
#666=CARTESIAN_POINT('',(-12.0336718621629,9.57621872285093,4.74814635847961E-5));
#667=CARTESIAN_POINT('',(-12.0336718621629,-9.32532063843603,4.74814635847961E-5));
#668=CARTESIAN_POINT('',(-15.75,9.57621872285087,4.7481463585028E-5));
#669=CARTESIAN_POINT('',(-15.75,9.57621872285087,4.7481463585028E-5));
#670=CARTESIAN_POINT('',(-15.75,7.32621872285087,4.7481463585028E-5));
#671=CARTESIAN_POINT('',(-15.75,9.57621872285087,4.7481463585028E-5));
#672=CARTESIAN_POINT('',(-20.75,9.57621872285087,4.7481463585028E-5));
#673=CARTESIAN_POINT('',(-20.75,7.32621872285087,4.7481463585028E-5));
#674=CARTESIAN_POINT('',(-20.75,9.57621872285087,4.7481463585028E-5));
#675=CARTESIAN_POINT('',(-20.75,9.57621872285087,4.7481463585028E-5));
#676=CARTESIAN_POINT('',(-20.75,5.57621872285087,4.74814635846464E-5));
#677=CARTESIAN_POINT('',(-20.75,9.57621872285087,4.7481463585028E-5));
#678=CARTESIAN_POINT('',(-18.4798872642278,9.57621872285093,4.7481463584809E-5));
#679=CARTESIAN_POINT('',(-18.4798872642278,13.5762187228509,4.7481463584809E-5));
#680=CARTESIAN_POINT('',(11.2470728757577,9.57621872285095,4.74814635847497E-5));
#681=MECHANICAL_DESIGN_GEOMETRIC_PRESENTATION_REPRESENTATION('',(#385),
#682);
#682=(
GEOMETRIC_REPRESENTATION_CONTEXT(3)
GLOBAL_UNCERTAINTY_ASSIGNED_CONTEXT((#683))
GLOBAL_UNIT_ASSIGNED_CONTEXT((#686,#685,#684))
REPRESENTATION_CONTEXT('Supporto2','TOP_LEVEL_ASSEMBLY_PART')
);
#683=UNCERTAINTY_MEASURE_WITH_UNIT(LENGTH_MEASURE(0.005),#686,
'DISTANCE_ACCURACY_VALUE','Maximum Tolerance applied to model');
#684=(
NAMED_UNIT(*)
SI_UNIT($,.STERADIAN.)
SOLID_ANGLE_UNIT()
);
#685=(
NAMED_UNIT(*)
PLANE_ANGLE_UNIT()
SI_UNIT($,.RADIAN.)
);
#686=(
LENGTH_UNIT()
NAMED_UNIT(*)
SI_UNIT(.MILLI.,.METRE.)
);
#687=PRODUCT_DEFINITION_SHAPE('','',#688);
#688=PRODUCT_DEFINITION('','',#690,#689);
#689=PRODUCT_DEFINITION_CONTEXT('',#696,'design');
#690=PRODUCT_DEFINITION_FORMATION_WITH_SPECIFIED_SOURCE('','',#692,
 .NOT_KNOWN.);
#691=PRODUCT_RELATED_PRODUCT_CATEGORY('','',(#692));
#692=PRODUCT('Supporto2','Supporto2','Supporto2',(#694));
#693=PRODUCT_CATEGORY('','');
#694=PRODUCT_CONTEXT('',#696,'mechanical');
#695=APPLICATION_PROTOCOL_DEFINITION('international standard',
'automotive_design',2010,#696);
#696=APPLICATION_CONTEXT(
'core data for automotive mechanical design processes');
ENDSEC;
END-ISO-10303-21;
